%TF.GenerationSoftware,KiCad,Pcbnew,(5.1.6)-1*%
%TF.CreationDate,2022-09-23T08:04:56-05:00*%
%TF.ProjectId,combined,636f6d62-696e-4656-942e-6b696361645f,rev?*%
%TF.SameCoordinates,Original*%
%TF.FileFunction,Copper,L2,Bot*%
%TF.FilePolarity,Positive*%
%FSLAX46Y46*%
G04 Gerber Fmt 4.6, Leading zero omitted, Abs format (unit mm)*
G04 Created by KiCad (PCBNEW (5.1.6)-1) date 2022-09-23 08:04:56*
%MOMM*%
%LPD*%
G01*
G04 APERTURE LIST*
%TA.AperFunction,ComponentPad*%
%ADD10C,2.200000*%
%TD*%
%TA.AperFunction,ComponentPad*%
%ADD11C,2.100000*%
%TD*%
%TA.AperFunction,ComponentPad*%
%ADD12C,2.000000*%
%TD*%
%TA.AperFunction,ViaPad*%
%ADD13C,6.000000*%
%TD*%
%TA.AperFunction,ViaPad*%
%ADD14C,5.000000*%
%TD*%
%TA.AperFunction,ViaPad*%
%ADD15C,2.200000*%
%TD*%
%TA.AperFunction,Conductor*%
%ADD16C,1.500000*%
%TD*%
%TA.AperFunction,Conductor*%
%ADD17C,2.200000*%
%TD*%
%TA.AperFunction,Conductor*%
%ADD18C,1.000000*%
%TD*%
%TA.AperFunction,Conductor*%
%ADD19C,0.250000*%
%TD*%
G04 APERTURE END LIST*
D10*
%TO.P,D2,2*%
%TO.N,N/C*%
X49890000Y66890000D03*
%TO.P,D2,1*%
X47350000Y66890000D03*
%TD*%
%TO.P,R2,1*%
%TO.N,N/C*%
X51160000Y74510000D03*
%TO.P,R2,2*%
%TO.N,GND*%
X43540000Y74510000D03*
%TD*%
%TO.P,D1,1*%
%TO.N,N/C*%
X47350000Y79590000D03*
%TO.P,D1,2*%
X49890000Y79590000D03*
%TD*%
%TO.P,J1,4*%
%TO.N,N/C*%
X52430000Y60540000D03*
%TO.P,J1,3*%
X49890000Y60540000D03*
%TO.P,J1,2*%
X47350000Y60540000D03*
%TO.P,J1,1*%
%TO.N,GND*%
X44810000Y60540000D03*
%TD*%
%TO.P,R1,2*%
%TO.N,N/C*%
X53700000Y71970000D03*
%TO.P,R1,1*%
%TO.N,GND*%
X46080000Y71970000D03*
%TD*%
%TO.P,C1,2*%
%TO.N,GND*%
X44810000Y63080000D03*
%TO.P,C1,1*%
%TO.N,N/C*%
X44810000Y65620000D03*
%TD*%
%TO.P,D1,2*%
%TO.N,N/C*%
X15890000Y79590000D03*
%TO.P,D1,1*%
X13350000Y79590000D03*
%TD*%
%TO.P,C1,1*%
%TO.N,N/C*%
X10810000Y65620000D03*
%TO.P,C1,2*%
%TO.N,GND*%
X10810000Y63080000D03*
%TD*%
%TO.P,J1,1*%
%TO.N,GND*%
X10810000Y60540000D03*
%TO.P,J1,2*%
%TO.N,N/C*%
X13350000Y60540000D03*
%TO.P,J1,3*%
X15890000Y60540000D03*
%TO.P,J1,4*%
X18430000Y60540000D03*
%TD*%
%TO.P,D2,1*%
%TO.N,N/C*%
X13350000Y66890000D03*
%TO.P,D2,2*%
X15890000Y66890000D03*
%TD*%
%TO.P,R2,2*%
%TO.N,GND*%
X9540000Y74510000D03*
%TO.P,R2,1*%
%TO.N,N/C*%
X17160000Y74510000D03*
%TD*%
%TO.P,R1,1*%
%TO.N,GND*%
X12080000Y71970000D03*
%TO.P,R1,2*%
%TO.N,N/C*%
X19700000Y71970000D03*
%TD*%
D11*
%TO.P,U1,1*%
%TO.N,VIN*%
X24070000Y40090000D03*
%TO.P,U1,2*%
%TO.N,GND*%
X26610000Y40090000D03*
%TO.P,U1,3*%
%TO.N,Net-(U1-Pad3)*%
X29150000Y40090000D03*
%TO.P,U1,4*%
%TO.N,+5V*%
X31690000Y40090000D03*
%TO.P,U1,5*%
%TO.N,L_SENS*%
X34230000Y40090000D03*
%TO.P,U1,6*%
%TO.N,L_IR*%
X36770000Y40090000D03*
%TO.P,U1,7*%
%TO.N,SCL*%
X39310000Y40090000D03*
%TO.P,U1,8*%
%TO.N,SDA*%
X41850000Y40090000D03*
%TO.P,U1,9*%
%TO.N,C_SENS*%
X44390000Y40090000D03*
%TO.P,U1,10*%
%TO.N,C_IR*%
X46930000Y40090000D03*
%TO.P,U1,11*%
%TO.N,Net-(U1-Pad11)*%
X49470000Y40090000D03*
%TO.P,U1,12*%
%TO.N,Net-(U1-Pad12)*%
X52010000Y40090000D03*
%TO.P,U1,13*%
%TO.N,R_SENS*%
X54550000Y40090000D03*
%TO.P,U1,14*%
%TO.N,+3V3*%
X57090000Y40090000D03*
%TO.P,U1,15*%
%TO.N,R_IR*%
X59630000Y40090000D03*
%TO.P,U1,16*%
%TO.N,BUT_2*%
X59630000Y24850000D03*
%TO.P,U1,17*%
%TO.N,BUT_1*%
X57090000Y24850000D03*
%TO.P,U1,18*%
%TO.N,LED*%
X54550000Y24850000D03*
%TO.P,U1,19*%
%TO.N,SWITCH*%
X52010000Y24850000D03*
%TO.P,U1,20*%
%TO.N,FLAG*%
X49470000Y24850000D03*
%TO.P,U1,21*%
%TO.N,WHEEL_4*%
X46930000Y24850000D03*
%TO.P,U1,22*%
%TO.N,WHEEL_3*%
X44390000Y24850000D03*
%TO.P,U1,23*%
%TO.N,WHEEL_2*%
X41850000Y24850000D03*
%TO.P,U1,24*%
%TO.N,WHEEL_1*%
X39310000Y24850000D03*
%TO.P,U1,25*%
%TO.N,LID*%
X36770000Y24850000D03*
%TO.P,U1,26*%
%TO.N,ARM*%
X34230000Y24850000D03*
%TO.P,U1,27*%
%TO.N,GND*%
X31690000Y24850000D03*
%TO.P,U1,28*%
%TO.N,Net-(U1-Pad28)*%
X29150000Y24850000D03*
%TO.P,U1,29*%
%TO.N,Net-(U1-Pad29)*%
X26610000Y24850000D03*
%TO.P,U1,30*%
%TO.N,Net-(U1-Pad30)*%
X24070000Y24850000D03*
%TD*%
D10*
%TO.P,J5,3*%
%TO.N,GND*%
X29620000Y12150000D03*
%TO.P,J5,2*%
%TO.N,VIN*%
X29620000Y14690000D03*
%TO.P,J5,1*%
%TO.N,ARM*%
X29620000Y17230000D03*
%TD*%
%TO.P,J2,4*%
%TO.N,L_IR*%
X34230000Y50250000D03*
%TO.P,J2,3*%
%TO.N,L_SENS*%
X31690000Y50250000D03*
%TO.P,J2,2*%
%TO.N,+5V*%
X29150000Y50250000D03*
%TO.P,J2,1*%
%TO.N,GND*%
X26610000Y50250000D03*
%TD*%
%TO.P,J14,1*%
%TO.N,GND*%
X16450000Y12150000D03*
%TO.P,J14,2*%
%TO.N,SWITCH*%
X18990000Y12150000D03*
%TD*%
%TO.P,J13,1*%
%TO.N,SDA*%
X11370000Y4530000D03*
%TO.P,J13,2*%
%TO.N,SCL*%
X8830000Y4530000D03*
%TO.P,J13,3*%
%TO.N,GND*%
X6290000Y4530000D03*
%TO.P,J13,4*%
%TO.N,+3V3*%
X3750000Y4530000D03*
%TD*%
%TO.P,J12,3*%
%TO.N,GND*%
X3750000Y12150000D03*
%TO.P,J12,2*%
%TO.N,LED*%
X6290000Y12150000D03*
%TO.P,J12,1*%
%TO.N,+5V*%
X8830000Y12150000D03*
%TD*%
%TO.P,J9,3*%
%TO.N,GND*%
X39780000Y12150000D03*
%TO.P,J9,2*%
%TO.N,VIN*%
X39780000Y14690000D03*
%TO.P,J9,1*%
%TO.N,WHEEL_3*%
X39780000Y17230000D03*
%TD*%
%TO.P,J1,1*%
%TO.N,GND*%
X18990000Y50250000D03*
%TO.P,J1,2*%
%TO.N,VIN*%
X21530000Y50250000D03*
%TD*%
D12*
%TO.P,SW1,*%
%TO.N,*%
X57440000Y2580000D03*
D10*
%TO.P,SW1,2*%
%TO.N,BUT_1*%
X59630000Y3840000D03*
%TO.P,SW1,1*%
%TO.N,GND*%
X59630000Y8340000D03*
D12*
%TO.P,SW1,*%
%TO.N,*%
X57440000Y9590000D03*
X56840000Y2580000D03*
X56840000Y9590000D03*
%TD*%
D10*
%TO.P,J10,1*%
%TO.N,WHEEL_4*%
X42320000Y17230000D03*
%TO.P,J10,2*%
%TO.N,VIN*%
X42320000Y14690000D03*
%TO.P,J10,3*%
%TO.N,GND*%
X42320000Y12150000D03*
%TD*%
D12*
%TO.P,SW2,*%
%TO.N,*%
X56840000Y19750000D03*
X56840000Y12740000D03*
X57440000Y19750000D03*
D10*
%TO.P,SW2,1*%
%TO.N,BUT_2*%
X59630000Y18500000D03*
%TO.P,SW2,2*%
%TO.N,GND*%
X59630000Y14000000D03*
D12*
%TO.P,SW2,*%
%TO.N,*%
X57440000Y12740000D03*
%TD*%
D10*
%TO.P,J8,1*%
%TO.N,WHEEL_2*%
X37240000Y17230000D03*
%TO.P,J8,2*%
%TO.N,VIN*%
X37240000Y14690000D03*
%TO.P,J8,3*%
%TO.N,GND*%
X37240000Y12150000D03*
%TD*%
%TO.P,J6,1*%
%TO.N,LID*%
X32160000Y17230000D03*
%TO.P,J6,2*%
%TO.N,VIN*%
X32160000Y14690000D03*
%TO.P,J6,3*%
%TO.N,GND*%
X32160000Y12150000D03*
%TD*%
%TO.P,J3,1*%
%TO.N,GND*%
X39310000Y50250000D03*
%TO.P,J3,2*%
%TO.N,+5V*%
X41850000Y50250000D03*
%TO.P,J3,3*%
%TO.N,C_SENS*%
X44390000Y50250000D03*
%TO.P,J3,4*%
%TO.N,C_IR*%
X46930000Y50250000D03*
%TD*%
%TO.P,J11,1*%
%TO.N,FLAG*%
X44860000Y17230000D03*
%TO.P,J11,2*%
%TO.N,VIN*%
X44860000Y14690000D03*
%TO.P,J11,3*%
%TO.N,GND*%
X44860000Y12150000D03*
%TD*%
%TO.P,J7,3*%
%TO.N,GND*%
X34700000Y12150000D03*
%TO.P,J7,2*%
%TO.N,VIN*%
X34700000Y14690000D03*
%TO.P,J7,1*%
%TO.N,WHEEL_1*%
X34700000Y17230000D03*
%TD*%
%TO.P,J4,4*%
%TO.N,R_IR*%
X59630000Y50250000D03*
%TO.P,J4,3*%
%TO.N,R_SENS*%
X57090000Y50250000D03*
%TO.P,J4,2*%
%TO.N,+5V*%
X54550000Y50250000D03*
%TO.P,J4,1*%
%TO.N,GND*%
X52010000Y50250000D03*
%TD*%
D13*
%TO.N,GND*%
X4000000Y71000000D03*
X26000000Y71000000D03*
X60000000Y71000000D03*
X38000000Y71000000D03*
D14*
X15000000Y45000000D03*
X20000000Y5000000D03*
X5000000Y22000000D03*
X50000000Y15000000D03*
X51000000Y45000000D03*
D15*
%TO.N,VIN*%
X25340000Y14690000D03*
X21530000Y40090000D03*
%TO.N,+5V*%
X41850000Y46440000D03*
X54550000Y46440000D03*
X29150000Y46440000D03*
X39310000Y46440000D03*
%TO.N,LED*%
X6100000Y15000000D03*
X17900000Y22000000D03*
%TO.N,+3V3*%
X16704000Y18373000D03*
X5274000Y8657500D03*
%TD*%
D16*
%TO.N,*%
X15890000Y60540000D02*
X15890000Y66890000D01*
X19700000Y75780000D02*
X15890000Y79590000D01*
X19700000Y71329825D02*
X19700000Y71970000D01*
X18430000Y70059825D02*
X19700000Y71329825D01*
X19700000Y71970000D02*
X19700000Y75780000D01*
X18430000Y60540000D02*
X18430000Y70059825D01*
X13839999Y67379999D02*
X13839999Y67874001D01*
X13350000Y66890000D02*
X13839999Y67379999D01*
X13839999Y67874001D02*
X17160000Y71194002D01*
X17160000Y71194002D02*
X17160000Y74510000D01*
X14620000Y73240000D02*
X13350000Y74510000D01*
X10810000Y67384002D02*
X14620000Y71194002D01*
X14620000Y71194002D02*
X14620000Y73240000D01*
X13350000Y63574002D02*
X11304002Y65620000D01*
X10810000Y66114002D02*
X10810000Y67384002D01*
X13350000Y74510000D02*
X13350000Y79590000D01*
X13350000Y60540000D02*
X13350000Y63574002D01*
X11304002Y65620000D02*
X10810000Y65620000D01*
X47839999Y67874001D02*
X51160000Y71194002D01*
X45304002Y65620000D02*
X44810000Y65620000D01*
X51160000Y71194002D02*
X51160000Y74510000D01*
X48620000Y73240000D02*
X47350000Y74510000D01*
X47350000Y63574002D02*
X45304002Y65620000D01*
X44810000Y66114002D02*
X44810000Y67384002D01*
X47839999Y67379999D02*
X47839999Y67874001D01*
X49890000Y60540000D02*
X49890000Y66890000D01*
X47350000Y74510000D02*
X47350000Y79590000D01*
X53700000Y75780000D02*
X49890000Y79590000D01*
X47350000Y60540000D02*
X47350000Y63574002D01*
X48620000Y71194002D02*
X48620000Y73240000D01*
X44810000Y67384002D02*
X48620000Y71194002D01*
X47350000Y66890000D02*
X47839999Y67379999D01*
X52430000Y70059825D02*
X53700000Y71329825D01*
X53700000Y71970000D02*
X53700000Y75780000D01*
X53700000Y71329825D02*
X53700000Y71970000D01*
X52430000Y60540000D02*
X52430000Y70059825D01*
D17*
%TO.N,L_IR*%
X34230000Y50250000D02*
X34230000Y45608252D01*
X34230000Y45608252D02*
X36770000Y43068252D01*
X36770000Y43068252D02*
X36770000Y40090000D01*
%TO.N,L_SENS*%
X34230000Y42214126D02*
X34230000Y40090000D01*
X31690000Y50250000D02*
X31690000Y44754126D01*
X31690000Y44754126D02*
X34230000Y42214126D01*
%TO.N,C_SENS*%
X44390000Y50250000D02*
X44390000Y40090000D01*
%TO.N,C_IR*%
X46930000Y50250000D02*
X46930000Y40090000D01*
%TO.N,R_IR*%
X59630000Y50250000D02*
X59630000Y40090000D01*
%TO.N,R_SENS*%
X57090000Y43900000D02*
X54550000Y41360000D01*
X57090000Y50250000D02*
X57090000Y43900000D01*
X54550000Y41360000D02*
X54550000Y40090000D01*
D16*
%TO.N,ARM*%
X29620000Y17230000D02*
X29620000Y18785634D01*
D18*
X29620000Y17230000D02*
X29620000Y17272930D01*
D16*
X29620000Y18785634D02*
X34230000Y23395634D01*
X34230000Y23395634D02*
X34230000Y24850000D01*
%TO.N,LID*%
X32160000Y17230000D02*
X32160000Y18921458D01*
X32160000Y18921458D02*
X36770000Y23531458D01*
X36770000Y23531458D02*
X36770000Y24850000D01*
%TO.N,WHEEL_1*%
X39310000Y23667282D02*
X39310000Y24850000D01*
X34700000Y17230000D02*
X34700000Y19057282D01*
X34700000Y19057282D02*
X39310000Y23667282D01*
%TO.N,WHEEL_2*%
X37240000Y17230000D02*
X37240000Y19193106D01*
X41850000Y23803106D02*
X41850000Y24850000D01*
D18*
X37240000Y17230000D02*
X37240000Y17354002D01*
D16*
X37240000Y19193106D02*
X41850000Y23803106D01*
D18*
%TO.N,WHEEL_3*%
X44390000Y24850000D02*
X44390000Y24215000D01*
X39780000Y17272930D02*
X39780000Y17230000D01*
D16*
X44390000Y23938930D02*
X44390000Y24850000D01*
X39780000Y19328930D02*
X44390000Y23938930D01*
X39780000Y17230000D02*
X39780000Y19328930D01*
%TO.N,WHEEL_4*%
X42320000Y17230000D02*
X42320000Y19464754D01*
X42320000Y19464754D02*
X46930000Y24074754D01*
X46930000Y24074754D02*
X46930000Y24850000D01*
%TO.N,FLAG*%
X49470000Y24210578D02*
X49470000Y24850000D01*
X44860000Y17230000D02*
X44860000Y19600578D01*
D18*
X44771000Y17319000D02*
X44860000Y17230000D01*
D16*
X44860000Y19600578D02*
X49470000Y24210578D01*
%TO.N,BUT_1*%
X57090000Y24850000D02*
X57090000Y24342000D01*
X59630000Y3840000D02*
X57416000Y6054000D01*
X57090000Y24850000D02*
X57090000Y22886002D01*
X54889999Y20686001D02*
X54889999Y8580001D01*
X57090000Y22886002D02*
X54889999Y20686001D01*
X54889999Y8580001D02*
X57416000Y6054000D01*
%TO.N,BUT_2*%
X59630000Y24850000D02*
X59630000Y18500000D01*
D17*
%TO.N,VIN*%
X44860000Y14690000D02*
X25340000Y14690000D01*
X21530000Y40090000D02*
X21530000Y40090000D01*
X25340000Y14690000D02*
X25340000Y14690000D01*
X24070000Y40090000D02*
X21530000Y40090000D01*
X21530000Y40090000D02*
X21530000Y50250000D01*
%TO.N,+5V*%
X41850000Y46440000D02*
X39310000Y46440000D01*
X16667980Y36349131D02*
X16667980Y36213308D01*
X30634924Y37550000D02*
X31690000Y38605076D01*
X41850000Y50250000D02*
X41850000Y46440000D01*
X10096480Y29641809D02*
X10096480Y13416480D01*
X17868849Y37550000D02*
X16667980Y36349131D01*
X31690000Y38605076D02*
X31690000Y40090000D01*
X10096480Y13416480D02*
X8830000Y12150000D01*
X17868849Y37550000D02*
X30634924Y37550000D01*
X16667980Y36213308D02*
X10096480Y29641809D01*
X54550000Y50250000D02*
X54550000Y46440000D01*
X29150000Y47710000D02*
X29150000Y43900000D01*
X29150000Y50250000D02*
X29150000Y47710000D01*
X29150000Y43900000D02*
X31690000Y41360000D01*
X31690000Y41360000D02*
X31690000Y40090000D01*
D16*
%TO.N,LED*%
X21022000Y30399960D02*
X20966312Y30399960D01*
X20966312Y30399960D02*
X17246520Y26680168D01*
X54550000Y25358000D02*
X54550000Y24850000D01*
X21022000Y30399960D02*
X49508040Y30399960D01*
X49508040Y30399960D02*
X54550000Y25358000D01*
X17246520Y26680168D02*
X17246520Y22653480D01*
X17246520Y22653480D02*
X17900000Y22000000D01*
X17900000Y22000000D02*
X17900000Y22000000D01*
X6290000Y14810000D02*
X6100000Y15000000D01*
X6290000Y12150000D02*
X6290000Y14810000D01*
%TO.N,SDA*%
X13846500Y7006500D02*
X11370000Y4530000D01*
X41850000Y38740899D02*
X36909081Y33799980D01*
X41850000Y40090000D02*
X41850000Y38740899D01*
X13846500Y28088501D02*
X13846500Y7006500D01*
X19557979Y33799980D02*
X13846500Y28088501D01*
X36909081Y33799980D02*
X19557979Y33799980D01*
%TO.N,SCL*%
X18717990Y35499990D02*
X18717990Y35364168D01*
X12146490Y7710666D02*
X11015825Y6580001D01*
X8830000Y5024002D02*
X8830000Y4530000D01*
X18717990Y35364168D02*
X12146490Y28792668D01*
X36204914Y35499990D02*
X18717990Y35499990D01*
X39310000Y38605076D02*
X36204914Y35499990D01*
X9324367Y6580001D02*
X8830000Y6085634D01*
X8830000Y6085634D02*
X8830000Y4530000D01*
X11015825Y6580001D02*
X9324367Y6580001D01*
X12146490Y28792668D02*
X12146490Y7710666D01*
X39310000Y40090000D02*
X39310000Y38605076D01*
%TO.N,+3V3*%
X20262146Y32099970D02*
X15620088Y27457913D01*
X56524914Y38039990D02*
X57090000Y38605076D01*
X20262146Y32099970D02*
X37613248Y32099970D01*
X57090000Y38605076D02*
X57090000Y40090000D01*
X43553268Y38039990D02*
X56524914Y38039990D01*
X3750000Y4530000D02*
X3750000Y7133500D01*
X15546510Y19530490D02*
X16704000Y18373000D01*
X15620088Y27457913D02*
X15546510Y27384335D01*
X15546510Y27384335D02*
X15546510Y19530490D01*
X16704000Y18373000D02*
X16704000Y18373000D01*
X3750000Y7133500D02*
X5274000Y8657500D01*
X37613248Y32099970D02*
X43553268Y38039990D01*
X5274000Y8657500D02*
X5274000Y8657500D01*
%TO.N,SWITCH*%
X52010000Y25270002D02*
X52010000Y24850000D01*
X20600000Y13760000D02*
X18990000Y12150000D01*
X48803874Y28699950D02*
X21670478Y28699950D01*
X20600000Y22800000D02*
X20600000Y13760000D01*
X18946530Y25976002D02*
X18946530Y24453470D01*
X18946530Y24453470D02*
X20600000Y22800000D01*
X52010000Y24850000D02*
X52010000Y25493824D01*
X52010000Y25493824D02*
X48803874Y28699950D01*
X21670478Y28699950D02*
X18946530Y25976002D01*
%TD*%
D19*
%TO.N,GND*%
G36*
X61550000Y450000D02*
G01*
X51450000Y450000D01*
X51450000Y9977895D01*
X51452177Y10000000D01*
X51443489Y10088215D01*
X51417757Y10173041D01*
X51375971Y10251216D01*
X51319737Y10319737D01*
X51251216Y10375971D01*
X51173041Y10417757D01*
X51088215Y10443489D01*
X51022105Y10450000D01*
X51022104Y10450000D01*
X51000000Y10452177D01*
X50977895Y10450000D01*
X25022105Y10450000D01*
X25000000Y10452177D01*
X24977896Y10450000D01*
X24977895Y10450000D01*
X24911785Y10443489D01*
X24826959Y10417757D01*
X24748784Y10375971D01*
X24680263Y10319737D01*
X24624029Y10251216D01*
X24582243Y10173041D01*
X24556511Y10088215D01*
X24547823Y10000000D01*
X24550001Y9977885D01*
X24550000Y450000D01*
X450000Y450000D01*
X450000Y4680199D01*
X2225000Y4680199D01*
X2225000Y4379801D01*
X2283605Y4085174D01*
X2398562Y3807642D01*
X2565455Y3557869D01*
X2777869Y3345455D01*
X3027642Y3178562D01*
X3305174Y3063605D01*
X3599801Y3005000D01*
X3900199Y3005000D01*
X4194826Y3063605D01*
X4472358Y3178562D01*
X4722131Y3345455D01*
X4934545Y3557869D01*
X5101438Y3807642D01*
X5216395Y4085174D01*
X5275000Y4379801D01*
X5275000Y4680199D01*
X5216395Y4974826D01*
X5101438Y5252358D01*
X4934545Y5502131D01*
X4925000Y5511676D01*
X4925000Y6646800D01*
X5410701Y7132500D01*
X5424199Y7132500D01*
X5718826Y7191105D01*
X5996358Y7306062D01*
X6246131Y7472955D01*
X6458545Y7685369D01*
X6625438Y7935142D01*
X6740395Y8212674D01*
X6799000Y8507301D01*
X6799000Y8807699D01*
X6740395Y9102326D01*
X6625438Y9379858D01*
X6458545Y9629631D01*
X6246131Y9842045D01*
X5996358Y10008938D01*
X5718826Y10123895D01*
X5424199Y10182500D01*
X5123801Y10182500D01*
X4829174Y10123895D01*
X4551642Y10008938D01*
X4301869Y9842045D01*
X4089455Y9629631D01*
X3922562Y9379858D01*
X3807605Y9102326D01*
X3749000Y8807699D01*
X3749000Y8794201D01*
X2959962Y8005162D01*
X2915131Y7968370D01*
X2878339Y7923539D01*
X2878336Y7923536D01*
X2768297Y7789453D01*
X2659189Y7585328D01*
X2592002Y7363840D01*
X2569316Y7133500D01*
X2575001Y7075778D01*
X2575000Y5511676D01*
X2565455Y5502131D01*
X2398562Y5252358D01*
X2283605Y4974826D01*
X2225000Y4680199D01*
X450000Y4680199D01*
X450000Y15150199D01*
X4575000Y15150199D01*
X4575000Y14849801D01*
X4633605Y14555174D01*
X4748562Y14277642D01*
X4915455Y14027869D01*
X5115001Y13828323D01*
X5115000Y13131676D01*
X5105455Y13122131D01*
X4938562Y12872358D01*
X4823605Y12594826D01*
X4765000Y12300199D01*
X4765000Y11999801D01*
X4823605Y11705174D01*
X4938562Y11427642D01*
X5105455Y11177869D01*
X5317869Y10965455D01*
X5567642Y10798562D01*
X5845174Y10683605D01*
X6139801Y10625000D01*
X6440199Y10625000D01*
X6734826Y10683605D01*
X7012358Y10798562D01*
X7262131Y10965455D01*
X7474545Y11177869D01*
X7555599Y11299174D01*
X7555875Y11298657D01*
X7603619Y11240480D01*
X7645455Y11177869D01*
X7698703Y11124621D01*
X7746446Y11066446D01*
X7804621Y11018703D01*
X7857869Y10965455D01*
X7920480Y10923619D01*
X7978657Y10875875D01*
X8045033Y10840396D01*
X8107642Y10798562D01*
X8177204Y10769748D01*
X8243585Y10734267D01*
X8315617Y10712416D01*
X8385174Y10683605D01*
X8459014Y10668917D01*
X8531048Y10647066D01*
X8605960Y10639688D01*
X8679801Y10625000D01*
X8755089Y10625000D01*
X8830000Y10617622D01*
X8904911Y10625000D01*
X8980199Y10625000D01*
X9054040Y10639688D01*
X9128952Y10647066D01*
X9200986Y10668917D01*
X9274826Y10683605D01*
X9344383Y10712416D01*
X9416415Y10734267D01*
X9482796Y10769748D01*
X9552358Y10798562D01*
X9614967Y10840396D01*
X9681343Y10875875D01*
X9739520Y10923620D01*
X9802131Y10965455D01*
X10014545Y11177869D01*
X10014549Y11177875D01*
X10971491Y12134816D01*
X10971491Y8197368D01*
X10529125Y7755001D01*
X9382079Y7755001D01*
X9324367Y7760685D01*
X9266655Y7755001D01*
X9266647Y7755001D01*
X9113572Y7739924D01*
X9094026Y7737999D01*
X8888968Y7675796D01*
X8872538Y7670812D01*
X8668414Y7561705D01*
X8489497Y7414871D01*
X8452703Y7370037D01*
X8039967Y6957301D01*
X7995130Y6920504D01*
X7848296Y6741586D01*
X7831388Y6709953D01*
X7739189Y6537462D01*
X7682221Y6349660D01*
X7672002Y6315973D01*
X7655000Y6143353D01*
X7655000Y6143346D01*
X7649316Y6085634D01*
X7655000Y6027922D01*
X7655000Y5511676D01*
X7645455Y5502131D01*
X7478562Y5252358D01*
X7363605Y4974826D01*
X7305000Y4680199D01*
X7305000Y4379801D01*
X7363605Y4085174D01*
X7478562Y3807642D01*
X7645455Y3557869D01*
X7857869Y3345455D01*
X8107642Y3178562D01*
X8385174Y3063605D01*
X8679801Y3005000D01*
X8980199Y3005000D01*
X9274826Y3063605D01*
X9552358Y3178562D01*
X9802131Y3345455D01*
X10014545Y3557869D01*
X10100000Y3685761D01*
X10185455Y3557869D01*
X10397869Y3345455D01*
X10647642Y3178562D01*
X10925174Y3063605D01*
X11219801Y3005000D01*
X11520199Y3005000D01*
X11814826Y3063605D01*
X12092358Y3178562D01*
X12342131Y3345455D01*
X12554545Y3557869D01*
X12721438Y3807642D01*
X12836395Y4085174D01*
X12895000Y4379801D01*
X12895000Y4393300D01*
X14636539Y6134838D01*
X14681370Y6171630D01*
X14755401Y6261836D01*
X14828203Y6350546D01*
X14937311Y6554671D01*
X15004498Y6776159D01*
X15014299Y6875670D01*
X15021500Y6948780D01*
X15021500Y6948788D01*
X15027184Y7006500D01*
X15021500Y7064212D01*
X15021500Y18393800D01*
X15179000Y18236300D01*
X15179000Y18222801D01*
X15237605Y17928174D01*
X15352562Y17650642D01*
X15519455Y17400869D01*
X15731869Y17188455D01*
X15981642Y17021562D01*
X16259174Y16906605D01*
X16553801Y16848000D01*
X16854199Y16848000D01*
X17148826Y16906605D01*
X17426358Y17021562D01*
X17676131Y17188455D01*
X17888545Y17400869D01*
X18055438Y17650642D01*
X18170395Y17928174D01*
X18229000Y18222801D01*
X18229000Y18523199D01*
X18170395Y18817826D01*
X18055438Y19095358D01*
X17888545Y19345131D01*
X17676131Y19557545D01*
X17426358Y19724438D01*
X17148826Y19839395D01*
X16854199Y19898000D01*
X16840700Y19898000D01*
X16721510Y20017190D01*
X16721510Y21021814D01*
X16927869Y20815455D01*
X17177642Y20648562D01*
X17455174Y20533605D01*
X17749801Y20475000D01*
X18050199Y20475000D01*
X18344826Y20533605D01*
X18622358Y20648562D01*
X18872131Y20815455D01*
X19084545Y21027869D01*
X19251438Y21277642D01*
X19366395Y21555174D01*
X19425000Y21849801D01*
X19425001Y14246702D01*
X18853300Y13675000D01*
X18839801Y13675000D01*
X18545174Y13616395D01*
X18267642Y13501438D01*
X18017869Y13334545D01*
X17805455Y13122131D01*
X17638562Y12872358D01*
X17523605Y12594826D01*
X17465000Y12300199D01*
X17465000Y11999801D01*
X17523605Y11705174D01*
X17638562Y11427642D01*
X17805455Y11177869D01*
X18017869Y10965455D01*
X18267642Y10798562D01*
X18545174Y10683605D01*
X18839801Y10625000D01*
X19140199Y10625000D01*
X19434826Y10683605D01*
X19712358Y10798562D01*
X19962131Y10965455D01*
X20174545Y11177869D01*
X20341438Y11427642D01*
X20456395Y11705174D01*
X20515000Y11999801D01*
X20515000Y12013300D01*
X21390039Y12888338D01*
X21434870Y12925130D01*
X21581704Y13104047D01*
X21690811Y13308171D01*
X21723482Y13415874D01*
X21757998Y13529659D01*
X21767813Y13629316D01*
X21775000Y13702280D01*
X21775000Y13702288D01*
X21780684Y13760000D01*
X21775000Y13817712D01*
X21775000Y22742288D01*
X21780684Y22800000D01*
X21775000Y22857712D01*
X21775000Y22857720D01*
X21757998Y23030340D01*
X21738976Y23093050D01*
X21690811Y23251829D01*
X21644797Y23337915D01*
X21581704Y23455953D01*
X21524920Y23525144D01*
X21471664Y23590037D01*
X21471662Y23590039D01*
X21434870Y23634870D01*
X21390040Y23671661D01*
X20121530Y24940170D01*
X20121530Y24995275D01*
X22595000Y24995275D01*
X22595000Y24704725D01*
X22651683Y24419758D01*
X22762872Y24151325D01*
X22924293Y23909742D01*
X23129742Y23704293D01*
X23371325Y23542872D01*
X23639758Y23431683D01*
X23924725Y23375000D01*
X24215275Y23375000D01*
X24500242Y23431683D01*
X24768675Y23542872D01*
X25010258Y23704293D01*
X25215707Y23909742D01*
X25340000Y24095759D01*
X25464293Y23909742D01*
X25669742Y23704293D01*
X25911325Y23542872D01*
X26179758Y23431683D01*
X26464725Y23375000D01*
X26755275Y23375000D01*
X27040242Y23431683D01*
X27308675Y23542872D01*
X27550258Y23704293D01*
X27755707Y23909742D01*
X27880000Y24095759D01*
X28004293Y23909742D01*
X28209742Y23704293D01*
X28451325Y23542872D01*
X28719758Y23431683D01*
X29004725Y23375000D01*
X29295275Y23375000D01*
X29580242Y23431683D01*
X29848675Y23542872D01*
X30090258Y23704293D01*
X30295707Y23909742D01*
X30457128Y24151325D01*
X30568317Y24419758D01*
X30625000Y24704725D01*
X30625000Y24995275D01*
X30568317Y25280242D01*
X30457128Y25548675D01*
X30295707Y25790258D01*
X30090258Y25995707D01*
X29848675Y26157128D01*
X29580242Y26268317D01*
X29295275Y26325000D01*
X29004725Y26325000D01*
X28719758Y26268317D01*
X28451325Y26157128D01*
X28209742Y25995707D01*
X28004293Y25790258D01*
X27880000Y25604241D01*
X27755707Y25790258D01*
X27550258Y25995707D01*
X27308675Y26157128D01*
X27040242Y26268317D01*
X26755275Y26325000D01*
X26464725Y26325000D01*
X26179758Y26268317D01*
X25911325Y26157128D01*
X25669742Y25995707D01*
X25464293Y25790258D01*
X25340000Y25604241D01*
X25215707Y25790258D01*
X25010258Y25995707D01*
X24768675Y26157128D01*
X24500242Y26268317D01*
X24215275Y26325000D01*
X23924725Y26325000D01*
X23639758Y26268317D01*
X23371325Y26157128D01*
X23129742Y25995707D01*
X22924293Y25790258D01*
X22762872Y25548675D01*
X22651683Y25280242D01*
X22595000Y24995275D01*
X20121530Y24995275D01*
X20121530Y25489302D01*
X22157179Y27524950D01*
X48317174Y27524950D01*
X49517124Y26325000D01*
X49324725Y26325000D01*
X49039758Y26268317D01*
X48771325Y26157128D01*
X48529742Y25995707D01*
X48324293Y25790258D01*
X48200000Y25604241D01*
X48075707Y25790258D01*
X47870258Y25995707D01*
X47628675Y26157128D01*
X47360242Y26268317D01*
X47075275Y26325000D01*
X46784725Y26325000D01*
X46499758Y26268317D01*
X46231325Y26157128D01*
X45989742Y25995707D01*
X45784293Y25790258D01*
X45660000Y25604241D01*
X45535707Y25790258D01*
X45330258Y25995707D01*
X45088675Y26157128D01*
X44820242Y26268317D01*
X44535275Y26325000D01*
X44244725Y26325000D01*
X43959758Y26268317D01*
X43691325Y26157128D01*
X43449742Y25995707D01*
X43244293Y25790258D01*
X43120000Y25604241D01*
X42995707Y25790258D01*
X42790258Y25995707D01*
X42548675Y26157128D01*
X42280242Y26268317D01*
X41995275Y26325000D01*
X41704725Y26325000D01*
X41419758Y26268317D01*
X41151325Y26157128D01*
X40909742Y25995707D01*
X40704293Y25790258D01*
X40580000Y25604241D01*
X40455707Y25790258D01*
X40250258Y25995707D01*
X40008675Y26157128D01*
X39740242Y26268317D01*
X39455275Y26325000D01*
X39164725Y26325000D01*
X38879758Y26268317D01*
X38611325Y26157128D01*
X38369742Y25995707D01*
X38164293Y25790258D01*
X38040000Y25604241D01*
X37915707Y25790258D01*
X37710258Y25995707D01*
X37468675Y26157128D01*
X37200242Y26268317D01*
X36915275Y26325000D01*
X36624725Y26325000D01*
X36339758Y26268317D01*
X36071325Y26157128D01*
X35829742Y25995707D01*
X35624293Y25790258D01*
X35500000Y25604241D01*
X35375707Y25790258D01*
X35170258Y25995707D01*
X34928675Y26157128D01*
X34660242Y26268317D01*
X34375275Y26325000D01*
X34084725Y26325000D01*
X33799758Y26268317D01*
X33531325Y26157128D01*
X33289742Y25995707D01*
X33084293Y25790258D01*
X32922872Y25548675D01*
X32811683Y25280242D01*
X32755000Y24995275D01*
X32755000Y24704725D01*
X32811683Y24419758D01*
X32922872Y24151325D01*
X33055000Y23953582D01*
X33055000Y23882335D01*
X28829962Y19657296D01*
X28785131Y19620504D01*
X28748339Y19575673D01*
X28748336Y19575670D01*
X28638297Y19441587D01*
X28529189Y19237462D01*
X28502279Y19148750D01*
X28462002Y19015974D01*
X28445000Y18843354D01*
X28445000Y18843346D01*
X28439316Y18785634D01*
X28445000Y18727922D01*
X28445000Y18211676D01*
X28435455Y18202131D01*
X28268562Y17952358D01*
X28153605Y17674826D01*
X28095000Y17380199D01*
X28095000Y17079801D01*
X28153605Y16785174D01*
X28268562Y16507642D01*
X28435455Y16257869D01*
X28478324Y16215000D01*
X25189801Y16215000D01*
X25115960Y16200312D01*
X25041048Y16192934D01*
X24969013Y16171083D01*
X24895174Y16156395D01*
X24825619Y16127585D01*
X24753584Y16105733D01*
X24687198Y16070249D01*
X24617642Y16041438D01*
X24555042Y15999610D01*
X24488656Y15964126D01*
X24430468Y15916373D01*
X24367869Y15874545D01*
X24314632Y15821308D01*
X24256445Y15773555D01*
X24208692Y15715368D01*
X24155455Y15662131D01*
X24113627Y15599532D01*
X24065874Y15541344D01*
X24030390Y15474958D01*
X23988562Y15412358D01*
X23959751Y15342802D01*
X23924267Y15276416D01*
X23902415Y15204381D01*
X23873605Y15134826D01*
X23858917Y15060987D01*
X23837066Y14988952D01*
X23829688Y14914040D01*
X23815000Y14840199D01*
X23815000Y14764911D01*
X23807622Y14690000D01*
X23815000Y14615089D01*
X23815000Y14539801D01*
X23829688Y14465960D01*
X23837066Y14391048D01*
X23858917Y14319013D01*
X23873605Y14245174D01*
X23902415Y14175619D01*
X23924267Y14103584D01*
X23959751Y14037198D01*
X23988562Y13967642D01*
X24030390Y13905042D01*
X24065874Y13838656D01*
X24113627Y13780468D01*
X24155455Y13717869D01*
X24208692Y13664632D01*
X24256445Y13606445D01*
X24314632Y13558692D01*
X24367869Y13505455D01*
X24430468Y13463627D01*
X24488656Y13415874D01*
X24555042Y13380390D01*
X24617642Y13338562D01*
X24687198Y13309751D01*
X24753584Y13274267D01*
X24825619Y13252415D01*
X24895174Y13223605D01*
X24969013Y13208917D01*
X25041048Y13187066D01*
X25115960Y13179688D01*
X25189801Y13165000D01*
X45010199Y13165000D01*
X45084040Y13179688D01*
X45158952Y13187066D01*
X45230987Y13208917D01*
X45304826Y13223605D01*
X45374381Y13252415D01*
X45446416Y13274267D01*
X45512802Y13309751D01*
X45582358Y13338562D01*
X45644958Y13380390D01*
X45711344Y13415874D01*
X45769532Y13463627D01*
X45832131Y13505455D01*
X45885368Y13558692D01*
X45943555Y13606445D01*
X45991308Y13664632D01*
X46044545Y13717869D01*
X46086373Y13780468D01*
X46134126Y13838656D01*
X46169610Y13905042D01*
X46211438Y13967642D01*
X46240249Y14037198D01*
X46275733Y14103584D01*
X46297585Y14175619D01*
X46326395Y14245174D01*
X46341083Y14319013D01*
X46362934Y14391048D01*
X46370312Y14465960D01*
X46385000Y14539801D01*
X46385000Y14615089D01*
X46392378Y14690000D01*
X46385000Y14764911D01*
X46385000Y14840199D01*
X46370312Y14914040D01*
X46362934Y14988952D01*
X46341083Y15060987D01*
X46326395Y15134826D01*
X46297585Y15204381D01*
X46275733Y15276416D01*
X46240249Y15342802D01*
X46211438Y15412358D01*
X46169610Y15474958D01*
X46134126Y15541344D01*
X46086373Y15599532D01*
X46044545Y15662131D01*
X45991308Y15715368D01*
X45943555Y15773555D01*
X45885368Y15821308D01*
X45832131Y15874545D01*
X45769532Y15916373D01*
X45711344Y15964126D01*
X45710827Y15964402D01*
X45832131Y16045455D01*
X46044545Y16257869D01*
X46211438Y16507642D01*
X46326395Y16785174D01*
X46385000Y17079801D01*
X46385000Y17380199D01*
X46326395Y17674826D01*
X46211438Y17952358D01*
X46044545Y18202131D01*
X46035000Y18211676D01*
X46035000Y19113878D01*
X50260040Y23338917D01*
X50304870Y23375708D01*
X50341662Y23420539D01*
X50341665Y23420542D01*
X50397313Y23488350D01*
X50451704Y23554625D01*
X50560811Y23758749D01*
X50586797Y23844415D01*
X50602654Y23896689D01*
X50615707Y23909742D01*
X50740000Y24095759D01*
X50864293Y23909742D01*
X51069742Y23704293D01*
X51311325Y23542872D01*
X51579758Y23431683D01*
X51864725Y23375000D01*
X52155275Y23375000D01*
X52440242Y23431683D01*
X52708675Y23542872D01*
X52950258Y23704293D01*
X53155707Y23909742D01*
X53280000Y24095759D01*
X53404293Y23909742D01*
X53609742Y23704293D01*
X53851325Y23542872D01*
X54119758Y23431683D01*
X54404725Y23375000D01*
X54695275Y23375000D01*
X54980242Y23431683D01*
X55248675Y23542872D01*
X55490258Y23704293D01*
X55695707Y23909742D01*
X55820000Y24095759D01*
X55915000Y23953581D01*
X55915001Y23372704D01*
X54099965Y21557667D01*
X54055129Y21520871D01*
X53908296Y21341954D01*
X53799188Y21137829D01*
X53762929Y21018296D01*
X53732001Y20916340D01*
X53714999Y20743720D01*
X53714999Y20743713D01*
X53709315Y20686001D01*
X53714999Y20628289D01*
X53715000Y8637723D01*
X53709315Y8580001D01*
X53732001Y8349661D01*
X53799188Y8128173D01*
X53908296Y7924048D01*
X54018335Y7789965D01*
X54018338Y7789962D01*
X54055130Y7745131D01*
X54099961Y7708339D01*
X56625963Y5182336D01*
X56625968Y5182332D01*
X57859762Y3948538D01*
X57855657Y3950238D01*
X57580350Y4005000D01*
X57299650Y4005000D01*
X57140000Y3973244D01*
X56980350Y4005000D01*
X56699650Y4005000D01*
X56424343Y3950238D01*
X56165009Y3842819D01*
X55931615Y3686870D01*
X55733130Y3488385D01*
X55577181Y3254991D01*
X55469762Y2995657D01*
X55415000Y2720350D01*
X55415000Y2439650D01*
X55469762Y2164343D01*
X55577181Y1905009D01*
X55733130Y1671615D01*
X55931615Y1473130D01*
X56165009Y1317181D01*
X56424343Y1209762D01*
X56699650Y1155000D01*
X56980350Y1155000D01*
X57140000Y1186756D01*
X57299650Y1155000D01*
X57580350Y1155000D01*
X57855657Y1209762D01*
X58114991Y1317181D01*
X58348385Y1473130D01*
X58546870Y1671615D01*
X58702819Y1905009D01*
X58810238Y2164343D01*
X58865000Y2439650D01*
X58865000Y2517054D01*
X58907642Y2488562D01*
X59185174Y2373605D01*
X59479801Y2315000D01*
X59780199Y2315000D01*
X60074826Y2373605D01*
X60352358Y2488562D01*
X60602131Y2655455D01*
X60814545Y2867869D01*
X60981438Y3117642D01*
X61096395Y3395174D01*
X61155000Y3689801D01*
X61155000Y3990199D01*
X61096395Y4284826D01*
X60981438Y4562358D01*
X60814545Y4812131D01*
X60602131Y5024545D01*
X60352358Y5191438D01*
X60074826Y5306395D01*
X59780199Y5365000D01*
X59766701Y5365000D01*
X58287668Y6844032D01*
X58287664Y6844037D01*
X56966700Y8165000D01*
X56980350Y8165000D01*
X57140000Y8196756D01*
X57299650Y8165000D01*
X57580350Y8165000D01*
X57855657Y8219762D01*
X58114991Y8327181D01*
X58348385Y8483130D01*
X58546870Y8681615D01*
X58702819Y8915009D01*
X58810238Y9174343D01*
X58865000Y9449650D01*
X58865000Y9730350D01*
X58810238Y10005657D01*
X58702819Y10264991D01*
X58546870Y10498385D01*
X58348385Y10696870D01*
X58114991Y10852819D01*
X57855657Y10960238D01*
X57580350Y11015000D01*
X57299650Y11015000D01*
X57140000Y10983244D01*
X56980350Y11015000D01*
X56699650Y11015000D01*
X56424343Y10960238D01*
X56165009Y10852819D01*
X56064999Y10785994D01*
X56064999Y11544006D01*
X56165009Y11477181D01*
X56424343Y11369762D01*
X56699650Y11315000D01*
X56980350Y11315000D01*
X57140000Y11346756D01*
X57299650Y11315000D01*
X57580350Y11315000D01*
X57855657Y11369762D01*
X58114991Y11477181D01*
X58348385Y11633130D01*
X58546870Y11831615D01*
X58702819Y12065009D01*
X58810238Y12324343D01*
X58865000Y12599650D01*
X58865000Y12880350D01*
X58810238Y13155657D01*
X58702819Y13414991D01*
X58546870Y13648385D01*
X58348385Y13846870D01*
X58114991Y14002819D01*
X57855657Y14110238D01*
X57580350Y14165000D01*
X57299650Y14165000D01*
X57140000Y14133244D01*
X56980350Y14165000D01*
X56699650Y14165000D01*
X56424343Y14110238D01*
X56165009Y14002819D01*
X56064999Y13935994D01*
X56064999Y18554006D01*
X56165009Y18487181D01*
X56424343Y18379762D01*
X56699650Y18325000D01*
X56980350Y18325000D01*
X57140000Y18356756D01*
X57299650Y18325000D01*
X57580350Y18325000D01*
X57855657Y18379762D01*
X58105000Y18483043D01*
X58105000Y18349801D01*
X58163605Y18055174D01*
X58278562Y17777642D01*
X58445455Y17527869D01*
X58657869Y17315455D01*
X58907642Y17148562D01*
X59185174Y17033605D01*
X59479801Y16975000D01*
X59780199Y16975000D01*
X60074826Y17033605D01*
X60352358Y17148562D01*
X60602131Y17315455D01*
X60814545Y17527869D01*
X60981438Y17777642D01*
X61096395Y18055174D01*
X61155000Y18349801D01*
X61155000Y18650199D01*
X61096395Y18944826D01*
X60981438Y19222358D01*
X60814545Y19472131D01*
X60805000Y19481676D01*
X60805000Y23953582D01*
X60937128Y24151325D01*
X61048317Y24419758D01*
X61105000Y24704725D01*
X61105000Y24995275D01*
X61048317Y25280242D01*
X60937128Y25548675D01*
X60775707Y25790258D01*
X60570258Y25995707D01*
X60328675Y26157128D01*
X60060242Y26268317D01*
X59775275Y26325000D01*
X59484725Y26325000D01*
X59199758Y26268317D01*
X58931325Y26157128D01*
X58689742Y25995707D01*
X58484293Y25790258D01*
X58360000Y25604241D01*
X58235707Y25790258D01*
X58030258Y25995707D01*
X57788675Y26157128D01*
X57520242Y26268317D01*
X57235275Y26325000D01*
X56944725Y26325000D01*
X56659758Y26268317D01*
X56391325Y26157128D01*
X56149742Y25995707D01*
X55944293Y25790258D01*
X55820000Y25604241D01*
X55695707Y25790258D01*
X55600248Y25885717D01*
X55531704Y26013953D01*
X55494720Y26059018D01*
X55421664Y26148037D01*
X55421662Y26148039D01*
X55384870Y26192870D01*
X55340040Y26229661D01*
X50379707Y31189993D01*
X50342910Y31234830D01*
X50163993Y31381664D01*
X49959869Y31490771D01*
X49738380Y31557958D01*
X49565760Y31574960D01*
X49565752Y31574960D01*
X49508040Y31580644D01*
X49450328Y31574960D01*
X38749938Y31574960D01*
X44039969Y36864990D01*
X56467202Y36864990D01*
X56524914Y36859306D01*
X56582626Y36864990D01*
X56582634Y36864990D01*
X56755254Y36881992D01*
X56976743Y36949179D01*
X57180867Y37058286D01*
X57359784Y37205120D01*
X57396581Y37249957D01*
X57880035Y37733411D01*
X57924870Y37770206D01*
X58071704Y37949123D01*
X58180811Y38153247D01*
X58227185Y38306124D01*
X58247998Y38374735D01*
X58255625Y38452177D01*
X58265000Y38547356D01*
X58265000Y38547363D01*
X58270684Y38605075D01*
X58265000Y38662787D01*
X58265000Y39193582D01*
X58328873Y39289174D01*
X58355875Y39238656D01*
X58546446Y39006445D01*
X58778657Y38815874D01*
X59043585Y38674267D01*
X59331049Y38587066D01*
X59630000Y38557622D01*
X59928952Y38587066D01*
X60216416Y38674267D01*
X60481344Y38815874D01*
X60713555Y39006445D01*
X60904126Y39238656D01*
X61045733Y39503584D01*
X61132934Y39791048D01*
X61155000Y40015089D01*
X61155000Y50400199D01*
X61140312Y50474040D01*
X61132934Y50548952D01*
X61111083Y50620987D01*
X61096395Y50694826D01*
X61067585Y50764381D01*
X61045733Y50836416D01*
X61010249Y50902802D01*
X60981438Y50972358D01*
X60939610Y51034958D01*
X60904126Y51101344D01*
X60856373Y51159532D01*
X60814545Y51222131D01*
X60761308Y51275368D01*
X60713555Y51333555D01*
X60655370Y51381306D01*
X60602131Y51434545D01*
X60539528Y51476375D01*
X60481343Y51524126D01*
X60414962Y51559608D01*
X60352358Y51601438D01*
X60282798Y51630251D01*
X60216415Y51665733D01*
X60144384Y51687583D01*
X60074826Y51716395D01*
X60000984Y51731083D01*
X59928951Y51752934D01*
X59854040Y51760312D01*
X59780199Y51775000D01*
X59704910Y51775000D01*
X59630000Y51782378D01*
X59555089Y51775000D01*
X59479801Y51775000D01*
X59405960Y51760312D01*
X59331048Y51752934D01*
X59259013Y51731083D01*
X59185174Y51716395D01*
X59115619Y51687585D01*
X59043584Y51665733D01*
X58977198Y51630249D01*
X58907642Y51601438D01*
X58845042Y51559610D01*
X58778656Y51524126D01*
X58720468Y51476373D01*
X58657869Y51434545D01*
X58604632Y51381308D01*
X58546445Y51333555D01*
X58498694Y51275370D01*
X58445455Y51222131D01*
X58403625Y51159528D01*
X58360000Y51106371D01*
X58316373Y51159532D01*
X58274545Y51222131D01*
X58221308Y51275368D01*
X58173555Y51333555D01*
X58115370Y51381306D01*
X58062131Y51434545D01*
X57999528Y51476375D01*
X57941343Y51524126D01*
X57874962Y51559608D01*
X57812358Y51601438D01*
X57742798Y51630251D01*
X57676415Y51665733D01*
X57604384Y51687583D01*
X57534826Y51716395D01*
X57460984Y51731083D01*
X57388951Y51752934D01*
X57314040Y51760312D01*
X57240199Y51775000D01*
X57164910Y51775000D01*
X57090000Y51782378D01*
X57015089Y51775000D01*
X56939801Y51775000D01*
X56865960Y51760312D01*
X56791048Y51752934D01*
X56719013Y51731083D01*
X56645174Y51716395D01*
X56575619Y51687585D01*
X56503584Y51665733D01*
X56437198Y51630249D01*
X56367642Y51601438D01*
X56305042Y51559610D01*
X56238656Y51524126D01*
X56180468Y51476373D01*
X56117869Y51434545D01*
X56064632Y51381308D01*
X56006445Y51333555D01*
X55958694Y51275370D01*
X55905455Y51222131D01*
X55863625Y51159528D01*
X55820000Y51106371D01*
X55776373Y51159532D01*
X55734545Y51222131D01*
X55681308Y51275368D01*
X55633555Y51333555D01*
X55575370Y51381306D01*
X55522131Y51434545D01*
X55459528Y51476375D01*
X55401343Y51524126D01*
X55334962Y51559608D01*
X55272358Y51601438D01*
X55202798Y51630251D01*
X55136415Y51665733D01*
X55064384Y51687583D01*
X54994826Y51716395D01*
X54920984Y51731083D01*
X54848951Y51752934D01*
X54774040Y51760312D01*
X54700199Y51775000D01*
X54624910Y51775000D01*
X54550000Y51782378D01*
X54475089Y51775000D01*
X54399801Y51775000D01*
X54325960Y51760312D01*
X54251048Y51752934D01*
X54179013Y51731083D01*
X54105174Y51716395D01*
X54035619Y51687585D01*
X53963584Y51665733D01*
X53897198Y51630249D01*
X53827642Y51601438D01*
X53765042Y51559610D01*
X53698656Y51524126D01*
X53640468Y51476373D01*
X53577869Y51434545D01*
X53524632Y51381308D01*
X53466445Y51333555D01*
X53418694Y51275370D01*
X53365455Y51222131D01*
X53323625Y51159528D01*
X53275874Y51101343D01*
X53240392Y51034962D01*
X53198562Y50972358D01*
X53169749Y50902798D01*
X53134267Y50836415D01*
X53112417Y50764384D01*
X53083605Y50694826D01*
X53068917Y50620984D01*
X53047066Y50548951D01*
X53039688Y50474040D01*
X53025000Y50400199D01*
X53025000Y50324910D01*
X53025001Y46590204D01*
X53025000Y46590199D01*
X53025000Y46289801D01*
X53039690Y46215951D01*
X53047067Y46141048D01*
X53068916Y46069023D01*
X53083605Y45995174D01*
X53112419Y45925610D01*
X53134268Y45853584D01*
X53169748Y45787206D01*
X53198562Y45717642D01*
X53240395Y45655035D01*
X53275875Y45588656D01*
X53323623Y45530475D01*
X53365455Y45467869D01*
X53418698Y45414626D01*
X53466446Y45356445D01*
X53524627Y45308697D01*
X53577869Y45255455D01*
X53640474Y45213624D01*
X53698657Y45165874D01*
X53765038Y45130392D01*
X53827642Y45088562D01*
X53897202Y45059749D01*
X53963585Y45024267D01*
X54035616Y45002417D01*
X54105174Y44973605D01*
X54179016Y44958917D01*
X54251049Y44937066D01*
X54325960Y44929688D01*
X54399801Y44915000D01*
X54475090Y44915000D01*
X54550000Y44907622D01*
X54624911Y44915000D01*
X54700199Y44915000D01*
X54774040Y44929688D01*
X54848952Y44937066D01*
X54920987Y44958917D01*
X54994826Y44973605D01*
X55064381Y45002415D01*
X55136416Y45024267D01*
X55202802Y45059751D01*
X55272358Y45088562D01*
X55334958Y45130390D01*
X55401344Y45165874D01*
X55459532Y45213627D01*
X55522131Y45255455D01*
X55565001Y45298325D01*
X55565001Y44531677D01*
X53524642Y42491316D01*
X53466445Y42443555D01*
X53275874Y42211343D01*
X53154730Y41984698D01*
X53134267Y41946415D01*
X53047066Y41658952D01*
X53017622Y41360000D01*
X53025000Y41285089D01*
X53025000Y41160965D01*
X52950258Y41235707D01*
X52708675Y41397128D01*
X52440242Y41508317D01*
X52155275Y41565000D01*
X51864725Y41565000D01*
X51579758Y41508317D01*
X51311325Y41397128D01*
X51069742Y41235707D01*
X50864293Y41030258D01*
X50740000Y40844241D01*
X50615707Y41030258D01*
X50410258Y41235707D01*
X50168675Y41397128D01*
X49900242Y41508317D01*
X49615275Y41565000D01*
X49324725Y41565000D01*
X49039758Y41508317D01*
X48771325Y41397128D01*
X48529742Y41235707D01*
X48455000Y41160965D01*
X48455000Y50400199D01*
X48440312Y50474040D01*
X48432934Y50548952D01*
X48411083Y50620987D01*
X48396395Y50694826D01*
X48367585Y50764381D01*
X48345733Y50836416D01*
X48310249Y50902802D01*
X48281438Y50972358D01*
X48239610Y51034958D01*
X48204126Y51101344D01*
X48156373Y51159532D01*
X48114545Y51222131D01*
X48061308Y51275368D01*
X48013555Y51333555D01*
X47955370Y51381306D01*
X47902131Y51434545D01*
X47839528Y51476375D01*
X47781343Y51524126D01*
X47714962Y51559608D01*
X47652358Y51601438D01*
X47582798Y51630251D01*
X47516415Y51665733D01*
X47444384Y51687583D01*
X47374826Y51716395D01*
X47300984Y51731083D01*
X47228951Y51752934D01*
X47154040Y51760312D01*
X47080199Y51775000D01*
X47004910Y51775000D01*
X46930000Y51782378D01*
X46855089Y51775000D01*
X46779801Y51775000D01*
X46705960Y51760312D01*
X46631048Y51752934D01*
X46559013Y51731083D01*
X46485174Y51716395D01*
X46415619Y51687585D01*
X46343584Y51665733D01*
X46277198Y51630249D01*
X46207642Y51601438D01*
X46145042Y51559610D01*
X46078656Y51524126D01*
X46020468Y51476373D01*
X45957869Y51434545D01*
X45904632Y51381308D01*
X45846445Y51333555D01*
X45798694Y51275370D01*
X45745455Y51222131D01*
X45703625Y51159528D01*
X45660000Y51106371D01*
X45616373Y51159532D01*
X45574545Y51222131D01*
X45521308Y51275368D01*
X45473555Y51333555D01*
X45415370Y51381306D01*
X45362131Y51434545D01*
X45299528Y51476375D01*
X45241343Y51524126D01*
X45174962Y51559608D01*
X45112358Y51601438D01*
X45042798Y51630251D01*
X44976415Y51665733D01*
X44904384Y51687583D01*
X44834826Y51716395D01*
X44760984Y51731083D01*
X44688951Y51752934D01*
X44614040Y51760312D01*
X44540199Y51775000D01*
X44464910Y51775000D01*
X44390000Y51782378D01*
X44315089Y51775000D01*
X44239801Y51775000D01*
X44165960Y51760312D01*
X44091048Y51752934D01*
X44019013Y51731083D01*
X43945174Y51716395D01*
X43875619Y51687585D01*
X43803584Y51665733D01*
X43737198Y51630249D01*
X43667642Y51601438D01*
X43605042Y51559610D01*
X43538656Y51524126D01*
X43480468Y51476373D01*
X43417869Y51434545D01*
X43364632Y51381308D01*
X43306445Y51333555D01*
X43258694Y51275370D01*
X43205455Y51222131D01*
X43163625Y51159528D01*
X43120000Y51106371D01*
X43076373Y51159532D01*
X43034545Y51222131D01*
X42981308Y51275368D01*
X42933555Y51333555D01*
X42875370Y51381306D01*
X42822131Y51434545D01*
X42759528Y51476375D01*
X42701343Y51524126D01*
X42634962Y51559608D01*
X42572358Y51601438D01*
X42502798Y51630251D01*
X42436415Y51665733D01*
X42364384Y51687583D01*
X42294826Y51716395D01*
X42220984Y51731083D01*
X42148951Y51752934D01*
X42074040Y51760312D01*
X42000199Y51775000D01*
X41924910Y51775000D01*
X41850000Y51782378D01*
X41775089Y51775000D01*
X41699801Y51775000D01*
X41625960Y51760312D01*
X41551048Y51752934D01*
X41479013Y51731083D01*
X41405174Y51716395D01*
X41335619Y51687585D01*
X41263584Y51665733D01*
X41197198Y51630249D01*
X41127642Y51601438D01*
X41065042Y51559610D01*
X40998656Y51524126D01*
X40940468Y51476373D01*
X40877869Y51434545D01*
X40824632Y51381308D01*
X40766445Y51333555D01*
X40718694Y51275370D01*
X40665455Y51222131D01*
X40623625Y51159528D01*
X40575874Y51101343D01*
X40540392Y51034962D01*
X40498562Y50972358D01*
X40469749Y50902798D01*
X40434267Y50836415D01*
X40412417Y50764384D01*
X40383605Y50694826D01*
X40368917Y50620984D01*
X40347066Y50548951D01*
X40339688Y50474040D01*
X40325000Y50400199D01*
X40325000Y50324910D01*
X40325001Y47965000D01*
X39159801Y47965000D01*
X39085960Y47950312D01*
X39011048Y47942934D01*
X38939013Y47921083D01*
X38865174Y47906395D01*
X38795619Y47877585D01*
X38723584Y47855733D01*
X38657198Y47820249D01*
X38587642Y47791438D01*
X38525042Y47749610D01*
X38458656Y47714126D01*
X38400468Y47666373D01*
X38337869Y47624545D01*
X38284632Y47571308D01*
X38226445Y47523555D01*
X38178692Y47465368D01*
X38125455Y47412131D01*
X38083627Y47349532D01*
X38035874Y47291344D01*
X38000390Y47224958D01*
X37958562Y47162358D01*
X37929751Y47092802D01*
X37894267Y47026416D01*
X37872415Y46954381D01*
X37843605Y46884826D01*
X37828917Y46810987D01*
X37807066Y46738952D01*
X37799688Y46664040D01*
X37785000Y46590199D01*
X37785000Y46514911D01*
X37777622Y46440000D01*
X37785000Y46365089D01*
X37785000Y46289801D01*
X37799688Y46215960D01*
X37807066Y46141048D01*
X37828917Y46069013D01*
X37843605Y45995174D01*
X37872415Y45925619D01*
X37894267Y45853584D01*
X37929751Y45787198D01*
X37958562Y45717642D01*
X38000390Y45655042D01*
X38035874Y45588656D01*
X38083627Y45530468D01*
X38125455Y45467869D01*
X38178692Y45414632D01*
X38226445Y45356445D01*
X38284632Y45308692D01*
X38337869Y45255455D01*
X38400468Y45213627D01*
X38458656Y45165874D01*
X38525042Y45130390D01*
X38587642Y45088562D01*
X38657198Y45059751D01*
X38723584Y45024267D01*
X38795619Y45002415D01*
X38865174Y44973605D01*
X38939013Y44958917D01*
X39011048Y44937066D01*
X39085960Y44929688D01*
X39159801Y44915000D01*
X41775090Y44915000D01*
X41850000Y44907622D01*
X41924911Y44915000D01*
X42000199Y44915000D01*
X42074040Y44929688D01*
X42148952Y44937066D01*
X42220987Y44958917D01*
X42294826Y44973605D01*
X42364381Y45002415D01*
X42436416Y45024267D01*
X42502802Y45059751D01*
X42572358Y45088562D01*
X42634958Y45130390D01*
X42701344Y45165874D01*
X42759532Y45213627D01*
X42822131Y45255455D01*
X42865000Y45298324D01*
X42865001Y41160964D01*
X42790258Y41235707D01*
X42548675Y41397128D01*
X42280242Y41508317D01*
X41995275Y41565000D01*
X41704725Y41565000D01*
X41419758Y41508317D01*
X41151325Y41397128D01*
X40909742Y41235707D01*
X40704293Y41030258D01*
X40580000Y40844241D01*
X40455707Y41030258D01*
X40250258Y41235707D01*
X40008675Y41397128D01*
X39740242Y41508317D01*
X39455275Y41565000D01*
X39164725Y41565000D01*
X38879758Y41508317D01*
X38611325Y41397128D01*
X38369742Y41235707D01*
X38295000Y41160965D01*
X38295000Y42993353D01*
X38302377Y43068253D01*
X38295000Y43143153D01*
X38295000Y43143163D01*
X38272934Y43367204D01*
X38185733Y43654668D01*
X38044126Y43919596D01*
X37853555Y44151807D01*
X37795369Y44199559D01*
X35755000Y46239926D01*
X35755000Y50400199D01*
X35740312Y50474040D01*
X35732934Y50548952D01*
X35711083Y50620987D01*
X35696395Y50694826D01*
X35667585Y50764381D01*
X35645733Y50836416D01*
X35610249Y50902802D01*
X35581438Y50972358D01*
X35539610Y51034958D01*
X35504126Y51101344D01*
X35456373Y51159532D01*
X35414545Y51222131D01*
X35361308Y51275368D01*
X35313555Y51333555D01*
X35255370Y51381306D01*
X35202131Y51434545D01*
X35139528Y51476375D01*
X35081343Y51524126D01*
X35014962Y51559608D01*
X34952358Y51601438D01*
X34882798Y51630251D01*
X34816415Y51665733D01*
X34744384Y51687583D01*
X34674826Y51716395D01*
X34600984Y51731083D01*
X34528951Y51752934D01*
X34454040Y51760312D01*
X34380199Y51775000D01*
X34304910Y51775000D01*
X34230000Y51782378D01*
X34155089Y51775000D01*
X34079801Y51775000D01*
X34005960Y51760312D01*
X33931048Y51752934D01*
X33859013Y51731083D01*
X33785174Y51716395D01*
X33715619Y51687585D01*
X33643584Y51665733D01*
X33577198Y51630249D01*
X33507642Y51601438D01*
X33445042Y51559610D01*
X33378656Y51524126D01*
X33320468Y51476373D01*
X33257869Y51434545D01*
X33204632Y51381308D01*
X33146445Y51333555D01*
X33098694Y51275370D01*
X33045455Y51222131D01*
X33003625Y51159528D01*
X32960000Y51106371D01*
X32916373Y51159532D01*
X32874545Y51222131D01*
X32821308Y51275368D01*
X32773555Y51333555D01*
X32715370Y51381306D01*
X32662131Y51434545D01*
X32599528Y51476375D01*
X32541343Y51524126D01*
X32474962Y51559608D01*
X32412358Y51601438D01*
X32342798Y51630251D01*
X32276415Y51665733D01*
X32204384Y51687583D01*
X32134826Y51716395D01*
X32060984Y51731083D01*
X31988951Y51752934D01*
X31914040Y51760312D01*
X31840199Y51775000D01*
X31764910Y51775000D01*
X31690000Y51782378D01*
X31615089Y51775000D01*
X31539801Y51775000D01*
X31465960Y51760312D01*
X31391048Y51752934D01*
X31319013Y51731083D01*
X31245174Y51716395D01*
X31175619Y51687585D01*
X31103584Y51665733D01*
X31037198Y51630249D01*
X30967642Y51601438D01*
X30905042Y51559610D01*
X30838656Y51524126D01*
X30780468Y51476373D01*
X30717869Y51434545D01*
X30664632Y51381308D01*
X30606445Y51333555D01*
X30558694Y51275370D01*
X30505455Y51222131D01*
X30463625Y51159528D01*
X30420000Y51106371D01*
X30376373Y51159532D01*
X30334545Y51222131D01*
X30281308Y51275368D01*
X30233555Y51333555D01*
X30175370Y51381306D01*
X30122131Y51434545D01*
X30059528Y51476375D01*
X30001343Y51524126D01*
X29934962Y51559608D01*
X29872358Y51601438D01*
X29802798Y51630251D01*
X29736415Y51665733D01*
X29664384Y51687583D01*
X29594826Y51716395D01*
X29520984Y51731083D01*
X29448951Y51752934D01*
X29374040Y51760312D01*
X29300199Y51775000D01*
X29224910Y51775000D01*
X29150000Y51782378D01*
X29075089Y51775000D01*
X28999801Y51775000D01*
X28925960Y51760312D01*
X28851048Y51752934D01*
X28779013Y51731083D01*
X28705174Y51716395D01*
X28635619Y51687585D01*
X28563584Y51665733D01*
X28497198Y51630249D01*
X28427642Y51601438D01*
X28365042Y51559610D01*
X28298656Y51524126D01*
X28240468Y51476373D01*
X28177869Y51434545D01*
X28124632Y51381308D01*
X28066445Y51333555D01*
X28018694Y51275370D01*
X27965455Y51222131D01*
X27923625Y51159528D01*
X27875874Y51101343D01*
X27840392Y51034962D01*
X27798562Y50972358D01*
X27769749Y50902798D01*
X27734267Y50836415D01*
X27712417Y50764384D01*
X27683605Y50694826D01*
X27668917Y50620984D01*
X27647066Y50548951D01*
X27639688Y50474040D01*
X27625000Y50400199D01*
X27625000Y50324910D01*
X27625001Y47784920D01*
X27625000Y47784910D01*
X27625001Y43974920D01*
X27617622Y43900000D01*
X27647066Y43601048D01*
X27734267Y43313585D01*
X27734268Y43313584D01*
X27875875Y43048656D01*
X28066446Y42816445D01*
X28124638Y42768688D01*
X29336531Y41556794D01*
X29295275Y41565000D01*
X29004725Y41565000D01*
X28719758Y41508317D01*
X28451325Y41397128D01*
X28209742Y41235707D01*
X28004293Y41030258D01*
X27842872Y40788675D01*
X27731683Y40520242D01*
X27675000Y40235275D01*
X27675000Y39944725D01*
X27731683Y39659758D01*
X27842872Y39391325D01*
X28004293Y39149742D01*
X28079035Y39075000D01*
X25209817Y39075000D01*
X25344126Y39238656D01*
X25485733Y39503584D01*
X25572934Y39791048D01*
X25602378Y40090000D01*
X25572934Y40388952D01*
X25485733Y40676416D01*
X25344126Y40941344D01*
X25153555Y41173555D01*
X24921344Y41364126D01*
X24656416Y41505733D01*
X24368952Y41592934D01*
X24144911Y41615000D01*
X23055000Y41615000D01*
X23055000Y50400199D01*
X23040312Y50474040D01*
X23032934Y50548952D01*
X23011083Y50620987D01*
X22996395Y50694826D01*
X22967585Y50764381D01*
X22945733Y50836416D01*
X22910249Y50902802D01*
X22881438Y50972358D01*
X22839610Y51034958D01*
X22804126Y51101344D01*
X22756373Y51159532D01*
X22714545Y51222131D01*
X22661308Y51275368D01*
X22613555Y51333555D01*
X22555368Y51381308D01*
X22502131Y51434545D01*
X22439532Y51476373D01*
X22381344Y51524126D01*
X22314958Y51559610D01*
X22252358Y51601438D01*
X22182802Y51630249D01*
X22116416Y51665733D01*
X22044381Y51687585D01*
X21974826Y51716395D01*
X21900987Y51731083D01*
X21828952Y51752934D01*
X21754040Y51760312D01*
X21680199Y51775000D01*
X21604911Y51775000D01*
X21530000Y51782378D01*
X21455090Y51775000D01*
X21379801Y51775000D01*
X21305960Y51760312D01*
X21231049Y51752934D01*
X21159016Y51731083D01*
X21085174Y51716395D01*
X21015616Y51687583D01*
X20943585Y51665733D01*
X20877202Y51630251D01*
X20807642Y51601438D01*
X20745038Y51559608D01*
X20678657Y51524126D01*
X20620474Y51476376D01*
X20557869Y51434545D01*
X20504627Y51381303D01*
X20446446Y51333555D01*
X20398698Y51275374D01*
X20345455Y51222131D01*
X20303623Y51159525D01*
X20255875Y51101344D01*
X20220395Y51034965D01*
X20178562Y50972358D01*
X20149748Y50902794D01*
X20114268Y50836416D01*
X20092419Y50764390D01*
X20063605Y50694826D01*
X20048916Y50620977D01*
X20027067Y50548952D01*
X20019690Y50474049D01*
X20005000Y50400199D01*
X20005000Y50099801D01*
X20005001Y50099796D01*
X20005000Y40240199D01*
X20005000Y40164911D01*
X19997622Y40090000D01*
X20005000Y40015090D01*
X20005000Y39939801D01*
X20019688Y39865960D01*
X20027066Y39791048D01*
X20048917Y39719013D01*
X20063605Y39645174D01*
X20092415Y39575619D01*
X20114267Y39503584D01*
X20149751Y39437198D01*
X20178562Y39367642D01*
X20220390Y39305042D01*
X20255874Y39238656D01*
X20303627Y39180468D01*
X20345455Y39117869D01*
X20388324Y39075000D01*
X17943759Y39075000D01*
X17868848Y39082378D01*
X17569896Y39052934D01*
X17502991Y39032638D01*
X17282433Y38965733D01*
X17017505Y38824126D01*
X16785294Y38633555D01*
X16737536Y38575362D01*
X15642622Y37480447D01*
X15584425Y37432686D01*
X15393854Y37200474D01*
X15317853Y37058286D01*
X15273726Y36975730D01*
X9071123Y30773126D01*
X9012925Y30725364D01*
X8822354Y30493152D01*
X8680748Y30228225D01*
X8680747Y30228224D01*
X8593546Y29940761D01*
X8564102Y29641809D01*
X8571480Y29566899D01*
X8571481Y14048156D01*
X7857875Y13334549D01*
X7857869Y13334545D01*
X7645455Y13122131D01*
X7603620Y13059520D01*
X7555875Y13001343D01*
X7555599Y13000826D01*
X7474545Y13122131D01*
X7465000Y13131676D01*
X7465000Y14310384D01*
X7566395Y14555174D01*
X7625000Y14849801D01*
X7625000Y15150199D01*
X7566395Y15444826D01*
X7451438Y15722358D01*
X7284545Y15972131D01*
X7072131Y16184545D01*
X6822358Y16351438D01*
X6544826Y16466395D01*
X6250199Y16525000D01*
X5949801Y16525000D01*
X5655174Y16466395D01*
X5377642Y16351438D01*
X5127869Y16184545D01*
X4915455Y15972131D01*
X4748562Y15722358D01*
X4633605Y15444826D01*
X4575000Y15150199D01*
X450000Y15150199D01*
X450000Y37550000D01*
X9977896Y37550000D01*
X10000000Y37547823D01*
X10088215Y37556511D01*
X10173041Y37582243D01*
X10251216Y37624029D01*
X10319737Y37680263D01*
X10375971Y37748784D01*
X10417757Y37826959D01*
X10443489Y37911785D01*
X10450000Y37977895D01*
X10452177Y38000000D01*
X10450000Y38022105D01*
X10450000Y54550000D01*
X61550001Y54550000D01*
X61550000Y450000D01*
G37*
X61550000Y450000D02*
X51450000Y450000D01*
X51450000Y9977895D01*
X51452177Y10000000D01*
X51443489Y10088215D01*
X51417757Y10173041D01*
X51375971Y10251216D01*
X51319737Y10319737D01*
X51251216Y10375971D01*
X51173041Y10417757D01*
X51088215Y10443489D01*
X51022105Y10450000D01*
X51022104Y10450000D01*
X51000000Y10452177D01*
X50977895Y10450000D01*
X25022105Y10450000D01*
X25000000Y10452177D01*
X24977896Y10450000D01*
X24977895Y10450000D01*
X24911785Y10443489D01*
X24826959Y10417757D01*
X24748784Y10375971D01*
X24680263Y10319737D01*
X24624029Y10251216D01*
X24582243Y10173041D01*
X24556511Y10088215D01*
X24547823Y10000000D01*
X24550001Y9977885D01*
X24550000Y450000D01*
X450000Y450000D01*
X450000Y4680199D01*
X2225000Y4680199D01*
X2225000Y4379801D01*
X2283605Y4085174D01*
X2398562Y3807642D01*
X2565455Y3557869D01*
X2777869Y3345455D01*
X3027642Y3178562D01*
X3305174Y3063605D01*
X3599801Y3005000D01*
X3900199Y3005000D01*
X4194826Y3063605D01*
X4472358Y3178562D01*
X4722131Y3345455D01*
X4934545Y3557869D01*
X5101438Y3807642D01*
X5216395Y4085174D01*
X5275000Y4379801D01*
X5275000Y4680199D01*
X5216395Y4974826D01*
X5101438Y5252358D01*
X4934545Y5502131D01*
X4925000Y5511676D01*
X4925000Y6646800D01*
X5410701Y7132500D01*
X5424199Y7132500D01*
X5718826Y7191105D01*
X5996358Y7306062D01*
X6246131Y7472955D01*
X6458545Y7685369D01*
X6625438Y7935142D01*
X6740395Y8212674D01*
X6799000Y8507301D01*
X6799000Y8807699D01*
X6740395Y9102326D01*
X6625438Y9379858D01*
X6458545Y9629631D01*
X6246131Y9842045D01*
X5996358Y10008938D01*
X5718826Y10123895D01*
X5424199Y10182500D01*
X5123801Y10182500D01*
X4829174Y10123895D01*
X4551642Y10008938D01*
X4301869Y9842045D01*
X4089455Y9629631D01*
X3922562Y9379858D01*
X3807605Y9102326D01*
X3749000Y8807699D01*
X3749000Y8794201D01*
X2959962Y8005162D01*
X2915131Y7968370D01*
X2878339Y7923539D01*
X2878336Y7923536D01*
X2768297Y7789453D01*
X2659189Y7585328D01*
X2592002Y7363840D01*
X2569316Y7133500D01*
X2575001Y7075778D01*
X2575000Y5511676D01*
X2565455Y5502131D01*
X2398562Y5252358D01*
X2283605Y4974826D01*
X2225000Y4680199D01*
X450000Y4680199D01*
X450000Y15150199D01*
X4575000Y15150199D01*
X4575000Y14849801D01*
X4633605Y14555174D01*
X4748562Y14277642D01*
X4915455Y14027869D01*
X5115001Y13828323D01*
X5115000Y13131676D01*
X5105455Y13122131D01*
X4938562Y12872358D01*
X4823605Y12594826D01*
X4765000Y12300199D01*
X4765000Y11999801D01*
X4823605Y11705174D01*
X4938562Y11427642D01*
X5105455Y11177869D01*
X5317869Y10965455D01*
X5567642Y10798562D01*
X5845174Y10683605D01*
X6139801Y10625000D01*
X6440199Y10625000D01*
X6734826Y10683605D01*
X7012358Y10798562D01*
X7262131Y10965455D01*
X7474545Y11177869D01*
X7555599Y11299174D01*
X7555875Y11298657D01*
X7603619Y11240480D01*
X7645455Y11177869D01*
X7698703Y11124621D01*
X7746446Y11066446D01*
X7804621Y11018703D01*
X7857869Y10965455D01*
X7920480Y10923619D01*
X7978657Y10875875D01*
X8045033Y10840396D01*
X8107642Y10798562D01*
X8177204Y10769748D01*
X8243585Y10734267D01*
X8315617Y10712416D01*
X8385174Y10683605D01*
X8459014Y10668917D01*
X8531048Y10647066D01*
X8605960Y10639688D01*
X8679801Y10625000D01*
X8755089Y10625000D01*
X8830000Y10617622D01*
X8904911Y10625000D01*
X8980199Y10625000D01*
X9054040Y10639688D01*
X9128952Y10647066D01*
X9200986Y10668917D01*
X9274826Y10683605D01*
X9344383Y10712416D01*
X9416415Y10734267D01*
X9482796Y10769748D01*
X9552358Y10798562D01*
X9614967Y10840396D01*
X9681343Y10875875D01*
X9739520Y10923620D01*
X9802131Y10965455D01*
X10014545Y11177869D01*
X10014549Y11177875D01*
X10971491Y12134816D01*
X10971491Y8197368D01*
X10529125Y7755001D01*
X9382079Y7755001D01*
X9324367Y7760685D01*
X9266655Y7755001D01*
X9266647Y7755001D01*
X9113572Y7739924D01*
X9094026Y7737999D01*
X8888968Y7675796D01*
X8872538Y7670812D01*
X8668414Y7561705D01*
X8489497Y7414871D01*
X8452703Y7370037D01*
X8039967Y6957301D01*
X7995130Y6920504D01*
X7848296Y6741586D01*
X7831388Y6709953D01*
X7739189Y6537462D01*
X7682221Y6349660D01*
X7672002Y6315973D01*
X7655000Y6143353D01*
X7655000Y6143346D01*
X7649316Y6085634D01*
X7655000Y6027922D01*
X7655000Y5511676D01*
X7645455Y5502131D01*
X7478562Y5252358D01*
X7363605Y4974826D01*
X7305000Y4680199D01*
X7305000Y4379801D01*
X7363605Y4085174D01*
X7478562Y3807642D01*
X7645455Y3557869D01*
X7857869Y3345455D01*
X8107642Y3178562D01*
X8385174Y3063605D01*
X8679801Y3005000D01*
X8980199Y3005000D01*
X9274826Y3063605D01*
X9552358Y3178562D01*
X9802131Y3345455D01*
X10014545Y3557869D01*
X10100000Y3685761D01*
X10185455Y3557869D01*
X10397869Y3345455D01*
X10647642Y3178562D01*
X10925174Y3063605D01*
X11219801Y3005000D01*
X11520199Y3005000D01*
X11814826Y3063605D01*
X12092358Y3178562D01*
X12342131Y3345455D01*
X12554545Y3557869D01*
X12721438Y3807642D01*
X12836395Y4085174D01*
X12895000Y4379801D01*
X12895000Y4393300D01*
X14636539Y6134838D01*
X14681370Y6171630D01*
X14755401Y6261836D01*
X14828203Y6350546D01*
X14937311Y6554671D01*
X15004498Y6776159D01*
X15014299Y6875670D01*
X15021500Y6948780D01*
X15021500Y6948788D01*
X15027184Y7006500D01*
X15021500Y7064212D01*
X15021500Y18393800D01*
X15179000Y18236300D01*
X15179000Y18222801D01*
X15237605Y17928174D01*
X15352562Y17650642D01*
X15519455Y17400869D01*
X15731869Y17188455D01*
X15981642Y17021562D01*
X16259174Y16906605D01*
X16553801Y16848000D01*
X16854199Y16848000D01*
X17148826Y16906605D01*
X17426358Y17021562D01*
X17676131Y17188455D01*
X17888545Y17400869D01*
X18055438Y17650642D01*
X18170395Y17928174D01*
X18229000Y18222801D01*
X18229000Y18523199D01*
X18170395Y18817826D01*
X18055438Y19095358D01*
X17888545Y19345131D01*
X17676131Y19557545D01*
X17426358Y19724438D01*
X17148826Y19839395D01*
X16854199Y19898000D01*
X16840700Y19898000D01*
X16721510Y20017190D01*
X16721510Y21021814D01*
X16927869Y20815455D01*
X17177642Y20648562D01*
X17455174Y20533605D01*
X17749801Y20475000D01*
X18050199Y20475000D01*
X18344826Y20533605D01*
X18622358Y20648562D01*
X18872131Y20815455D01*
X19084545Y21027869D01*
X19251438Y21277642D01*
X19366395Y21555174D01*
X19425000Y21849801D01*
X19425001Y14246702D01*
X18853300Y13675000D01*
X18839801Y13675000D01*
X18545174Y13616395D01*
X18267642Y13501438D01*
X18017869Y13334545D01*
X17805455Y13122131D01*
X17638562Y12872358D01*
X17523605Y12594826D01*
X17465000Y12300199D01*
X17465000Y11999801D01*
X17523605Y11705174D01*
X17638562Y11427642D01*
X17805455Y11177869D01*
X18017869Y10965455D01*
X18267642Y10798562D01*
X18545174Y10683605D01*
X18839801Y10625000D01*
X19140199Y10625000D01*
X19434826Y10683605D01*
X19712358Y10798562D01*
X19962131Y10965455D01*
X20174545Y11177869D01*
X20341438Y11427642D01*
X20456395Y11705174D01*
X20515000Y11999801D01*
X20515000Y12013300D01*
X21390039Y12888338D01*
X21434870Y12925130D01*
X21581704Y13104047D01*
X21690811Y13308171D01*
X21723482Y13415874D01*
X21757998Y13529659D01*
X21767813Y13629316D01*
X21775000Y13702280D01*
X21775000Y13702288D01*
X21780684Y13760000D01*
X21775000Y13817712D01*
X21775000Y22742288D01*
X21780684Y22800000D01*
X21775000Y22857712D01*
X21775000Y22857720D01*
X21757998Y23030340D01*
X21738976Y23093050D01*
X21690811Y23251829D01*
X21644797Y23337915D01*
X21581704Y23455953D01*
X21524920Y23525144D01*
X21471664Y23590037D01*
X21471662Y23590039D01*
X21434870Y23634870D01*
X21390040Y23671661D01*
X20121530Y24940170D01*
X20121530Y24995275D01*
X22595000Y24995275D01*
X22595000Y24704725D01*
X22651683Y24419758D01*
X22762872Y24151325D01*
X22924293Y23909742D01*
X23129742Y23704293D01*
X23371325Y23542872D01*
X23639758Y23431683D01*
X23924725Y23375000D01*
X24215275Y23375000D01*
X24500242Y23431683D01*
X24768675Y23542872D01*
X25010258Y23704293D01*
X25215707Y23909742D01*
X25340000Y24095759D01*
X25464293Y23909742D01*
X25669742Y23704293D01*
X25911325Y23542872D01*
X26179758Y23431683D01*
X26464725Y23375000D01*
X26755275Y23375000D01*
X27040242Y23431683D01*
X27308675Y23542872D01*
X27550258Y23704293D01*
X27755707Y23909742D01*
X27880000Y24095759D01*
X28004293Y23909742D01*
X28209742Y23704293D01*
X28451325Y23542872D01*
X28719758Y23431683D01*
X29004725Y23375000D01*
X29295275Y23375000D01*
X29580242Y23431683D01*
X29848675Y23542872D01*
X30090258Y23704293D01*
X30295707Y23909742D01*
X30457128Y24151325D01*
X30568317Y24419758D01*
X30625000Y24704725D01*
X30625000Y24995275D01*
X30568317Y25280242D01*
X30457128Y25548675D01*
X30295707Y25790258D01*
X30090258Y25995707D01*
X29848675Y26157128D01*
X29580242Y26268317D01*
X29295275Y26325000D01*
X29004725Y26325000D01*
X28719758Y26268317D01*
X28451325Y26157128D01*
X28209742Y25995707D01*
X28004293Y25790258D01*
X27880000Y25604241D01*
X27755707Y25790258D01*
X27550258Y25995707D01*
X27308675Y26157128D01*
X27040242Y26268317D01*
X26755275Y26325000D01*
X26464725Y26325000D01*
X26179758Y26268317D01*
X25911325Y26157128D01*
X25669742Y25995707D01*
X25464293Y25790258D01*
X25340000Y25604241D01*
X25215707Y25790258D01*
X25010258Y25995707D01*
X24768675Y26157128D01*
X24500242Y26268317D01*
X24215275Y26325000D01*
X23924725Y26325000D01*
X23639758Y26268317D01*
X23371325Y26157128D01*
X23129742Y25995707D01*
X22924293Y25790258D01*
X22762872Y25548675D01*
X22651683Y25280242D01*
X22595000Y24995275D01*
X20121530Y24995275D01*
X20121530Y25489302D01*
X22157179Y27524950D01*
X48317174Y27524950D01*
X49517124Y26325000D01*
X49324725Y26325000D01*
X49039758Y26268317D01*
X48771325Y26157128D01*
X48529742Y25995707D01*
X48324293Y25790258D01*
X48200000Y25604241D01*
X48075707Y25790258D01*
X47870258Y25995707D01*
X47628675Y26157128D01*
X47360242Y26268317D01*
X47075275Y26325000D01*
X46784725Y26325000D01*
X46499758Y26268317D01*
X46231325Y26157128D01*
X45989742Y25995707D01*
X45784293Y25790258D01*
X45660000Y25604241D01*
X45535707Y25790258D01*
X45330258Y25995707D01*
X45088675Y26157128D01*
X44820242Y26268317D01*
X44535275Y26325000D01*
X44244725Y26325000D01*
X43959758Y26268317D01*
X43691325Y26157128D01*
X43449742Y25995707D01*
X43244293Y25790258D01*
X43120000Y25604241D01*
X42995707Y25790258D01*
X42790258Y25995707D01*
X42548675Y26157128D01*
X42280242Y26268317D01*
X41995275Y26325000D01*
X41704725Y26325000D01*
X41419758Y26268317D01*
X41151325Y26157128D01*
X40909742Y25995707D01*
X40704293Y25790258D01*
X40580000Y25604241D01*
X40455707Y25790258D01*
X40250258Y25995707D01*
X40008675Y26157128D01*
X39740242Y26268317D01*
X39455275Y26325000D01*
X39164725Y26325000D01*
X38879758Y26268317D01*
X38611325Y26157128D01*
X38369742Y25995707D01*
X38164293Y25790258D01*
X38040000Y25604241D01*
X37915707Y25790258D01*
X37710258Y25995707D01*
X37468675Y26157128D01*
X37200242Y26268317D01*
X36915275Y26325000D01*
X36624725Y26325000D01*
X36339758Y26268317D01*
X36071325Y26157128D01*
X35829742Y25995707D01*
X35624293Y25790258D01*
X35500000Y25604241D01*
X35375707Y25790258D01*
X35170258Y25995707D01*
X34928675Y26157128D01*
X34660242Y26268317D01*
X34375275Y26325000D01*
X34084725Y26325000D01*
X33799758Y26268317D01*
X33531325Y26157128D01*
X33289742Y25995707D01*
X33084293Y25790258D01*
X32922872Y25548675D01*
X32811683Y25280242D01*
X32755000Y24995275D01*
X32755000Y24704725D01*
X32811683Y24419758D01*
X32922872Y24151325D01*
X33055000Y23953582D01*
X33055000Y23882335D01*
X28829962Y19657296D01*
X28785131Y19620504D01*
X28748339Y19575673D01*
X28748336Y19575670D01*
X28638297Y19441587D01*
X28529189Y19237462D01*
X28502279Y19148750D01*
X28462002Y19015974D01*
X28445000Y18843354D01*
X28445000Y18843346D01*
X28439316Y18785634D01*
X28445000Y18727922D01*
X28445000Y18211676D01*
X28435455Y18202131D01*
X28268562Y17952358D01*
X28153605Y17674826D01*
X28095000Y17380199D01*
X28095000Y17079801D01*
X28153605Y16785174D01*
X28268562Y16507642D01*
X28435455Y16257869D01*
X28478324Y16215000D01*
X25189801Y16215000D01*
X25115960Y16200312D01*
X25041048Y16192934D01*
X24969013Y16171083D01*
X24895174Y16156395D01*
X24825619Y16127585D01*
X24753584Y16105733D01*
X24687198Y16070249D01*
X24617642Y16041438D01*
X24555042Y15999610D01*
X24488656Y15964126D01*
X24430468Y15916373D01*
X24367869Y15874545D01*
X24314632Y15821308D01*
X24256445Y15773555D01*
X24208692Y15715368D01*
X24155455Y15662131D01*
X24113627Y15599532D01*
X24065874Y15541344D01*
X24030390Y15474958D01*
X23988562Y15412358D01*
X23959751Y15342802D01*
X23924267Y15276416D01*
X23902415Y15204381D01*
X23873605Y15134826D01*
X23858917Y15060987D01*
X23837066Y14988952D01*
X23829688Y14914040D01*
X23815000Y14840199D01*
X23815000Y14764911D01*
X23807622Y14690000D01*
X23815000Y14615089D01*
X23815000Y14539801D01*
X23829688Y14465960D01*
X23837066Y14391048D01*
X23858917Y14319013D01*
X23873605Y14245174D01*
X23902415Y14175619D01*
X23924267Y14103584D01*
X23959751Y14037198D01*
X23988562Y13967642D01*
X24030390Y13905042D01*
X24065874Y13838656D01*
X24113627Y13780468D01*
X24155455Y13717869D01*
X24208692Y13664632D01*
X24256445Y13606445D01*
X24314632Y13558692D01*
X24367869Y13505455D01*
X24430468Y13463627D01*
X24488656Y13415874D01*
X24555042Y13380390D01*
X24617642Y13338562D01*
X24687198Y13309751D01*
X24753584Y13274267D01*
X24825619Y13252415D01*
X24895174Y13223605D01*
X24969013Y13208917D01*
X25041048Y13187066D01*
X25115960Y13179688D01*
X25189801Y13165000D01*
X45010199Y13165000D01*
X45084040Y13179688D01*
X45158952Y13187066D01*
X45230987Y13208917D01*
X45304826Y13223605D01*
X45374381Y13252415D01*
X45446416Y13274267D01*
X45512802Y13309751D01*
X45582358Y13338562D01*
X45644958Y13380390D01*
X45711344Y13415874D01*
X45769532Y13463627D01*
X45832131Y13505455D01*
X45885368Y13558692D01*
X45943555Y13606445D01*
X45991308Y13664632D01*
X46044545Y13717869D01*
X46086373Y13780468D01*
X46134126Y13838656D01*
X46169610Y13905042D01*
X46211438Y13967642D01*
X46240249Y14037198D01*
X46275733Y14103584D01*
X46297585Y14175619D01*
X46326395Y14245174D01*
X46341083Y14319013D01*
X46362934Y14391048D01*
X46370312Y14465960D01*
X46385000Y14539801D01*
X46385000Y14615089D01*
X46392378Y14690000D01*
X46385000Y14764911D01*
X46385000Y14840199D01*
X46370312Y14914040D01*
X46362934Y14988952D01*
X46341083Y15060987D01*
X46326395Y15134826D01*
X46297585Y15204381D01*
X46275733Y15276416D01*
X46240249Y15342802D01*
X46211438Y15412358D01*
X46169610Y15474958D01*
X46134126Y15541344D01*
X46086373Y15599532D01*
X46044545Y15662131D01*
X45991308Y15715368D01*
X45943555Y15773555D01*
X45885368Y15821308D01*
X45832131Y15874545D01*
X45769532Y15916373D01*
X45711344Y15964126D01*
X45710827Y15964402D01*
X45832131Y16045455D01*
X46044545Y16257869D01*
X46211438Y16507642D01*
X46326395Y16785174D01*
X46385000Y17079801D01*
X46385000Y17380199D01*
X46326395Y17674826D01*
X46211438Y17952358D01*
X46044545Y18202131D01*
X46035000Y18211676D01*
X46035000Y19113878D01*
X50260040Y23338917D01*
X50304870Y23375708D01*
X50341662Y23420539D01*
X50341665Y23420542D01*
X50397313Y23488350D01*
X50451704Y23554625D01*
X50560811Y23758749D01*
X50586797Y23844415D01*
X50602654Y23896689D01*
X50615707Y23909742D01*
X50740000Y24095759D01*
X50864293Y23909742D01*
X51069742Y23704293D01*
X51311325Y23542872D01*
X51579758Y23431683D01*
X51864725Y23375000D01*
X52155275Y23375000D01*
X52440242Y23431683D01*
X52708675Y23542872D01*
X52950258Y23704293D01*
X53155707Y23909742D01*
X53280000Y24095759D01*
X53404293Y23909742D01*
X53609742Y23704293D01*
X53851325Y23542872D01*
X54119758Y23431683D01*
X54404725Y23375000D01*
X54695275Y23375000D01*
X54980242Y23431683D01*
X55248675Y23542872D01*
X55490258Y23704293D01*
X55695707Y23909742D01*
X55820000Y24095759D01*
X55915000Y23953581D01*
X55915001Y23372704D01*
X54099965Y21557667D01*
X54055129Y21520871D01*
X53908296Y21341954D01*
X53799188Y21137829D01*
X53762929Y21018296D01*
X53732001Y20916340D01*
X53714999Y20743720D01*
X53714999Y20743713D01*
X53709315Y20686001D01*
X53714999Y20628289D01*
X53715000Y8637723D01*
X53709315Y8580001D01*
X53732001Y8349661D01*
X53799188Y8128173D01*
X53908296Y7924048D01*
X54018335Y7789965D01*
X54018338Y7789962D01*
X54055130Y7745131D01*
X54099961Y7708339D01*
X56625963Y5182336D01*
X56625968Y5182332D01*
X57859762Y3948538D01*
X57855657Y3950238D01*
X57580350Y4005000D01*
X57299650Y4005000D01*
X57140000Y3973244D01*
X56980350Y4005000D01*
X56699650Y4005000D01*
X56424343Y3950238D01*
X56165009Y3842819D01*
X55931615Y3686870D01*
X55733130Y3488385D01*
X55577181Y3254991D01*
X55469762Y2995657D01*
X55415000Y2720350D01*
X55415000Y2439650D01*
X55469762Y2164343D01*
X55577181Y1905009D01*
X55733130Y1671615D01*
X55931615Y1473130D01*
X56165009Y1317181D01*
X56424343Y1209762D01*
X56699650Y1155000D01*
X56980350Y1155000D01*
X57140000Y1186756D01*
X57299650Y1155000D01*
X57580350Y1155000D01*
X57855657Y1209762D01*
X58114991Y1317181D01*
X58348385Y1473130D01*
X58546870Y1671615D01*
X58702819Y1905009D01*
X58810238Y2164343D01*
X58865000Y2439650D01*
X58865000Y2517054D01*
X58907642Y2488562D01*
X59185174Y2373605D01*
X59479801Y2315000D01*
X59780199Y2315000D01*
X60074826Y2373605D01*
X60352358Y2488562D01*
X60602131Y2655455D01*
X60814545Y2867869D01*
X60981438Y3117642D01*
X61096395Y3395174D01*
X61155000Y3689801D01*
X61155000Y3990199D01*
X61096395Y4284826D01*
X60981438Y4562358D01*
X60814545Y4812131D01*
X60602131Y5024545D01*
X60352358Y5191438D01*
X60074826Y5306395D01*
X59780199Y5365000D01*
X59766701Y5365000D01*
X58287668Y6844032D01*
X58287664Y6844037D01*
X56966700Y8165000D01*
X56980350Y8165000D01*
X57140000Y8196756D01*
X57299650Y8165000D01*
X57580350Y8165000D01*
X57855657Y8219762D01*
X58114991Y8327181D01*
X58348385Y8483130D01*
X58546870Y8681615D01*
X58702819Y8915009D01*
X58810238Y9174343D01*
X58865000Y9449650D01*
X58865000Y9730350D01*
X58810238Y10005657D01*
X58702819Y10264991D01*
X58546870Y10498385D01*
X58348385Y10696870D01*
X58114991Y10852819D01*
X57855657Y10960238D01*
X57580350Y11015000D01*
X57299650Y11015000D01*
X57140000Y10983244D01*
X56980350Y11015000D01*
X56699650Y11015000D01*
X56424343Y10960238D01*
X56165009Y10852819D01*
X56064999Y10785994D01*
X56064999Y11544006D01*
X56165009Y11477181D01*
X56424343Y11369762D01*
X56699650Y11315000D01*
X56980350Y11315000D01*
X57140000Y11346756D01*
X57299650Y11315000D01*
X57580350Y11315000D01*
X57855657Y11369762D01*
X58114991Y11477181D01*
X58348385Y11633130D01*
X58546870Y11831615D01*
X58702819Y12065009D01*
X58810238Y12324343D01*
X58865000Y12599650D01*
X58865000Y12880350D01*
X58810238Y13155657D01*
X58702819Y13414991D01*
X58546870Y13648385D01*
X58348385Y13846870D01*
X58114991Y14002819D01*
X57855657Y14110238D01*
X57580350Y14165000D01*
X57299650Y14165000D01*
X57140000Y14133244D01*
X56980350Y14165000D01*
X56699650Y14165000D01*
X56424343Y14110238D01*
X56165009Y14002819D01*
X56064999Y13935994D01*
X56064999Y18554006D01*
X56165009Y18487181D01*
X56424343Y18379762D01*
X56699650Y18325000D01*
X56980350Y18325000D01*
X57140000Y18356756D01*
X57299650Y18325000D01*
X57580350Y18325000D01*
X57855657Y18379762D01*
X58105000Y18483043D01*
X58105000Y18349801D01*
X58163605Y18055174D01*
X58278562Y17777642D01*
X58445455Y17527869D01*
X58657869Y17315455D01*
X58907642Y17148562D01*
X59185174Y17033605D01*
X59479801Y16975000D01*
X59780199Y16975000D01*
X60074826Y17033605D01*
X60352358Y17148562D01*
X60602131Y17315455D01*
X60814545Y17527869D01*
X60981438Y17777642D01*
X61096395Y18055174D01*
X61155000Y18349801D01*
X61155000Y18650199D01*
X61096395Y18944826D01*
X60981438Y19222358D01*
X60814545Y19472131D01*
X60805000Y19481676D01*
X60805000Y23953582D01*
X60937128Y24151325D01*
X61048317Y24419758D01*
X61105000Y24704725D01*
X61105000Y24995275D01*
X61048317Y25280242D01*
X60937128Y25548675D01*
X60775707Y25790258D01*
X60570258Y25995707D01*
X60328675Y26157128D01*
X60060242Y26268317D01*
X59775275Y26325000D01*
X59484725Y26325000D01*
X59199758Y26268317D01*
X58931325Y26157128D01*
X58689742Y25995707D01*
X58484293Y25790258D01*
X58360000Y25604241D01*
X58235707Y25790258D01*
X58030258Y25995707D01*
X57788675Y26157128D01*
X57520242Y26268317D01*
X57235275Y26325000D01*
X56944725Y26325000D01*
X56659758Y26268317D01*
X56391325Y26157128D01*
X56149742Y25995707D01*
X55944293Y25790258D01*
X55820000Y25604241D01*
X55695707Y25790258D01*
X55600248Y25885717D01*
X55531704Y26013953D01*
X55494720Y26059018D01*
X55421664Y26148037D01*
X55421662Y26148039D01*
X55384870Y26192870D01*
X55340040Y26229661D01*
X50379707Y31189993D01*
X50342910Y31234830D01*
X50163993Y31381664D01*
X49959869Y31490771D01*
X49738380Y31557958D01*
X49565760Y31574960D01*
X49565752Y31574960D01*
X49508040Y31580644D01*
X49450328Y31574960D01*
X38749938Y31574960D01*
X44039969Y36864990D01*
X56467202Y36864990D01*
X56524914Y36859306D01*
X56582626Y36864990D01*
X56582634Y36864990D01*
X56755254Y36881992D01*
X56976743Y36949179D01*
X57180867Y37058286D01*
X57359784Y37205120D01*
X57396581Y37249957D01*
X57880035Y37733411D01*
X57924870Y37770206D01*
X58071704Y37949123D01*
X58180811Y38153247D01*
X58227185Y38306124D01*
X58247998Y38374735D01*
X58255625Y38452177D01*
X58265000Y38547356D01*
X58265000Y38547363D01*
X58270684Y38605075D01*
X58265000Y38662787D01*
X58265000Y39193582D01*
X58328873Y39289174D01*
X58355875Y39238656D01*
X58546446Y39006445D01*
X58778657Y38815874D01*
X59043585Y38674267D01*
X59331049Y38587066D01*
X59630000Y38557622D01*
X59928952Y38587066D01*
X60216416Y38674267D01*
X60481344Y38815874D01*
X60713555Y39006445D01*
X60904126Y39238656D01*
X61045733Y39503584D01*
X61132934Y39791048D01*
X61155000Y40015089D01*
X61155000Y50400199D01*
X61140312Y50474040D01*
X61132934Y50548952D01*
X61111083Y50620987D01*
X61096395Y50694826D01*
X61067585Y50764381D01*
X61045733Y50836416D01*
X61010249Y50902802D01*
X60981438Y50972358D01*
X60939610Y51034958D01*
X60904126Y51101344D01*
X60856373Y51159532D01*
X60814545Y51222131D01*
X60761308Y51275368D01*
X60713555Y51333555D01*
X60655370Y51381306D01*
X60602131Y51434545D01*
X60539528Y51476375D01*
X60481343Y51524126D01*
X60414962Y51559608D01*
X60352358Y51601438D01*
X60282798Y51630251D01*
X60216415Y51665733D01*
X60144384Y51687583D01*
X60074826Y51716395D01*
X60000984Y51731083D01*
X59928951Y51752934D01*
X59854040Y51760312D01*
X59780199Y51775000D01*
X59704910Y51775000D01*
X59630000Y51782378D01*
X59555089Y51775000D01*
X59479801Y51775000D01*
X59405960Y51760312D01*
X59331048Y51752934D01*
X59259013Y51731083D01*
X59185174Y51716395D01*
X59115619Y51687585D01*
X59043584Y51665733D01*
X58977198Y51630249D01*
X58907642Y51601438D01*
X58845042Y51559610D01*
X58778656Y51524126D01*
X58720468Y51476373D01*
X58657869Y51434545D01*
X58604632Y51381308D01*
X58546445Y51333555D01*
X58498694Y51275370D01*
X58445455Y51222131D01*
X58403625Y51159528D01*
X58360000Y51106371D01*
X58316373Y51159532D01*
X58274545Y51222131D01*
X58221308Y51275368D01*
X58173555Y51333555D01*
X58115370Y51381306D01*
X58062131Y51434545D01*
X57999528Y51476375D01*
X57941343Y51524126D01*
X57874962Y51559608D01*
X57812358Y51601438D01*
X57742798Y51630251D01*
X57676415Y51665733D01*
X57604384Y51687583D01*
X57534826Y51716395D01*
X57460984Y51731083D01*
X57388951Y51752934D01*
X57314040Y51760312D01*
X57240199Y51775000D01*
X57164910Y51775000D01*
X57090000Y51782378D01*
X57015089Y51775000D01*
X56939801Y51775000D01*
X56865960Y51760312D01*
X56791048Y51752934D01*
X56719013Y51731083D01*
X56645174Y51716395D01*
X56575619Y51687585D01*
X56503584Y51665733D01*
X56437198Y51630249D01*
X56367642Y51601438D01*
X56305042Y51559610D01*
X56238656Y51524126D01*
X56180468Y51476373D01*
X56117869Y51434545D01*
X56064632Y51381308D01*
X56006445Y51333555D01*
X55958694Y51275370D01*
X55905455Y51222131D01*
X55863625Y51159528D01*
X55820000Y51106371D01*
X55776373Y51159532D01*
X55734545Y51222131D01*
X55681308Y51275368D01*
X55633555Y51333555D01*
X55575370Y51381306D01*
X55522131Y51434545D01*
X55459528Y51476375D01*
X55401343Y51524126D01*
X55334962Y51559608D01*
X55272358Y51601438D01*
X55202798Y51630251D01*
X55136415Y51665733D01*
X55064384Y51687583D01*
X54994826Y51716395D01*
X54920984Y51731083D01*
X54848951Y51752934D01*
X54774040Y51760312D01*
X54700199Y51775000D01*
X54624910Y51775000D01*
X54550000Y51782378D01*
X54475089Y51775000D01*
X54399801Y51775000D01*
X54325960Y51760312D01*
X54251048Y51752934D01*
X54179013Y51731083D01*
X54105174Y51716395D01*
X54035619Y51687585D01*
X53963584Y51665733D01*
X53897198Y51630249D01*
X53827642Y51601438D01*
X53765042Y51559610D01*
X53698656Y51524126D01*
X53640468Y51476373D01*
X53577869Y51434545D01*
X53524632Y51381308D01*
X53466445Y51333555D01*
X53418694Y51275370D01*
X53365455Y51222131D01*
X53323625Y51159528D01*
X53275874Y51101343D01*
X53240392Y51034962D01*
X53198562Y50972358D01*
X53169749Y50902798D01*
X53134267Y50836415D01*
X53112417Y50764384D01*
X53083605Y50694826D01*
X53068917Y50620984D01*
X53047066Y50548951D01*
X53039688Y50474040D01*
X53025000Y50400199D01*
X53025000Y50324910D01*
X53025001Y46590204D01*
X53025000Y46590199D01*
X53025000Y46289801D01*
X53039690Y46215951D01*
X53047067Y46141048D01*
X53068916Y46069023D01*
X53083605Y45995174D01*
X53112419Y45925610D01*
X53134268Y45853584D01*
X53169748Y45787206D01*
X53198562Y45717642D01*
X53240395Y45655035D01*
X53275875Y45588656D01*
X53323623Y45530475D01*
X53365455Y45467869D01*
X53418698Y45414626D01*
X53466446Y45356445D01*
X53524627Y45308697D01*
X53577869Y45255455D01*
X53640474Y45213624D01*
X53698657Y45165874D01*
X53765038Y45130392D01*
X53827642Y45088562D01*
X53897202Y45059749D01*
X53963585Y45024267D01*
X54035616Y45002417D01*
X54105174Y44973605D01*
X54179016Y44958917D01*
X54251049Y44937066D01*
X54325960Y44929688D01*
X54399801Y44915000D01*
X54475090Y44915000D01*
X54550000Y44907622D01*
X54624911Y44915000D01*
X54700199Y44915000D01*
X54774040Y44929688D01*
X54848952Y44937066D01*
X54920987Y44958917D01*
X54994826Y44973605D01*
X55064381Y45002415D01*
X55136416Y45024267D01*
X55202802Y45059751D01*
X55272358Y45088562D01*
X55334958Y45130390D01*
X55401344Y45165874D01*
X55459532Y45213627D01*
X55522131Y45255455D01*
X55565001Y45298325D01*
X55565001Y44531677D01*
X53524642Y42491316D01*
X53466445Y42443555D01*
X53275874Y42211343D01*
X53154730Y41984698D01*
X53134267Y41946415D01*
X53047066Y41658952D01*
X53017622Y41360000D01*
X53025000Y41285089D01*
X53025000Y41160965D01*
X52950258Y41235707D01*
X52708675Y41397128D01*
X52440242Y41508317D01*
X52155275Y41565000D01*
X51864725Y41565000D01*
X51579758Y41508317D01*
X51311325Y41397128D01*
X51069742Y41235707D01*
X50864293Y41030258D01*
X50740000Y40844241D01*
X50615707Y41030258D01*
X50410258Y41235707D01*
X50168675Y41397128D01*
X49900242Y41508317D01*
X49615275Y41565000D01*
X49324725Y41565000D01*
X49039758Y41508317D01*
X48771325Y41397128D01*
X48529742Y41235707D01*
X48455000Y41160965D01*
X48455000Y50400199D01*
X48440312Y50474040D01*
X48432934Y50548952D01*
X48411083Y50620987D01*
X48396395Y50694826D01*
X48367585Y50764381D01*
X48345733Y50836416D01*
X48310249Y50902802D01*
X48281438Y50972358D01*
X48239610Y51034958D01*
X48204126Y51101344D01*
X48156373Y51159532D01*
X48114545Y51222131D01*
X48061308Y51275368D01*
X48013555Y51333555D01*
X47955370Y51381306D01*
X47902131Y51434545D01*
X47839528Y51476375D01*
X47781343Y51524126D01*
X47714962Y51559608D01*
X47652358Y51601438D01*
X47582798Y51630251D01*
X47516415Y51665733D01*
X47444384Y51687583D01*
X47374826Y51716395D01*
X47300984Y51731083D01*
X47228951Y51752934D01*
X47154040Y51760312D01*
X47080199Y51775000D01*
X47004910Y51775000D01*
X46930000Y51782378D01*
X46855089Y51775000D01*
X46779801Y51775000D01*
X46705960Y51760312D01*
X46631048Y51752934D01*
X46559013Y51731083D01*
X46485174Y51716395D01*
X46415619Y51687585D01*
X46343584Y51665733D01*
X46277198Y51630249D01*
X46207642Y51601438D01*
X46145042Y51559610D01*
X46078656Y51524126D01*
X46020468Y51476373D01*
X45957869Y51434545D01*
X45904632Y51381308D01*
X45846445Y51333555D01*
X45798694Y51275370D01*
X45745455Y51222131D01*
X45703625Y51159528D01*
X45660000Y51106371D01*
X45616373Y51159532D01*
X45574545Y51222131D01*
X45521308Y51275368D01*
X45473555Y51333555D01*
X45415370Y51381306D01*
X45362131Y51434545D01*
X45299528Y51476375D01*
X45241343Y51524126D01*
X45174962Y51559608D01*
X45112358Y51601438D01*
X45042798Y51630251D01*
X44976415Y51665733D01*
X44904384Y51687583D01*
X44834826Y51716395D01*
X44760984Y51731083D01*
X44688951Y51752934D01*
X44614040Y51760312D01*
X44540199Y51775000D01*
X44464910Y51775000D01*
X44390000Y51782378D01*
X44315089Y51775000D01*
X44239801Y51775000D01*
X44165960Y51760312D01*
X44091048Y51752934D01*
X44019013Y51731083D01*
X43945174Y51716395D01*
X43875619Y51687585D01*
X43803584Y51665733D01*
X43737198Y51630249D01*
X43667642Y51601438D01*
X43605042Y51559610D01*
X43538656Y51524126D01*
X43480468Y51476373D01*
X43417869Y51434545D01*
X43364632Y51381308D01*
X43306445Y51333555D01*
X43258694Y51275370D01*
X43205455Y51222131D01*
X43163625Y51159528D01*
X43120000Y51106371D01*
X43076373Y51159532D01*
X43034545Y51222131D01*
X42981308Y51275368D01*
X42933555Y51333555D01*
X42875370Y51381306D01*
X42822131Y51434545D01*
X42759528Y51476375D01*
X42701343Y51524126D01*
X42634962Y51559608D01*
X42572358Y51601438D01*
X42502798Y51630251D01*
X42436415Y51665733D01*
X42364384Y51687583D01*
X42294826Y51716395D01*
X42220984Y51731083D01*
X42148951Y51752934D01*
X42074040Y51760312D01*
X42000199Y51775000D01*
X41924910Y51775000D01*
X41850000Y51782378D01*
X41775089Y51775000D01*
X41699801Y51775000D01*
X41625960Y51760312D01*
X41551048Y51752934D01*
X41479013Y51731083D01*
X41405174Y51716395D01*
X41335619Y51687585D01*
X41263584Y51665733D01*
X41197198Y51630249D01*
X41127642Y51601438D01*
X41065042Y51559610D01*
X40998656Y51524126D01*
X40940468Y51476373D01*
X40877869Y51434545D01*
X40824632Y51381308D01*
X40766445Y51333555D01*
X40718694Y51275370D01*
X40665455Y51222131D01*
X40623625Y51159528D01*
X40575874Y51101343D01*
X40540392Y51034962D01*
X40498562Y50972358D01*
X40469749Y50902798D01*
X40434267Y50836415D01*
X40412417Y50764384D01*
X40383605Y50694826D01*
X40368917Y50620984D01*
X40347066Y50548951D01*
X40339688Y50474040D01*
X40325000Y50400199D01*
X40325000Y50324910D01*
X40325001Y47965000D01*
X39159801Y47965000D01*
X39085960Y47950312D01*
X39011048Y47942934D01*
X38939013Y47921083D01*
X38865174Y47906395D01*
X38795619Y47877585D01*
X38723584Y47855733D01*
X38657198Y47820249D01*
X38587642Y47791438D01*
X38525042Y47749610D01*
X38458656Y47714126D01*
X38400468Y47666373D01*
X38337869Y47624545D01*
X38284632Y47571308D01*
X38226445Y47523555D01*
X38178692Y47465368D01*
X38125455Y47412131D01*
X38083627Y47349532D01*
X38035874Y47291344D01*
X38000390Y47224958D01*
X37958562Y47162358D01*
X37929751Y47092802D01*
X37894267Y47026416D01*
X37872415Y46954381D01*
X37843605Y46884826D01*
X37828917Y46810987D01*
X37807066Y46738952D01*
X37799688Y46664040D01*
X37785000Y46590199D01*
X37785000Y46514911D01*
X37777622Y46440000D01*
X37785000Y46365089D01*
X37785000Y46289801D01*
X37799688Y46215960D01*
X37807066Y46141048D01*
X37828917Y46069013D01*
X37843605Y45995174D01*
X37872415Y45925619D01*
X37894267Y45853584D01*
X37929751Y45787198D01*
X37958562Y45717642D01*
X38000390Y45655042D01*
X38035874Y45588656D01*
X38083627Y45530468D01*
X38125455Y45467869D01*
X38178692Y45414632D01*
X38226445Y45356445D01*
X38284632Y45308692D01*
X38337869Y45255455D01*
X38400468Y45213627D01*
X38458656Y45165874D01*
X38525042Y45130390D01*
X38587642Y45088562D01*
X38657198Y45059751D01*
X38723584Y45024267D01*
X38795619Y45002415D01*
X38865174Y44973605D01*
X38939013Y44958917D01*
X39011048Y44937066D01*
X39085960Y44929688D01*
X39159801Y44915000D01*
X41775090Y44915000D01*
X41850000Y44907622D01*
X41924911Y44915000D01*
X42000199Y44915000D01*
X42074040Y44929688D01*
X42148952Y44937066D01*
X42220987Y44958917D01*
X42294826Y44973605D01*
X42364381Y45002415D01*
X42436416Y45024267D01*
X42502802Y45059751D01*
X42572358Y45088562D01*
X42634958Y45130390D01*
X42701344Y45165874D01*
X42759532Y45213627D01*
X42822131Y45255455D01*
X42865000Y45298324D01*
X42865001Y41160964D01*
X42790258Y41235707D01*
X42548675Y41397128D01*
X42280242Y41508317D01*
X41995275Y41565000D01*
X41704725Y41565000D01*
X41419758Y41508317D01*
X41151325Y41397128D01*
X40909742Y41235707D01*
X40704293Y41030258D01*
X40580000Y40844241D01*
X40455707Y41030258D01*
X40250258Y41235707D01*
X40008675Y41397128D01*
X39740242Y41508317D01*
X39455275Y41565000D01*
X39164725Y41565000D01*
X38879758Y41508317D01*
X38611325Y41397128D01*
X38369742Y41235707D01*
X38295000Y41160965D01*
X38295000Y42993353D01*
X38302377Y43068253D01*
X38295000Y43143153D01*
X38295000Y43143163D01*
X38272934Y43367204D01*
X38185733Y43654668D01*
X38044126Y43919596D01*
X37853555Y44151807D01*
X37795369Y44199559D01*
X35755000Y46239926D01*
X35755000Y50400199D01*
X35740312Y50474040D01*
X35732934Y50548952D01*
X35711083Y50620987D01*
X35696395Y50694826D01*
X35667585Y50764381D01*
X35645733Y50836416D01*
X35610249Y50902802D01*
X35581438Y50972358D01*
X35539610Y51034958D01*
X35504126Y51101344D01*
X35456373Y51159532D01*
X35414545Y51222131D01*
X35361308Y51275368D01*
X35313555Y51333555D01*
X35255370Y51381306D01*
X35202131Y51434545D01*
X35139528Y51476375D01*
X35081343Y51524126D01*
X35014962Y51559608D01*
X34952358Y51601438D01*
X34882798Y51630251D01*
X34816415Y51665733D01*
X34744384Y51687583D01*
X34674826Y51716395D01*
X34600984Y51731083D01*
X34528951Y51752934D01*
X34454040Y51760312D01*
X34380199Y51775000D01*
X34304910Y51775000D01*
X34230000Y51782378D01*
X34155089Y51775000D01*
X34079801Y51775000D01*
X34005960Y51760312D01*
X33931048Y51752934D01*
X33859013Y51731083D01*
X33785174Y51716395D01*
X33715619Y51687585D01*
X33643584Y51665733D01*
X33577198Y51630249D01*
X33507642Y51601438D01*
X33445042Y51559610D01*
X33378656Y51524126D01*
X33320468Y51476373D01*
X33257869Y51434545D01*
X33204632Y51381308D01*
X33146445Y51333555D01*
X33098694Y51275370D01*
X33045455Y51222131D01*
X33003625Y51159528D01*
X32960000Y51106371D01*
X32916373Y51159532D01*
X32874545Y51222131D01*
X32821308Y51275368D01*
X32773555Y51333555D01*
X32715370Y51381306D01*
X32662131Y51434545D01*
X32599528Y51476375D01*
X32541343Y51524126D01*
X32474962Y51559608D01*
X32412358Y51601438D01*
X32342798Y51630251D01*
X32276415Y51665733D01*
X32204384Y51687583D01*
X32134826Y51716395D01*
X32060984Y51731083D01*
X31988951Y51752934D01*
X31914040Y51760312D01*
X31840199Y51775000D01*
X31764910Y51775000D01*
X31690000Y51782378D01*
X31615089Y51775000D01*
X31539801Y51775000D01*
X31465960Y51760312D01*
X31391048Y51752934D01*
X31319013Y51731083D01*
X31245174Y51716395D01*
X31175619Y51687585D01*
X31103584Y51665733D01*
X31037198Y51630249D01*
X30967642Y51601438D01*
X30905042Y51559610D01*
X30838656Y51524126D01*
X30780468Y51476373D01*
X30717869Y51434545D01*
X30664632Y51381308D01*
X30606445Y51333555D01*
X30558694Y51275370D01*
X30505455Y51222131D01*
X30463625Y51159528D01*
X30420000Y51106371D01*
X30376373Y51159532D01*
X30334545Y51222131D01*
X30281308Y51275368D01*
X30233555Y51333555D01*
X30175370Y51381306D01*
X30122131Y51434545D01*
X30059528Y51476375D01*
X30001343Y51524126D01*
X29934962Y51559608D01*
X29872358Y51601438D01*
X29802798Y51630251D01*
X29736415Y51665733D01*
X29664384Y51687583D01*
X29594826Y51716395D01*
X29520984Y51731083D01*
X29448951Y51752934D01*
X29374040Y51760312D01*
X29300199Y51775000D01*
X29224910Y51775000D01*
X29150000Y51782378D01*
X29075089Y51775000D01*
X28999801Y51775000D01*
X28925960Y51760312D01*
X28851048Y51752934D01*
X28779013Y51731083D01*
X28705174Y51716395D01*
X28635619Y51687585D01*
X28563584Y51665733D01*
X28497198Y51630249D01*
X28427642Y51601438D01*
X28365042Y51559610D01*
X28298656Y51524126D01*
X28240468Y51476373D01*
X28177869Y51434545D01*
X28124632Y51381308D01*
X28066445Y51333555D01*
X28018694Y51275370D01*
X27965455Y51222131D01*
X27923625Y51159528D01*
X27875874Y51101343D01*
X27840392Y51034962D01*
X27798562Y50972358D01*
X27769749Y50902798D01*
X27734267Y50836415D01*
X27712417Y50764384D01*
X27683605Y50694826D01*
X27668917Y50620984D01*
X27647066Y50548951D01*
X27639688Y50474040D01*
X27625000Y50400199D01*
X27625000Y50324910D01*
X27625001Y47784920D01*
X27625000Y47784910D01*
X27625001Y43974920D01*
X27617622Y43900000D01*
X27647066Y43601048D01*
X27734267Y43313585D01*
X27734268Y43313584D01*
X27875875Y43048656D01*
X28066446Y42816445D01*
X28124638Y42768688D01*
X29336531Y41556794D01*
X29295275Y41565000D01*
X29004725Y41565000D01*
X28719758Y41508317D01*
X28451325Y41397128D01*
X28209742Y41235707D01*
X28004293Y41030258D01*
X27842872Y40788675D01*
X27731683Y40520242D01*
X27675000Y40235275D01*
X27675000Y39944725D01*
X27731683Y39659758D01*
X27842872Y39391325D01*
X28004293Y39149742D01*
X28079035Y39075000D01*
X25209817Y39075000D01*
X25344126Y39238656D01*
X25485733Y39503584D01*
X25572934Y39791048D01*
X25602378Y40090000D01*
X25572934Y40388952D01*
X25485733Y40676416D01*
X25344126Y40941344D01*
X25153555Y41173555D01*
X24921344Y41364126D01*
X24656416Y41505733D01*
X24368952Y41592934D01*
X24144911Y41615000D01*
X23055000Y41615000D01*
X23055000Y50400199D01*
X23040312Y50474040D01*
X23032934Y50548952D01*
X23011083Y50620987D01*
X22996395Y50694826D01*
X22967585Y50764381D01*
X22945733Y50836416D01*
X22910249Y50902802D01*
X22881438Y50972358D01*
X22839610Y51034958D01*
X22804126Y51101344D01*
X22756373Y51159532D01*
X22714545Y51222131D01*
X22661308Y51275368D01*
X22613555Y51333555D01*
X22555368Y51381308D01*
X22502131Y51434545D01*
X22439532Y51476373D01*
X22381344Y51524126D01*
X22314958Y51559610D01*
X22252358Y51601438D01*
X22182802Y51630249D01*
X22116416Y51665733D01*
X22044381Y51687585D01*
X21974826Y51716395D01*
X21900987Y51731083D01*
X21828952Y51752934D01*
X21754040Y51760312D01*
X21680199Y51775000D01*
X21604911Y51775000D01*
X21530000Y51782378D01*
X21455090Y51775000D01*
X21379801Y51775000D01*
X21305960Y51760312D01*
X21231049Y51752934D01*
X21159016Y51731083D01*
X21085174Y51716395D01*
X21015616Y51687583D01*
X20943585Y51665733D01*
X20877202Y51630251D01*
X20807642Y51601438D01*
X20745038Y51559608D01*
X20678657Y51524126D01*
X20620474Y51476376D01*
X20557869Y51434545D01*
X20504627Y51381303D01*
X20446446Y51333555D01*
X20398698Y51275374D01*
X20345455Y51222131D01*
X20303623Y51159525D01*
X20255875Y51101344D01*
X20220395Y51034965D01*
X20178562Y50972358D01*
X20149748Y50902794D01*
X20114268Y50836416D01*
X20092419Y50764390D01*
X20063605Y50694826D01*
X20048916Y50620977D01*
X20027067Y50548952D01*
X20019690Y50474049D01*
X20005000Y50400199D01*
X20005000Y50099801D01*
X20005001Y50099796D01*
X20005000Y40240199D01*
X20005000Y40164911D01*
X19997622Y40090000D01*
X20005000Y40015090D01*
X20005000Y39939801D01*
X20019688Y39865960D01*
X20027066Y39791048D01*
X20048917Y39719013D01*
X20063605Y39645174D01*
X20092415Y39575619D01*
X20114267Y39503584D01*
X20149751Y39437198D01*
X20178562Y39367642D01*
X20220390Y39305042D01*
X20255874Y39238656D01*
X20303627Y39180468D01*
X20345455Y39117869D01*
X20388324Y39075000D01*
X17943759Y39075000D01*
X17868848Y39082378D01*
X17569896Y39052934D01*
X17502991Y39032638D01*
X17282433Y38965733D01*
X17017505Y38824126D01*
X16785294Y38633555D01*
X16737536Y38575362D01*
X15642622Y37480447D01*
X15584425Y37432686D01*
X15393854Y37200474D01*
X15317853Y37058286D01*
X15273726Y36975730D01*
X9071123Y30773126D01*
X9012925Y30725364D01*
X8822354Y30493152D01*
X8680748Y30228225D01*
X8680747Y30228224D01*
X8593546Y29940761D01*
X8564102Y29641809D01*
X8571480Y29566899D01*
X8571481Y14048156D01*
X7857875Y13334549D01*
X7857869Y13334545D01*
X7645455Y13122131D01*
X7603620Y13059520D01*
X7555875Y13001343D01*
X7555599Y13000826D01*
X7474545Y13122131D01*
X7465000Y13131676D01*
X7465000Y14310384D01*
X7566395Y14555174D01*
X7625000Y14849801D01*
X7625000Y15150199D01*
X7566395Y15444826D01*
X7451438Y15722358D01*
X7284545Y15972131D01*
X7072131Y16184545D01*
X6822358Y16351438D01*
X6544826Y16466395D01*
X6250199Y16525000D01*
X5949801Y16525000D01*
X5655174Y16466395D01*
X5377642Y16351438D01*
X5127869Y16184545D01*
X4915455Y15972131D01*
X4748562Y15722358D01*
X4633605Y15444826D01*
X4575000Y15150199D01*
X450000Y15150199D01*
X450000Y37550000D01*
X9977896Y37550000D01*
X10000000Y37547823D01*
X10088215Y37556511D01*
X10173041Y37582243D01*
X10251216Y37624029D01*
X10319737Y37680263D01*
X10375971Y37748784D01*
X10417757Y37826959D01*
X10443489Y37911785D01*
X10450000Y37977895D01*
X10452177Y38000000D01*
X10450000Y38022105D01*
X10450000Y54550000D01*
X61550001Y54550000D01*
X61550000Y450000D01*
G36*
X21550001Y75022115D02*
G01*
X21547823Y75000000D01*
X21556511Y74911785D01*
X21582243Y74826959D01*
X21624029Y74748784D01*
X21680263Y74680263D01*
X21748784Y74624029D01*
X21826959Y74582243D01*
X21911785Y74556511D01*
X21977895Y74550000D01*
X21977896Y74550000D01*
X22000000Y74547823D01*
X22022105Y74550000D01*
X29550000Y74550000D01*
X29550001Y67450000D01*
X22022104Y67450000D01*
X22000000Y67452177D01*
X21977895Y67450000D01*
X21911785Y67443489D01*
X21826959Y67417757D01*
X21748784Y67375971D01*
X21680263Y67319737D01*
X21624029Y67251216D01*
X21582243Y67173041D01*
X21556511Y67088215D01*
X21547823Y67000000D01*
X21550000Y66977896D01*
X21550001Y58450000D01*
X7450000Y58450000D01*
X7450000Y65770199D01*
X9285000Y65770199D01*
X9285000Y65469801D01*
X9343605Y65175174D01*
X9458562Y64897642D01*
X9625455Y64647869D01*
X9837869Y64435455D01*
X10087642Y64268562D01*
X10365174Y64153605D01*
X10659801Y64095000D01*
X10960199Y64095000D01*
X11132941Y64129361D01*
X12175001Y63087300D01*
X12175000Y61521676D01*
X12165455Y61512131D01*
X11998562Y61262358D01*
X11883605Y60984826D01*
X11825000Y60690199D01*
X11825000Y60389801D01*
X11883605Y60095174D01*
X11998562Y59817642D01*
X12165455Y59567869D01*
X12377869Y59355455D01*
X12627642Y59188562D01*
X12905174Y59073605D01*
X13199801Y59015000D01*
X13500199Y59015000D01*
X13794826Y59073605D01*
X14072358Y59188562D01*
X14322131Y59355455D01*
X14534545Y59567869D01*
X14620000Y59695761D01*
X14705455Y59567869D01*
X14917869Y59355455D01*
X15167642Y59188562D01*
X15445174Y59073605D01*
X15739801Y59015000D01*
X16040199Y59015000D01*
X16334826Y59073605D01*
X16612358Y59188562D01*
X16862131Y59355455D01*
X17074545Y59567869D01*
X17160000Y59695761D01*
X17245455Y59567869D01*
X17457869Y59355455D01*
X17707642Y59188562D01*
X17985174Y59073605D01*
X18279801Y59015000D01*
X18580199Y59015000D01*
X18874826Y59073605D01*
X19152358Y59188562D01*
X19402131Y59355455D01*
X19614545Y59567869D01*
X19781438Y59817642D01*
X19896395Y60095174D01*
X19955000Y60389801D01*
X19955000Y60690199D01*
X19896395Y60984826D01*
X19781438Y61262358D01*
X19614545Y61512131D01*
X19605000Y61521676D01*
X19605000Y69573125D01*
X20490040Y70458164D01*
X20534870Y70494955D01*
X20681704Y70673872D01*
X20790811Y70877996D01*
X20802193Y70915517D01*
X20884545Y70997869D01*
X21051438Y71247642D01*
X21166395Y71525174D01*
X21225000Y71819801D01*
X21225000Y72120199D01*
X21166395Y72414826D01*
X21051438Y72692358D01*
X20884545Y72942131D01*
X20875000Y72951676D01*
X20875000Y75722288D01*
X20880684Y75780000D01*
X20875000Y75837712D01*
X20875000Y75837720D01*
X20857998Y76010340D01*
X20790811Y76231829D01*
X20681704Y76435953D01*
X20534870Y76614870D01*
X20490039Y76651662D01*
X17415000Y79726700D01*
X17415000Y79740199D01*
X17356395Y80034826D01*
X17241438Y80312358D01*
X17074545Y80562131D01*
X16862131Y80774545D01*
X16612358Y80941438D01*
X16334826Y81056395D01*
X16040199Y81115000D01*
X15739801Y81115000D01*
X15445174Y81056395D01*
X15167642Y80941438D01*
X14917869Y80774545D01*
X14705455Y80562131D01*
X14620000Y80434239D01*
X14534545Y80562131D01*
X14322131Y80774545D01*
X14072358Y80941438D01*
X13794826Y81056395D01*
X13500199Y81115000D01*
X13199801Y81115000D01*
X12905174Y81056395D01*
X12627642Y80941438D01*
X12377869Y80774545D01*
X12165455Y80562131D01*
X11998562Y80312358D01*
X11883605Y80034826D01*
X11825000Y79740199D01*
X11825000Y79439801D01*
X11883605Y79145174D01*
X11998562Y78867642D01*
X12165455Y78617869D01*
X12175001Y78608323D01*
X12175000Y74567712D01*
X12169316Y74510000D01*
X12175000Y74452288D01*
X12175000Y74452281D01*
X12192002Y74279661D01*
X12259189Y74058172D01*
X12368296Y73854048D01*
X12515130Y73675130D01*
X12559966Y73638334D01*
X13445001Y72753299D01*
X13445000Y71680703D01*
X10019962Y68255664D01*
X9975131Y68218872D01*
X9938339Y68174041D01*
X9938336Y68174038D01*
X9834898Y68047998D01*
X9828297Y68039955D01*
X9719189Y67835831D01*
X9652002Y67614342D01*
X9635000Y67441722D01*
X9635000Y67441714D01*
X9629316Y67384002D01*
X9635000Y67326290D01*
X9635000Y66601676D01*
X9625455Y66592131D01*
X9458562Y66342358D01*
X9343605Y66064826D01*
X9285000Y65770199D01*
X7450000Y65770199D01*
X7450000Y66977896D01*
X7452177Y67000000D01*
X7443489Y67088215D01*
X7417757Y67173041D01*
X7375971Y67251216D01*
X7319737Y67319737D01*
X7251216Y67375971D01*
X7173041Y67417757D01*
X7088215Y67443489D01*
X7022105Y67450000D01*
X7000000Y67452177D01*
X6977896Y67450000D01*
X450000Y67450000D01*
X450000Y74550000D01*
X6977895Y74550000D01*
X7000000Y74547823D01*
X7022104Y74550000D01*
X7022105Y74550000D01*
X7088215Y74556511D01*
X7173041Y74582243D01*
X7251216Y74624029D01*
X7319737Y74680263D01*
X7375971Y74748784D01*
X7417757Y74826959D01*
X7443489Y74911785D01*
X7452177Y75000000D01*
X7450000Y75022105D01*
X7450000Y83275000D01*
X21550000Y83275000D01*
X21550001Y75022115D01*
G37*
X21550001Y75022115D02*
X21547823Y75000000D01*
X21556511Y74911785D01*
X21582243Y74826959D01*
X21624029Y74748784D01*
X21680263Y74680263D01*
X21748784Y74624029D01*
X21826959Y74582243D01*
X21911785Y74556511D01*
X21977895Y74550000D01*
X21977896Y74550000D01*
X22000000Y74547823D01*
X22022105Y74550000D01*
X29550000Y74550000D01*
X29550001Y67450000D01*
X22022104Y67450000D01*
X22000000Y67452177D01*
X21977895Y67450000D01*
X21911785Y67443489D01*
X21826959Y67417757D01*
X21748784Y67375971D01*
X21680263Y67319737D01*
X21624029Y67251216D01*
X21582243Y67173041D01*
X21556511Y67088215D01*
X21547823Y67000000D01*
X21550000Y66977896D01*
X21550001Y58450000D01*
X7450000Y58450000D01*
X7450000Y65770199D01*
X9285000Y65770199D01*
X9285000Y65469801D01*
X9343605Y65175174D01*
X9458562Y64897642D01*
X9625455Y64647869D01*
X9837869Y64435455D01*
X10087642Y64268562D01*
X10365174Y64153605D01*
X10659801Y64095000D01*
X10960199Y64095000D01*
X11132941Y64129361D01*
X12175001Y63087300D01*
X12175000Y61521676D01*
X12165455Y61512131D01*
X11998562Y61262358D01*
X11883605Y60984826D01*
X11825000Y60690199D01*
X11825000Y60389801D01*
X11883605Y60095174D01*
X11998562Y59817642D01*
X12165455Y59567869D01*
X12377869Y59355455D01*
X12627642Y59188562D01*
X12905174Y59073605D01*
X13199801Y59015000D01*
X13500199Y59015000D01*
X13794826Y59073605D01*
X14072358Y59188562D01*
X14322131Y59355455D01*
X14534545Y59567869D01*
X14620000Y59695761D01*
X14705455Y59567869D01*
X14917869Y59355455D01*
X15167642Y59188562D01*
X15445174Y59073605D01*
X15739801Y59015000D01*
X16040199Y59015000D01*
X16334826Y59073605D01*
X16612358Y59188562D01*
X16862131Y59355455D01*
X17074545Y59567869D01*
X17160000Y59695761D01*
X17245455Y59567869D01*
X17457869Y59355455D01*
X17707642Y59188562D01*
X17985174Y59073605D01*
X18279801Y59015000D01*
X18580199Y59015000D01*
X18874826Y59073605D01*
X19152358Y59188562D01*
X19402131Y59355455D01*
X19614545Y59567869D01*
X19781438Y59817642D01*
X19896395Y60095174D01*
X19955000Y60389801D01*
X19955000Y60690199D01*
X19896395Y60984826D01*
X19781438Y61262358D01*
X19614545Y61512131D01*
X19605000Y61521676D01*
X19605000Y69573125D01*
X20490040Y70458164D01*
X20534870Y70494955D01*
X20681704Y70673872D01*
X20790811Y70877996D01*
X20802193Y70915517D01*
X20884545Y70997869D01*
X21051438Y71247642D01*
X21166395Y71525174D01*
X21225000Y71819801D01*
X21225000Y72120199D01*
X21166395Y72414826D01*
X21051438Y72692358D01*
X20884545Y72942131D01*
X20875000Y72951676D01*
X20875000Y75722288D01*
X20880684Y75780000D01*
X20875000Y75837712D01*
X20875000Y75837720D01*
X20857998Y76010340D01*
X20790811Y76231829D01*
X20681704Y76435953D01*
X20534870Y76614870D01*
X20490039Y76651662D01*
X17415000Y79726700D01*
X17415000Y79740199D01*
X17356395Y80034826D01*
X17241438Y80312358D01*
X17074545Y80562131D01*
X16862131Y80774545D01*
X16612358Y80941438D01*
X16334826Y81056395D01*
X16040199Y81115000D01*
X15739801Y81115000D01*
X15445174Y81056395D01*
X15167642Y80941438D01*
X14917869Y80774545D01*
X14705455Y80562131D01*
X14620000Y80434239D01*
X14534545Y80562131D01*
X14322131Y80774545D01*
X14072358Y80941438D01*
X13794826Y81056395D01*
X13500199Y81115000D01*
X13199801Y81115000D01*
X12905174Y81056395D01*
X12627642Y80941438D01*
X12377869Y80774545D01*
X12165455Y80562131D01*
X11998562Y80312358D01*
X11883605Y80034826D01*
X11825000Y79740199D01*
X11825000Y79439801D01*
X11883605Y79145174D01*
X11998562Y78867642D01*
X12165455Y78617869D01*
X12175001Y78608323D01*
X12175000Y74567712D01*
X12169316Y74510000D01*
X12175000Y74452288D01*
X12175000Y74452281D01*
X12192002Y74279661D01*
X12259189Y74058172D01*
X12368296Y73854048D01*
X12515130Y73675130D01*
X12559966Y73638334D01*
X13445001Y72753299D01*
X13445000Y71680703D01*
X10019962Y68255664D01*
X9975131Y68218872D01*
X9938339Y68174041D01*
X9938336Y68174038D01*
X9834898Y68047998D01*
X9828297Y68039955D01*
X9719189Y67835831D01*
X9652002Y67614342D01*
X9635000Y67441722D01*
X9635000Y67441714D01*
X9629316Y67384002D01*
X9635000Y67326290D01*
X9635000Y66601676D01*
X9625455Y66592131D01*
X9458562Y66342358D01*
X9343605Y66064826D01*
X9285000Y65770199D01*
X7450000Y65770199D01*
X7450000Y66977896D01*
X7452177Y67000000D01*
X7443489Y67088215D01*
X7417757Y67173041D01*
X7375971Y67251216D01*
X7319737Y67319737D01*
X7251216Y67375971D01*
X7173041Y67417757D01*
X7088215Y67443489D01*
X7022105Y67450000D01*
X7000000Y67452177D01*
X6977896Y67450000D01*
X450000Y67450000D01*
X450000Y74550000D01*
X6977895Y74550000D01*
X7000000Y74547823D01*
X7022104Y74550000D01*
X7022105Y74550000D01*
X7088215Y74556511D01*
X7173041Y74582243D01*
X7251216Y74624029D01*
X7319737Y74680263D01*
X7375971Y74748784D01*
X7417757Y74826959D01*
X7443489Y74911785D01*
X7452177Y75000000D01*
X7450000Y75022105D01*
X7450000Y83275000D01*
X21550000Y83275000D01*
X21550001Y75022115D01*
G36*
X55550001Y75022115D02*
G01*
X55547823Y75000000D01*
X55556511Y74911785D01*
X55582243Y74826959D01*
X55624029Y74748784D01*
X55680263Y74680263D01*
X55748784Y74624029D01*
X55826959Y74582243D01*
X55911785Y74556511D01*
X55977895Y74550000D01*
X55977896Y74550000D01*
X56000000Y74547823D01*
X56022105Y74550000D01*
X63550000Y74550000D01*
X63550001Y67450000D01*
X56022104Y67450000D01*
X56000000Y67452177D01*
X55977895Y67450000D01*
X55911785Y67443489D01*
X55826959Y67417757D01*
X55748784Y67375971D01*
X55680263Y67319737D01*
X55624029Y67251216D01*
X55582243Y67173041D01*
X55556511Y67088215D01*
X55547823Y67000000D01*
X55550000Y66977896D01*
X55550001Y58450000D01*
X41450000Y58450000D01*
X41450000Y65770199D01*
X43285000Y65770199D01*
X43285000Y65469801D01*
X43343605Y65175174D01*
X43458562Y64897642D01*
X43625455Y64647869D01*
X43837869Y64435455D01*
X44087642Y64268562D01*
X44365174Y64153605D01*
X44659801Y64095000D01*
X44960199Y64095000D01*
X45132941Y64129361D01*
X46175001Y63087300D01*
X46175000Y61521676D01*
X46165455Y61512131D01*
X45998562Y61262358D01*
X45883605Y60984826D01*
X45825000Y60690199D01*
X45825000Y60389801D01*
X45883605Y60095174D01*
X45998562Y59817642D01*
X46165455Y59567869D01*
X46377869Y59355455D01*
X46627642Y59188562D01*
X46905174Y59073605D01*
X47199801Y59015000D01*
X47500199Y59015000D01*
X47794826Y59073605D01*
X48072358Y59188562D01*
X48322131Y59355455D01*
X48534545Y59567869D01*
X48620000Y59695761D01*
X48705455Y59567869D01*
X48917869Y59355455D01*
X49167642Y59188562D01*
X49445174Y59073605D01*
X49739801Y59015000D01*
X50040199Y59015000D01*
X50334826Y59073605D01*
X50612358Y59188562D01*
X50862131Y59355455D01*
X51074545Y59567869D01*
X51160000Y59695761D01*
X51245455Y59567869D01*
X51457869Y59355455D01*
X51707642Y59188562D01*
X51985174Y59073605D01*
X52279801Y59015000D01*
X52580199Y59015000D01*
X52874826Y59073605D01*
X53152358Y59188562D01*
X53402131Y59355455D01*
X53614545Y59567869D01*
X53781438Y59817642D01*
X53896395Y60095174D01*
X53955000Y60389801D01*
X53955000Y60690199D01*
X53896395Y60984826D01*
X53781438Y61262358D01*
X53614545Y61512131D01*
X53605000Y61521676D01*
X53605000Y69573125D01*
X54490040Y70458164D01*
X54534870Y70494955D01*
X54681704Y70673872D01*
X54790811Y70877996D01*
X54802193Y70915517D01*
X54884545Y70997869D01*
X55051438Y71247642D01*
X55166395Y71525174D01*
X55225000Y71819801D01*
X55225000Y72120199D01*
X55166395Y72414826D01*
X55051438Y72692358D01*
X54884545Y72942131D01*
X54875000Y72951676D01*
X54875000Y75722288D01*
X54880684Y75780000D01*
X54875000Y75837712D01*
X54875000Y75837720D01*
X54857998Y76010340D01*
X54790811Y76231829D01*
X54681704Y76435953D01*
X54534870Y76614870D01*
X54490039Y76651662D01*
X51415000Y79726700D01*
X51415000Y79740199D01*
X51356395Y80034826D01*
X51241438Y80312358D01*
X51074545Y80562131D01*
X50862131Y80774545D01*
X50612358Y80941438D01*
X50334826Y81056395D01*
X50040199Y81115000D01*
X49739801Y81115000D01*
X49445174Y81056395D01*
X49167642Y80941438D01*
X48917869Y80774545D01*
X48705455Y80562131D01*
X48620000Y80434239D01*
X48534545Y80562131D01*
X48322131Y80774545D01*
X48072358Y80941438D01*
X47794826Y81056395D01*
X47500199Y81115000D01*
X47199801Y81115000D01*
X46905174Y81056395D01*
X46627642Y80941438D01*
X46377869Y80774545D01*
X46165455Y80562131D01*
X45998562Y80312358D01*
X45883605Y80034826D01*
X45825000Y79740199D01*
X45825000Y79439801D01*
X45883605Y79145174D01*
X45998562Y78867642D01*
X46165455Y78617869D01*
X46175001Y78608323D01*
X46175000Y74567712D01*
X46169316Y74510000D01*
X46175000Y74452288D01*
X46175000Y74452281D01*
X46192002Y74279661D01*
X46259189Y74058172D01*
X46368296Y73854048D01*
X46515130Y73675130D01*
X46559966Y73638334D01*
X47445001Y72753299D01*
X47445000Y71680703D01*
X44019962Y68255664D01*
X43975131Y68218872D01*
X43938339Y68174041D01*
X43938336Y68174038D01*
X43834898Y68047998D01*
X43828297Y68039955D01*
X43719189Y67835831D01*
X43652002Y67614342D01*
X43635000Y67441722D01*
X43635000Y67441714D01*
X43629316Y67384002D01*
X43635000Y67326290D01*
X43635000Y66601676D01*
X43625455Y66592131D01*
X43458562Y66342358D01*
X43343605Y66064826D01*
X43285000Y65770199D01*
X41450000Y65770199D01*
X41450000Y66977896D01*
X41452177Y67000000D01*
X41443489Y67088215D01*
X41417757Y67173041D01*
X41375971Y67251216D01*
X41319737Y67319737D01*
X41251216Y67375971D01*
X41173041Y67417757D01*
X41088215Y67443489D01*
X41022105Y67450000D01*
X41000000Y67452177D01*
X40977896Y67450000D01*
X34450000Y67450000D01*
X34450000Y74550000D01*
X40977895Y74550000D01*
X41000000Y74547823D01*
X41022104Y74550000D01*
X41022105Y74550000D01*
X41088215Y74556511D01*
X41173041Y74582243D01*
X41251216Y74624029D01*
X41319737Y74680263D01*
X41375971Y74748784D01*
X41417757Y74826959D01*
X41443489Y74911785D01*
X41452177Y75000000D01*
X41450000Y75022105D01*
X41450000Y83275000D01*
X55550000Y83275000D01*
X55550001Y75022115D01*
G37*
X55550001Y75022115D02*
X55547823Y75000000D01*
X55556511Y74911785D01*
X55582243Y74826959D01*
X55624029Y74748784D01*
X55680263Y74680263D01*
X55748784Y74624029D01*
X55826959Y74582243D01*
X55911785Y74556511D01*
X55977895Y74550000D01*
X55977896Y74550000D01*
X56000000Y74547823D01*
X56022105Y74550000D01*
X63550000Y74550000D01*
X63550001Y67450000D01*
X56022104Y67450000D01*
X56000000Y67452177D01*
X55977895Y67450000D01*
X55911785Y67443489D01*
X55826959Y67417757D01*
X55748784Y67375971D01*
X55680263Y67319737D01*
X55624029Y67251216D01*
X55582243Y67173041D01*
X55556511Y67088215D01*
X55547823Y67000000D01*
X55550000Y66977896D01*
X55550001Y58450000D01*
X41450000Y58450000D01*
X41450000Y65770199D01*
X43285000Y65770199D01*
X43285000Y65469801D01*
X43343605Y65175174D01*
X43458562Y64897642D01*
X43625455Y64647869D01*
X43837869Y64435455D01*
X44087642Y64268562D01*
X44365174Y64153605D01*
X44659801Y64095000D01*
X44960199Y64095000D01*
X45132941Y64129361D01*
X46175001Y63087300D01*
X46175000Y61521676D01*
X46165455Y61512131D01*
X45998562Y61262358D01*
X45883605Y60984826D01*
X45825000Y60690199D01*
X45825000Y60389801D01*
X45883605Y60095174D01*
X45998562Y59817642D01*
X46165455Y59567869D01*
X46377869Y59355455D01*
X46627642Y59188562D01*
X46905174Y59073605D01*
X47199801Y59015000D01*
X47500199Y59015000D01*
X47794826Y59073605D01*
X48072358Y59188562D01*
X48322131Y59355455D01*
X48534545Y59567869D01*
X48620000Y59695761D01*
X48705455Y59567869D01*
X48917869Y59355455D01*
X49167642Y59188562D01*
X49445174Y59073605D01*
X49739801Y59015000D01*
X50040199Y59015000D01*
X50334826Y59073605D01*
X50612358Y59188562D01*
X50862131Y59355455D01*
X51074545Y59567869D01*
X51160000Y59695761D01*
X51245455Y59567869D01*
X51457869Y59355455D01*
X51707642Y59188562D01*
X51985174Y59073605D01*
X52279801Y59015000D01*
X52580199Y59015000D01*
X52874826Y59073605D01*
X53152358Y59188562D01*
X53402131Y59355455D01*
X53614545Y59567869D01*
X53781438Y59817642D01*
X53896395Y60095174D01*
X53955000Y60389801D01*
X53955000Y60690199D01*
X53896395Y60984826D01*
X53781438Y61262358D01*
X53614545Y61512131D01*
X53605000Y61521676D01*
X53605000Y69573125D01*
X54490040Y70458164D01*
X54534870Y70494955D01*
X54681704Y70673872D01*
X54790811Y70877996D01*
X54802193Y70915517D01*
X54884545Y70997869D01*
X55051438Y71247642D01*
X55166395Y71525174D01*
X55225000Y71819801D01*
X55225000Y72120199D01*
X55166395Y72414826D01*
X55051438Y72692358D01*
X54884545Y72942131D01*
X54875000Y72951676D01*
X54875000Y75722288D01*
X54880684Y75780000D01*
X54875000Y75837712D01*
X54875000Y75837720D01*
X54857998Y76010340D01*
X54790811Y76231829D01*
X54681704Y76435953D01*
X54534870Y76614870D01*
X54490039Y76651662D01*
X51415000Y79726700D01*
X51415000Y79740199D01*
X51356395Y80034826D01*
X51241438Y80312358D01*
X51074545Y80562131D01*
X50862131Y80774545D01*
X50612358Y80941438D01*
X50334826Y81056395D01*
X50040199Y81115000D01*
X49739801Y81115000D01*
X49445174Y81056395D01*
X49167642Y80941438D01*
X48917869Y80774545D01*
X48705455Y80562131D01*
X48620000Y80434239D01*
X48534545Y80562131D01*
X48322131Y80774545D01*
X48072358Y80941438D01*
X47794826Y81056395D01*
X47500199Y81115000D01*
X47199801Y81115000D01*
X46905174Y81056395D01*
X46627642Y80941438D01*
X46377869Y80774545D01*
X46165455Y80562131D01*
X45998562Y80312358D01*
X45883605Y80034826D01*
X45825000Y79740199D01*
X45825000Y79439801D01*
X45883605Y79145174D01*
X45998562Y78867642D01*
X46165455Y78617869D01*
X46175001Y78608323D01*
X46175000Y74567712D01*
X46169316Y74510000D01*
X46175000Y74452288D01*
X46175000Y74452281D01*
X46192002Y74279661D01*
X46259189Y74058172D01*
X46368296Y73854048D01*
X46515130Y73675130D01*
X46559966Y73638334D01*
X47445001Y72753299D01*
X47445000Y71680703D01*
X44019962Y68255664D01*
X43975131Y68218872D01*
X43938339Y68174041D01*
X43938336Y68174038D01*
X43834898Y68047998D01*
X43828297Y68039955D01*
X43719189Y67835831D01*
X43652002Y67614342D01*
X43635000Y67441722D01*
X43635000Y67441714D01*
X43629316Y67384002D01*
X43635000Y67326290D01*
X43635000Y66601676D01*
X43625455Y66592131D01*
X43458562Y66342358D01*
X43343605Y66064826D01*
X43285000Y65770199D01*
X41450000Y65770199D01*
X41450000Y66977896D01*
X41452177Y67000000D01*
X41443489Y67088215D01*
X41417757Y67173041D01*
X41375971Y67251216D01*
X41319737Y67319737D01*
X41251216Y67375971D01*
X41173041Y67417757D01*
X41088215Y67443489D01*
X41022105Y67450000D01*
X41000000Y67452177D01*
X40977896Y67450000D01*
X34450000Y67450000D01*
X34450000Y74550000D01*
X40977895Y74550000D01*
X41000000Y74547823D01*
X41022104Y74550000D01*
X41022105Y74550000D01*
X41088215Y74556511D01*
X41173041Y74582243D01*
X41251216Y74624029D01*
X41319737Y74680263D01*
X41375971Y74748784D01*
X41417757Y74826959D01*
X41443489Y74911785D01*
X41452177Y75000000D01*
X41450000Y75022105D01*
X41450000Y83275000D01*
X55550000Y83275000D01*
X55550001Y75022115D01*
%TD*%
M02*
