%TF.GenerationSoftware,KiCad,Pcbnew,(5.1.6)-1*%
%TF.CreationDate,2022-12-04T13:23:36-05:00*%
%TF.ProjectId,combined,636f6d62-696e-4656-942e-6b696361645f,rev?*%
%TF.SameCoordinates,Original*%
%TF.FileFunction,Soldermask,Bot*%
%TF.FilePolarity,Negative*%
%FSLAX46Y46*%
G04 Gerber Fmt 4.6, Leading zero omitted, Abs format (unit mm)*
G04 Created by KiCad (PCBNEW (5.1.6)-1) date 2022-12-04 13:23:36*
%MOMM*%
%LPD*%
G01*
G04 APERTURE LIST*
%ADD10C,2.300000*%
%ADD11C,2.200000*%
%ADD12C,2.100000*%
%ADD13C,6.100000*%
%ADD14C,5.100000*%
G04 APERTURE END LIST*
D10*
%TO.C,D2*%
X49890000Y66890000D03*
X47350000Y66890000D03*
%TD*%
%TO.C,R2*%
X51160000Y74510000D03*
X43540000Y74510000D03*
%TD*%
%TO.C,D1*%
X47350000Y79590000D03*
X49890000Y79590000D03*
%TD*%
%TO.C,J1*%
X52430000Y60540000D03*
X49890000Y60540000D03*
X47350000Y60540000D03*
X44810000Y60540000D03*
%TD*%
%TO.C,R1*%
X53700000Y71970000D03*
X46080000Y71970000D03*
%TD*%
%TO.C,C1*%
X44810000Y63080000D03*
X44810000Y65620000D03*
%TD*%
%TO.C,D1*%
X15890000Y79590000D03*
X13350000Y79590000D03*
%TD*%
%TO.C,C1*%
X10810000Y65620000D03*
X10810000Y63080000D03*
%TD*%
%TO.C,J1*%
X10810000Y60540000D03*
X13350000Y60540000D03*
X15890000Y60540000D03*
X18430000Y60540000D03*
%TD*%
%TO.C,D2*%
X13350000Y66890000D03*
X15890000Y66890000D03*
%TD*%
%TO.C,R2*%
X9540000Y74510000D03*
X17160000Y74510000D03*
%TD*%
%TO.C,R1*%
X12080000Y71970000D03*
X19700000Y71970000D03*
%TD*%
D11*
%TO.C,U1*%
X24100000Y40140000D03*
X26640000Y40140000D03*
X29180000Y40140000D03*
X31720000Y40140000D03*
X34260000Y40140000D03*
X36800000Y40140000D03*
X39340000Y40140000D03*
X41880000Y40140000D03*
X44420000Y40140000D03*
X46960000Y40140000D03*
X49500000Y40140000D03*
X52040000Y40140000D03*
X54580000Y40140000D03*
X57120000Y40140000D03*
X59660000Y40140000D03*
X59660000Y24900000D03*
X57120000Y24900000D03*
X54580000Y24900000D03*
X52040000Y24900000D03*
X49500000Y24900000D03*
X46960000Y24900000D03*
X44420000Y24900000D03*
X41880000Y24900000D03*
X39340000Y24900000D03*
X36800000Y24900000D03*
X34260000Y24900000D03*
X31720000Y24900000D03*
X29180000Y24900000D03*
X26640000Y24900000D03*
X24100000Y24900000D03*
%TD*%
D10*
%TO.C,J5*%
X29650000Y12200000D03*
X29650000Y14740000D03*
X29650000Y17280000D03*
%TD*%
%TO.C,J2*%
X34260000Y50300000D03*
X31720000Y50300000D03*
X29180000Y50300000D03*
X26640000Y50300000D03*
%TD*%
%TO.C,J14*%
X16480000Y12200000D03*
X19020000Y12200000D03*
%TD*%
%TO.C,J13*%
X11400000Y4580000D03*
X8860000Y4580000D03*
X6320000Y4580000D03*
X3780000Y4580000D03*
%TD*%
%TO.C,J12*%
X3780000Y12200000D03*
X6320000Y12200000D03*
X8860000Y12200000D03*
%TD*%
%TO.C,J9*%
X39810000Y12200000D03*
X39810000Y14740000D03*
X39810000Y17280000D03*
%TD*%
%TO.C,J1*%
X19020000Y50300000D03*
X21560000Y50300000D03*
%TD*%
D12*
%TO.C,SW1*%
X57470000Y2630000D03*
D10*
X59660000Y3890000D03*
X59660000Y8390000D03*
D12*
X57470000Y9640000D03*
X56870000Y2630000D03*
X56870000Y9640000D03*
%TD*%
D10*
%TO.C,J10*%
X42350000Y17280000D03*
X42350000Y14740000D03*
X42350000Y12200000D03*
%TD*%
D12*
%TO.C,SW2*%
X56870000Y19800000D03*
X56870000Y12790000D03*
X57470000Y19800000D03*
D10*
X59660000Y18550000D03*
X59660000Y14050000D03*
D12*
X57470000Y12790000D03*
%TD*%
D10*
%TO.C,J8*%
X37270000Y17280000D03*
X37270000Y14740000D03*
X37270000Y12200000D03*
%TD*%
%TO.C,J6*%
X32190000Y17280000D03*
X32190000Y14740000D03*
X32190000Y12200000D03*
%TD*%
%TO.C,J3*%
X39340000Y50300000D03*
X41880000Y50300000D03*
X44420000Y50300000D03*
X46960000Y50300000D03*
%TD*%
%TO.C,J11*%
X44890000Y17280000D03*
X44890000Y14740000D03*
X44890000Y12200000D03*
%TD*%
%TO.C,J7*%
X34730000Y12200000D03*
X34730000Y14740000D03*
X34730000Y17280000D03*
%TD*%
D13*
X4000000Y71000000D03*
X26000000Y71000000D03*
X60000000Y71000000D03*
X38000000Y71000000D03*
D14*
X15030000Y45050000D03*
X20030000Y5050000D03*
X5030000Y22050000D03*
X50030000Y15050000D03*
X57130000Y48050000D03*
D10*
X33252063Y43272063D03*
X49500000Y43180000D03*
X25370000Y14740000D03*
X21560000Y40140000D03*
X29180000Y46490000D03*
X39340000Y46490000D03*
X6130000Y15050000D03*
X17930000Y22050000D03*
X16734000Y18423000D03*
X5304000Y8707500D03*
M02*
