%TF.GenerationSoftware,KiCad,Pcbnew,(5.1.6)-1*%
%TF.CreationDate,2022-12-04T13:23:36-05:00*%
%TF.ProjectId,combined,636f6d62-696e-4656-942e-6b696361645f,rev?*%
%TF.SameCoordinates,Original*%
%TF.FileFunction,Copper,L2,Bot*%
%TF.FilePolarity,Positive*%
%FSLAX46Y46*%
G04 Gerber Fmt 4.6, Leading zero omitted, Abs format (unit mm)*
G04 Created by KiCad (PCBNEW (5.1.6)-1) date 2022-12-04 13:23:36*
%MOMM*%
%LPD*%
G01*
G04 APERTURE LIST*
%TA.AperFunction,ComponentPad*%
%ADD10C,2.200000*%
%TD*%
%TA.AperFunction,ComponentPad*%
%ADD11C,2.100000*%
%TD*%
%TA.AperFunction,ComponentPad*%
%ADD12C,2.000000*%
%TD*%
%TA.AperFunction,ViaPad*%
%ADD13C,6.000000*%
%TD*%
%TA.AperFunction,ViaPad*%
%ADD14C,5.000000*%
%TD*%
%TA.AperFunction,ViaPad*%
%ADD15C,2.200000*%
%TD*%
%TA.AperFunction,Conductor*%
%ADD16C,1.500000*%
%TD*%
%TA.AperFunction,Conductor*%
%ADD17C,2.200000*%
%TD*%
%TA.AperFunction,Conductor*%
%ADD18C,1.000000*%
%TD*%
%TA.AperFunction,Conductor*%
%ADD19C,0.250000*%
%TD*%
G04 APERTURE END LIST*
D10*
%TO.P,D2,2*%
%TO.N,N/C*%
X49890000Y66890000D03*
%TO.P,D2,1*%
X47350000Y66890000D03*
%TD*%
%TO.P,R2,1*%
%TO.N,N/C*%
X51160000Y74510000D03*
%TO.P,R2,2*%
%TO.N,GND*%
X43540000Y74510000D03*
%TD*%
%TO.P,D1,1*%
%TO.N,N/C*%
X47350000Y79590000D03*
%TO.P,D1,2*%
X49890000Y79590000D03*
%TD*%
%TO.P,J1,4*%
%TO.N,N/C*%
X52430000Y60540000D03*
%TO.P,J1,3*%
X49890000Y60540000D03*
%TO.P,J1,2*%
X47350000Y60540000D03*
%TO.P,J1,1*%
%TO.N,GND*%
X44810000Y60540000D03*
%TD*%
%TO.P,R1,2*%
%TO.N,N/C*%
X53700000Y71970000D03*
%TO.P,R1,1*%
%TO.N,GND*%
X46080000Y71970000D03*
%TD*%
%TO.P,C1,2*%
%TO.N,GND*%
X44810000Y63080000D03*
%TO.P,C1,1*%
%TO.N,N/C*%
X44810000Y65620000D03*
%TD*%
%TO.P,D1,2*%
%TO.N,N/C*%
X15890000Y79590000D03*
%TO.P,D1,1*%
X13350000Y79590000D03*
%TD*%
%TO.P,C1,1*%
%TO.N,N/C*%
X10810000Y65620000D03*
%TO.P,C1,2*%
%TO.N,GND*%
X10810000Y63080000D03*
%TD*%
%TO.P,J1,1*%
%TO.N,GND*%
X10810000Y60540000D03*
%TO.P,J1,2*%
%TO.N,N/C*%
X13350000Y60540000D03*
%TO.P,J1,3*%
X15890000Y60540000D03*
%TO.P,J1,4*%
X18430000Y60540000D03*
%TD*%
%TO.P,D2,1*%
%TO.N,N/C*%
X13350000Y66890000D03*
%TO.P,D2,2*%
X15890000Y66890000D03*
%TD*%
%TO.P,R2,2*%
%TO.N,GND*%
X9540000Y74510000D03*
%TO.P,R2,1*%
%TO.N,N/C*%
X17160000Y74510000D03*
%TD*%
%TO.P,R1,1*%
%TO.N,GND*%
X12080000Y71970000D03*
%TO.P,R1,2*%
%TO.N,N/C*%
X19700000Y71970000D03*
%TD*%
D11*
%TO.P,U1,1*%
%TO.N,VIN*%
X24100000Y40140000D03*
%TO.P,U1,2*%
%TO.N,GND*%
X26640000Y40140000D03*
%TO.P,U1,3*%
%TO.N,Net-(U1-Pad3)*%
X29180000Y40140000D03*
%TO.P,U1,4*%
%TO.N,+5V*%
X31720000Y40140000D03*
%TO.P,U1,5*%
%TO.N,Net-(U1-Pad5)*%
X34260000Y40140000D03*
%TO.P,U1,6*%
%TO.N,L_SENS*%
X36800000Y40140000D03*
%TO.P,U1,7*%
%TO.N,SCL*%
X39340000Y40140000D03*
%TO.P,U1,8*%
%TO.N,SDA*%
X41880000Y40140000D03*
%TO.P,U1,9*%
%TO.N,R_IR*%
X44420000Y40140000D03*
%TO.P,U1,10*%
%TO.N,R_SENS*%
X46960000Y40140000D03*
%TO.P,U1,11*%
%TO.N,L_IR*%
X49500000Y40140000D03*
%TO.P,U1,12*%
%TO.N,Net-(U1-Pad12)*%
X52040000Y40140000D03*
%TO.P,U1,13*%
%TO.N,Net-(U1-Pad13)*%
X54580000Y40140000D03*
%TO.P,U1,14*%
%TO.N,+3V3*%
X57120000Y40140000D03*
%TO.P,U1,15*%
%TO.N,Net-(U1-Pad15)*%
X59660000Y40140000D03*
%TO.P,U1,16*%
%TO.N,BUT_2*%
X59660000Y24900000D03*
%TO.P,U1,17*%
%TO.N,BUT_1*%
X57120000Y24900000D03*
%TO.P,U1,18*%
%TO.N,LED*%
X54580000Y24900000D03*
%TO.P,U1,19*%
%TO.N,SWITCH*%
X52040000Y24900000D03*
%TO.P,U1,20*%
%TO.N,FLAG*%
X49500000Y24900000D03*
%TO.P,U1,21*%
%TO.N,WHEEL_4*%
X46960000Y24900000D03*
%TO.P,U1,22*%
%TO.N,WHEEL_3*%
X44420000Y24900000D03*
%TO.P,U1,23*%
%TO.N,WHEEL_2*%
X41880000Y24900000D03*
%TO.P,U1,24*%
%TO.N,WHEEL_1*%
X39340000Y24900000D03*
%TO.P,U1,25*%
%TO.N,LID*%
X36800000Y24900000D03*
%TO.P,U1,26*%
%TO.N,ARM*%
X34260000Y24900000D03*
%TO.P,U1,27*%
%TO.N,GND*%
X31720000Y24900000D03*
%TO.P,U1,28*%
%TO.N,Net-(U1-Pad28)*%
X29180000Y24900000D03*
%TO.P,U1,29*%
%TO.N,Net-(U1-Pad29)*%
X26640000Y24900000D03*
%TO.P,U1,30*%
%TO.N,Net-(U1-Pad30)*%
X24100000Y24900000D03*
%TD*%
D10*
%TO.P,J5,3*%
%TO.N,GND*%
X29650000Y12200000D03*
%TO.P,J5,2*%
%TO.N,VIN*%
X29650000Y14740000D03*
%TO.P,J5,1*%
%TO.N,ARM*%
X29650000Y17280000D03*
%TD*%
%TO.P,J2,4*%
%TO.N,L_SENS*%
X34260000Y50300000D03*
%TO.P,J2,3*%
%TO.N,L_IR*%
X31720000Y50300000D03*
%TO.P,J2,2*%
%TO.N,+5V*%
X29180000Y50300000D03*
%TO.P,J2,1*%
%TO.N,GND*%
X26640000Y50300000D03*
%TD*%
%TO.P,J14,1*%
%TO.N,GND*%
X16480000Y12200000D03*
%TO.P,J14,2*%
%TO.N,SWITCH*%
X19020000Y12200000D03*
%TD*%
%TO.P,J13,1*%
%TO.N,SDA*%
X11400000Y4580000D03*
%TO.P,J13,2*%
%TO.N,SCL*%
X8860000Y4580000D03*
%TO.P,J13,3*%
%TO.N,GND*%
X6320000Y4580000D03*
%TO.P,J13,4*%
%TO.N,+3V3*%
X3780000Y4580000D03*
%TD*%
%TO.P,J12,3*%
%TO.N,GND*%
X3780000Y12200000D03*
%TO.P,J12,2*%
%TO.N,LED*%
X6320000Y12200000D03*
%TO.P,J12,1*%
%TO.N,+5V*%
X8860000Y12200000D03*
%TD*%
%TO.P,J9,3*%
%TO.N,GND*%
X39810000Y12200000D03*
%TO.P,J9,2*%
%TO.N,VIN*%
X39810000Y14740000D03*
%TO.P,J9,1*%
%TO.N,WHEEL_3*%
X39810000Y17280000D03*
%TD*%
%TO.P,J1,1*%
%TO.N,GND*%
X19020000Y50300000D03*
%TO.P,J1,2*%
%TO.N,VIN*%
X21560000Y50300000D03*
%TD*%
D12*
%TO.P,SW1,*%
%TO.N,*%
X57470000Y2630000D03*
D10*
%TO.P,SW1,2*%
%TO.N,BUT_1*%
X59660000Y3890000D03*
%TO.P,SW1,1*%
%TO.N,GND*%
X59660000Y8390000D03*
D12*
%TO.P,SW1,*%
%TO.N,*%
X57470000Y9640000D03*
X56870000Y2630000D03*
X56870000Y9640000D03*
%TD*%
D10*
%TO.P,J10,1*%
%TO.N,WHEEL_4*%
X42350000Y17280000D03*
%TO.P,J10,2*%
%TO.N,VIN*%
X42350000Y14740000D03*
%TO.P,J10,3*%
%TO.N,GND*%
X42350000Y12200000D03*
%TD*%
D12*
%TO.P,SW2,*%
%TO.N,*%
X56870000Y19800000D03*
X56870000Y12790000D03*
X57470000Y19800000D03*
D10*
%TO.P,SW2,1*%
%TO.N,BUT_2*%
X59660000Y18550000D03*
%TO.P,SW2,2*%
%TO.N,GND*%
X59660000Y14050000D03*
D12*
%TO.P,SW2,*%
%TO.N,*%
X57470000Y12790000D03*
%TD*%
D10*
%TO.P,J8,1*%
%TO.N,WHEEL_2*%
X37270000Y17280000D03*
%TO.P,J8,2*%
%TO.N,VIN*%
X37270000Y14740000D03*
%TO.P,J8,3*%
%TO.N,GND*%
X37270000Y12200000D03*
%TD*%
%TO.P,J6,1*%
%TO.N,LID*%
X32190000Y17280000D03*
%TO.P,J6,2*%
%TO.N,VIN*%
X32190000Y14740000D03*
%TO.P,J6,3*%
%TO.N,GND*%
X32190000Y12200000D03*
%TD*%
%TO.P,J3,1*%
%TO.N,GND*%
X39340000Y50300000D03*
%TO.P,J3,2*%
%TO.N,+5V*%
X41880000Y50300000D03*
%TO.P,J3,3*%
%TO.N,R_IR*%
X44420000Y50300000D03*
%TO.P,J3,4*%
%TO.N,R_SENS*%
X46960000Y50300000D03*
%TD*%
%TO.P,J11,1*%
%TO.N,FLAG*%
X44890000Y17280000D03*
%TO.P,J11,2*%
%TO.N,VIN*%
X44890000Y14740000D03*
%TO.P,J11,3*%
%TO.N,GND*%
X44890000Y12200000D03*
%TD*%
%TO.P,J7,3*%
%TO.N,GND*%
X34730000Y12200000D03*
%TO.P,J7,2*%
%TO.N,VIN*%
X34730000Y14740000D03*
%TO.P,J7,1*%
%TO.N,WHEEL_1*%
X34730000Y17280000D03*
%TD*%
D13*
%TO.N,GND*%
X4000000Y71000000D03*
X26000000Y71000000D03*
X60000000Y71000000D03*
X38000000Y71000000D03*
D14*
X15030000Y45050000D03*
X20030000Y5050000D03*
X5030000Y22050000D03*
X50030000Y15050000D03*
X57130000Y48050000D03*
D15*
%TO.N,L_IR*%
X33252063Y43272063D03*
X49500000Y43180000D03*
%TO.N,VIN*%
X25370000Y14740000D03*
X21560000Y40140000D03*
%TO.N,+5V*%
X29180000Y46490000D03*
X39340000Y46490000D03*
%TO.N,LED*%
X6130000Y15050000D03*
X17930000Y22050000D03*
%TO.N,+3V3*%
X16734000Y18423000D03*
X5304000Y8707500D03*
%TD*%
D16*
%TO.N,*%
X15890000Y60540000D02*
X15890000Y66890000D01*
X19700000Y75780000D02*
X15890000Y79590000D01*
X19700000Y71329825D02*
X19700000Y71970000D01*
X18430000Y70059825D02*
X19700000Y71329825D01*
X19700000Y71970000D02*
X19700000Y75780000D01*
X18430000Y60540000D02*
X18430000Y70059825D01*
X13839999Y67379999D02*
X13839999Y67874001D01*
X13350000Y66890000D02*
X13839999Y67379999D01*
X13839999Y67874001D02*
X17160000Y71194002D01*
X17160000Y71194002D02*
X17160000Y74510000D01*
X14620000Y73240000D02*
X13350000Y74510000D01*
X10810000Y67384002D02*
X14620000Y71194002D01*
X14620000Y71194002D02*
X14620000Y73240000D01*
X13350000Y63574002D02*
X11304002Y65620000D01*
X10810000Y66114002D02*
X10810000Y67384002D01*
X13350000Y74510000D02*
X13350000Y79590000D01*
X13350000Y60540000D02*
X13350000Y63574002D01*
X11304002Y65620000D02*
X10810000Y65620000D01*
X47839999Y67874001D02*
X51160000Y71194002D01*
X45304002Y65620000D02*
X44810000Y65620000D01*
X51160000Y71194002D02*
X51160000Y74510000D01*
X48620000Y73240000D02*
X47350000Y74510000D01*
X47350000Y63574002D02*
X45304002Y65620000D01*
X44810000Y66114002D02*
X44810000Y67384002D01*
X47839999Y67379999D02*
X47839999Y67874001D01*
X49890000Y60540000D02*
X49890000Y66890000D01*
X47350000Y74510000D02*
X47350000Y79590000D01*
X53700000Y75780000D02*
X49890000Y79590000D01*
X47350000Y60540000D02*
X47350000Y63574002D01*
X48620000Y71194002D02*
X48620000Y73240000D01*
X44810000Y67384002D02*
X48620000Y71194002D01*
X47350000Y66890000D02*
X47839999Y67379999D01*
X52430000Y70059825D02*
X53700000Y71329825D01*
X53700000Y71970000D02*
X53700000Y75780000D01*
X53700000Y71329825D02*
X53700000Y71970000D01*
X52430000Y60540000D02*
X52430000Y70059825D01*
D17*
%TO.N,L_IR*%
X31859990Y50220010D02*
X31859990Y44664136D01*
X31720000Y50300000D02*
X31780000Y50300000D01*
X31780000Y50300000D02*
X31859990Y50220010D01*
X31859990Y44664136D02*
X33252063Y43272063D01*
X33252063Y43272063D02*
X33252063Y43272063D01*
X49500000Y40140000D02*
X49500000Y43180000D01*
X49500000Y43180000D02*
X49500000Y43180000D01*
%TO.N,L_SENS*%
X34260000Y50300000D02*
X34260000Y45658252D01*
X34260000Y45658252D02*
X36800000Y43118252D01*
X36800000Y43118252D02*
X36800000Y40140000D01*
%TO.N,R_IR*%
X44420000Y50300000D02*
X44420000Y40140000D01*
%TO.N,R_SENS*%
X46960000Y50300000D02*
X46960000Y40140000D01*
D16*
%TO.N,ARM*%
X29650000Y17280000D02*
X29650000Y18835634D01*
D18*
X29650000Y17280000D02*
X29650000Y17322930D01*
D16*
X29650000Y18835634D02*
X34260000Y23445634D01*
X34260000Y23445634D02*
X34260000Y24900000D01*
%TO.N,LID*%
X32190000Y17280000D02*
X32190000Y18971458D01*
X32190000Y18971458D02*
X36800000Y23581458D01*
X36800000Y23581458D02*
X36800000Y24900000D01*
%TO.N,WHEEL_1*%
X39340000Y23717282D02*
X39340000Y24900000D01*
X34730000Y17280000D02*
X34730000Y19107282D01*
X34730000Y19107282D02*
X39340000Y23717282D01*
%TO.N,WHEEL_2*%
X37270000Y17280000D02*
X37270000Y19243106D01*
X41880000Y23853106D02*
X41880000Y24900000D01*
D18*
X37270000Y17280000D02*
X37270000Y17404002D01*
D16*
X37270000Y19243106D02*
X41880000Y23853106D01*
D18*
%TO.N,WHEEL_3*%
X44420000Y24900000D02*
X44420000Y24265000D01*
X39810000Y17322930D02*
X39810000Y17280000D01*
D16*
X44420000Y23988930D02*
X44420000Y24900000D01*
X39810000Y19378930D02*
X44420000Y23988930D01*
X39810000Y17280000D02*
X39810000Y19378930D01*
%TO.N,WHEEL_4*%
X42350000Y17280000D02*
X42350000Y19514754D01*
X42350000Y19514754D02*
X46960000Y24124754D01*
X46960000Y24124754D02*
X46960000Y24900000D01*
%TO.N,FLAG*%
X49500000Y24260578D02*
X49500000Y24900000D01*
X44890000Y17280000D02*
X44890000Y19650578D01*
D18*
X44801000Y17369000D02*
X44890000Y17280000D01*
D16*
X44890000Y19650578D02*
X49500000Y24260578D01*
%TO.N,BUT_1*%
X57120000Y24900000D02*
X57120000Y24392000D01*
X59660000Y3890000D02*
X57446000Y6104000D01*
X57120000Y24900000D02*
X57120000Y22936002D01*
X54919999Y20736001D02*
X54919999Y8630001D01*
X57120000Y22936002D02*
X54919999Y20736001D01*
X54919999Y8630001D02*
X57446000Y6104000D01*
%TO.N,BUT_2*%
X59660000Y24900000D02*
X59660000Y18550000D01*
%TO.N,Net-(U1-Pad12)*%
X52040000Y40435998D02*
X52040000Y40140000D01*
D17*
%TO.N,VIN*%
X44890000Y14740000D02*
X25370000Y14740000D01*
X21560000Y40140000D02*
X21560000Y40140000D01*
X25370000Y14740000D02*
X25370000Y14740000D01*
X24100000Y40140000D02*
X21560000Y40140000D01*
X21560000Y40140000D02*
X21560000Y50300000D01*
%TO.N,+5V*%
X41880000Y46490000D02*
X39340000Y46490000D01*
X16697980Y36399131D02*
X16697980Y36263308D01*
X30664924Y37600000D02*
X31720000Y38655076D01*
X41880000Y50300000D02*
X41880000Y46490000D01*
X10126480Y29691809D02*
X10126480Y13466480D01*
X17898849Y37600000D02*
X16697980Y36399131D01*
X31720000Y38655076D02*
X31720000Y40140000D01*
X10126480Y13466480D02*
X8860000Y12200000D01*
X17898849Y37600000D02*
X30664924Y37600000D01*
X16697980Y36263308D02*
X10126480Y29691809D01*
X29180000Y47760000D02*
X29180000Y43950000D01*
X29180000Y50300000D02*
X29180000Y47760000D01*
X29180000Y43950000D02*
X31720000Y41410000D01*
X31720000Y41410000D02*
X31720000Y40140000D01*
D16*
%TO.N,LED*%
X21052000Y30449960D02*
X20996312Y30449960D01*
X20996312Y30449960D02*
X17276520Y26730168D01*
X54580000Y25408000D02*
X54580000Y24900000D01*
X21052000Y30449960D02*
X49538040Y30449960D01*
X49538040Y30449960D02*
X54580000Y25408000D01*
X17276520Y26730168D02*
X17276520Y22703480D01*
X17276520Y22703480D02*
X17930000Y22050000D01*
X17930000Y22050000D02*
X17930000Y22050000D01*
X6320000Y14860000D02*
X6130000Y15050000D01*
X6320000Y12200000D02*
X6320000Y14860000D01*
%TO.N,SDA*%
X13876500Y7056500D02*
X11400000Y4580000D01*
X41880000Y38790899D02*
X36939081Y33849980D01*
X41880000Y40140000D02*
X41880000Y38790899D01*
X13876500Y28138501D02*
X13876500Y7056500D01*
X19587979Y33849980D02*
X13876500Y28138501D01*
X36939081Y33849980D02*
X19587979Y33849980D01*
%TO.N,SCL*%
X18747990Y35549990D02*
X18747990Y35414168D01*
X12176490Y7760666D02*
X11045825Y6630001D01*
X8860000Y5074002D02*
X8860000Y4580000D01*
X18747990Y35414168D02*
X12176490Y28842668D01*
X36234914Y35549990D02*
X18747990Y35549990D01*
X39340000Y38655076D02*
X36234914Y35549990D01*
X9354367Y6630001D02*
X8860000Y6135634D01*
X8860000Y6135634D02*
X8860000Y4580000D01*
X11045825Y6630001D02*
X9354367Y6630001D01*
X12176490Y28842668D02*
X12176490Y7760666D01*
X39340000Y40140000D02*
X39340000Y38655076D01*
%TO.N,+3V3*%
X20292146Y32149970D02*
X15650088Y27507913D01*
X56554914Y38089990D02*
X57120000Y38655076D01*
X20292146Y32149970D02*
X37643248Y32149970D01*
X57120000Y38655076D02*
X57120000Y40140000D01*
X43583268Y38089990D02*
X56554914Y38089990D01*
X3780000Y4580000D02*
X3780000Y7183500D01*
X15576510Y19580490D02*
X16734000Y18423000D01*
X15650088Y27507913D02*
X15576510Y27434335D01*
X15576510Y27434335D02*
X15576510Y19580490D01*
X16734000Y18423000D02*
X16734000Y18423000D01*
X3780000Y7183500D02*
X5304000Y8707500D01*
X37643248Y32149970D02*
X43583268Y38089990D01*
X5304000Y8707500D02*
X5304000Y8707500D01*
%TO.N,SWITCH*%
X52040000Y25320002D02*
X52040000Y24900000D01*
X20630000Y13810000D02*
X19020000Y12200000D01*
X48833874Y28749950D02*
X21700478Y28749950D01*
X20630000Y22850000D02*
X20630000Y13810000D01*
X18976530Y26026002D02*
X18976530Y24503470D01*
X18976530Y24503470D02*
X20630000Y22850000D01*
X52040000Y24900000D02*
X52040000Y25543824D01*
X52040000Y25543824D02*
X48833874Y28749950D01*
X21700478Y28749950D02*
X18976530Y26026002D01*
%TD*%
D19*
%TO.N,GND*%
G36*
X21550001Y75022115D02*
G01*
X21547823Y75000000D01*
X21556511Y74911785D01*
X21582243Y74826959D01*
X21624029Y74748784D01*
X21680263Y74680263D01*
X21748784Y74624029D01*
X21826959Y74582243D01*
X21911785Y74556511D01*
X21977895Y74550000D01*
X21977896Y74550000D01*
X22000000Y74547823D01*
X22022105Y74550000D01*
X29550000Y74550000D01*
X29550001Y67450000D01*
X22022104Y67450000D01*
X22000000Y67452177D01*
X21977895Y67450000D01*
X21911785Y67443489D01*
X21826959Y67417757D01*
X21748784Y67375971D01*
X21680263Y67319737D01*
X21624029Y67251216D01*
X21582243Y67173041D01*
X21556511Y67088215D01*
X21547823Y67000000D01*
X21550000Y66977896D01*
X21550001Y58450000D01*
X7450000Y58450000D01*
X7450000Y65770199D01*
X9285000Y65770199D01*
X9285000Y65469801D01*
X9343605Y65175174D01*
X9458562Y64897642D01*
X9625455Y64647869D01*
X9837869Y64435455D01*
X10087642Y64268562D01*
X10365174Y64153605D01*
X10659801Y64095000D01*
X10960199Y64095000D01*
X11132941Y64129361D01*
X12175001Y63087300D01*
X12175000Y61521676D01*
X12165455Y61512131D01*
X11998562Y61262358D01*
X11883605Y60984826D01*
X11825000Y60690199D01*
X11825000Y60389801D01*
X11883605Y60095174D01*
X11998562Y59817642D01*
X12165455Y59567869D01*
X12377869Y59355455D01*
X12627642Y59188562D01*
X12905174Y59073605D01*
X13199801Y59015000D01*
X13500199Y59015000D01*
X13794826Y59073605D01*
X14072358Y59188562D01*
X14322131Y59355455D01*
X14534545Y59567869D01*
X14620000Y59695761D01*
X14705455Y59567869D01*
X14917869Y59355455D01*
X15167642Y59188562D01*
X15445174Y59073605D01*
X15739801Y59015000D01*
X16040199Y59015000D01*
X16334826Y59073605D01*
X16612358Y59188562D01*
X16862131Y59355455D01*
X17074545Y59567869D01*
X17160000Y59695761D01*
X17245455Y59567869D01*
X17457869Y59355455D01*
X17707642Y59188562D01*
X17985174Y59073605D01*
X18279801Y59015000D01*
X18580199Y59015000D01*
X18874826Y59073605D01*
X19152358Y59188562D01*
X19402131Y59355455D01*
X19614545Y59567869D01*
X19781438Y59817642D01*
X19896395Y60095174D01*
X19955000Y60389801D01*
X19955000Y60690199D01*
X19896395Y60984826D01*
X19781438Y61262358D01*
X19614545Y61512131D01*
X19605000Y61521676D01*
X19605000Y69573125D01*
X20490040Y70458164D01*
X20534870Y70494955D01*
X20681704Y70673872D01*
X20790811Y70877996D01*
X20802193Y70915517D01*
X20884545Y70997869D01*
X21051438Y71247642D01*
X21166395Y71525174D01*
X21225000Y71819801D01*
X21225000Y72120199D01*
X21166395Y72414826D01*
X21051438Y72692358D01*
X20884545Y72942131D01*
X20875000Y72951676D01*
X20875000Y75722288D01*
X20880684Y75780000D01*
X20875000Y75837712D01*
X20875000Y75837720D01*
X20857998Y76010340D01*
X20790811Y76231829D01*
X20681704Y76435953D01*
X20534870Y76614870D01*
X20490039Y76651662D01*
X17415000Y79726700D01*
X17415000Y79740199D01*
X17356395Y80034826D01*
X17241438Y80312358D01*
X17074545Y80562131D01*
X16862131Y80774545D01*
X16612358Y80941438D01*
X16334826Y81056395D01*
X16040199Y81115000D01*
X15739801Y81115000D01*
X15445174Y81056395D01*
X15167642Y80941438D01*
X14917869Y80774545D01*
X14705455Y80562131D01*
X14620000Y80434239D01*
X14534545Y80562131D01*
X14322131Y80774545D01*
X14072358Y80941438D01*
X13794826Y81056395D01*
X13500199Y81115000D01*
X13199801Y81115000D01*
X12905174Y81056395D01*
X12627642Y80941438D01*
X12377869Y80774545D01*
X12165455Y80562131D01*
X11998562Y80312358D01*
X11883605Y80034826D01*
X11825000Y79740199D01*
X11825000Y79439801D01*
X11883605Y79145174D01*
X11998562Y78867642D01*
X12165455Y78617869D01*
X12175001Y78608323D01*
X12175000Y74567712D01*
X12169316Y74510000D01*
X12175000Y74452288D01*
X12175000Y74452281D01*
X12192002Y74279661D01*
X12259189Y74058172D01*
X12368296Y73854048D01*
X12515130Y73675130D01*
X12559966Y73638334D01*
X13445001Y72753299D01*
X13445000Y71680703D01*
X10019962Y68255664D01*
X9975131Y68218872D01*
X9938339Y68174041D01*
X9938336Y68174038D01*
X9834898Y68047998D01*
X9828297Y68039955D01*
X9719189Y67835831D01*
X9652002Y67614342D01*
X9635000Y67441722D01*
X9635000Y67441714D01*
X9629316Y67384002D01*
X9635000Y67326290D01*
X9635000Y66601676D01*
X9625455Y66592131D01*
X9458562Y66342358D01*
X9343605Y66064826D01*
X9285000Y65770199D01*
X7450000Y65770199D01*
X7450000Y66977896D01*
X7452177Y67000000D01*
X7443489Y67088215D01*
X7417757Y67173041D01*
X7375971Y67251216D01*
X7319737Y67319737D01*
X7251216Y67375971D01*
X7173041Y67417757D01*
X7088215Y67443489D01*
X7022105Y67450000D01*
X7000000Y67452177D01*
X6977896Y67450000D01*
X450000Y67450000D01*
X450000Y74550000D01*
X6977895Y74550000D01*
X7000000Y74547823D01*
X7022104Y74550000D01*
X7022105Y74550000D01*
X7088215Y74556511D01*
X7173041Y74582243D01*
X7251216Y74624029D01*
X7319737Y74680263D01*
X7375971Y74748784D01*
X7417757Y74826959D01*
X7443489Y74911785D01*
X7452177Y75000000D01*
X7450000Y75022105D01*
X7450000Y83275000D01*
X21550000Y83275000D01*
X21550001Y75022115D01*
G37*
X21550001Y75022115D02*
X21547823Y75000000D01*
X21556511Y74911785D01*
X21582243Y74826959D01*
X21624029Y74748784D01*
X21680263Y74680263D01*
X21748784Y74624029D01*
X21826959Y74582243D01*
X21911785Y74556511D01*
X21977895Y74550000D01*
X21977896Y74550000D01*
X22000000Y74547823D01*
X22022105Y74550000D01*
X29550000Y74550000D01*
X29550001Y67450000D01*
X22022104Y67450000D01*
X22000000Y67452177D01*
X21977895Y67450000D01*
X21911785Y67443489D01*
X21826959Y67417757D01*
X21748784Y67375971D01*
X21680263Y67319737D01*
X21624029Y67251216D01*
X21582243Y67173041D01*
X21556511Y67088215D01*
X21547823Y67000000D01*
X21550000Y66977896D01*
X21550001Y58450000D01*
X7450000Y58450000D01*
X7450000Y65770199D01*
X9285000Y65770199D01*
X9285000Y65469801D01*
X9343605Y65175174D01*
X9458562Y64897642D01*
X9625455Y64647869D01*
X9837869Y64435455D01*
X10087642Y64268562D01*
X10365174Y64153605D01*
X10659801Y64095000D01*
X10960199Y64095000D01*
X11132941Y64129361D01*
X12175001Y63087300D01*
X12175000Y61521676D01*
X12165455Y61512131D01*
X11998562Y61262358D01*
X11883605Y60984826D01*
X11825000Y60690199D01*
X11825000Y60389801D01*
X11883605Y60095174D01*
X11998562Y59817642D01*
X12165455Y59567869D01*
X12377869Y59355455D01*
X12627642Y59188562D01*
X12905174Y59073605D01*
X13199801Y59015000D01*
X13500199Y59015000D01*
X13794826Y59073605D01*
X14072358Y59188562D01*
X14322131Y59355455D01*
X14534545Y59567869D01*
X14620000Y59695761D01*
X14705455Y59567869D01*
X14917869Y59355455D01*
X15167642Y59188562D01*
X15445174Y59073605D01*
X15739801Y59015000D01*
X16040199Y59015000D01*
X16334826Y59073605D01*
X16612358Y59188562D01*
X16862131Y59355455D01*
X17074545Y59567869D01*
X17160000Y59695761D01*
X17245455Y59567869D01*
X17457869Y59355455D01*
X17707642Y59188562D01*
X17985174Y59073605D01*
X18279801Y59015000D01*
X18580199Y59015000D01*
X18874826Y59073605D01*
X19152358Y59188562D01*
X19402131Y59355455D01*
X19614545Y59567869D01*
X19781438Y59817642D01*
X19896395Y60095174D01*
X19955000Y60389801D01*
X19955000Y60690199D01*
X19896395Y60984826D01*
X19781438Y61262358D01*
X19614545Y61512131D01*
X19605000Y61521676D01*
X19605000Y69573125D01*
X20490040Y70458164D01*
X20534870Y70494955D01*
X20681704Y70673872D01*
X20790811Y70877996D01*
X20802193Y70915517D01*
X20884545Y70997869D01*
X21051438Y71247642D01*
X21166395Y71525174D01*
X21225000Y71819801D01*
X21225000Y72120199D01*
X21166395Y72414826D01*
X21051438Y72692358D01*
X20884545Y72942131D01*
X20875000Y72951676D01*
X20875000Y75722288D01*
X20880684Y75780000D01*
X20875000Y75837712D01*
X20875000Y75837720D01*
X20857998Y76010340D01*
X20790811Y76231829D01*
X20681704Y76435953D01*
X20534870Y76614870D01*
X20490039Y76651662D01*
X17415000Y79726700D01*
X17415000Y79740199D01*
X17356395Y80034826D01*
X17241438Y80312358D01*
X17074545Y80562131D01*
X16862131Y80774545D01*
X16612358Y80941438D01*
X16334826Y81056395D01*
X16040199Y81115000D01*
X15739801Y81115000D01*
X15445174Y81056395D01*
X15167642Y80941438D01*
X14917869Y80774545D01*
X14705455Y80562131D01*
X14620000Y80434239D01*
X14534545Y80562131D01*
X14322131Y80774545D01*
X14072358Y80941438D01*
X13794826Y81056395D01*
X13500199Y81115000D01*
X13199801Y81115000D01*
X12905174Y81056395D01*
X12627642Y80941438D01*
X12377869Y80774545D01*
X12165455Y80562131D01*
X11998562Y80312358D01*
X11883605Y80034826D01*
X11825000Y79740199D01*
X11825000Y79439801D01*
X11883605Y79145174D01*
X11998562Y78867642D01*
X12165455Y78617869D01*
X12175001Y78608323D01*
X12175000Y74567712D01*
X12169316Y74510000D01*
X12175000Y74452288D01*
X12175000Y74452281D01*
X12192002Y74279661D01*
X12259189Y74058172D01*
X12368296Y73854048D01*
X12515130Y73675130D01*
X12559966Y73638334D01*
X13445001Y72753299D01*
X13445000Y71680703D01*
X10019962Y68255664D01*
X9975131Y68218872D01*
X9938339Y68174041D01*
X9938336Y68174038D01*
X9834898Y68047998D01*
X9828297Y68039955D01*
X9719189Y67835831D01*
X9652002Y67614342D01*
X9635000Y67441722D01*
X9635000Y67441714D01*
X9629316Y67384002D01*
X9635000Y67326290D01*
X9635000Y66601676D01*
X9625455Y66592131D01*
X9458562Y66342358D01*
X9343605Y66064826D01*
X9285000Y65770199D01*
X7450000Y65770199D01*
X7450000Y66977896D01*
X7452177Y67000000D01*
X7443489Y67088215D01*
X7417757Y67173041D01*
X7375971Y67251216D01*
X7319737Y67319737D01*
X7251216Y67375971D01*
X7173041Y67417757D01*
X7088215Y67443489D01*
X7022105Y67450000D01*
X7000000Y67452177D01*
X6977896Y67450000D01*
X450000Y67450000D01*
X450000Y74550000D01*
X6977895Y74550000D01*
X7000000Y74547823D01*
X7022104Y74550000D01*
X7022105Y74550000D01*
X7088215Y74556511D01*
X7173041Y74582243D01*
X7251216Y74624029D01*
X7319737Y74680263D01*
X7375971Y74748784D01*
X7417757Y74826959D01*
X7443489Y74911785D01*
X7452177Y75000000D01*
X7450000Y75022105D01*
X7450000Y83275000D01*
X21550000Y83275000D01*
X21550001Y75022115D01*
G36*
X55550001Y75022115D02*
G01*
X55547823Y75000000D01*
X55556511Y74911785D01*
X55582243Y74826959D01*
X55624029Y74748784D01*
X55680263Y74680263D01*
X55748784Y74624029D01*
X55826959Y74582243D01*
X55911785Y74556511D01*
X55977895Y74550000D01*
X55977896Y74550000D01*
X56000000Y74547823D01*
X56022105Y74550000D01*
X63550000Y74550000D01*
X63550001Y67450000D01*
X56022104Y67450000D01*
X56000000Y67452177D01*
X55977895Y67450000D01*
X55911785Y67443489D01*
X55826959Y67417757D01*
X55748784Y67375971D01*
X55680263Y67319737D01*
X55624029Y67251216D01*
X55582243Y67173041D01*
X55556511Y67088215D01*
X55547823Y67000000D01*
X55550000Y66977896D01*
X55550001Y58450000D01*
X41450000Y58450000D01*
X41450000Y65770199D01*
X43285000Y65770199D01*
X43285000Y65469801D01*
X43343605Y65175174D01*
X43458562Y64897642D01*
X43625455Y64647869D01*
X43837869Y64435455D01*
X44087642Y64268562D01*
X44365174Y64153605D01*
X44659801Y64095000D01*
X44960199Y64095000D01*
X45132941Y64129361D01*
X46175001Y63087300D01*
X46175000Y61521676D01*
X46165455Y61512131D01*
X45998562Y61262358D01*
X45883605Y60984826D01*
X45825000Y60690199D01*
X45825000Y60389801D01*
X45883605Y60095174D01*
X45998562Y59817642D01*
X46165455Y59567869D01*
X46377869Y59355455D01*
X46627642Y59188562D01*
X46905174Y59073605D01*
X47199801Y59015000D01*
X47500199Y59015000D01*
X47794826Y59073605D01*
X48072358Y59188562D01*
X48322131Y59355455D01*
X48534545Y59567869D01*
X48620000Y59695761D01*
X48705455Y59567869D01*
X48917869Y59355455D01*
X49167642Y59188562D01*
X49445174Y59073605D01*
X49739801Y59015000D01*
X50040199Y59015000D01*
X50334826Y59073605D01*
X50612358Y59188562D01*
X50862131Y59355455D01*
X51074545Y59567869D01*
X51160000Y59695761D01*
X51245455Y59567869D01*
X51457869Y59355455D01*
X51707642Y59188562D01*
X51985174Y59073605D01*
X52279801Y59015000D01*
X52580199Y59015000D01*
X52874826Y59073605D01*
X53152358Y59188562D01*
X53402131Y59355455D01*
X53614545Y59567869D01*
X53781438Y59817642D01*
X53896395Y60095174D01*
X53955000Y60389801D01*
X53955000Y60690199D01*
X53896395Y60984826D01*
X53781438Y61262358D01*
X53614545Y61512131D01*
X53605000Y61521676D01*
X53605000Y69573125D01*
X54490040Y70458164D01*
X54534870Y70494955D01*
X54681704Y70673872D01*
X54790811Y70877996D01*
X54802193Y70915517D01*
X54884545Y70997869D01*
X55051438Y71247642D01*
X55166395Y71525174D01*
X55225000Y71819801D01*
X55225000Y72120199D01*
X55166395Y72414826D01*
X55051438Y72692358D01*
X54884545Y72942131D01*
X54875000Y72951676D01*
X54875000Y75722288D01*
X54880684Y75780000D01*
X54875000Y75837712D01*
X54875000Y75837720D01*
X54857998Y76010340D01*
X54790811Y76231829D01*
X54681704Y76435953D01*
X54534870Y76614870D01*
X54490039Y76651662D01*
X51415000Y79726700D01*
X51415000Y79740199D01*
X51356395Y80034826D01*
X51241438Y80312358D01*
X51074545Y80562131D01*
X50862131Y80774545D01*
X50612358Y80941438D01*
X50334826Y81056395D01*
X50040199Y81115000D01*
X49739801Y81115000D01*
X49445174Y81056395D01*
X49167642Y80941438D01*
X48917869Y80774545D01*
X48705455Y80562131D01*
X48620000Y80434239D01*
X48534545Y80562131D01*
X48322131Y80774545D01*
X48072358Y80941438D01*
X47794826Y81056395D01*
X47500199Y81115000D01*
X47199801Y81115000D01*
X46905174Y81056395D01*
X46627642Y80941438D01*
X46377869Y80774545D01*
X46165455Y80562131D01*
X45998562Y80312358D01*
X45883605Y80034826D01*
X45825000Y79740199D01*
X45825000Y79439801D01*
X45883605Y79145174D01*
X45998562Y78867642D01*
X46165455Y78617869D01*
X46175001Y78608323D01*
X46175000Y74567712D01*
X46169316Y74510000D01*
X46175000Y74452288D01*
X46175000Y74452281D01*
X46192002Y74279661D01*
X46259189Y74058172D01*
X46368296Y73854048D01*
X46515130Y73675130D01*
X46559966Y73638334D01*
X47445001Y72753299D01*
X47445000Y71680703D01*
X44019962Y68255664D01*
X43975131Y68218872D01*
X43938339Y68174041D01*
X43938336Y68174038D01*
X43834898Y68047998D01*
X43828297Y68039955D01*
X43719189Y67835831D01*
X43652002Y67614342D01*
X43635000Y67441722D01*
X43635000Y67441714D01*
X43629316Y67384002D01*
X43635000Y67326290D01*
X43635000Y66601676D01*
X43625455Y66592131D01*
X43458562Y66342358D01*
X43343605Y66064826D01*
X43285000Y65770199D01*
X41450000Y65770199D01*
X41450000Y66977896D01*
X41452177Y67000000D01*
X41443489Y67088215D01*
X41417757Y67173041D01*
X41375971Y67251216D01*
X41319737Y67319737D01*
X41251216Y67375971D01*
X41173041Y67417757D01*
X41088215Y67443489D01*
X41022105Y67450000D01*
X41000000Y67452177D01*
X40977896Y67450000D01*
X34450000Y67450000D01*
X34450000Y74550000D01*
X40977895Y74550000D01*
X41000000Y74547823D01*
X41022104Y74550000D01*
X41022105Y74550000D01*
X41088215Y74556511D01*
X41173041Y74582243D01*
X41251216Y74624029D01*
X41319737Y74680263D01*
X41375971Y74748784D01*
X41417757Y74826959D01*
X41443489Y74911785D01*
X41452177Y75000000D01*
X41450000Y75022105D01*
X41450000Y83275000D01*
X55550000Y83275000D01*
X55550001Y75022115D01*
G37*
X55550001Y75022115D02*
X55547823Y75000000D01*
X55556511Y74911785D01*
X55582243Y74826959D01*
X55624029Y74748784D01*
X55680263Y74680263D01*
X55748784Y74624029D01*
X55826959Y74582243D01*
X55911785Y74556511D01*
X55977895Y74550000D01*
X55977896Y74550000D01*
X56000000Y74547823D01*
X56022105Y74550000D01*
X63550000Y74550000D01*
X63550001Y67450000D01*
X56022104Y67450000D01*
X56000000Y67452177D01*
X55977895Y67450000D01*
X55911785Y67443489D01*
X55826959Y67417757D01*
X55748784Y67375971D01*
X55680263Y67319737D01*
X55624029Y67251216D01*
X55582243Y67173041D01*
X55556511Y67088215D01*
X55547823Y67000000D01*
X55550000Y66977896D01*
X55550001Y58450000D01*
X41450000Y58450000D01*
X41450000Y65770199D01*
X43285000Y65770199D01*
X43285000Y65469801D01*
X43343605Y65175174D01*
X43458562Y64897642D01*
X43625455Y64647869D01*
X43837869Y64435455D01*
X44087642Y64268562D01*
X44365174Y64153605D01*
X44659801Y64095000D01*
X44960199Y64095000D01*
X45132941Y64129361D01*
X46175001Y63087300D01*
X46175000Y61521676D01*
X46165455Y61512131D01*
X45998562Y61262358D01*
X45883605Y60984826D01*
X45825000Y60690199D01*
X45825000Y60389801D01*
X45883605Y60095174D01*
X45998562Y59817642D01*
X46165455Y59567869D01*
X46377869Y59355455D01*
X46627642Y59188562D01*
X46905174Y59073605D01*
X47199801Y59015000D01*
X47500199Y59015000D01*
X47794826Y59073605D01*
X48072358Y59188562D01*
X48322131Y59355455D01*
X48534545Y59567869D01*
X48620000Y59695761D01*
X48705455Y59567869D01*
X48917869Y59355455D01*
X49167642Y59188562D01*
X49445174Y59073605D01*
X49739801Y59015000D01*
X50040199Y59015000D01*
X50334826Y59073605D01*
X50612358Y59188562D01*
X50862131Y59355455D01*
X51074545Y59567869D01*
X51160000Y59695761D01*
X51245455Y59567869D01*
X51457869Y59355455D01*
X51707642Y59188562D01*
X51985174Y59073605D01*
X52279801Y59015000D01*
X52580199Y59015000D01*
X52874826Y59073605D01*
X53152358Y59188562D01*
X53402131Y59355455D01*
X53614545Y59567869D01*
X53781438Y59817642D01*
X53896395Y60095174D01*
X53955000Y60389801D01*
X53955000Y60690199D01*
X53896395Y60984826D01*
X53781438Y61262358D01*
X53614545Y61512131D01*
X53605000Y61521676D01*
X53605000Y69573125D01*
X54490040Y70458164D01*
X54534870Y70494955D01*
X54681704Y70673872D01*
X54790811Y70877996D01*
X54802193Y70915517D01*
X54884545Y70997869D01*
X55051438Y71247642D01*
X55166395Y71525174D01*
X55225000Y71819801D01*
X55225000Y72120199D01*
X55166395Y72414826D01*
X55051438Y72692358D01*
X54884545Y72942131D01*
X54875000Y72951676D01*
X54875000Y75722288D01*
X54880684Y75780000D01*
X54875000Y75837712D01*
X54875000Y75837720D01*
X54857998Y76010340D01*
X54790811Y76231829D01*
X54681704Y76435953D01*
X54534870Y76614870D01*
X54490039Y76651662D01*
X51415000Y79726700D01*
X51415000Y79740199D01*
X51356395Y80034826D01*
X51241438Y80312358D01*
X51074545Y80562131D01*
X50862131Y80774545D01*
X50612358Y80941438D01*
X50334826Y81056395D01*
X50040199Y81115000D01*
X49739801Y81115000D01*
X49445174Y81056395D01*
X49167642Y80941438D01*
X48917869Y80774545D01*
X48705455Y80562131D01*
X48620000Y80434239D01*
X48534545Y80562131D01*
X48322131Y80774545D01*
X48072358Y80941438D01*
X47794826Y81056395D01*
X47500199Y81115000D01*
X47199801Y81115000D01*
X46905174Y81056395D01*
X46627642Y80941438D01*
X46377869Y80774545D01*
X46165455Y80562131D01*
X45998562Y80312358D01*
X45883605Y80034826D01*
X45825000Y79740199D01*
X45825000Y79439801D01*
X45883605Y79145174D01*
X45998562Y78867642D01*
X46165455Y78617869D01*
X46175001Y78608323D01*
X46175000Y74567712D01*
X46169316Y74510000D01*
X46175000Y74452288D01*
X46175000Y74452281D01*
X46192002Y74279661D01*
X46259189Y74058172D01*
X46368296Y73854048D01*
X46515130Y73675130D01*
X46559966Y73638334D01*
X47445001Y72753299D01*
X47445000Y71680703D01*
X44019962Y68255664D01*
X43975131Y68218872D01*
X43938339Y68174041D01*
X43938336Y68174038D01*
X43834898Y68047998D01*
X43828297Y68039955D01*
X43719189Y67835831D01*
X43652002Y67614342D01*
X43635000Y67441722D01*
X43635000Y67441714D01*
X43629316Y67384002D01*
X43635000Y67326290D01*
X43635000Y66601676D01*
X43625455Y66592131D01*
X43458562Y66342358D01*
X43343605Y66064826D01*
X43285000Y65770199D01*
X41450000Y65770199D01*
X41450000Y66977896D01*
X41452177Y67000000D01*
X41443489Y67088215D01*
X41417757Y67173041D01*
X41375971Y67251216D01*
X41319737Y67319737D01*
X41251216Y67375971D01*
X41173041Y67417757D01*
X41088215Y67443489D01*
X41022105Y67450000D01*
X41000000Y67452177D01*
X40977896Y67450000D01*
X34450000Y67450000D01*
X34450000Y74550000D01*
X40977895Y74550000D01*
X41000000Y74547823D01*
X41022104Y74550000D01*
X41022105Y74550000D01*
X41088215Y74556511D01*
X41173041Y74582243D01*
X41251216Y74624029D01*
X41319737Y74680263D01*
X41375971Y74748784D01*
X41417757Y74826959D01*
X41443489Y74911785D01*
X41452177Y75000000D01*
X41450000Y75022105D01*
X41450000Y83275000D01*
X55550000Y83275000D01*
X55550001Y75022115D01*
G36*
X61680000Y550000D02*
G01*
X51450000Y550000D01*
X51450000Y9977895D01*
X51452177Y10000000D01*
X51443489Y10088215D01*
X51417757Y10173041D01*
X51375971Y10251216D01*
X51319737Y10319737D01*
X51251216Y10375971D01*
X51173041Y10417757D01*
X51088215Y10443489D01*
X51022105Y10450000D01*
X51022104Y10450000D01*
X51000000Y10452177D01*
X50977895Y10450000D01*
X25052105Y10450000D01*
X25030000Y10452177D01*
X25007896Y10450000D01*
X25007895Y10450000D01*
X24941785Y10443489D01*
X24856959Y10417757D01*
X24778784Y10375971D01*
X24710263Y10319737D01*
X24654029Y10251216D01*
X24612243Y10173041D01*
X24586511Y10088215D01*
X24577823Y10000000D01*
X24580001Y9977885D01*
X24580000Y450000D01*
X450000Y450000D01*
X450000Y4730199D01*
X2255000Y4730199D01*
X2255000Y4429801D01*
X2313605Y4135174D01*
X2428562Y3857642D01*
X2595455Y3607869D01*
X2807869Y3395455D01*
X3057642Y3228562D01*
X3335174Y3113605D01*
X3629801Y3055000D01*
X3930199Y3055000D01*
X4224826Y3113605D01*
X4502358Y3228562D01*
X4752131Y3395455D01*
X4964545Y3607869D01*
X5131438Y3857642D01*
X5246395Y4135174D01*
X5305000Y4429801D01*
X5305000Y4730199D01*
X5246395Y5024826D01*
X5131438Y5302358D01*
X4964545Y5552131D01*
X4955000Y5561676D01*
X4955000Y6696800D01*
X5440701Y7182500D01*
X5454199Y7182500D01*
X5748826Y7241105D01*
X6026358Y7356062D01*
X6276131Y7522955D01*
X6488545Y7735369D01*
X6655438Y7985142D01*
X6770395Y8262674D01*
X6829000Y8557301D01*
X6829000Y8857699D01*
X6770395Y9152326D01*
X6655438Y9429858D01*
X6488545Y9679631D01*
X6276131Y9892045D01*
X6026358Y10058938D01*
X5748826Y10173895D01*
X5454199Y10232500D01*
X5153801Y10232500D01*
X4859174Y10173895D01*
X4581642Y10058938D01*
X4331869Y9892045D01*
X4119455Y9679631D01*
X3952562Y9429858D01*
X3837605Y9152326D01*
X3779000Y8857699D01*
X3779000Y8844201D01*
X2989962Y8055162D01*
X2945131Y8018370D01*
X2908339Y7973539D01*
X2908336Y7973536D01*
X2798297Y7839453D01*
X2689189Y7635328D01*
X2622002Y7413840D01*
X2599316Y7183500D01*
X2605001Y7125778D01*
X2605000Y5561676D01*
X2595455Y5552131D01*
X2428562Y5302358D01*
X2313605Y5024826D01*
X2255000Y4730199D01*
X450000Y4730199D01*
X450000Y15200199D01*
X4605000Y15200199D01*
X4605000Y14899801D01*
X4663605Y14605174D01*
X4778562Y14327642D01*
X4945455Y14077869D01*
X5145001Y13878323D01*
X5145000Y13181676D01*
X5135455Y13172131D01*
X4968562Y12922358D01*
X4853605Y12644826D01*
X4795000Y12350199D01*
X4795000Y12049801D01*
X4853605Y11755174D01*
X4968562Y11477642D01*
X5135455Y11227869D01*
X5347869Y11015455D01*
X5597642Y10848562D01*
X5875174Y10733605D01*
X6169801Y10675000D01*
X6470199Y10675000D01*
X6764826Y10733605D01*
X7042358Y10848562D01*
X7292131Y11015455D01*
X7504545Y11227869D01*
X7585599Y11349174D01*
X7585875Y11348657D01*
X7633619Y11290480D01*
X7675455Y11227869D01*
X7728703Y11174621D01*
X7776446Y11116446D01*
X7834621Y11068703D01*
X7887869Y11015455D01*
X7950480Y10973619D01*
X8008657Y10925875D01*
X8075033Y10890396D01*
X8137642Y10848562D01*
X8207204Y10819748D01*
X8273585Y10784267D01*
X8345617Y10762416D01*
X8415174Y10733605D01*
X8489014Y10718917D01*
X8561048Y10697066D01*
X8635960Y10689688D01*
X8709801Y10675000D01*
X8785089Y10675000D01*
X8860000Y10667622D01*
X8934911Y10675000D01*
X9010199Y10675000D01*
X9084040Y10689688D01*
X9158952Y10697066D01*
X9230986Y10718917D01*
X9304826Y10733605D01*
X9374383Y10762416D01*
X9446415Y10784267D01*
X9512796Y10819748D01*
X9582358Y10848562D01*
X9644967Y10890396D01*
X9711343Y10925875D01*
X9769520Y10973620D01*
X9832131Y11015455D01*
X10044545Y11227869D01*
X10044549Y11227875D01*
X11001491Y12184816D01*
X11001491Y8247368D01*
X10559125Y7805001D01*
X9412079Y7805001D01*
X9354367Y7810685D01*
X9296655Y7805001D01*
X9296647Y7805001D01*
X9143572Y7789924D01*
X9124026Y7787999D01*
X8918968Y7725796D01*
X8902538Y7720812D01*
X8698414Y7611705D01*
X8519497Y7464871D01*
X8482703Y7420037D01*
X8069967Y7007301D01*
X8025130Y6970504D01*
X7878296Y6791586D01*
X7861388Y6759953D01*
X7769189Y6587462D01*
X7712221Y6399660D01*
X7702002Y6365973D01*
X7685000Y6193353D01*
X7685000Y6193346D01*
X7679316Y6135634D01*
X7685000Y6077922D01*
X7685000Y5561676D01*
X7675455Y5552131D01*
X7508562Y5302358D01*
X7393605Y5024826D01*
X7335000Y4730199D01*
X7335000Y4429801D01*
X7393605Y4135174D01*
X7508562Y3857642D01*
X7675455Y3607869D01*
X7887869Y3395455D01*
X8137642Y3228562D01*
X8415174Y3113605D01*
X8709801Y3055000D01*
X9010199Y3055000D01*
X9304826Y3113605D01*
X9582358Y3228562D01*
X9832131Y3395455D01*
X10044545Y3607869D01*
X10130000Y3735761D01*
X10215455Y3607869D01*
X10427869Y3395455D01*
X10677642Y3228562D01*
X10955174Y3113605D01*
X11249801Y3055000D01*
X11550199Y3055000D01*
X11844826Y3113605D01*
X12122358Y3228562D01*
X12372131Y3395455D01*
X12584545Y3607869D01*
X12751438Y3857642D01*
X12866395Y4135174D01*
X12925000Y4429801D01*
X12925000Y4443300D01*
X14666539Y6184838D01*
X14711370Y6221630D01*
X14785401Y6311836D01*
X14858203Y6400546D01*
X14967311Y6604671D01*
X15034498Y6826159D01*
X15044299Y6925670D01*
X15051500Y6998780D01*
X15051500Y6998788D01*
X15057184Y7056500D01*
X15051500Y7114212D01*
X15051500Y18443800D01*
X15209000Y18286300D01*
X15209000Y18272801D01*
X15267605Y17978174D01*
X15382562Y17700642D01*
X15549455Y17450869D01*
X15761869Y17238455D01*
X16011642Y17071562D01*
X16289174Y16956605D01*
X16583801Y16898000D01*
X16884199Y16898000D01*
X17178826Y16956605D01*
X17456358Y17071562D01*
X17706131Y17238455D01*
X17918545Y17450869D01*
X18085438Y17700642D01*
X18200395Y17978174D01*
X18259000Y18272801D01*
X18259000Y18573199D01*
X18200395Y18867826D01*
X18085438Y19145358D01*
X17918545Y19395131D01*
X17706131Y19607545D01*
X17456358Y19774438D01*
X17178826Y19889395D01*
X16884199Y19948000D01*
X16870700Y19948000D01*
X16751510Y20067190D01*
X16751510Y21071814D01*
X16957869Y20865455D01*
X17207642Y20698562D01*
X17485174Y20583605D01*
X17779801Y20525000D01*
X18080199Y20525000D01*
X18374826Y20583605D01*
X18652358Y20698562D01*
X18902131Y20865455D01*
X19114545Y21077869D01*
X19281438Y21327642D01*
X19396395Y21605174D01*
X19455000Y21899801D01*
X19455001Y14296702D01*
X18883300Y13725000D01*
X18869801Y13725000D01*
X18575174Y13666395D01*
X18297642Y13551438D01*
X18047869Y13384545D01*
X17835455Y13172131D01*
X17668562Y12922358D01*
X17553605Y12644826D01*
X17495000Y12350199D01*
X17495000Y12049801D01*
X17553605Y11755174D01*
X17668562Y11477642D01*
X17835455Y11227869D01*
X18047869Y11015455D01*
X18297642Y10848562D01*
X18575174Y10733605D01*
X18869801Y10675000D01*
X19170199Y10675000D01*
X19464826Y10733605D01*
X19742358Y10848562D01*
X19992131Y11015455D01*
X20204545Y11227869D01*
X20371438Y11477642D01*
X20486395Y11755174D01*
X20545000Y12049801D01*
X20545000Y12063300D01*
X21420039Y12938338D01*
X21464870Y12975130D01*
X21611704Y13154047D01*
X21720811Y13358171D01*
X21753482Y13465874D01*
X21787998Y13579659D01*
X21797813Y13679316D01*
X21805000Y13752280D01*
X21805000Y13752288D01*
X21810684Y13810000D01*
X21805000Y13867712D01*
X21805000Y22792288D01*
X21810684Y22850000D01*
X21805000Y22907712D01*
X21805000Y22907720D01*
X21787998Y23080340D01*
X21768976Y23143050D01*
X21720811Y23301829D01*
X21674797Y23387915D01*
X21611704Y23505953D01*
X21554920Y23575144D01*
X21501664Y23640037D01*
X21501662Y23640039D01*
X21464870Y23684870D01*
X21420040Y23721661D01*
X20151530Y24990170D01*
X20151530Y25045275D01*
X22625000Y25045275D01*
X22625000Y24754725D01*
X22681683Y24469758D01*
X22792872Y24201325D01*
X22954293Y23959742D01*
X23159742Y23754293D01*
X23401325Y23592872D01*
X23669758Y23481683D01*
X23954725Y23425000D01*
X24245275Y23425000D01*
X24530242Y23481683D01*
X24798675Y23592872D01*
X25040258Y23754293D01*
X25245707Y23959742D01*
X25370000Y24145759D01*
X25494293Y23959742D01*
X25699742Y23754293D01*
X25941325Y23592872D01*
X26209758Y23481683D01*
X26494725Y23425000D01*
X26785275Y23425000D01*
X27070242Y23481683D01*
X27338675Y23592872D01*
X27580258Y23754293D01*
X27785707Y23959742D01*
X27910000Y24145759D01*
X28034293Y23959742D01*
X28239742Y23754293D01*
X28481325Y23592872D01*
X28749758Y23481683D01*
X29034725Y23425000D01*
X29325275Y23425000D01*
X29610242Y23481683D01*
X29878675Y23592872D01*
X30120258Y23754293D01*
X30325707Y23959742D01*
X30487128Y24201325D01*
X30598317Y24469758D01*
X30655000Y24754725D01*
X30655000Y25045275D01*
X30598317Y25330242D01*
X30487128Y25598675D01*
X30325707Y25840258D01*
X30120258Y26045707D01*
X29878675Y26207128D01*
X29610242Y26318317D01*
X29325275Y26375000D01*
X29034725Y26375000D01*
X28749758Y26318317D01*
X28481325Y26207128D01*
X28239742Y26045707D01*
X28034293Y25840258D01*
X27910000Y25654241D01*
X27785707Y25840258D01*
X27580258Y26045707D01*
X27338675Y26207128D01*
X27070242Y26318317D01*
X26785275Y26375000D01*
X26494725Y26375000D01*
X26209758Y26318317D01*
X25941325Y26207128D01*
X25699742Y26045707D01*
X25494293Y25840258D01*
X25370000Y25654241D01*
X25245707Y25840258D01*
X25040258Y26045707D01*
X24798675Y26207128D01*
X24530242Y26318317D01*
X24245275Y26375000D01*
X23954725Y26375000D01*
X23669758Y26318317D01*
X23401325Y26207128D01*
X23159742Y26045707D01*
X22954293Y25840258D01*
X22792872Y25598675D01*
X22681683Y25330242D01*
X22625000Y25045275D01*
X20151530Y25045275D01*
X20151530Y25539302D01*
X22187179Y27574950D01*
X48347174Y27574950D01*
X49547124Y26375000D01*
X49354725Y26375000D01*
X49069758Y26318317D01*
X48801325Y26207128D01*
X48559742Y26045707D01*
X48354293Y25840258D01*
X48230000Y25654241D01*
X48105707Y25840258D01*
X47900258Y26045707D01*
X47658675Y26207128D01*
X47390242Y26318317D01*
X47105275Y26375000D01*
X46814725Y26375000D01*
X46529758Y26318317D01*
X46261325Y26207128D01*
X46019742Y26045707D01*
X45814293Y25840258D01*
X45690000Y25654241D01*
X45565707Y25840258D01*
X45360258Y26045707D01*
X45118675Y26207128D01*
X44850242Y26318317D01*
X44565275Y26375000D01*
X44274725Y26375000D01*
X43989758Y26318317D01*
X43721325Y26207128D01*
X43479742Y26045707D01*
X43274293Y25840258D01*
X43150000Y25654241D01*
X43025707Y25840258D01*
X42820258Y26045707D01*
X42578675Y26207128D01*
X42310242Y26318317D01*
X42025275Y26375000D01*
X41734725Y26375000D01*
X41449758Y26318317D01*
X41181325Y26207128D01*
X40939742Y26045707D01*
X40734293Y25840258D01*
X40610000Y25654241D01*
X40485707Y25840258D01*
X40280258Y26045707D01*
X40038675Y26207128D01*
X39770242Y26318317D01*
X39485275Y26375000D01*
X39194725Y26375000D01*
X38909758Y26318317D01*
X38641325Y26207128D01*
X38399742Y26045707D01*
X38194293Y25840258D01*
X38070000Y25654241D01*
X37945707Y25840258D01*
X37740258Y26045707D01*
X37498675Y26207128D01*
X37230242Y26318317D01*
X36945275Y26375000D01*
X36654725Y26375000D01*
X36369758Y26318317D01*
X36101325Y26207128D01*
X35859742Y26045707D01*
X35654293Y25840258D01*
X35530000Y25654241D01*
X35405707Y25840258D01*
X35200258Y26045707D01*
X34958675Y26207128D01*
X34690242Y26318317D01*
X34405275Y26375000D01*
X34114725Y26375000D01*
X33829758Y26318317D01*
X33561325Y26207128D01*
X33319742Y26045707D01*
X33114293Y25840258D01*
X32952872Y25598675D01*
X32841683Y25330242D01*
X32785000Y25045275D01*
X32785000Y24754725D01*
X32841683Y24469758D01*
X32952872Y24201325D01*
X33085000Y24003582D01*
X33085000Y23932335D01*
X28859962Y19707296D01*
X28815131Y19670504D01*
X28778339Y19625673D01*
X28778336Y19625670D01*
X28668297Y19491587D01*
X28559189Y19287462D01*
X28532279Y19198750D01*
X28492002Y19065974D01*
X28475000Y18893354D01*
X28475000Y18893346D01*
X28469316Y18835634D01*
X28475000Y18777922D01*
X28475000Y18261676D01*
X28465455Y18252131D01*
X28298562Y18002358D01*
X28183605Y17724826D01*
X28125000Y17430199D01*
X28125000Y17129801D01*
X28183605Y16835174D01*
X28298562Y16557642D01*
X28465455Y16307869D01*
X28508324Y16265000D01*
X25219801Y16265000D01*
X25145960Y16250312D01*
X25071048Y16242934D01*
X24999013Y16221083D01*
X24925174Y16206395D01*
X24855619Y16177585D01*
X24783584Y16155733D01*
X24717198Y16120249D01*
X24647642Y16091438D01*
X24585042Y16049610D01*
X24518656Y16014126D01*
X24460468Y15966373D01*
X24397869Y15924545D01*
X24344632Y15871308D01*
X24286445Y15823555D01*
X24238692Y15765368D01*
X24185455Y15712131D01*
X24143627Y15649532D01*
X24095874Y15591344D01*
X24060390Y15524958D01*
X24018562Y15462358D01*
X23989751Y15392802D01*
X23954267Y15326416D01*
X23932415Y15254381D01*
X23903605Y15184826D01*
X23888917Y15110987D01*
X23867066Y15038952D01*
X23859688Y14964040D01*
X23845000Y14890199D01*
X23845000Y14814911D01*
X23837622Y14740000D01*
X23845000Y14665089D01*
X23845000Y14589801D01*
X23859688Y14515960D01*
X23867066Y14441048D01*
X23888917Y14369013D01*
X23903605Y14295174D01*
X23932415Y14225619D01*
X23954267Y14153584D01*
X23989751Y14087198D01*
X24018562Y14017642D01*
X24060390Y13955042D01*
X24095874Y13888656D01*
X24143627Y13830468D01*
X24185455Y13767869D01*
X24238692Y13714632D01*
X24286445Y13656445D01*
X24344632Y13608692D01*
X24397869Y13555455D01*
X24460468Y13513627D01*
X24518656Y13465874D01*
X24585042Y13430390D01*
X24647642Y13388562D01*
X24717198Y13359751D01*
X24783584Y13324267D01*
X24855619Y13302415D01*
X24925174Y13273605D01*
X24999013Y13258917D01*
X25071048Y13237066D01*
X25145960Y13229688D01*
X25219801Y13215000D01*
X45040199Y13215000D01*
X45114040Y13229688D01*
X45188952Y13237066D01*
X45260987Y13258917D01*
X45334826Y13273605D01*
X45404381Y13302415D01*
X45476416Y13324267D01*
X45542802Y13359751D01*
X45612358Y13388562D01*
X45674958Y13430390D01*
X45741344Y13465874D01*
X45799532Y13513627D01*
X45862131Y13555455D01*
X45915368Y13608692D01*
X45973555Y13656445D01*
X46021308Y13714632D01*
X46074545Y13767869D01*
X46116373Y13830468D01*
X46164126Y13888656D01*
X46199610Y13955042D01*
X46241438Y14017642D01*
X46270249Y14087198D01*
X46305733Y14153584D01*
X46327585Y14225619D01*
X46356395Y14295174D01*
X46371083Y14369013D01*
X46392934Y14441048D01*
X46400312Y14515960D01*
X46415000Y14589801D01*
X46415000Y14665089D01*
X46422378Y14740000D01*
X46415000Y14814911D01*
X46415000Y14890199D01*
X46400312Y14964040D01*
X46392934Y15038952D01*
X46371083Y15110987D01*
X46356395Y15184826D01*
X46327585Y15254381D01*
X46305733Y15326416D01*
X46270249Y15392802D01*
X46241438Y15462358D01*
X46199610Y15524958D01*
X46164126Y15591344D01*
X46116373Y15649532D01*
X46074545Y15712131D01*
X46021308Y15765368D01*
X45973555Y15823555D01*
X45915368Y15871308D01*
X45862131Y15924545D01*
X45799532Y15966373D01*
X45741344Y16014126D01*
X45740827Y16014402D01*
X45862131Y16095455D01*
X46074545Y16307869D01*
X46241438Y16557642D01*
X46356395Y16835174D01*
X46415000Y17129801D01*
X46415000Y17430199D01*
X46356395Y17724826D01*
X46241438Y18002358D01*
X46074545Y18252131D01*
X46065000Y18261676D01*
X46065000Y19163878D01*
X50290040Y23388917D01*
X50334870Y23425708D01*
X50371662Y23470539D01*
X50371665Y23470542D01*
X50427313Y23538350D01*
X50481704Y23604625D01*
X50590811Y23808749D01*
X50616797Y23894415D01*
X50632654Y23946689D01*
X50645707Y23959742D01*
X50770000Y24145759D01*
X50894293Y23959742D01*
X51099742Y23754293D01*
X51341325Y23592872D01*
X51609758Y23481683D01*
X51894725Y23425000D01*
X52185275Y23425000D01*
X52470242Y23481683D01*
X52738675Y23592872D01*
X52980258Y23754293D01*
X53185707Y23959742D01*
X53310000Y24145759D01*
X53434293Y23959742D01*
X53639742Y23754293D01*
X53881325Y23592872D01*
X54149758Y23481683D01*
X54434725Y23425000D01*
X54725275Y23425000D01*
X55010242Y23481683D01*
X55278675Y23592872D01*
X55520258Y23754293D01*
X55725707Y23959742D01*
X55850000Y24145759D01*
X55945000Y24003581D01*
X55945001Y23422704D01*
X54129965Y21607667D01*
X54085129Y21570871D01*
X53938296Y21391954D01*
X53829188Y21187829D01*
X53792929Y21068296D01*
X53762001Y20966340D01*
X53744999Y20793720D01*
X53744999Y20793713D01*
X53739315Y20736001D01*
X53744999Y20678289D01*
X53745000Y8687723D01*
X53739315Y8630001D01*
X53762001Y8399661D01*
X53829188Y8178173D01*
X53938296Y7974048D01*
X54048335Y7839965D01*
X54048338Y7839962D01*
X54085130Y7795131D01*
X54129961Y7758339D01*
X56655963Y5232336D01*
X56655968Y5232332D01*
X57889762Y3998538D01*
X57885657Y4000238D01*
X57610350Y4055000D01*
X57329650Y4055000D01*
X57170000Y4023244D01*
X57010350Y4055000D01*
X56729650Y4055000D01*
X56454343Y4000238D01*
X56195009Y3892819D01*
X55961615Y3736870D01*
X55763130Y3538385D01*
X55607181Y3304991D01*
X55499762Y3045657D01*
X55445000Y2770350D01*
X55445000Y2489650D01*
X55499762Y2214343D01*
X55607181Y1955009D01*
X55763130Y1721615D01*
X55961615Y1523130D01*
X56195009Y1367181D01*
X56454343Y1259762D01*
X56729650Y1205000D01*
X57010350Y1205000D01*
X57170000Y1236756D01*
X57329650Y1205000D01*
X57610350Y1205000D01*
X57885657Y1259762D01*
X58144991Y1367181D01*
X58378385Y1523130D01*
X58576870Y1721615D01*
X58732819Y1955009D01*
X58840238Y2214343D01*
X58895000Y2489650D01*
X58895000Y2567054D01*
X58937642Y2538562D01*
X59215174Y2423605D01*
X59509801Y2365000D01*
X59810199Y2365000D01*
X60104826Y2423605D01*
X60382358Y2538562D01*
X60632131Y2705455D01*
X60844545Y2917869D01*
X61011438Y3167642D01*
X61126395Y3445174D01*
X61185000Y3739801D01*
X61185000Y4040199D01*
X61126395Y4334826D01*
X61011438Y4612358D01*
X60844545Y4862131D01*
X60632131Y5074545D01*
X60382358Y5241438D01*
X60104826Y5356395D01*
X59810199Y5415000D01*
X59796701Y5415000D01*
X58317668Y6894032D01*
X58317664Y6894037D01*
X56996700Y8215000D01*
X57010350Y8215000D01*
X57170000Y8246756D01*
X57329650Y8215000D01*
X57610350Y8215000D01*
X57885657Y8269762D01*
X58144991Y8377181D01*
X58378385Y8533130D01*
X58576870Y8731615D01*
X58732819Y8965009D01*
X58840238Y9224343D01*
X58895000Y9499650D01*
X58895000Y9780350D01*
X58840238Y10055657D01*
X58732819Y10314991D01*
X58576870Y10548385D01*
X58378385Y10746870D01*
X58144991Y10902819D01*
X57885657Y11010238D01*
X57610350Y11065000D01*
X57329650Y11065000D01*
X57170000Y11033244D01*
X57010350Y11065000D01*
X56729650Y11065000D01*
X56454343Y11010238D01*
X56195009Y10902819D01*
X56094999Y10835994D01*
X56094999Y11594006D01*
X56195009Y11527181D01*
X56454343Y11419762D01*
X56729650Y11365000D01*
X57010350Y11365000D01*
X57170000Y11396756D01*
X57329650Y11365000D01*
X57610350Y11365000D01*
X57885657Y11419762D01*
X58144991Y11527181D01*
X58378385Y11683130D01*
X58576870Y11881615D01*
X58732819Y12115009D01*
X58840238Y12374343D01*
X58895000Y12649650D01*
X58895000Y12930350D01*
X58840238Y13205657D01*
X58732819Y13464991D01*
X58576870Y13698385D01*
X58378385Y13896870D01*
X58144991Y14052819D01*
X57885657Y14160238D01*
X57610350Y14215000D01*
X57329650Y14215000D01*
X57170000Y14183244D01*
X57010350Y14215000D01*
X56729650Y14215000D01*
X56454343Y14160238D01*
X56195009Y14052819D01*
X56094999Y13985994D01*
X56094999Y18604006D01*
X56195009Y18537181D01*
X56454343Y18429762D01*
X56729650Y18375000D01*
X57010350Y18375000D01*
X57170000Y18406756D01*
X57329650Y18375000D01*
X57610350Y18375000D01*
X57885657Y18429762D01*
X58135000Y18533043D01*
X58135000Y18399801D01*
X58193605Y18105174D01*
X58308562Y17827642D01*
X58475455Y17577869D01*
X58687869Y17365455D01*
X58937642Y17198562D01*
X59215174Y17083605D01*
X59509801Y17025000D01*
X59810199Y17025000D01*
X60104826Y17083605D01*
X60382358Y17198562D01*
X60632131Y17365455D01*
X60844545Y17577869D01*
X61011438Y17827642D01*
X61126395Y18105174D01*
X61185000Y18399801D01*
X61185000Y18700199D01*
X61126395Y18994826D01*
X61011438Y19272358D01*
X60844545Y19522131D01*
X60835000Y19531676D01*
X60835000Y24003582D01*
X60967128Y24201325D01*
X61078317Y24469758D01*
X61135000Y24754725D01*
X61135000Y25045275D01*
X61078317Y25330242D01*
X60967128Y25598675D01*
X60805707Y25840258D01*
X60600258Y26045707D01*
X60358675Y26207128D01*
X60090242Y26318317D01*
X59805275Y26375000D01*
X59514725Y26375000D01*
X59229758Y26318317D01*
X58961325Y26207128D01*
X58719742Y26045707D01*
X58514293Y25840258D01*
X58390000Y25654241D01*
X58265707Y25840258D01*
X58060258Y26045707D01*
X57818675Y26207128D01*
X57550242Y26318317D01*
X57265275Y26375000D01*
X56974725Y26375000D01*
X56689758Y26318317D01*
X56421325Y26207128D01*
X56179742Y26045707D01*
X55974293Y25840258D01*
X55850000Y25654241D01*
X55725707Y25840258D01*
X55630248Y25935717D01*
X55561704Y26063953D01*
X55524720Y26109018D01*
X55451664Y26198037D01*
X55451662Y26198039D01*
X55414870Y26242870D01*
X55370040Y26279661D01*
X50409707Y31239993D01*
X50372910Y31284830D01*
X50193993Y31431664D01*
X49989869Y31540771D01*
X49768380Y31607958D01*
X49595760Y31624960D01*
X49595752Y31624960D01*
X49538040Y31630644D01*
X49480328Y31624960D01*
X38779938Y31624960D01*
X44069969Y36914990D01*
X56497202Y36914990D01*
X56554914Y36909306D01*
X56612626Y36914990D01*
X56612634Y36914990D01*
X56785254Y36931992D01*
X57006743Y36999179D01*
X57210867Y37108286D01*
X57389784Y37255120D01*
X57426581Y37299957D01*
X57910035Y37783411D01*
X57954870Y37820206D01*
X58101704Y37999123D01*
X58210811Y38203247D01*
X58225362Y38251216D01*
X58277998Y38424735D01*
X58280701Y38452177D01*
X58295000Y38597356D01*
X58295000Y38597363D01*
X58300684Y38655075D01*
X58295000Y38712787D01*
X58295000Y39243582D01*
X58390000Y39385759D01*
X58514293Y39199742D01*
X58719742Y38994293D01*
X58961325Y38832872D01*
X59229758Y38721683D01*
X59514725Y38665000D01*
X59805275Y38665000D01*
X60090242Y38721683D01*
X60358675Y38832872D01*
X60600258Y38994293D01*
X60805707Y39199742D01*
X60967128Y39441325D01*
X61078317Y39709758D01*
X61135000Y39994725D01*
X61135000Y40285275D01*
X61078317Y40570242D01*
X60967128Y40838675D01*
X60805707Y41080258D01*
X60600258Y41285707D01*
X60358675Y41447128D01*
X60090242Y41558317D01*
X59805275Y41615000D01*
X59514725Y41615000D01*
X59229758Y41558317D01*
X58961325Y41447128D01*
X58719742Y41285707D01*
X58514293Y41080258D01*
X58390000Y40894241D01*
X58265707Y41080258D01*
X58060258Y41285707D01*
X57818675Y41447128D01*
X57550242Y41558317D01*
X57265275Y41615000D01*
X56974725Y41615000D01*
X56689758Y41558317D01*
X56421325Y41447128D01*
X56179742Y41285707D01*
X55974293Y41080258D01*
X55850000Y40894241D01*
X55725707Y41080258D01*
X55520258Y41285707D01*
X55278675Y41447128D01*
X55010242Y41558317D01*
X54725275Y41615000D01*
X54434725Y41615000D01*
X54149758Y41558317D01*
X53881325Y41447128D01*
X53639742Y41285707D01*
X53434293Y41080258D01*
X53310000Y40894241D01*
X53185707Y41080258D01*
X52980258Y41285707D01*
X52738675Y41447128D01*
X52470242Y41558317D01*
X52185275Y41615000D01*
X52057087Y41615000D01*
X52040000Y41616683D01*
X52022913Y41615000D01*
X51894725Y41615000D01*
X51609758Y41558317D01*
X51341325Y41447128D01*
X51099742Y41285707D01*
X51025000Y41210965D01*
X51025000Y43105089D01*
X51032378Y43180000D01*
X51025000Y43254911D01*
X51025000Y43330199D01*
X51010312Y43404040D01*
X51002934Y43478952D01*
X50981083Y43550987D01*
X50966395Y43624826D01*
X50937585Y43694381D01*
X50915733Y43766416D01*
X50880249Y43832802D01*
X50851438Y43902358D01*
X50809610Y43964958D01*
X50774126Y44031344D01*
X50726373Y44089532D01*
X50684545Y44152131D01*
X50631308Y44205368D01*
X50583555Y44263555D01*
X50525368Y44311308D01*
X50472131Y44364545D01*
X50409532Y44406373D01*
X50351344Y44454126D01*
X50284958Y44489610D01*
X50222358Y44531438D01*
X50152802Y44560249D01*
X50086416Y44595733D01*
X50014381Y44617585D01*
X49944826Y44646395D01*
X49870987Y44661083D01*
X49798952Y44682934D01*
X49724040Y44690312D01*
X49650199Y44705000D01*
X49574911Y44705000D01*
X49500000Y44712378D01*
X49425090Y44705000D01*
X49349801Y44705000D01*
X49275960Y44690312D01*
X49201048Y44682934D01*
X49129013Y44661083D01*
X49055174Y44646395D01*
X48985619Y44617585D01*
X48913584Y44595733D01*
X48847198Y44560249D01*
X48777642Y44531438D01*
X48715042Y44489610D01*
X48648656Y44454126D01*
X48590468Y44406373D01*
X48527869Y44364545D01*
X48485000Y44321676D01*
X48485000Y50450199D01*
X48470312Y50524040D01*
X48462934Y50598952D01*
X48441083Y50670987D01*
X48426395Y50744826D01*
X48397585Y50814381D01*
X48375733Y50886416D01*
X48340249Y50952802D01*
X48311438Y51022358D01*
X48269610Y51084958D01*
X48234126Y51151344D01*
X48186373Y51209532D01*
X48144545Y51272131D01*
X48091308Y51325368D01*
X48043555Y51383555D01*
X47985369Y51431307D01*
X47932131Y51484545D01*
X47869528Y51526375D01*
X47811343Y51574126D01*
X47744962Y51609608D01*
X47682358Y51651438D01*
X47612798Y51680251D01*
X47546415Y51715733D01*
X47474384Y51737583D01*
X47404826Y51766395D01*
X47330984Y51781083D01*
X47258951Y51802934D01*
X47184040Y51810312D01*
X47110199Y51825000D01*
X47034910Y51825000D01*
X46960000Y51832378D01*
X46885089Y51825000D01*
X46809801Y51825000D01*
X46735960Y51810312D01*
X46661048Y51802934D01*
X46589013Y51781083D01*
X46515174Y51766395D01*
X46445619Y51737585D01*
X46373584Y51715733D01*
X46307198Y51680249D01*
X46237642Y51651438D01*
X46175042Y51609610D01*
X46108656Y51574126D01*
X46050468Y51526373D01*
X45987869Y51484545D01*
X45934632Y51431308D01*
X45876445Y51383555D01*
X45828694Y51325370D01*
X45775455Y51272131D01*
X45733625Y51209528D01*
X45690000Y51156371D01*
X45646373Y51209532D01*
X45604545Y51272131D01*
X45551308Y51325368D01*
X45503555Y51383555D01*
X45445369Y51431307D01*
X45392131Y51484545D01*
X45329528Y51526375D01*
X45271343Y51574126D01*
X45204962Y51609608D01*
X45142358Y51651438D01*
X45072798Y51680251D01*
X45006415Y51715733D01*
X44934384Y51737583D01*
X44864826Y51766395D01*
X44790984Y51781083D01*
X44718951Y51802934D01*
X44644040Y51810312D01*
X44570199Y51825000D01*
X44494910Y51825000D01*
X44420000Y51832378D01*
X44345089Y51825000D01*
X44269801Y51825000D01*
X44195960Y51810312D01*
X44121048Y51802934D01*
X44049013Y51781083D01*
X43975174Y51766395D01*
X43905619Y51737585D01*
X43833584Y51715733D01*
X43767198Y51680249D01*
X43697642Y51651438D01*
X43635042Y51609610D01*
X43568656Y51574126D01*
X43510468Y51526373D01*
X43447869Y51484545D01*
X43394632Y51431308D01*
X43336445Y51383555D01*
X43288694Y51325370D01*
X43235455Y51272131D01*
X43193625Y51209528D01*
X43150000Y51156371D01*
X43106373Y51209532D01*
X43064545Y51272131D01*
X43011308Y51325368D01*
X42963555Y51383555D01*
X42905369Y51431307D01*
X42852131Y51484545D01*
X42789528Y51526375D01*
X42731343Y51574126D01*
X42664962Y51609608D01*
X42602358Y51651438D01*
X42532798Y51680251D01*
X42466415Y51715733D01*
X42394384Y51737583D01*
X42324826Y51766395D01*
X42250984Y51781083D01*
X42178951Y51802934D01*
X42104040Y51810312D01*
X42030199Y51825000D01*
X41954910Y51825000D01*
X41880000Y51832378D01*
X41805089Y51825000D01*
X41729801Y51825000D01*
X41655960Y51810312D01*
X41581048Y51802934D01*
X41509013Y51781083D01*
X41435174Y51766395D01*
X41365619Y51737585D01*
X41293584Y51715733D01*
X41227198Y51680249D01*
X41157642Y51651438D01*
X41095042Y51609610D01*
X41028656Y51574126D01*
X40970468Y51526373D01*
X40907869Y51484545D01*
X40854632Y51431308D01*
X40796445Y51383555D01*
X40748694Y51325370D01*
X40695455Y51272131D01*
X40653625Y51209528D01*
X40605874Y51151343D01*
X40570392Y51084962D01*
X40528562Y51022358D01*
X40499749Y50952798D01*
X40464267Y50886415D01*
X40442417Y50814384D01*
X40413605Y50744826D01*
X40398917Y50670984D01*
X40377066Y50598951D01*
X40369688Y50524040D01*
X40355000Y50450199D01*
X40355000Y50374910D01*
X40355001Y48015000D01*
X39189801Y48015000D01*
X39115960Y48000312D01*
X39041048Y47992934D01*
X38969013Y47971083D01*
X38895174Y47956395D01*
X38825619Y47927585D01*
X38753584Y47905733D01*
X38687198Y47870249D01*
X38617642Y47841438D01*
X38555042Y47799610D01*
X38488656Y47764126D01*
X38430468Y47716373D01*
X38367869Y47674545D01*
X38314632Y47621308D01*
X38256445Y47573555D01*
X38208692Y47515368D01*
X38155455Y47462131D01*
X38113627Y47399532D01*
X38065874Y47341344D01*
X38030390Y47274958D01*
X37988562Y47212358D01*
X37959751Y47142802D01*
X37924267Y47076416D01*
X37902415Y47004381D01*
X37873605Y46934826D01*
X37858917Y46860987D01*
X37837066Y46788952D01*
X37829688Y46714040D01*
X37815000Y46640199D01*
X37815000Y46564911D01*
X37807622Y46490000D01*
X37815000Y46415089D01*
X37815000Y46339801D01*
X37829688Y46265960D01*
X37837066Y46191048D01*
X37858917Y46119013D01*
X37873605Y46045174D01*
X37902415Y45975619D01*
X37924267Y45903584D01*
X37959751Y45837198D01*
X37988562Y45767642D01*
X38030390Y45705042D01*
X38065874Y45638656D01*
X38113627Y45580468D01*
X38155455Y45517869D01*
X38208692Y45464632D01*
X38256445Y45406445D01*
X38314632Y45358692D01*
X38367869Y45305455D01*
X38430468Y45263627D01*
X38488656Y45215874D01*
X38555042Y45180390D01*
X38617642Y45138562D01*
X38687198Y45109751D01*
X38753584Y45074267D01*
X38825619Y45052415D01*
X38895174Y45023605D01*
X38969013Y45008917D01*
X39041048Y44987066D01*
X39115960Y44979688D01*
X39189801Y44965000D01*
X41805090Y44965000D01*
X41880000Y44957622D01*
X42178952Y44987066D01*
X42466416Y45074267D01*
X42731344Y45215874D01*
X42895000Y45350184D01*
X42895001Y41210964D01*
X42820258Y41285707D01*
X42578675Y41447128D01*
X42310242Y41558317D01*
X42025275Y41615000D01*
X41734725Y41615000D01*
X41449758Y41558317D01*
X41181325Y41447128D01*
X40939742Y41285707D01*
X40734293Y41080258D01*
X40610000Y40894241D01*
X40485707Y41080258D01*
X40280258Y41285707D01*
X40038675Y41447128D01*
X39770242Y41558317D01*
X39485275Y41615000D01*
X39194725Y41615000D01*
X38909758Y41558317D01*
X38641325Y41447128D01*
X38399742Y41285707D01*
X38325000Y41210965D01*
X38325000Y43043353D01*
X38332377Y43118253D01*
X38325000Y43193153D01*
X38325000Y43193163D01*
X38302934Y43417204D01*
X38215733Y43704668D01*
X38074126Y43969596D01*
X37883555Y44201807D01*
X37825369Y44249559D01*
X35785000Y46289926D01*
X35785000Y50450199D01*
X35770312Y50524040D01*
X35762934Y50598952D01*
X35741083Y50670987D01*
X35726395Y50744826D01*
X35697585Y50814381D01*
X35675733Y50886416D01*
X35640249Y50952802D01*
X35611438Y51022358D01*
X35569610Y51084958D01*
X35534126Y51151344D01*
X35486373Y51209532D01*
X35444545Y51272131D01*
X35391308Y51325368D01*
X35343555Y51383555D01*
X35285369Y51431307D01*
X35232131Y51484545D01*
X35169528Y51526375D01*
X35111343Y51574126D01*
X35044962Y51609608D01*
X34982358Y51651438D01*
X34912798Y51680251D01*
X34846415Y51715733D01*
X34774384Y51737583D01*
X34704826Y51766395D01*
X34630984Y51781083D01*
X34558951Y51802934D01*
X34484040Y51810312D01*
X34410199Y51825000D01*
X34334910Y51825000D01*
X34260000Y51832378D01*
X34185089Y51825000D01*
X34109801Y51825000D01*
X34035960Y51810312D01*
X33961048Y51802934D01*
X33889013Y51781083D01*
X33815174Y51766395D01*
X33745619Y51737585D01*
X33673584Y51715733D01*
X33607198Y51680249D01*
X33537642Y51651438D01*
X33475042Y51609610D01*
X33408656Y51574126D01*
X33350468Y51526373D01*
X33287869Y51484545D01*
X33234632Y51431308D01*
X33176445Y51383555D01*
X33128694Y51325370D01*
X33075455Y51272131D01*
X33033625Y51209528D01*
X33027172Y51201665D01*
X32943545Y51303565D01*
X32899611Y51339620D01*
X32863555Y51383555D01*
X32631344Y51574126D01*
X32366416Y51715733D01*
X32078952Y51802934D01*
X31885193Y51822017D01*
X31870199Y51825000D01*
X31854911Y51825000D01*
X31780000Y51832378D01*
X31705089Y51825000D01*
X31569801Y51825000D01*
X31495960Y51810312D01*
X31421048Y51802934D01*
X31349013Y51781083D01*
X31275174Y51766395D01*
X31205619Y51737585D01*
X31133584Y51715733D01*
X31067198Y51680249D01*
X30997642Y51651438D01*
X30935042Y51609610D01*
X30868656Y51574126D01*
X30810468Y51526373D01*
X30747869Y51484545D01*
X30694632Y51431308D01*
X30636445Y51383555D01*
X30588692Y51325368D01*
X30535455Y51272131D01*
X30493627Y51209532D01*
X30450000Y51156372D01*
X30406373Y51209532D01*
X30364545Y51272131D01*
X30311308Y51325368D01*
X30263555Y51383555D01*
X30205369Y51431307D01*
X30152131Y51484545D01*
X30089528Y51526375D01*
X30031343Y51574126D01*
X29964962Y51609608D01*
X29902358Y51651438D01*
X29832798Y51680251D01*
X29766415Y51715733D01*
X29694384Y51737583D01*
X29624826Y51766395D01*
X29550984Y51781083D01*
X29478951Y51802934D01*
X29404040Y51810312D01*
X29330199Y51825000D01*
X29254910Y51825000D01*
X29180000Y51832378D01*
X29105089Y51825000D01*
X29029801Y51825000D01*
X28955960Y51810312D01*
X28881048Y51802934D01*
X28809013Y51781083D01*
X28735174Y51766395D01*
X28665619Y51737585D01*
X28593584Y51715733D01*
X28527198Y51680249D01*
X28457642Y51651438D01*
X28395042Y51609610D01*
X28328656Y51574126D01*
X28270468Y51526373D01*
X28207869Y51484545D01*
X28154632Y51431308D01*
X28096445Y51383555D01*
X28048694Y51325370D01*
X27995455Y51272131D01*
X27953625Y51209528D01*
X27905874Y51151343D01*
X27870392Y51084962D01*
X27828562Y51022358D01*
X27799749Y50952798D01*
X27764267Y50886415D01*
X27742417Y50814384D01*
X27713605Y50744826D01*
X27698917Y50670984D01*
X27677066Y50598951D01*
X27669688Y50524040D01*
X27655000Y50450199D01*
X27655000Y50374910D01*
X27655001Y47834920D01*
X27655000Y47834910D01*
X27655001Y44024920D01*
X27647622Y43950000D01*
X27677066Y43651048D01*
X27764267Y43363585D01*
X27813187Y43272063D01*
X27905875Y43098656D01*
X28096446Y42866445D01*
X28154638Y42818688D01*
X29366531Y41606794D01*
X29325275Y41615000D01*
X29034725Y41615000D01*
X28749758Y41558317D01*
X28481325Y41447128D01*
X28239742Y41285707D01*
X28034293Y41080258D01*
X27872872Y40838675D01*
X27761683Y40570242D01*
X27705000Y40285275D01*
X27705000Y39994725D01*
X27761683Y39709758D01*
X27872872Y39441325D01*
X28034293Y39199742D01*
X28109035Y39125000D01*
X25239817Y39125000D01*
X25374126Y39288656D01*
X25515733Y39553584D01*
X25602934Y39841048D01*
X25632378Y40140000D01*
X25602934Y40438952D01*
X25515733Y40726416D01*
X25374126Y40991344D01*
X25183555Y41223555D01*
X24951344Y41414126D01*
X24686416Y41555733D01*
X24398952Y41642934D01*
X24174911Y41665000D01*
X23085000Y41665000D01*
X23085000Y50450199D01*
X23070312Y50524040D01*
X23062934Y50598952D01*
X23041083Y50670987D01*
X23026395Y50744826D01*
X22997585Y50814381D01*
X22975733Y50886416D01*
X22940249Y50952802D01*
X22911438Y51022358D01*
X22869610Y51084958D01*
X22834126Y51151344D01*
X22786373Y51209532D01*
X22744545Y51272131D01*
X22691308Y51325368D01*
X22643555Y51383555D01*
X22585368Y51431308D01*
X22532131Y51484545D01*
X22469532Y51526373D01*
X22411344Y51574126D01*
X22344958Y51609610D01*
X22282358Y51651438D01*
X22212802Y51680249D01*
X22146416Y51715733D01*
X22074381Y51737585D01*
X22004826Y51766395D01*
X21930987Y51781083D01*
X21858952Y51802934D01*
X21784040Y51810312D01*
X21710199Y51825000D01*
X21634911Y51825000D01*
X21560000Y51832378D01*
X21485090Y51825000D01*
X21409801Y51825000D01*
X21335960Y51810312D01*
X21261049Y51802934D01*
X21189016Y51781083D01*
X21115174Y51766395D01*
X21045616Y51737583D01*
X20973585Y51715733D01*
X20907202Y51680251D01*
X20837642Y51651438D01*
X20775038Y51609608D01*
X20708657Y51574126D01*
X20650474Y51526376D01*
X20587869Y51484545D01*
X20534627Y51431303D01*
X20476446Y51383555D01*
X20428698Y51325374D01*
X20375455Y51272131D01*
X20333623Y51209525D01*
X20285875Y51151344D01*
X20250395Y51084965D01*
X20208562Y51022358D01*
X20179748Y50952794D01*
X20144268Y50886416D01*
X20122419Y50814390D01*
X20093605Y50744826D01*
X20078916Y50670977D01*
X20057067Y50598952D01*
X20049690Y50524049D01*
X20035000Y50450199D01*
X20035000Y50149801D01*
X20035001Y50149796D01*
X20035000Y40290199D01*
X20035000Y40214911D01*
X20027622Y40140000D01*
X20035000Y40065090D01*
X20035000Y39989801D01*
X20049688Y39915960D01*
X20057066Y39841048D01*
X20078917Y39769013D01*
X20093605Y39695174D01*
X20122415Y39625619D01*
X20144267Y39553584D01*
X20179751Y39487198D01*
X20208562Y39417642D01*
X20250390Y39355042D01*
X20285874Y39288656D01*
X20333627Y39230468D01*
X20375455Y39167869D01*
X20418324Y39125000D01*
X17973759Y39125000D01*
X17898848Y39132378D01*
X17599896Y39102934D01*
X17532991Y39082638D01*
X17312433Y39015733D01*
X17047505Y38874126D01*
X16815294Y38683555D01*
X16767536Y38625362D01*
X15672622Y37530447D01*
X15614425Y37482686D01*
X15423854Y37250474D01*
X15347853Y37108286D01*
X15303726Y37025730D01*
X9101123Y30823126D01*
X9042925Y30775364D01*
X8852354Y30543152D01*
X8710748Y30278225D01*
X8710747Y30278224D01*
X8623546Y29990761D01*
X8594102Y29691809D01*
X8601480Y29616899D01*
X8601481Y14098156D01*
X7887875Y13384549D01*
X7887869Y13384545D01*
X7675455Y13172131D01*
X7633620Y13109520D01*
X7585875Y13051343D01*
X7585599Y13050826D01*
X7504545Y13172131D01*
X7495000Y13181676D01*
X7495000Y14360384D01*
X7596395Y14605174D01*
X7655000Y14899801D01*
X7655000Y15200199D01*
X7596395Y15494826D01*
X7481438Y15772358D01*
X7314545Y16022131D01*
X7102131Y16234545D01*
X6852358Y16401438D01*
X6574826Y16516395D01*
X6280199Y16575000D01*
X5979801Y16575000D01*
X5685174Y16516395D01*
X5407642Y16401438D01*
X5157869Y16234545D01*
X4945455Y16022131D01*
X4778562Y15772358D01*
X4663605Y15494826D01*
X4605000Y15200199D01*
X450000Y15200199D01*
X450000Y37550000D01*
X9977896Y37550000D01*
X10000000Y37547823D01*
X10088215Y37556511D01*
X10173041Y37582243D01*
X10251216Y37624029D01*
X10319737Y37680263D01*
X10375971Y37748784D01*
X10417757Y37826959D01*
X10443489Y37911785D01*
X10450000Y37977895D01*
X10452177Y38000000D01*
X10450000Y38022105D01*
X10450000Y52700000D01*
X61680001Y52700000D01*
X61680000Y550000D01*
G37*
X61680000Y550000D02*
X51450000Y550000D01*
X51450000Y9977895D01*
X51452177Y10000000D01*
X51443489Y10088215D01*
X51417757Y10173041D01*
X51375971Y10251216D01*
X51319737Y10319737D01*
X51251216Y10375971D01*
X51173041Y10417757D01*
X51088215Y10443489D01*
X51022105Y10450000D01*
X51022104Y10450000D01*
X51000000Y10452177D01*
X50977895Y10450000D01*
X25052105Y10450000D01*
X25030000Y10452177D01*
X25007896Y10450000D01*
X25007895Y10450000D01*
X24941785Y10443489D01*
X24856959Y10417757D01*
X24778784Y10375971D01*
X24710263Y10319737D01*
X24654029Y10251216D01*
X24612243Y10173041D01*
X24586511Y10088215D01*
X24577823Y10000000D01*
X24580001Y9977885D01*
X24580000Y450000D01*
X450000Y450000D01*
X450000Y4730199D01*
X2255000Y4730199D01*
X2255000Y4429801D01*
X2313605Y4135174D01*
X2428562Y3857642D01*
X2595455Y3607869D01*
X2807869Y3395455D01*
X3057642Y3228562D01*
X3335174Y3113605D01*
X3629801Y3055000D01*
X3930199Y3055000D01*
X4224826Y3113605D01*
X4502358Y3228562D01*
X4752131Y3395455D01*
X4964545Y3607869D01*
X5131438Y3857642D01*
X5246395Y4135174D01*
X5305000Y4429801D01*
X5305000Y4730199D01*
X5246395Y5024826D01*
X5131438Y5302358D01*
X4964545Y5552131D01*
X4955000Y5561676D01*
X4955000Y6696800D01*
X5440701Y7182500D01*
X5454199Y7182500D01*
X5748826Y7241105D01*
X6026358Y7356062D01*
X6276131Y7522955D01*
X6488545Y7735369D01*
X6655438Y7985142D01*
X6770395Y8262674D01*
X6829000Y8557301D01*
X6829000Y8857699D01*
X6770395Y9152326D01*
X6655438Y9429858D01*
X6488545Y9679631D01*
X6276131Y9892045D01*
X6026358Y10058938D01*
X5748826Y10173895D01*
X5454199Y10232500D01*
X5153801Y10232500D01*
X4859174Y10173895D01*
X4581642Y10058938D01*
X4331869Y9892045D01*
X4119455Y9679631D01*
X3952562Y9429858D01*
X3837605Y9152326D01*
X3779000Y8857699D01*
X3779000Y8844201D01*
X2989962Y8055162D01*
X2945131Y8018370D01*
X2908339Y7973539D01*
X2908336Y7973536D01*
X2798297Y7839453D01*
X2689189Y7635328D01*
X2622002Y7413840D01*
X2599316Y7183500D01*
X2605001Y7125778D01*
X2605000Y5561676D01*
X2595455Y5552131D01*
X2428562Y5302358D01*
X2313605Y5024826D01*
X2255000Y4730199D01*
X450000Y4730199D01*
X450000Y15200199D01*
X4605000Y15200199D01*
X4605000Y14899801D01*
X4663605Y14605174D01*
X4778562Y14327642D01*
X4945455Y14077869D01*
X5145001Y13878323D01*
X5145000Y13181676D01*
X5135455Y13172131D01*
X4968562Y12922358D01*
X4853605Y12644826D01*
X4795000Y12350199D01*
X4795000Y12049801D01*
X4853605Y11755174D01*
X4968562Y11477642D01*
X5135455Y11227869D01*
X5347869Y11015455D01*
X5597642Y10848562D01*
X5875174Y10733605D01*
X6169801Y10675000D01*
X6470199Y10675000D01*
X6764826Y10733605D01*
X7042358Y10848562D01*
X7292131Y11015455D01*
X7504545Y11227869D01*
X7585599Y11349174D01*
X7585875Y11348657D01*
X7633619Y11290480D01*
X7675455Y11227869D01*
X7728703Y11174621D01*
X7776446Y11116446D01*
X7834621Y11068703D01*
X7887869Y11015455D01*
X7950480Y10973619D01*
X8008657Y10925875D01*
X8075033Y10890396D01*
X8137642Y10848562D01*
X8207204Y10819748D01*
X8273585Y10784267D01*
X8345617Y10762416D01*
X8415174Y10733605D01*
X8489014Y10718917D01*
X8561048Y10697066D01*
X8635960Y10689688D01*
X8709801Y10675000D01*
X8785089Y10675000D01*
X8860000Y10667622D01*
X8934911Y10675000D01*
X9010199Y10675000D01*
X9084040Y10689688D01*
X9158952Y10697066D01*
X9230986Y10718917D01*
X9304826Y10733605D01*
X9374383Y10762416D01*
X9446415Y10784267D01*
X9512796Y10819748D01*
X9582358Y10848562D01*
X9644967Y10890396D01*
X9711343Y10925875D01*
X9769520Y10973620D01*
X9832131Y11015455D01*
X10044545Y11227869D01*
X10044549Y11227875D01*
X11001491Y12184816D01*
X11001491Y8247368D01*
X10559125Y7805001D01*
X9412079Y7805001D01*
X9354367Y7810685D01*
X9296655Y7805001D01*
X9296647Y7805001D01*
X9143572Y7789924D01*
X9124026Y7787999D01*
X8918968Y7725796D01*
X8902538Y7720812D01*
X8698414Y7611705D01*
X8519497Y7464871D01*
X8482703Y7420037D01*
X8069967Y7007301D01*
X8025130Y6970504D01*
X7878296Y6791586D01*
X7861388Y6759953D01*
X7769189Y6587462D01*
X7712221Y6399660D01*
X7702002Y6365973D01*
X7685000Y6193353D01*
X7685000Y6193346D01*
X7679316Y6135634D01*
X7685000Y6077922D01*
X7685000Y5561676D01*
X7675455Y5552131D01*
X7508562Y5302358D01*
X7393605Y5024826D01*
X7335000Y4730199D01*
X7335000Y4429801D01*
X7393605Y4135174D01*
X7508562Y3857642D01*
X7675455Y3607869D01*
X7887869Y3395455D01*
X8137642Y3228562D01*
X8415174Y3113605D01*
X8709801Y3055000D01*
X9010199Y3055000D01*
X9304826Y3113605D01*
X9582358Y3228562D01*
X9832131Y3395455D01*
X10044545Y3607869D01*
X10130000Y3735761D01*
X10215455Y3607869D01*
X10427869Y3395455D01*
X10677642Y3228562D01*
X10955174Y3113605D01*
X11249801Y3055000D01*
X11550199Y3055000D01*
X11844826Y3113605D01*
X12122358Y3228562D01*
X12372131Y3395455D01*
X12584545Y3607869D01*
X12751438Y3857642D01*
X12866395Y4135174D01*
X12925000Y4429801D01*
X12925000Y4443300D01*
X14666539Y6184838D01*
X14711370Y6221630D01*
X14785401Y6311836D01*
X14858203Y6400546D01*
X14967311Y6604671D01*
X15034498Y6826159D01*
X15044299Y6925670D01*
X15051500Y6998780D01*
X15051500Y6998788D01*
X15057184Y7056500D01*
X15051500Y7114212D01*
X15051500Y18443800D01*
X15209000Y18286300D01*
X15209000Y18272801D01*
X15267605Y17978174D01*
X15382562Y17700642D01*
X15549455Y17450869D01*
X15761869Y17238455D01*
X16011642Y17071562D01*
X16289174Y16956605D01*
X16583801Y16898000D01*
X16884199Y16898000D01*
X17178826Y16956605D01*
X17456358Y17071562D01*
X17706131Y17238455D01*
X17918545Y17450869D01*
X18085438Y17700642D01*
X18200395Y17978174D01*
X18259000Y18272801D01*
X18259000Y18573199D01*
X18200395Y18867826D01*
X18085438Y19145358D01*
X17918545Y19395131D01*
X17706131Y19607545D01*
X17456358Y19774438D01*
X17178826Y19889395D01*
X16884199Y19948000D01*
X16870700Y19948000D01*
X16751510Y20067190D01*
X16751510Y21071814D01*
X16957869Y20865455D01*
X17207642Y20698562D01*
X17485174Y20583605D01*
X17779801Y20525000D01*
X18080199Y20525000D01*
X18374826Y20583605D01*
X18652358Y20698562D01*
X18902131Y20865455D01*
X19114545Y21077869D01*
X19281438Y21327642D01*
X19396395Y21605174D01*
X19455000Y21899801D01*
X19455001Y14296702D01*
X18883300Y13725000D01*
X18869801Y13725000D01*
X18575174Y13666395D01*
X18297642Y13551438D01*
X18047869Y13384545D01*
X17835455Y13172131D01*
X17668562Y12922358D01*
X17553605Y12644826D01*
X17495000Y12350199D01*
X17495000Y12049801D01*
X17553605Y11755174D01*
X17668562Y11477642D01*
X17835455Y11227869D01*
X18047869Y11015455D01*
X18297642Y10848562D01*
X18575174Y10733605D01*
X18869801Y10675000D01*
X19170199Y10675000D01*
X19464826Y10733605D01*
X19742358Y10848562D01*
X19992131Y11015455D01*
X20204545Y11227869D01*
X20371438Y11477642D01*
X20486395Y11755174D01*
X20545000Y12049801D01*
X20545000Y12063300D01*
X21420039Y12938338D01*
X21464870Y12975130D01*
X21611704Y13154047D01*
X21720811Y13358171D01*
X21753482Y13465874D01*
X21787998Y13579659D01*
X21797813Y13679316D01*
X21805000Y13752280D01*
X21805000Y13752288D01*
X21810684Y13810000D01*
X21805000Y13867712D01*
X21805000Y22792288D01*
X21810684Y22850000D01*
X21805000Y22907712D01*
X21805000Y22907720D01*
X21787998Y23080340D01*
X21768976Y23143050D01*
X21720811Y23301829D01*
X21674797Y23387915D01*
X21611704Y23505953D01*
X21554920Y23575144D01*
X21501664Y23640037D01*
X21501662Y23640039D01*
X21464870Y23684870D01*
X21420040Y23721661D01*
X20151530Y24990170D01*
X20151530Y25045275D01*
X22625000Y25045275D01*
X22625000Y24754725D01*
X22681683Y24469758D01*
X22792872Y24201325D01*
X22954293Y23959742D01*
X23159742Y23754293D01*
X23401325Y23592872D01*
X23669758Y23481683D01*
X23954725Y23425000D01*
X24245275Y23425000D01*
X24530242Y23481683D01*
X24798675Y23592872D01*
X25040258Y23754293D01*
X25245707Y23959742D01*
X25370000Y24145759D01*
X25494293Y23959742D01*
X25699742Y23754293D01*
X25941325Y23592872D01*
X26209758Y23481683D01*
X26494725Y23425000D01*
X26785275Y23425000D01*
X27070242Y23481683D01*
X27338675Y23592872D01*
X27580258Y23754293D01*
X27785707Y23959742D01*
X27910000Y24145759D01*
X28034293Y23959742D01*
X28239742Y23754293D01*
X28481325Y23592872D01*
X28749758Y23481683D01*
X29034725Y23425000D01*
X29325275Y23425000D01*
X29610242Y23481683D01*
X29878675Y23592872D01*
X30120258Y23754293D01*
X30325707Y23959742D01*
X30487128Y24201325D01*
X30598317Y24469758D01*
X30655000Y24754725D01*
X30655000Y25045275D01*
X30598317Y25330242D01*
X30487128Y25598675D01*
X30325707Y25840258D01*
X30120258Y26045707D01*
X29878675Y26207128D01*
X29610242Y26318317D01*
X29325275Y26375000D01*
X29034725Y26375000D01*
X28749758Y26318317D01*
X28481325Y26207128D01*
X28239742Y26045707D01*
X28034293Y25840258D01*
X27910000Y25654241D01*
X27785707Y25840258D01*
X27580258Y26045707D01*
X27338675Y26207128D01*
X27070242Y26318317D01*
X26785275Y26375000D01*
X26494725Y26375000D01*
X26209758Y26318317D01*
X25941325Y26207128D01*
X25699742Y26045707D01*
X25494293Y25840258D01*
X25370000Y25654241D01*
X25245707Y25840258D01*
X25040258Y26045707D01*
X24798675Y26207128D01*
X24530242Y26318317D01*
X24245275Y26375000D01*
X23954725Y26375000D01*
X23669758Y26318317D01*
X23401325Y26207128D01*
X23159742Y26045707D01*
X22954293Y25840258D01*
X22792872Y25598675D01*
X22681683Y25330242D01*
X22625000Y25045275D01*
X20151530Y25045275D01*
X20151530Y25539302D01*
X22187179Y27574950D01*
X48347174Y27574950D01*
X49547124Y26375000D01*
X49354725Y26375000D01*
X49069758Y26318317D01*
X48801325Y26207128D01*
X48559742Y26045707D01*
X48354293Y25840258D01*
X48230000Y25654241D01*
X48105707Y25840258D01*
X47900258Y26045707D01*
X47658675Y26207128D01*
X47390242Y26318317D01*
X47105275Y26375000D01*
X46814725Y26375000D01*
X46529758Y26318317D01*
X46261325Y26207128D01*
X46019742Y26045707D01*
X45814293Y25840258D01*
X45690000Y25654241D01*
X45565707Y25840258D01*
X45360258Y26045707D01*
X45118675Y26207128D01*
X44850242Y26318317D01*
X44565275Y26375000D01*
X44274725Y26375000D01*
X43989758Y26318317D01*
X43721325Y26207128D01*
X43479742Y26045707D01*
X43274293Y25840258D01*
X43150000Y25654241D01*
X43025707Y25840258D01*
X42820258Y26045707D01*
X42578675Y26207128D01*
X42310242Y26318317D01*
X42025275Y26375000D01*
X41734725Y26375000D01*
X41449758Y26318317D01*
X41181325Y26207128D01*
X40939742Y26045707D01*
X40734293Y25840258D01*
X40610000Y25654241D01*
X40485707Y25840258D01*
X40280258Y26045707D01*
X40038675Y26207128D01*
X39770242Y26318317D01*
X39485275Y26375000D01*
X39194725Y26375000D01*
X38909758Y26318317D01*
X38641325Y26207128D01*
X38399742Y26045707D01*
X38194293Y25840258D01*
X38070000Y25654241D01*
X37945707Y25840258D01*
X37740258Y26045707D01*
X37498675Y26207128D01*
X37230242Y26318317D01*
X36945275Y26375000D01*
X36654725Y26375000D01*
X36369758Y26318317D01*
X36101325Y26207128D01*
X35859742Y26045707D01*
X35654293Y25840258D01*
X35530000Y25654241D01*
X35405707Y25840258D01*
X35200258Y26045707D01*
X34958675Y26207128D01*
X34690242Y26318317D01*
X34405275Y26375000D01*
X34114725Y26375000D01*
X33829758Y26318317D01*
X33561325Y26207128D01*
X33319742Y26045707D01*
X33114293Y25840258D01*
X32952872Y25598675D01*
X32841683Y25330242D01*
X32785000Y25045275D01*
X32785000Y24754725D01*
X32841683Y24469758D01*
X32952872Y24201325D01*
X33085000Y24003582D01*
X33085000Y23932335D01*
X28859962Y19707296D01*
X28815131Y19670504D01*
X28778339Y19625673D01*
X28778336Y19625670D01*
X28668297Y19491587D01*
X28559189Y19287462D01*
X28532279Y19198750D01*
X28492002Y19065974D01*
X28475000Y18893354D01*
X28475000Y18893346D01*
X28469316Y18835634D01*
X28475000Y18777922D01*
X28475000Y18261676D01*
X28465455Y18252131D01*
X28298562Y18002358D01*
X28183605Y17724826D01*
X28125000Y17430199D01*
X28125000Y17129801D01*
X28183605Y16835174D01*
X28298562Y16557642D01*
X28465455Y16307869D01*
X28508324Y16265000D01*
X25219801Y16265000D01*
X25145960Y16250312D01*
X25071048Y16242934D01*
X24999013Y16221083D01*
X24925174Y16206395D01*
X24855619Y16177585D01*
X24783584Y16155733D01*
X24717198Y16120249D01*
X24647642Y16091438D01*
X24585042Y16049610D01*
X24518656Y16014126D01*
X24460468Y15966373D01*
X24397869Y15924545D01*
X24344632Y15871308D01*
X24286445Y15823555D01*
X24238692Y15765368D01*
X24185455Y15712131D01*
X24143627Y15649532D01*
X24095874Y15591344D01*
X24060390Y15524958D01*
X24018562Y15462358D01*
X23989751Y15392802D01*
X23954267Y15326416D01*
X23932415Y15254381D01*
X23903605Y15184826D01*
X23888917Y15110987D01*
X23867066Y15038952D01*
X23859688Y14964040D01*
X23845000Y14890199D01*
X23845000Y14814911D01*
X23837622Y14740000D01*
X23845000Y14665089D01*
X23845000Y14589801D01*
X23859688Y14515960D01*
X23867066Y14441048D01*
X23888917Y14369013D01*
X23903605Y14295174D01*
X23932415Y14225619D01*
X23954267Y14153584D01*
X23989751Y14087198D01*
X24018562Y14017642D01*
X24060390Y13955042D01*
X24095874Y13888656D01*
X24143627Y13830468D01*
X24185455Y13767869D01*
X24238692Y13714632D01*
X24286445Y13656445D01*
X24344632Y13608692D01*
X24397869Y13555455D01*
X24460468Y13513627D01*
X24518656Y13465874D01*
X24585042Y13430390D01*
X24647642Y13388562D01*
X24717198Y13359751D01*
X24783584Y13324267D01*
X24855619Y13302415D01*
X24925174Y13273605D01*
X24999013Y13258917D01*
X25071048Y13237066D01*
X25145960Y13229688D01*
X25219801Y13215000D01*
X45040199Y13215000D01*
X45114040Y13229688D01*
X45188952Y13237066D01*
X45260987Y13258917D01*
X45334826Y13273605D01*
X45404381Y13302415D01*
X45476416Y13324267D01*
X45542802Y13359751D01*
X45612358Y13388562D01*
X45674958Y13430390D01*
X45741344Y13465874D01*
X45799532Y13513627D01*
X45862131Y13555455D01*
X45915368Y13608692D01*
X45973555Y13656445D01*
X46021308Y13714632D01*
X46074545Y13767869D01*
X46116373Y13830468D01*
X46164126Y13888656D01*
X46199610Y13955042D01*
X46241438Y14017642D01*
X46270249Y14087198D01*
X46305733Y14153584D01*
X46327585Y14225619D01*
X46356395Y14295174D01*
X46371083Y14369013D01*
X46392934Y14441048D01*
X46400312Y14515960D01*
X46415000Y14589801D01*
X46415000Y14665089D01*
X46422378Y14740000D01*
X46415000Y14814911D01*
X46415000Y14890199D01*
X46400312Y14964040D01*
X46392934Y15038952D01*
X46371083Y15110987D01*
X46356395Y15184826D01*
X46327585Y15254381D01*
X46305733Y15326416D01*
X46270249Y15392802D01*
X46241438Y15462358D01*
X46199610Y15524958D01*
X46164126Y15591344D01*
X46116373Y15649532D01*
X46074545Y15712131D01*
X46021308Y15765368D01*
X45973555Y15823555D01*
X45915368Y15871308D01*
X45862131Y15924545D01*
X45799532Y15966373D01*
X45741344Y16014126D01*
X45740827Y16014402D01*
X45862131Y16095455D01*
X46074545Y16307869D01*
X46241438Y16557642D01*
X46356395Y16835174D01*
X46415000Y17129801D01*
X46415000Y17430199D01*
X46356395Y17724826D01*
X46241438Y18002358D01*
X46074545Y18252131D01*
X46065000Y18261676D01*
X46065000Y19163878D01*
X50290040Y23388917D01*
X50334870Y23425708D01*
X50371662Y23470539D01*
X50371665Y23470542D01*
X50427313Y23538350D01*
X50481704Y23604625D01*
X50590811Y23808749D01*
X50616797Y23894415D01*
X50632654Y23946689D01*
X50645707Y23959742D01*
X50770000Y24145759D01*
X50894293Y23959742D01*
X51099742Y23754293D01*
X51341325Y23592872D01*
X51609758Y23481683D01*
X51894725Y23425000D01*
X52185275Y23425000D01*
X52470242Y23481683D01*
X52738675Y23592872D01*
X52980258Y23754293D01*
X53185707Y23959742D01*
X53310000Y24145759D01*
X53434293Y23959742D01*
X53639742Y23754293D01*
X53881325Y23592872D01*
X54149758Y23481683D01*
X54434725Y23425000D01*
X54725275Y23425000D01*
X55010242Y23481683D01*
X55278675Y23592872D01*
X55520258Y23754293D01*
X55725707Y23959742D01*
X55850000Y24145759D01*
X55945000Y24003581D01*
X55945001Y23422704D01*
X54129965Y21607667D01*
X54085129Y21570871D01*
X53938296Y21391954D01*
X53829188Y21187829D01*
X53792929Y21068296D01*
X53762001Y20966340D01*
X53744999Y20793720D01*
X53744999Y20793713D01*
X53739315Y20736001D01*
X53744999Y20678289D01*
X53745000Y8687723D01*
X53739315Y8630001D01*
X53762001Y8399661D01*
X53829188Y8178173D01*
X53938296Y7974048D01*
X54048335Y7839965D01*
X54048338Y7839962D01*
X54085130Y7795131D01*
X54129961Y7758339D01*
X56655963Y5232336D01*
X56655968Y5232332D01*
X57889762Y3998538D01*
X57885657Y4000238D01*
X57610350Y4055000D01*
X57329650Y4055000D01*
X57170000Y4023244D01*
X57010350Y4055000D01*
X56729650Y4055000D01*
X56454343Y4000238D01*
X56195009Y3892819D01*
X55961615Y3736870D01*
X55763130Y3538385D01*
X55607181Y3304991D01*
X55499762Y3045657D01*
X55445000Y2770350D01*
X55445000Y2489650D01*
X55499762Y2214343D01*
X55607181Y1955009D01*
X55763130Y1721615D01*
X55961615Y1523130D01*
X56195009Y1367181D01*
X56454343Y1259762D01*
X56729650Y1205000D01*
X57010350Y1205000D01*
X57170000Y1236756D01*
X57329650Y1205000D01*
X57610350Y1205000D01*
X57885657Y1259762D01*
X58144991Y1367181D01*
X58378385Y1523130D01*
X58576870Y1721615D01*
X58732819Y1955009D01*
X58840238Y2214343D01*
X58895000Y2489650D01*
X58895000Y2567054D01*
X58937642Y2538562D01*
X59215174Y2423605D01*
X59509801Y2365000D01*
X59810199Y2365000D01*
X60104826Y2423605D01*
X60382358Y2538562D01*
X60632131Y2705455D01*
X60844545Y2917869D01*
X61011438Y3167642D01*
X61126395Y3445174D01*
X61185000Y3739801D01*
X61185000Y4040199D01*
X61126395Y4334826D01*
X61011438Y4612358D01*
X60844545Y4862131D01*
X60632131Y5074545D01*
X60382358Y5241438D01*
X60104826Y5356395D01*
X59810199Y5415000D01*
X59796701Y5415000D01*
X58317668Y6894032D01*
X58317664Y6894037D01*
X56996700Y8215000D01*
X57010350Y8215000D01*
X57170000Y8246756D01*
X57329650Y8215000D01*
X57610350Y8215000D01*
X57885657Y8269762D01*
X58144991Y8377181D01*
X58378385Y8533130D01*
X58576870Y8731615D01*
X58732819Y8965009D01*
X58840238Y9224343D01*
X58895000Y9499650D01*
X58895000Y9780350D01*
X58840238Y10055657D01*
X58732819Y10314991D01*
X58576870Y10548385D01*
X58378385Y10746870D01*
X58144991Y10902819D01*
X57885657Y11010238D01*
X57610350Y11065000D01*
X57329650Y11065000D01*
X57170000Y11033244D01*
X57010350Y11065000D01*
X56729650Y11065000D01*
X56454343Y11010238D01*
X56195009Y10902819D01*
X56094999Y10835994D01*
X56094999Y11594006D01*
X56195009Y11527181D01*
X56454343Y11419762D01*
X56729650Y11365000D01*
X57010350Y11365000D01*
X57170000Y11396756D01*
X57329650Y11365000D01*
X57610350Y11365000D01*
X57885657Y11419762D01*
X58144991Y11527181D01*
X58378385Y11683130D01*
X58576870Y11881615D01*
X58732819Y12115009D01*
X58840238Y12374343D01*
X58895000Y12649650D01*
X58895000Y12930350D01*
X58840238Y13205657D01*
X58732819Y13464991D01*
X58576870Y13698385D01*
X58378385Y13896870D01*
X58144991Y14052819D01*
X57885657Y14160238D01*
X57610350Y14215000D01*
X57329650Y14215000D01*
X57170000Y14183244D01*
X57010350Y14215000D01*
X56729650Y14215000D01*
X56454343Y14160238D01*
X56195009Y14052819D01*
X56094999Y13985994D01*
X56094999Y18604006D01*
X56195009Y18537181D01*
X56454343Y18429762D01*
X56729650Y18375000D01*
X57010350Y18375000D01*
X57170000Y18406756D01*
X57329650Y18375000D01*
X57610350Y18375000D01*
X57885657Y18429762D01*
X58135000Y18533043D01*
X58135000Y18399801D01*
X58193605Y18105174D01*
X58308562Y17827642D01*
X58475455Y17577869D01*
X58687869Y17365455D01*
X58937642Y17198562D01*
X59215174Y17083605D01*
X59509801Y17025000D01*
X59810199Y17025000D01*
X60104826Y17083605D01*
X60382358Y17198562D01*
X60632131Y17365455D01*
X60844545Y17577869D01*
X61011438Y17827642D01*
X61126395Y18105174D01*
X61185000Y18399801D01*
X61185000Y18700199D01*
X61126395Y18994826D01*
X61011438Y19272358D01*
X60844545Y19522131D01*
X60835000Y19531676D01*
X60835000Y24003582D01*
X60967128Y24201325D01*
X61078317Y24469758D01*
X61135000Y24754725D01*
X61135000Y25045275D01*
X61078317Y25330242D01*
X60967128Y25598675D01*
X60805707Y25840258D01*
X60600258Y26045707D01*
X60358675Y26207128D01*
X60090242Y26318317D01*
X59805275Y26375000D01*
X59514725Y26375000D01*
X59229758Y26318317D01*
X58961325Y26207128D01*
X58719742Y26045707D01*
X58514293Y25840258D01*
X58390000Y25654241D01*
X58265707Y25840258D01*
X58060258Y26045707D01*
X57818675Y26207128D01*
X57550242Y26318317D01*
X57265275Y26375000D01*
X56974725Y26375000D01*
X56689758Y26318317D01*
X56421325Y26207128D01*
X56179742Y26045707D01*
X55974293Y25840258D01*
X55850000Y25654241D01*
X55725707Y25840258D01*
X55630248Y25935717D01*
X55561704Y26063953D01*
X55524720Y26109018D01*
X55451664Y26198037D01*
X55451662Y26198039D01*
X55414870Y26242870D01*
X55370040Y26279661D01*
X50409707Y31239993D01*
X50372910Y31284830D01*
X50193993Y31431664D01*
X49989869Y31540771D01*
X49768380Y31607958D01*
X49595760Y31624960D01*
X49595752Y31624960D01*
X49538040Y31630644D01*
X49480328Y31624960D01*
X38779938Y31624960D01*
X44069969Y36914990D01*
X56497202Y36914990D01*
X56554914Y36909306D01*
X56612626Y36914990D01*
X56612634Y36914990D01*
X56785254Y36931992D01*
X57006743Y36999179D01*
X57210867Y37108286D01*
X57389784Y37255120D01*
X57426581Y37299957D01*
X57910035Y37783411D01*
X57954870Y37820206D01*
X58101704Y37999123D01*
X58210811Y38203247D01*
X58225362Y38251216D01*
X58277998Y38424735D01*
X58280701Y38452177D01*
X58295000Y38597356D01*
X58295000Y38597363D01*
X58300684Y38655075D01*
X58295000Y38712787D01*
X58295000Y39243582D01*
X58390000Y39385759D01*
X58514293Y39199742D01*
X58719742Y38994293D01*
X58961325Y38832872D01*
X59229758Y38721683D01*
X59514725Y38665000D01*
X59805275Y38665000D01*
X60090242Y38721683D01*
X60358675Y38832872D01*
X60600258Y38994293D01*
X60805707Y39199742D01*
X60967128Y39441325D01*
X61078317Y39709758D01*
X61135000Y39994725D01*
X61135000Y40285275D01*
X61078317Y40570242D01*
X60967128Y40838675D01*
X60805707Y41080258D01*
X60600258Y41285707D01*
X60358675Y41447128D01*
X60090242Y41558317D01*
X59805275Y41615000D01*
X59514725Y41615000D01*
X59229758Y41558317D01*
X58961325Y41447128D01*
X58719742Y41285707D01*
X58514293Y41080258D01*
X58390000Y40894241D01*
X58265707Y41080258D01*
X58060258Y41285707D01*
X57818675Y41447128D01*
X57550242Y41558317D01*
X57265275Y41615000D01*
X56974725Y41615000D01*
X56689758Y41558317D01*
X56421325Y41447128D01*
X56179742Y41285707D01*
X55974293Y41080258D01*
X55850000Y40894241D01*
X55725707Y41080258D01*
X55520258Y41285707D01*
X55278675Y41447128D01*
X55010242Y41558317D01*
X54725275Y41615000D01*
X54434725Y41615000D01*
X54149758Y41558317D01*
X53881325Y41447128D01*
X53639742Y41285707D01*
X53434293Y41080258D01*
X53310000Y40894241D01*
X53185707Y41080258D01*
X52980258Y41285707D01*
X52738675Y41447128D01*
X52470242Y41558317D01*
X52185275Y41615000D01*
X52057087Y41615000D01*
X52040000Y41616683D01*
X52022913Y41615000D01*
X51894725Y41615000D01*
X51609758Y41558317D01*
X51341325Y41447128D01*
X51099742Y41285707D01*
X51025000Y41210965D01*
X51025000Y43105089D01*
X51032378Y43180000D01*
X51025000Y43254911D01*
X51025000Y43330199D01*
X51010312Y43404040D01*
X51002934Y43478952D01*
X50981083Y43550987D01*
X50966395Y43624826D01*
X50937585Y43694381D01*
X50915733Y43766416D01*
X50880249Y43832802D01*
X50851438Y43902358D01*
X50809610Y43964958D01*
X50774126Y44031344D01*
X50726373Y44089532D01*
X50684545Y44152131D01*
X50631308Y44205368D01*
X50583555Y44263555D01*
X50525368Y44311308D01*
X50472131Y44364545D01*
X50409532Y44406373D01*
X50351344Y44454126D01*
X50284958Y44489610D01*
X50222358Y44531438D01*
X50152802Y44560249D01*
X50086416Y44595733D01*
X50014381Y44617585D01*
X49944826Y44646395D01*
X49870987Y44661083D01*
X49798952Y44682934D01*
X49724040Y44690312D01*
X49650199Y44705000D01*
X49574911Y44705000D01*
X49500000Y44712378D01*
X49425090Y44705000D01*
X49349801Y44705000D01*
X49275960Y44690312D01*
X49201048Y44682934D01*
X49129013Y44661083D01*
X49055174Y44646395D01*
X48985619Y44617585D01*
X48913584Y44595733D01*
X48847198Y44560249D01*
X48777642Y44531438D01*
X48715042Y44489610D01*
X48648656Y44454126D01*
X48590468Y44406373D01*
X48527869Y44364545D01*
X48485000Y44321676D01*
X48485000Y50450199D01*
X48470312Y50524040D01*
X48462934Y50598952D01*
X48441083Y50670987D01*
X48426395Y50744826D01*
X48397585Y50814381D01*
X48375733Y50886416D01*
X48340249Y50952802D01*
X48311438Y51022358D01*
X48269610Y51084958D01*
X48234126Y51151344D01*
X48186373Y51209532D01*
X48144545Y51272131D01*
X48091308Y51325368D01*
X48043555Y51383555D01*
X47985369Y51431307D01*
X47932131Y51484545D01*
X47869528Y51526375D01*
X47811343Y51574126D01*
X47744962Y51609608D01*
X47682358Y51651438D01*
X47612798Y51680251D01*
X47546415Y51715733D01*
X47474384Y51737583D01*
X47404826Y51766395D01*
X47330984Y51781083D01*
X47258951Y51802934D01*
X47184040Y51810312D01*
X47110199Y51825000D01*
X47034910Y51825000D01*
X46960000Y51832378D01*
X46885089Y51825000D01*
X46809801Y51825000D01*
X46735960Y51810312D01*
X46661048Y51802934D01*
X46589013Y51781083D01*
X46515174Y51766395D01*
X46445619Y51737585D01*
X46373584Y51715733D01*
X46307198Y51680249D01*
X46237642Y51651438D01*
X46175042Y51609610D01*
X46108656Y51574126D01*
X46050468Y51526373D01*
X45987869Y51484545D01*
X45934632Y51431308D01*
X45876445Y51383555D01*
X45828694Y51325370D01*
X45775455Y51272131D01*
X45733625Y51209528D01*
X45690000Y51156371D01*
X45646373Y51209532D01*
X45604545Y51272131D01*
X45551308Y51325368D01*
X45503555Y51383555D01*
X45445369Y51431307D01*
X45392131Y51484545D01*
X45329528Y51526375D01*
X45271343Y51574126D01*
X45204962Y51609608D01*
X45142358Y51651438D01*
X45072798Y51680251D01*
X45006415Y51715733D01*
X44934384Y51737583D01*
X44864826Y51766395D01*
X44790984Y51781083D01*
X44718951Y51802934D01*
X44644040Y51810312D01*
X44570199Y51825000D01*
X44494910Y51825000D01*
X44420000Y51832378D01*
X44345089Y51825000D01*
X44269801Y51825000D01*
X44195960Y51810312D01*
X44121048Y51802934D01*
X44049013Y51781083D01*
X43975174Y51766395D01*
X43905619Y51737585D01*
X43833584Y51715733D01*
X43767198Y51680249D01*
X43697642Y51651438D01*
X43635042Y51609610D01*
X43568656Y51574126D01*
X43510468Y51526373D01*
X43447869Y51484545D01*
X43394632Y51431308D01*
X43336445Y51383555D01*
X43288694Y51325370D01*
X43235455Y51272131D01*
X43193625Y51209528D01*
X43150000Y51156371D01*
X43106373Y51209532D01*
X43064545Y51272131D01*
X43011308Y51325368D01*
X42963555Y51383555D01*
X42905369Y51431307D01*
X42852131Y51484545D01*
X42789528Y51526375D01*
X42731343Y51574126D01*
X42664962Y51609608D01*
X42602358Y51651438D01*
X42532798Y51680251D01*
X42466415Y51715733D01*
X42394384Y51737583D01*
X42324826Y51766395D01*
X42250984Y51781083D01*
X42178951Y51802934D01*
X42104040Y51810312D01*
X42030199Y51825000D01*
X41954910Y51825000D01*
X41880000Y51832378D01*
X41805089Y51825000D01*
X41729801Y51825000D01*
X41655960Y51810312D01*
X41581048Y51802934D01*
X41509013Y51781083D01*
X41435174Y51766395D01*
X41365619Y51737585D01*
X41293584Y51715733D01*
X41227198Y51680249D01*
X41157642Y51651438D01*
X41095042Y51609610D01*
X41028656Y51574126D01*
X40970468Y51526373D01*
X40907869Y51484545D01*
X40854632Y51431308D01*
X40796445Y51383555D01*
X40748694Y51325370D01*
X40695455Y51272131D01*
X40653625Y51209528D01*
X40605874Y51151343D01*
X40570392Y51084962D01*
X40528562Y51022358D01*
X40499749Y50952798D01*
X40464267Y50886415D01*
X40442417Y50814384D01*
X40413605Y50744826D01*
X40398917Y50670984D01*
X40377066Y50598951D01*
X40369688Y50524040D01*
X40355000Y50450199D01*
X40355000Y50374910D01*
X40355001Y48015000D01*
X39189801Y48015000D01*
X39115960Y48000312D01*
X39041048Y47992934D01*
X38969013Y47971083D01*
X38895174Y47956395D01*
X38825619Y47927585D01*
X38753584Y47905733D01*
X38687198Y47870249D01*
X38617642Y47841438D01*
X38555042Y47799610D01*
X38488656Y47764126D01*
X38430468Y47716373D01*
X38367869Y47674545D01*
X38314632Y47621308D01*
X38256445Y47573555D01*
X38208692Y47515368D01*
X38155455Y47462131D01*
X38113627Y47399532D01*
X38065874Y47341344D01*
X38030390Y47274958D01*
X37988562Y47212358D01*
X37959751Y47142802D01*
X37924267Y47076416D01*
X37902415Y47004381D01*
X37873605Y46934826D01*
X37858917Y46860987D01*
X37837066Y46788952D01*
X37829688Y46714040D01*
X37815000Y46640199D01*
X37815000Y46564911D01*
X37807622Y46490000D01*
X37815000Y46415089D01*
X37815000Y46339801D01*
X37829688Y46265960D01*
X37837066Y46191048D01*
X37858917Y46119013D01*
X37873605Y46045174D01*
X37902415Y45975619D01*
X37924267Y45903584D01*
X37959751Y45837198D01*
X37988562Y45767642D01*
X38030390Y45705042D01*
X38065874Y45638656D01*
X38113627Y45580468D01*
X38155455Y45517869D01*
X38208692Y45464632D01*
X38256445Y45406445D01*
X38314632Y45358692D01*
X38367869Y45305455D01*
X38430468Y45263627D01*
X38488656Y45215874D01*
X38555042Y45180390D01*
X38617642Y45138562D01*
X38687198Y45109751D01*
X38753584Y45074267D01*
X38825619Y45052415D01*
X38895174Y45023605D01*
X38969013Y45008917D01*
X39041048Y44987066D01*
X39115960Y44979688D01*
X39189801Y44965000D01*
X41805090Y44965000D01*
X41880000Y44957622D01*
X42178952Y44987066D01*
X42466416Y45074267D01*
X42731344Y45215874D01*
X42895000Y45350184D01*
X42895001Y41210964D01*
X42820258Y41285707D01*
X42578675Y41447128D01*
X42310242Y41558317D01*
X42025275Y41615000D01*
X41734725Y41615000D01*
X41449758Y41558317D01*
X41181325Y41447128D01*
X40939742Y41285707D01*
X40734293Y41080258D01*
X40610000Y40894241D01*
X40485707Y41080258D01*
X40280258Y41285707D01*
X40038675Y41447128D01*
X39770242Y41558317D01*
X39485275Y41615000D01*
X39194725Y41615000D01*
X38909758Y41558317D01*
X38641325Y41447128D01*
X38399742Y41285707D01*
X38325000Y41210965D01*
X38325000Y43043353D01*
X38332377Y43118253D01*
X38325000Y43193153D01*
X38325000Y43193163D01*
X38302934Y43417204D01*
X38215733Y43704668D01*
X38074126Y43969596D01*
X37883555Y44201807D01*
X37825369Y44249559D01*
X35785000Y46289926D01*
X35785000Y50450199D01*
X35770312Y50524040D01*
X35762934Y50598952D01*
X35741083Y50670987D01*
X35726395Y50744826D01*
X35697585Y50814381D01*
X35675733Y50886416D01*
X35640249Y50952802D01*
X35611438Y51022358D01*
X35569610Y51084958D01*
X35534126Y51151344D01*
X35486373Y51209532D01*
X35444545Y51272131D01*
X35391308Y51325368D01*
X35343555Y51383555D01*
X35285369Y51431307D01*
X35232131Y51484545D01*
X35169528Y51526375D01*
X35111343Y51574126D01*
X35044962Y51609608D01*
X34982358Y51651438D01*
X34912798Y51680251D01*
X34846415Y51715733D01*
X34774384Y51737583D01*
X34704826Y51766395D01*
X34630984Y51781083D01*
X34558951Y51802934D01*
X34484040Y51810312D01*
X34410199Y51825000D01*
X34334910Y51825000D01*
X34260000Y51832378D01*
X34185089Y51825000D01*
X34109801Y51825000D01*
X34035960Y51810312D01*
X33961048Y51802934D01*
X33889013Y51781083D01*
X33815174Y51766395D01*
X33745619Y51737585D01*
X33673584Y51715733D01*
X33607198Y51680249D01*
X33537642Y51651438D01*
X33475042Y51609610D01*
X33408656Y51574126D01*
X33350468Y51526373D01*
X33287869Y51484545D01*
X33234632Y51431308D01*
X33176445Y51383555D01*
X33128694Y51325370D01*
X33075455Y51272131D01*
X33033625Y51209528D01*
X33027172Y51201665D01*
X32943545Y51303565D01*
X32899611Y51339620D01*
X32863555Y51383555D01*
X32631344Y51574126D01*
X32366416Y51715733D01*
X32078952Y51802934D01*
X31885193Y51822017D01*
X31870199Y51825000D01*
X31854911Y51825000D01*
X31780000Y51832378D01*
X31705089Y51825000D01*
X31569801Y51825000D01*
X31495960Y51810312D01*
X31421048Y51802934D01*
X31349013Y51781083D01*
X31275174Y51766395D01*
X31205619Y51737585D01*
X31133584Y51715733D01*
X31067198Y51680249D01*
X30997642Y51651438D01*
X30935042Y51609610D01*
X30868656Y51574126D01*
X30810468Y51526373D01*
X30747869Y51484545D01*
X30694632Y51431308D01*
X30636445Y51383555D01*
X30588692Y51325368D01*
X30535455Y51272131D01*
X30493627Y51209532D01*
X30450000Y51156372D01*
X30406373Y51209532D01*
X30364545Y51272131D01*
X30311308Y51325368D01*
X30263555Y51383555D01*
X30205369Y51431307D01*
X30152131Y51484545D01*
X30089528Y51526375D01*
X30031343Y51574126D01*
X29964962Y51609608D01*
X29902358Y51651438D01*
X29832798Y51680251D01*
X29766415Y51715733D01*
X29694384Y51737583D01*
X29624826Y51766395D01*
X29550984Y51781083D01*
X29478951Y51802934D01*
X29404040Y51810312D01*
X29330199Y51825000D01*
X29254910Y51825000D01*
X29180000Y51832378D01*
X29105089Y51825000D01*
X29029801Y51825000D01*
X28955960Y51810312D01*
X28881048Y51802934D01*
X28809013Y51781083D01*
X28735174Y51766395D01*
X28665619Y51737585D01*
X28593584Y51715733D01*
X28527198Y51680249D01*
X28457642Y51651438D01*
X28395042Y51609610D01*
X28328656Y51574126D01*
X28270468Y51526373D01*
X28207869Y51484545D01*
X28154632Y51431308D01*
X28096445Y51383555D01*
X28048694Y51325370D01*
X27995455Y51272131D01*
X27953625Y51209528D01*
X27905874Y51151343D01*
X27870392Y51084962D01*
X27828562Y51022358D01*
X27799749Y50952798D01*
X27764267Y50886415D01*
X27742417Y50814384D01*
X27713605Y50744826D01*
X27698917Y50670984D01*
X27677066Y50598951D01*
X27669688Y50524040D01*
X27655000Y50450199D01*
X27655000Y50374910D01*
X27655001Y47834920D01*
X27655000Y47834910D01*
X27655001Y44024920D01*
X27647622Y43950000D01*
X27677066Y43651048D01*
X27764267Y43363585D01*
X27813187Y43272063D01*
X27905875Y43098656D01*
X28096446Y42866445D01*
X28154638Y42818688D01*
X29366531Y41606794D01*
X29325275Y41615000D01*
X29034725Y41615000D01*
X28749758Y41558317D01*
X28481325Y41447128D01*
X28239742Y41285707D01*
X28034293Y41080258D01*
X27872872Y40838675D01*
X27761683Y40570242D01*
X27705000Y40285275D01*
X27705000Y39994725D01*
X27761683Y39709758D01*
X27872872Y39441325D01*
X28034293Y39199742D01*
X28109035Y39125000D01*
X25239817Y39125000D01*
X25374126Y39288656D01*
X25515733Y39553584D01*
X25602934Y39841048D01*
X25632378Y40140000D01*
X25602934Y40438952D01*
X25515733Y40726416D01*
X25374126Y40991344D01*
X25183555Y41223555D01*
X24951344Y41414126D01*
X24686416Y41555733D01*
X24398952Y41642934D01*
X24174911Y41665000D01*
X23085000Y41665000D01*
X23085000Y50450199D01*
X23070312Y50524040D01*
X23062934Y50598952D01*
X23041083Y50670987D01*
X23026395Y50744826D01*
X22997585Y50814381D01*
X22975733Y50886416D01*
X22940249Y50952802D01*
X22911438Y51022358D01*
X22869610Y51084958D01*
X22834126Y51151344D01*
X22786373Y51209532D01*
X22744545Y51272131D01*
X22691308Y51325368D01*
X22643555Y51383555D01*
X22585368Y51431308D01*
X22532131Y51484545D01*
X22469532Y51526373D01*
X22411344Y51574126D01*
X22344958Y51609610D01*
X22282358Y51651438D01*
X22212802Y51680249D01*
X22146416Y51715733D01*
X22074381Y51737585D01*
X22004826Y51766395D01*
X21930987Y51781083D01*
X21858952Y51802934D01*
X21784040Y51810312D01*
X21710199Y51825000D01*
X21634911Y51825000D01*
X21560000Y51832378D01*
X21485090Y51825000D01*
X21409801Y51825000D01*
X21335960Y51810312D01*
X21261049Y51802934D01*
X21189016Y51781083D01*
X21115174Y51766395D01*
X21045616Y51737583D01*
X20973585Y51715733D01*
X20907202Y51680251D01*
X20837642Y51651438D01*
X20775038Y51609608D01*
X20708657Y51574126D01*
X20650474Y51526376D01*
X20587869Y51484545D01*
X20534627Y51431303D01*
X20476446Y51383555D01*
X20428698Y51325374D01*
X20375455Y51272131D01*
X20333623Y51209525D01*
X20285875Y51151344D01*
X20250395Y51084965D01*
X20208562Y51022358D01*
X20179748Y50952794D01*
X20144268Y50886416D01*
X20122419Y50814390D01*
X20093605Y50744826D01*
X20078916Y50670977D01*
X20057067Y50598952D01*
X20049690Y50524049D01*
X20035000Y50450199D01*
X20035000Y50149801D01*
X20035001Y50149796D01*
X20035000Y40290199D01*
X20035000Y40214911D01*
X20027622Y40140000D01*
X20035000Y40065090D01*
X20035000Y39989801D01*
X20049688Y39915960D01*
X20057066Y39841048D01*
X20078917Y39769013D01*
X20093605Y39695174D01*
X20122415Y39625619D01*
X20144267Y39553584D01*
X20179751Y39487198D01*
X20208562Y39417642D01*
X20250390Y39355042D01*
X20285874Y39288656D01*
X20333627Y39230468D01*
X20375455Y39167869D01*
X20418324Y39125000D01*
X17973759Y39125000D01*
X17898848Y39132378D01*
X17599896Y39102934D01*
X17532991Y39082638D01*
X17312433Y39015733D01*
X17047505Y38874126D01*
X16815294Y38683555D01*
X16767536Y38625362D01*
X15672622Y37530447D01*
X15614425Y37482686D01*
X15423854Y37250474D01*
X15347853Y37108286D01*
X15303726Y37025730D01*
X9101123Y30823126D01*
X9042925Y30775364D01*
X8852354Y30543152D01*
X8710748Y30278225D01*
X8710747Y30278224D01*
X8623546Y29990761D01*
X8594102Y29691809D01*
X8601480Y29616899D01*
X8601481Y14098156D01*
X7887875Y13384549D01*
X7887869Y13384545D01*
X7675455Y13172131D01*
X7633620Y13109520D01*
X7585875Y13051343D01*
X7585599Y13050826D01*
X7504545Y13172131D01*
X7495000Y13181676D01*
X7495000Y14360384D01*
X7596395Y14605174D01*
X7655000Y14899801D01*
X7655000Y15200199D01*
X7596395Y15494826D01*
X7481438Y15772358D01*
X7314545Y16022131D01*
X7102131Y16234545D01*
X6852358Y16401438D01*
X6574826Y16516395D01*
X6280199Y16575000D01*
X5979801Y16575000D01*
X5685174Y16516395D01*
X5407642Y16401438D01*
X5157869Y16234545D01*
X4945455Y16022131D01*
X4778562Y15772358D01*
X4663605Y15494826D01*
X4605000Y15200199D01*
X450000Y15200199D01*
X450000Y37550000D01*
X9977896Y37550000D01*
X10000000Y37547823D01*
X10088215Y37556511D01*
X10173041Y37582243D01*
X10251216Y37624029D01*
X10319737Y37680263D01*
X10375971Y37748784D01*
X10417757Y37826959D01*
X10443489Y37911785D01*
X10450000Y37977895D01*
X10452177Y38000000D01*
X10450000Y38022105D01*
X10450000Y52700000D01*
X61680001Y52700000D01*
X61680000Y550000D01*
%TD*%
M02*
