%TF.GenerationSoftware,KiCad,Pcbnew,(5.1.6)-1*%
%TF.CreationDate,2022-09-23T08:04:56-05:00*%
%TF.ProjectId,combined,636f6d62-696e-4656-942e-6b696361645f,rev?*%
%TF.SameCoordinates,Original*%
%TF.FileFunction,Soldermask,Top*%
%TF.FilePolarity,Negative*%
%FSLAX46Y46*%
G04 Gerber Fmt 4.6, Leading zero omitted, Abs format (unit mm)*
G04 Created by KiCad (PCBNEW (5.1.6)-1) date 2022-09-23 08:04:56*
%MOMM*%
%LPD*%
G01*
G04 APERTURE LIST*
%ADD10C,2.300000*%
%ADD11C,2.200000*%
%ADD12C,2.100000*%
%ADD13C,6.100000*%
%ADD14C,5.100000*%
G04 APERTURE END LIST*
D10*
%TO.C,D2*%
X49890000Y66890000D03*
X47350000Y66890000D03*
%TD*%
%TO.C,R2*%
X51160000Y74510000D03*
X43540000Y74510000D03*
%TD*%
%TO.C,D1*%
X47350000Y79590000D03*
X49890000Y79590000D03*
%TD*%
%TO.C,J1*%
X52430000Y60540000D03*
X49890000Y60540000D03*
X47350000Y60540000D03*
X44810000Y60540000D03*
%TD*%
%TO.C,R1*%
X53700000Y71970000D03*
X46080000Y71970000D03*
%TD*%
%TO.C,C1*%
X44810000Y63080000D03*
X44810000Y65620000D03*
%TD*%
%TO.C,D1*%
X15890000Y79590000D03*
X13350000Y79590000D03*
%TD*%
%TO.C,C1*%
X10810000Y65620000D03*
X10810000Y63080000D03*
%TD*%
%TO.C,J1*%
X10810000Y60540000D03*
X13350000Y60540000D03*
X15890000Y60540000D03*
X18430000Y60540000D03*
%TD*%
%TO.C,D2*%
X13350000Y66890000D03*
X15890000Y66890000D03*
%TD*%
%TO.C,R2*%
X9540000Y74510000D03*
X17160000Y74510000D03*
%TD*%
%TO.C,R1*%
X12080000Y71970000D03*
X19700000Y71970000D03*
%TD*%
D11*
%TO.C,U1*%
X24070000Y40090000D03*
X26610000Y40090000D03*
X29150000Y40090000D03*
X31690000Y40090000D03*
X34230000Y40090000D03*
X36770000Y40090000D03*
X39310000Y40090000D03*
X41850000Y40090000D03*
X44390000Y40090000D03*
X46930000Y40090000D03*
X49470000Y40090000D03*
X52010000Y40090000D03*
X54550000Y40090000D03*
X57090000Y40090000D03*
X59630000Y40090000D03*
X59630000Y24850000D03*
X57090000Y24850000D03*
X54550000Y24850000D03*
X52010000Y24850000D03*
X49470000Y24850000D03*
X46930000Y24850000D03*
X44390000Y24850000D03*
X41850000Y24850000D03*
X39310000Y24850000D03*
X36770000Y24850000D03*
X34230000Y24850000D03*
X31690000Y24850000D03*
X29150000Y24850000D03*
X26610000Y24850000D03*
X24070000Y24850000D03*
%TD*%
D10*
%TO.C,J5*%
X29620000Y12150000D03*
X29620000Y14690000D03*
X29620000Y17230000D03*
%TD*%
%TO.C,J2*%
X34230000Y50250000D03*
X31690000Y50250000D03*
X29150000Y50250000D03*
X26610000Y50250000D03*
%TD*%
%TO.C,J14*%
X16450000Y12150000D03*
X18990000Y12150000D03*
%TD*%
%TO.C,J13*%
X11370000Y4530000D03*
X8830000Y4530000D03*
X6290000Y4530000D03*
X3750000Y4530000D03*
%TD*%
%TO.C,J12*%
X3750000Y12150000D03*
X6290000Y12150000D03*
X8830000Y12150000D03*
%TD*%
%TO.C,J9*%
X39780000Y12150000D03*
X39780000Y14690000D03*
X39780000Y17230000D03*
%TD*%
%TO.C,J1*%
X18990000Y50250000D03*
X21530000Y50250000D03*
%TD*%
D12*
%TO.C,SW1*%
X57440000Y2580000D03*
D10*
X59630000Y3840000D03*
X59630000Y8340000D03*
D12*
X57440000Y9590000D03*
X56840000Y2580000D03*
X56840000Y9590000D03*
%TD*%
D10*
%TO.C,J10*%
X42320000Y17230000D03*
X42320000Y14690000D03*
X42320000Y12150000D03*
%TD*%
D12*
%TO.C,SW2*%
X56840000Y19750000D03*
X56840000Y12740000D03*
X57440000Y19750000D03*
D10*
X59630000Y18500000D03*
X59630000Y14000000D03*
D12*
X57440000Y12740000D03*
%TD*%
D10*
%TO.C,J8*%
X37240000Y17230000D03*
X37240000Y14690000D03*
X37240000Y12150000D03*
%TD*%
%TO.C,J6*%
X32160000Y17230000D03*
X32160000Y14690000D03*
X32160000Y12150000D03*
%TD*%
%TO.C,J3*%
X39310000Y50250000D03*
X41850000Y50250000D03*
X44390000Y50250000D03*
X46930000Y50250000D03*
%TD*%
%TO.C,J11*%
X44860000Y17230000D03*
X44860000Y14690000D03*
X44860000Y12150000D03*
%TD*%
%TO.C,J7*%
X34700000Y12150000D03*
X34700000Y14690000D03*
X34700000Y17230000D03*
%TD*%
%TO.C,J4*%
X59630000Y50250000D03*
X57090000Y50250000D03*
X54550000Y50250000D03*
X52010000Y50250000D03*
%TD*%
D13*
X4000000Y71000000D03*
X26000000Y71000000D03*
X60000000Y71000000D03*
X38000000Y71000000D03*
D14*
X15000000Y45000000D03*
X20000000Y5000000D03*
X5000000Y22000000D03*
X50000000Y15000000D03*
X51000000Y45000000D03*
D10*
X25340000Y14690000D03*
X21530000Y40090000D03*
X41850000Y46440000D03*
X54550000Y46440000D03*
X29150000Y46440000D03*
X39310000Y46440000D03*
X6100000Y15000000D03*
X17900000Y22000000D03*
X16704000Y18373000D03*
X5274000Y8657500D03*
M02*
