M48
; DRILL file {KiCad (5.1.6)-1} date 12/04/22 13:14:26
; FORMAT={-:-/ absolute / metric / decimal}
; #@! TF.CreationDate,2022-12-04T13:14:26-05:00
; #@! TF.GenerationSoftware,Kicad,Pcbnew,(5.1.6)-1
FMAT,2
METRIC
T1C0.800
T2C0.900
T3C2.500
%
G90
G05
T1
X11.4Y4.58
X8.86Y4.58
X6.32Y4.58
X3.78Y4.58
X3.78Y12.2
X6.32Y12.2
X8.86Y12.2
X16.48Y12.2
X19.02Y12.2
X29.65Y12.2
X32.19Y12.2
X34.73Y12.2
X37.27Y12.2
X39.81Y12.2
X42.35Y12.2
X44.89Y12.2
X44.89Y14.74
X42.35Y14.74
X39.81Y14.74
X37.27Y14.74
X34.73Y14.74
X32.19Y14.74
X29.65Y14.74
X29.65Y17.28
X32.19Y17.28
X34.73Y17.28
X37.27Y17.28
X39.81Y17.28
X42.35Y17.28
X44.89Y17.28
X46.96Y50.3
X44.42Y50.3
X41.88Y50.3
X39.34Y50.3
X34.26Y50.3
X31.72Y50.3
X29.18Y50.3
X26.64Y50.3
X21.56Y50.3
X19.02Y50.3
X10.81Y60.54
X13.35Y60.54
X15.89Y60.54
X18.43Y60.54
X44.81Y60.54
X47.35Y60.54
X49.89Y60.54
X52.43Y60.54
X44.81Y63.08
X10.81Y63.08
X10.81Y65.62
X44.81Y65.62
X49.89Y66.89
X47.35Y66.89
X15.89Y66.89
X13.35Y66.89
X12.08Y71.97
X19.7Y71.97
X46.08Y71.97
X53.7Y71.97
X51.16Y74.51
X43.54Y74.51
X17.16Y74.51
X9.54Y74.51
X13.35Y79.59
X15.89Y79.59
X47.35Y79.59
X49.89Y79.59
T2
X57.47Y2.63
X56.87Y2.63
X59.66Y3.89
X59.66Y8.39
X5.304Y8.707
X57.47Y9.64
X56.87Y9.64
X56.87Y12.79
X57.47Y12.79
X59.66Y14.05
X25.37Y14.74
X6.13Y15.05
X16.734Y18.423
X59.66Y18.55
X56.87Y19.8
X57.47Y19.8
X17.93Y22.05
X24.1Y24.9
X26.64Y24.9
X29.18Y24.9
X31.72Y24.9
X34.26Y24.9
X36.8Y24.9
X39.34Y24.9
X41.88Y24.9
X44.42Y24.9
X46.96Y24.9
X49.5Y24.9
X52.04Y24.9
X54.58Y24.9
X57.12Y24.9
X59.66Y24.9
X59.66Y40.14
X57.12Y40.14
X54.58Y40.14
X52.04Y40.14
X49.5Y40.14
X46.96Y40.14
X44.42Y40.14
X41.88Y40.14
X39.34Y40.14
X36.8Y40.14
X34.26Y40.14
X31.72Y40.14
X29.18Y40.14
X26.64Y40.14
X24.1Y40.14
X21.56Y40.14
X49.5Y43.18
X33.252Y43.272
X29.18Y46.49
X39.34Y46.49
T3
X20.03Y5.05
X50.03Y15.05
X5.03Y22.05
X15.03Y45.05
X57.13Y48.05
X4.0Y71.0
X26.0Y71.0
X38.0Y71.0
X60.0Y71.0
T0
M30
