M48
; DRILL file {KiCad (5.1.6)-1} date 09/23/22 08:05:05
; FORMAT={-:-/ absolute / metric / decimal}
; #@! TF.CreationDate,2022-09-23T08:05:05-05:00
; #@! TF.GenerationSoftware,Kicad,Pcbnew,(5.1.6)-1
FMAT,2
METRIC
T1C0.800
T2C0.900
T3C2.500
%
G90
G05
T1
X29.62Y17.23
X29.62Y14.69
X29.62Y12.15
X39.78Y17.23
X39.78Y14.69
X39.78Y12.15
X47.35Y66.89
X49.89Y66.89
X10.81Y65.62
X10.81Y63.08
X39.31Y50.25
X41.85Y50.25
X44.39Y50.25
X46.93Y50.25
X13.35Y66.89
X15.89Y66.89
X37.24Y17.23
X37.24Y14.69
X37.24Y12.15
X9.54Y74.51
X17.16Y74.51
X13.35Y79.59
X15.89Y79.59
X46.08Y71.97
X53.7Y71.97
X3.75Y4.53
X6.29Y4.53
X8.83Y4.53
X11.37Y4.53
X42.32Y17.23
X42.32Y14.69
X42.32Y12.15
X44.86Y17.23
X44.86Y14.69
X44.86Y12.15
X10.81Y60.54
X13.35Y60.54
X15.89Y60.54
X18.43Y60.54
X43.54Y74.51
X51.16Y74.51
X12.08Y71.97
X19.7Y71.97
X18.99Y50.25
X21.53Y50.25
X16.45Y12.15
X18.99Y12.15
X34.7Y17.23
X34.7Y14.69
X34.7Y12.15
X44.81Y65.62
X44.81Y63.08
X47.35Y79.59
X49.89Y79.59
X52.01Y50.25
X54.55Y50.25
X57.09Y50.25
X59.63Y50.25
X26.61Y50.25
X29.15Y50.25
X31.69Y50.25
X34.23Y50.25
X44.81Y60.54
X47.35Y60.54
X49.89Y60.54
X52.43Y60.54
X32.16Y17.23
X32.16Y14.69
X32.16Y12.15
X3.75Y12.15
X6.29Y12.15
X8.83Y12.15
T2
X5.274Y8.657
X6.1Y15.0
X16.704Y18.373
X17.9Y22.0
X21.53Y40.09
X25.34Y14.69
X29.15Y46.44
X39.31Y46.44
X41.85Y46.44
X54.55Y46.44
X56.84Y9.59
X56.84Y2.58
X57.44Y9.59
X57.44Y2.58
X59.63Y8.34
X59.63Y3.84
X56.84Y19.75
X56.84Y12.74
X57.44Y19.75
X57.44Y12.74
X59.63Y18.5
X59.63Y14.0
X24.07Y40.09
X24.07Y24.85
X26.61Y40.09
X26.61Y24.85
X29.15Y40.09
X29.15Y24.85
X31.69Y40.09
X31.69Y24.85
X34.23Y40.09
X34.23Y24.85
X36.77Y40.09
X36.77Y24.85
X39.31Y40.09
X39.31Y24.85
X41.85Y40.09
X41.85Y24.85
X44.39Y40.09
X44.39Y24.85
X46.93Y40.09
X46.93Y24.85
X49.47Y40.09
X49.47Y24.85
X52.01Y40.09
X52.01Y24.85
X54.55Y40.09
X54.55Y24.85
X57.09Y40.09
X57.09Y24.85
X59.63Y40.09
X59.63Y24.85
T3
X4.0Y71.0
X5.0Y22.0
X15.0Y45.0
X20.0Y5.0
X26.0Y71.0
X38.0Y71.0
X50.0Y15.0
X51.0Y45.0
X60.0Y71.0
T0
M30
