0
SECTION
2
HEADER
9
$INSUNITS
70
4
9
$ACADVER
1
AC1014
9
$HANDSEED
5
FFFF
0
ENDSEC
0
SECTION
2
TABLES
0
TABLE
2
VPORT
5
8
100
AcDbSymbolTable
0
ENDTAB
0
TABLE
2
LTYPE
5
5
100
AcDbSymbolTable
0
LTYPE
5
14
100
AcDbSymbolTableRecord
100
AcDbLinetypeTableRecord
2
BYBLOCK
70
0
0
LTYPE
5
15
100
AcDbSymbolTableRecord
100
AcDbLinetypeTableRecord
2
BYLAYER
70
0
0
ENDTAB
0
TABLE
2
LAYER
5
2
100
AcDbSymbolTable
70
2
0
LAYER
5
50
100
AcDbSymbolTableRecord
100
AcDbLayerTableRecord
2
0
70
0
6
CONTINUOUS
0
ENDTAB
0
TABLE
2
STYLE
5
3
100
AcDbSymbolTable
70
1
0
STYLE
5
11
100
AcDbSymbolTableRecord
100
AcDbTextStyleTableRecord
2
STANDARD
70
0
0
ENDTAB
0
TABLE
2
VIEW
5
6
100
AcDbSymbolTable
70
0
0
ENDTAB
0
TABLE
2
UCS
5
7
100
AcDbSymbolTable
70
0
0
ENDTAB
0
TABLE
2
APPID
5
9
100
AcDbSymbolTable
70
2
0
APPID
5
12
100
AcDbSymbolTableRecord
100
AcDbRegAppTableRecord
2
ACAD
70
0
0
ENDTAB
0
TABLE
2
DIMSTYLE
5
A
100
AcDbSymbolTable
70
1
0
ENDTAB
0
TABLE
2
BLOCK_RECORD
5
1
100
AcDbSymbolTable
70
1
0
BLOCK_RECORD
5
1F
100
AcDbSymbolTableRecord
100
AcDbBlockTableRecord
2
*MODEL_SPACE
0
BLOCK_RECORD
5
1B
100
AcDbSymbolTableRecord
100
AcDbBlockTableRecord
2
*PAPER_SPACE
0
ENDTAB
0
ENDSEC
0
SECTION
2
BLOCKS
0
BLOCK
5
20
100
AcDbEntity
100
AcDbBlockBegin
2
*MODEL_SPACE
0
ENDBLK
5
21
100
AcDbEntity
100
AcDbBlockEnd
0
BLOCK
5
1C
100
AcDbEntity
100
AcDbBlockBegin
2
*PAPER_SPACE
0
ENDBLK
5
1D
100
AcDbEntity
100
AcDbBlockEnd
0
ENDSEC
0
SECTION
2
ENTITIES
0
LWPOLYLINE
5
100
100
AcDbEntity
8
0
100
AcDbPolyline
90
4
70
1
43
0.0
10
55.375
20
-80.499999999999972
10
21.374999999999993
20
-80.499999999999972
10
21.374999999999993
20
-73.499999999999972
10
55.375
20
-73.499999999999972
0
LWPOLYLINE
5
101
100
AcDbEntity
8
0
100
AcDbPolyline
90
4
70
1
43
0.0
10
-21.374999999999993
20
73.500000000000028
10
-55.375
20
73.500000000000028
10
-55.375
20
80.500000000000043
10
-21.374999999999993
20
80.500000000000043
0
LWPOLYLINE
5
102
100
AcDbEntity
8
0
100
AcDbPolyline
90
4
70
1
43
0.0
10
55.375
20
80.500000000000043
10
55.375
20
73.500000000000057
10
21.374999999999993
20
73.500000000000057
10
21.374999999999993
20
80.500000000000043
0
LWPOLYLINE
5
103
100
AcDbEntity
8
0
100
AcDbPolyline
90
4
70
1
43
0.0
10
-55.375
20
-80.499999999999986
10
-55.375
20
-73.499999999999986
10
-21.374999999999993
20
-73.499999999999986
10
-21.374999999999993
20
-80.499999999999986
0
CIRCLE
5
104
100
AcDbEntity
8
0
100
AcDbCircle
10
9.4999999999999876
20
-12.582000000000226
30
0
40
0.75000000000000056
210
0
220
0
230
1
0
CIRCLE
5
105
100
AcDbEntity
8
0
100
AcDbCircle
10
-1.6900000000000126
20
-28.584000000000227
30
0
40
0
210
0
220
0
230
1
0
CIRCLE
5
106
100
AcDbEntity
8
0
100
AcDbCircle
10
-1.6900000000000126
20
-28.584000000000227
30
0
40
0.75000000000000111
210
0
220
0
230
1
0
CIRCLE
5
107
100
AcDbEntity
8
0
100
AcDbCircle
10
51.499999999999986
20
-7.0000000000002238
30
0
40
0.74999999999999956
210
0
220
0
230
1
0
CIRCLE
5
108
100
AcDbEntity
8
0
100
AcDbCircle
10
51.649999999999984
20
-40.000000000000227
30
0
40
0.75000000000000178
210
0
220
0
230
1
0
LINE
5
109
100
AcDbEntity
8
0
100
AcDbLine
10
-46.405955869045357
20
-90
30
0
11
-46.405955869045357
21
-85.375
31
0
0
LINE
5
110
100
AcDbEntity
8
0
100
AcDbLine
10
46.399999999999999
20
-90
30
0
11
46.399999999999999
21
-85.375
31
0
0
LINE
5
111
100
AcDbEntity
8
0
100
AcDbLine
10
-46.40595586904535
20
90.000000000000014
30
0
11
-46.405955869045357
21
85.375
31
0
0
LINE
5
112
100
AcDbEntity
8
0
100
AcDbLine
10
46.39404413095464
20
90.000000000000071
30
0
11
46.394044130954633
21
85.375
31
0
0
LINE
5
113
100
AcDbEntity
8
0
100
AcDbLine
10
-65
20
64.685715626818791
30
0
11
-60.375
21
64.685715626818791
31
0
0
LINE
5
114
100
AcDbEntity
8
0
100
AcDbLine
10
-46.40595586904535
20
90.000000000000014
30
0
11
-65
21
90.000000000000014
31
0
0
LINE
5
115
100
AcDbEntity
8
0
100
AcDbLine
10
46.39404413095464
20
90.000000000000071
30
0
11
65
21
90.000000000000057
31
0
0
LINE
5
116
100
AcDbEntity
8
0
100
AcDbLine
10
-65
20
90.000000000000014
30
0
11
-65
21
64.685715626818791
31
0
0
LINE
5
117
100
AcDbEntity
8
0
100
AcDbLine
10
-65
20
-64.685712944609776
30
0
11
-64.999999999999943
21
-89.999999999999986
31
0
0
LINE
5
118
100
AcDbEntity
8
0
100
AcDbLine
10
-64.999999999999943
20
-89.999999999999986
30
0
11
-46.405955869045357
21
-90
31
0
0
LINE
5
119
100
AcDbEntity
8
0
100
AcDbLine
10
46.399999999999999
20
-90
30
0
11
64.999999999999986
21
-89.999999999999943
31
0
0
LINE
5
120
100
AcDbEntity
8
0
100
AcDbLine
10
65
20
-64.685712944609776
30
0
11
64.999999999999943
21
-89.999999999999986
31
0
0
LINE
5
121
100
AcDbEntity
8
0
100
AcDbLine
10
65
20
64.285715626818799
30
0
11
60.375
21
64.685715626818791
31
0
0
LINE
5
122
100
AcDbEntity
8
0
100
AcDbLine
10
65
20
90.000000000000014
30
0
11
65
21
64.285715626818799
31
0
0
LINE
5
123
100
AcDbEntity
8
0
100
AcDbLine
10
-65
20
-64.685712944609776
30
0
11
-60.375
21
-64.685712944609776
31
0
0
LINE
5
124
100
AcDbEntity
8
0
100
AcDbLine
10
-46.405955869045357
20
-85.375
30
0
11
46.399999999999999
21
-85.375
31
0
0
LINE
5
125
100
AcDbEntity
8
0
100
AcDbLine
10
-60.375
20
64.685715626818791
30
0
11
-60.375
21
-64.685712944609776
31
0
0
LINE
5
126
100
AcDbEntity
8
0
100
AcDbLine
10
60.375
20
64.685715626818791
30
0
11
60.375
21
-65
31
0
0
LINE
5
127
100
AcDbEntity
8
0
100
AcDbLine
10
60.375
20
-65
30
0
11
65
21
-64.685712944609776
31
0
0
LINE
5
128
100
AcDbEntity
8
0
100
AcDbLine
10
-46.405955869045357
20
85.375
30
0
11
46.394044130954633
21
85.375
31
0
0
LINE
5
129
100
AcDbEntity
8
0
100
AcDbLine
10
-53.150000000000865
20
38.24999999999801
30
-1.1102230246251565e-15
11
-53.149999999999267
21
-38.250000000002103
31
-1.1102230246251565e-15
0
LINE
5
130
100
AcDbEntity
8
0
100
AcDbLine
10
-48.525000000000858
20
38.24999999999801
30
2.8316020517252555e-15
11
-48.525000000000858
21
42.874999999998018
31
2.8316020517252555e-15
0
LINE
5
131
100
AcDbEntity
8
0
100
AcDbLine
10
-48.525000000000858
20
42.874999999998018
30
2.8316020517252555e-15
11
-53.150000000000865
21
42.874999999998018
31
2.8316020517252555e-15
0
LINE
5
132
100
AcDbEntity
8
0
100
AcDbLine
10
-53.150000000000865
20
42.874999999998018
30
2.8316020517252555e-15
11
-53.150000000000865
21
38.24999999999801
31
-1.1102230246251565e-15
0
LINE
5
133
100
AcDbEntity
8
0
100
AcDbLine
10
-48.524999999999267
20
-38.250000000002103
30
-1.1102230246251565e-15
11
-48.524999999999267
21
-42.87500000000211
31
-1.1102230246251565e-15
0
LINE
5
134
100
AcDbEntity
8
0
100
AcDbLine
10
-48.524999999999267
20
-42.87500000000211
30
-1.1102230246251565e-15
11
-53.149999999999267
21
-42.87500000000211
31
-1.1102230246251565e-15
0
LINE
5
135
100
AcDbEntity
8
0
100
AcDbLine
10
-53.149999999999267
20
-42.87500000000211
30
-1.1102230246251565e-15
11
-53.149999999999267
21
-38.250000000002103
31
-1.1102230246251565e-15
0
LINE
5
136
100
AcDbEntity
8
0
100
AcDbLine
10
-16.274999999999189
20
-38.250000000001236
30
-1.1102230246251565e-15
11
-16.274999999999189
21
-42.875000000001236
31
-1.1102230246251565e-15
0
LINE
5
137
100
AcDbEntity
8
0
100
AcDbLine
10
-16.274999999999189
20
-42.875000000001236
30
-1.1102230246251565e-15
11
-11.649999999999185
21
-42.875000000001236
31
-1.1102230246251565e-15
0
LINE
5
138
100
AcDbEntity
8
0
100
AcDbLine
10
-11.649999999999185
20
-42.875000000001236
30
-1.1102230246251565e-15
11
-7.024999999999185
21
-42.875000000001236
31
2.5141005967548395e-14
0
LINE
5
139
100
AcDbEntity
8
0
100
AcDbLine
10
-7.024999999999185
20
-42.875000000001236
30
2.5141005967548395e-14
11
-7.024999999999185
21
-32.875000000001236
31
2.5141005967548395e-14
0
LINE
5
140
100
AcDbEntity
8
0
100
AcDbLine
10
-7.024999999999185
20
-32.875000000001236
30
2.5141005967548395e-14
11
-11.649999999999185
21
-32.875000000001236
31
2.5141005967548395e-14
0
LINE
5
141
100
AcDbEntity
8
0
100
AcDbLine
10
-16.275000000000791
20
38.249999999998884
30
-1.1102230246251565e-15
11
-16.275000000000791
21
42.874999999998884
31
-1.1102230246251565e-15
0
LINE
5
142
100
AcDbEntity
8
0
100
AcDbLine
10
-16.275000000000791
20
42.874999999998884
30
-1.1102230246251565e-15
11
-11.650000000000789
21
42.874999999998884
31
-1.1102230246251565e-15
0
LINE
5
143
100
AcDbEntity
8
0
100
AcDbLine
10
-11.650000000000789
20
42.874999999998884
30
-1.1102230246251565e-15
11
-11.650000000000789
21
38.249999999998884
31
-1.1102230246251565e-15
0
LINE
5
144
100
AcDbEntity
8
0
100
AcDbLine
10
-11.650000000000789
20
25.314997453159616
30
-1.1102230246251565e-15
11
-7.0250000000007882
21
25.314997453159616
31
2.9906697858465558e-14
0
LINE
5
145
100
AcDbEntity
8
0
100
AcDbLine
10
-7.0250000000007882
20
25.314997453159616
30
2.9906697858465558e-14
11
-7.0250000000007882
21
15.314997453159616
31
2.9906697858465558e-14
0
LINE
5
146
100
AcDbEntity
8
0
100
AcDbLine
10
-7.0250000000007882
20
15.314997453159616
30
2.9906697858465558e-14
11
-11.650000000000789
21
15.314997453159616
31
2.9906697858465558e-14
0
LINE
5
147
100
AcDbEntity
8
0
100
AcDbLine
10
-11.649999999999991
20
-8.6189512802402426
30
-1.1102230246251565e-15
11
-7.0249999999999915
21
-8.6189512802402426
31
4.1044741930760718e-15
0
LINE
5
148
100
AcDbEntity
8
0
100
AcDbLine
10
-7.0249999999999915
20
-8.6189512802402426
30
4.1044741930760718e-15
11
-7.0249999999999915
21
-18.618951280240243
31
4.1044741930760726e-15
0
LINE
5
149
100
AcDbEntity
8
0
100
AcDbLine
10
-7.0249999999999915
20
-18.618951280240243
30
4.1044741930760726e-15
11
-11.649999999999991
21
-18.618951280240243
31
4.1044741930760718e-15
0
LINE
5
150
100
AcDbEntity
8
0
100
AcDbLine
10
-48.525000000000858
20
38.24999999999801
30
2.8316020517252555e-15
11
-16.275000000000791
21
38.249999999998884
31
-1.1102230246251565e-15
0
LINE
5
151
100
AcDbEntity
8
0
100
AcDbLine
10
-48.524999999999267
20
-38.250000000002103
30
-1.1102230246251565e-15
11
-16.274999999999189
21
-38.250000000001236
31
-1.1102230246251565e-15
0
LINE
5
152
100
AcDbEntity
8
0
100
AcDbLine
10
-11.649999999999185
20
-32.875000000001236
30
2.5141005967548395e-14
11
-11.649999999999991
21
-18.618951280240243
31
4.1044741930760718e-15
0
LINE
5
153
100
AcDbEntity
8
0
100
AcDbLine
10
-11.649999999999991
20
-8.6189512802402426
30
-1.1102230246251565e-15
11
-11.650000000000789
21
15.314997453159616
31
2.9906697858465558e-14
0
LINE
5
154
100
AcDbEntity
8
0
100
AcDbLine
10
-11.650000000000789
20
38.249999999998884
30
-1.1102230246251565e-15
11
-11.650000000000789
21
25.314997453159616
31
-1.1102230246251565e-15
0
LWPOLYLINE
5
155
100
AcDbEntity
8
0
100
AcDbPolyline
90
4
70
1
43
0.0
10
-16.806133032088621
20
-58.375000000000014
10
-21.431133032088624
20
-58.375000000000021
10
-21.431133032088624
20
-63.000000000000028
10
-16.806133032088621
20
-63.000000000000014
0
LWPOLYLINE
5
156
100
AcDbEntity
8
0
100
AcDbPolyline
90
4
70
1
43
0.0
10
-43.931133032088653
20
-63.000000000000028
10
-43.931133032088653
20
-58.375000000000021
10
-48.556133032088638
20
-58.375000000000021
10
-48.556133032088638
20
-63.000000000000028
0
LWPOLYLINE
5
157
100
AcDbEntity
8
0
100
AcDbPolyline
90
4
70
1
43
0.0
10
41.801612681108978
20
35.417749106906591
10
41.80161268110902
20
40.04274910690657
10
37.176612681109027
20
40.042749106906612
10
37.176612681108985
20
35.417749106906633
0
LWPOLYLINE
5
158
100
AcDbEntity
8
0
100
AcDbPolyline
90
4
70
1
43
0.0
10
-21.431133032088617
20
58.375000000000021
10
-21.431133032088617
20
63.000000000000028
10
-16.806133032088614
20
63.000000000000036
10
-16.806133032088614
20
58.375000000000028
0
LWPOLYLINE
5
159
100
AcDbEntity
8
0
100
AcDbPolyline
90
4
70
1
43
0.0
10
-43.931133032088646
20
58.375000000000021
10
-48.556133032088631
20
58.375000000000021
10
-48.556133032088631
20
63.000000000000028
10
-43.931133032088646
20
63.000000000000028
0
LWPOLYLINE
5
160
100
AcDbEntity
8
0
100
AcDbPolyline
90
4
70
1
43
0.0
10
21.406600903734034
20
-62.999999999999979
10
21.406600903734034
20
-58.374999999999979
10
16.781600903734049
20
-58.374999999999979
10
16.781600903734049
20
-62.999999999999979
0
LWPOLYLINE
5
161
100
AcDbEntity
8
0
100
AcDbPolyline
90
4
70
1
43
0.0
10
43.906600903734073
20
58.375000000000043
10
43.906600903734073
20
63.000000000000043
10
48.531600903734073
20
63.00000000000005
10
48.531600903734073
20
58.37500000000005
0
LWPOLYLINE
5
162
100
AcDbEntity
8
0
100
AcDbPolyline
90
4
70
1
43
0.0
10
37.176612681108743
20
12.917749106906617
10
41.801612681108736
20
12.91774910690657
10
41.801612681108708
20
8.2927491069065695
10
37.176612681108708
20
8.2927491069066193
0
LWPOLYLINE
5
163
100
AcDbEntity
8
0
100
AcDbPolyline
90
4
70
1
43
0.0
10
21.406600903734045
20
58.375000000000043
10
16.781600903734059
20
58.375000000000043
10
16.781600903734059
20
63.000000000000043
10
21.406600903734045
20
63.000000000000043
0
LWPOLYLINE
5
164
100
AcDbEntity
8
0
100
AcDbPolyline
90
4
70
1
43
0.0
10
48.531600903734073
20
-62.999999999999972
10
48.531600903734073
20
-58.374999999999972
10
43.906600903734073
20
-58.374999999999979
10
43.906600903734073
20
-62.999999999999979
0
ENDSEC
0
SECTION
2
OBJECTS
0
DICTIONARY
5
C
100
AcDbDictionary
3
ACAD_GROUP
350
D
3
ACAD_MLINESTYLE
350
17
0
DICTIONARY
5
D
100
AcDbDictionary
0
DICTIONARY
5
1A
330
C
100
AcDbDictionary
0
DICTIONARY
5
17
100
AcDbDictionary
0
ENDSEC
0
EOF
