0
SECTION
2
HEADER
9
$INSUNITS
70
4
9
$ACADVER
1
AC1014
9
$HANDSEED
5
FFFF
0
ENDSEC
0
SECTION
2
TABLES
0
TABLE
2
VPORT
5
8
100
AcDbSymbolTable
0
ENDTAB
0
TABLE
2
LTYPE
5
5
100
AcDbSymbolTable
0
LTYPE
5
14
100
AcDbSymbolTableRecord
100
AcDbLinetypeTableRecord
2
BYBLOCK
70
0
0
LTYPE
5
15
100
AcDbSymbolTableRecord
100
AcDbLinetypeTableRecord
2
BYLAYER
70
0
0
ENDTAB
0
TABLE
2
LAYER
5
2
100
AcDbSymbolTable
70
2
0
LAYER
5
50
100
AcDbSymbolTableRecord
100
AcDbLayerTableRecord
2
0
70
0
6
CONTINUOUS
0
ENDTAB
0
TABLE
2
STYLE
5
3
100
AcDbSymbolTable
70
1
0
STYLE
5
11
100
AcDbSymbolTableRecord
100
AcDbTextStyleTableRecord
2
STANDARD
70
0
0
ENDTAB
0
TABLE
2
VIEW
5
6
100
AcDbSymbolTable
70
0
0
ENDTAB
0
TABLE
2
UCS
5
7
100
AcDbSymbolTable
70
0
0
ENDTAB
0
TABLE
2
APPID
5
9
100
AcDbSymbolTable
70
2
0
APPID
5
12
100
AcDbSymbolTableRecord
100
AcDbRegAppTableRecord
2
ACAD
70
0
0
ENDTAB
0
TABLE
2
DIMSTYLE
5
A
100
AcDbSymbolTable
70
1
0
ENDTAB
0
TABLE
2
BLOCK_RECORD
5
1
100
AcDbSymbolTable
70
1
0
BLOCK_RECORD
5
1F
100
AcDbSymbolTableRecord
100
AcDbBlockTableRecord
2
*MODEL_SPACE
0
BLOCK_RECORD
5
1B
100
AcDbSymbolTableRecord
100
AcDbBlockTableRecord
2
*PAPER_SPACE
0
ENDTAB
0
ENDSEC
0
SECTION
2
BLOCKS
0
BLOCK
5
20
100
AcDbEntity
100
AcDbBlockBegin
2
*MODEL_SPACE
0
ENDBLK
5
21
100
AcDbEntity
100
AcDbBlockEnd
0
BLOCK
5
1C
100
AcDbEntity
100
AcDbBlockBegin
2
*PAPER_SPACE
0
ENDBLK
5
1D
100
AcDbEntity
100
AcDbBlockEnd
0
ENDSEC
0
SECTION
2
ENTITIES
0
CIRCLE
5
100
100
AcDbEntity
8
0
100
AcDbCircle
10
90.000001341104507
20
55.375
30
0
40
7.5
210
0
220
0
230
1
0
LINE
5
101
100
AcDbEntity
8
0
100
AcDbLine
10
64.285715626818799
20
-1.5745458846180251e-15
30
0
11
64.285715626818799
21
4.6250000000000036
31
0
0
LINE
5
102
100
AcDbEntity
8
0
100
AcDbLine
10
-64.285712944609784
20
-1.5745458846180251e-15
30
0
11
-64.285712944609784
21
4.6250000000000036
31
0
0
LINE
5
103
100
AcDbEntity
8
0
100
AcDbLine
10
-72.099998658895487
20
60
30
0
11
-72.099998658895487
21
55.375
31
0
0
LINE
5
104
100
AcDbEntity
8
0
100
AcDbLine
10
-54.199998658895495
20
60
30
0
11
-54.199998658895495
21
55.375
31
0
0
LINE
5
105
100
AcDbEntity
8
0
100
AcDbLine
10
-36.29999865889549
20
60
30
0
11
-36.29999865889549
21
55.375
31
0
0
LINE
5
106
100
AcDbEntity
8
0
100
AcDbLine
10
-18.399998658895491
20
60
30
0
11
-18.399998658895491
21
55.375
31
0
0
LINE
5
107
100
AcDbEntity
8
0
100
AcDbLine
10
90.000001341104507
20
9.0000001490116119
30
0
11
85.375
21
9.0000001490116119
31
0
0
LINE
5
108
100
AcDbEntity
8
0
100
AcDbLine
10
85.375
20
20.000000149011612
30
0
11
90.000001341104507
21
20.000000149011612
31
0
0
LINE
5
109
100
AcDbEntity
8
0
100
AcDbLine
10
90.000001341104507
20
27.000000149011612
30
0
11
85.375
21
27.000000149011612
31
0
0
LINE
5
110
100
AcDbEntity
8
0
100
AcDbLine
10
85.375
20
38.000000149011612
30
0
11
90.000001341104507
21
38.000000149011612
31
0
0
LINE
5
111
100
AcDbEntity
8
0
100
AcDbLine
10
-90
20
48
30
0
11
-85.375
21
48
31
0
0
LINE
5
112
100
AcDbEntity
8
0
100
AcDbLine
10
-90
20
36
30
0
11
-85.375
21
36
31
0
0
LINE
5
113
100
AcDbEntity
8
0
100
AcDbLine
10
-90
20
24.000000000000004
30
0
11
-85.375
21
24.000000000000004
31
0
0
LINE
5
114
100
AcDbEntity
8
0
100
AcDbLine
10
-90
20
12.000000000000002
30
0
11
-85.375
21
12.000000000000002
31
0
0
LINE
5
115
100
AcDbEntity
8
0
100
AcDbLine
10
-18.399998658895491
20
60
30
0
11
-36.29999865889549
21
60
31
0
0
LINE
5
116
100
AcDbEntity
8
0
100
AcDbLine
10
-36.29999865889549
20
55.375
30
0
11
-54.199998658895495
21
55.375
31
0
0
LINE
5
117
100
AcDbEntity
8
0
100
AcDbLine
10
-54.199998658895495
20
60
30
0
11
-72.099998658895487
21
60
31
0
0
LINE
5
118
100
AcDbEntity
8
0
100
AcDbLine
10
-85.375
20
48
30
0
11
-85.375
21
55.375
31
0
0
LINE
5
119
100
AcDbEntity
8
0
100
AcDbLine
10
-72.099998658895487
20
55.375
30
0
11
-85.375
21
55.375
31
0
0
LINE
5
120
100
AcDbEntity
8
0
100
AcDbLine
10
-90
20
48
30
0
11
-90
21
36
31
0
0
LINE
5
121
100
AcDbEntity
8
0
100
AcDbLine
10
-85.375
20
36
30
0
11
-85.375
21
24.000000000000004
31
0
0
LINE
5
122
100
AcDbEntity
8
0
100
AcDbLine
10
-90
20
24.000000000000004
30
0
11
-90
21
12.000000000000002
31
0
0
LINE
5
123
100
AcDbEntity
8
0
100
AcDbLine
10
-85.375
20
12.000000000000002
30
0
11
-85.375
21
4.6250000000000036
31
0
0
LWPOLYLINE
5
124
100
AcDbEntity
8
0
100
AcDbPolyline
90
2
70
1
43
0.0
10
-85.375
20
4.6250000000000036
10
-64.285712944609784
20
4.6250000000000036
0
LINE
5
125
100
AcDbEntity
8
0
100
AcDbLine
10
64.285715626818799
20
4.6250000000000036
30
0
11
90
21
4.6249999999999991
31
0
0
LINE
5
126
100
AcDbEntity
8
0
100
AcDbLine
10
78.000001341104507
20
55.375
30
0
11
-18.399998658895491
21
55.375
31
0
0
LINE
5
127
100
AcDbEntity
8
0
100
AcDbLine
10
90.000000000000014
20
43.375000000000071
30
0
11
90.000001341104507
21
38.000000149011612
31
0
0
LINE
5
128
100
AcDbEntity
8
0
100
AcDbLine
10
85.375
20
38.000000149011612
30
0
11
85.375
21
27.000000149011612
31
0
0
LINE
5
129
100
AcDbEntity
8
0
100
AcDbLine
10
90.000001341104507
20
27.000000149011612
30
0
11
90.000001341104507
21
20.000000149011612
31
0
0
LINE
5
130
100
AcDbEntity
8
0
100
AcDbLine
10
85.375
20
20.000000149011612
30
0
11
85.375
21
9.0000001490116119
31
0
0
LINE
5
131
100
AcDbEntity
8
0
100
AcDbLine
10
90.000001341104507
20
9.0000001490116119
30
0
11
90
21
4.6249999999999991
31
0
0
LWPOLYLINE
5
132
100
AcDbEntity
8
0
100
AcDbPolyline
90
4
70
1
43
0.0
10
90.000000000000014
20
60
10
85.375
20
60
10
85.375
20
55.375
10
90.000000000000014
20
55.375
0
LINE
5
133
100
AcDbEntity
8
0
100
AcDbLine
10
-64.285712944609784
20
-1.5745458846180251e-15
30
0
11
64.285715626818799
21
-1.5745458846180251e-15
31
0
0
LWPOLYLINE
5
134
100
AcDbEntity
8
0
100
AcDbPolyline
90
4
70
1
43
0.0
10
32.305918579180911
20
31.526073736037709
10
24.697466448819682
20
29.05393778103813
10
23.716337491679216
20
32.073542220275243
10
31.324789622040441
20
34.545678175274816
0
LWPOLYLINE
5
135
100
AcDbEntity
8
0
100
AcDbPolyline
90
4
70
1
43
0.0
10
67.49500968210161
20
42.959702527910778
10
66.513880724961155
20
45.979306967147892
10
74.122332855322384
20
48.451442922147464
10
75.103461812462839
20
45.431838482910351
0
ARC
5
136
100
AcDbEntity
8
0
100
AcDbCircle
10
90.000001341104507
20
55.375
30
0
40
11.999999999999996
210
0
220
0
230
1
100
AcDbArc
50
-90.000006403302294
51
180
0
ENDSEC
0
SECTION
2
OBJECTS
0
DICTIONARY
5
C
100
AcDbDictionary
3
ACAD_GROUP
350
D
3
ACAD_MLINESTYLE
350
17
0
DICTIONARY
5
D
100
AcDbDictionary
0
DICTIONARY
5
1A
330
C
100
AcDbDictionary
0
DICTIONARY
5
17
100
AcDbDictionary
0
ENDSEC
0
EOF
