0
SECTION
2
HEADER
9
$INSUNITS
70
4
9
$ACADVER
1
AC1014
9
$HANDSEED
5
FFFF
0
ENDSEC
0
SECTION
2
TABLES
0
TABLE
2
VPORT
5
8
100
AcDbSymbolTable
0
ENDTAB
0
TABLE
2
LTYPE
5
5
100
AcDbSymbolTable
0
LTYPE
5
14
100
AcDbSymbolTableRecord
100
AcDbLinetypeTableRecord
2
BYBLOCK
70
0
0
LTYPE
5
15
100
AcDbSymbolTableRecord
100
AcDbLinetypeTableRecord
2
BYLAYER
70
0
0
ENDTAB
0
TABLE
2
LAYER
5
2
100
AcDbSymbolTable
70
2
0
LAYER
5
50
100
AcDbSymbolTableRecord
100
AcDbLayerTableRecord
2
0
70
0
6
CONTINUOUS
0
ENDTAB
0
TABLE
2
STYLE
5
3
100
AcDbSymbolTable
70
1
0
STYLE
5
11
100
AcDbSymbolTableRecord
100
AcDbTextStyleTableRecord
2
STANDARD
70
0
0
ENDTAB
0
TABLE
2
VIEW
5
6
100
AcDbSymbolTable
70
0
0
ENDTAB
0
TABLE
2
UCS
5
7
100
AcDbSymbolTable
70
0
0
ENDTAB
0
TABLE
2
APPID
5
9
100
AcDbSymbolTable
70
2
0
APPID
5
12
100
AcDbSymbolTableRecord
100
AcDbRegAppTableRecord
2
ACAD
70
0
0
ENDTAB
0
TABLE
2
DIMSTYLE
5
A
100
AcDbSymbolTable
70
1
0
ENDTAB
0
TABLE
2
BLOCK_RECORD
5
1
100
AcDbSymbolTable
70
1
0
BLOCK_RECORD
5
1F
100
AcDbSymbolTableRecord
100
AcDbBlockTableRecord
2
*MODEL_SPACE
0
BLOCK_RECORD
5
1B
100
AcDbSymbolTableRecord
100
AcDbBlockTableRecord
2
*PAPER_SPACE
0
ENDTAB
0
ENDSEC
0
SECTION
2
BLOCKS
0
BLOCK
5
20
100
AcDbEntity
100
AcDbBlockBegin
2
*MODEL_SPACE
0
ENDBLK
5
21
100
AcDbEntity
100
AcDbBlockEnd
0
BLOCK
5
1C
100
AcDbEntity
100
AcDbBlockBegin
2
*PAPER_SPACE
0
ENDBLK
5
1D
100
AcDbEntity
100
AcDbBlockEnd
0
ENDSEC
0
SECTION
2
ENTITIES
0
LINE
5
100
100
AcDbEntity
8
0
100
AcDbLine
10
-42.875000000001236
20
4.6249999999999991
30
0
11
-42.875000000001236
21
0
31
0
0
LINE
5
101
100
AcDbEntity
8
0
100
AcDbLine
10
-42.875000000001236
20
0
30
0
11
-32.875000000001236
21
0
31
0
0
LINE
5
102
100
AcDbEntity
8
0
100
AcDbLine
10
-32.875000000001236
20
0
30
0
11
-32.875000000001236
21
4.6250000000000249
31
0
0
LINE
5
103
100
AcDbEntity
8
0
100
AcDbLine
10
-32.875000000001236
20
4.6250000000000249
30
0
11
-18.618951280240243
21
4.6250000000000044
31
0
0
LINE
5
104
100
AcDbEntity
8
0
100
AcDbLine
10
-18.618951280240243
20
4.6250000000000044
30
0
11
-18.61895128024025
21
0
31
0
0
LINE
5
105
100
AcDbEntity
8
0
100
AcDbLine
10
-18.61895128024025
20
0
30
0
11
-8.6189512802402426
21
-1.4432899320127035e-14
31
0
0
LINE
5
106
100
AcDbEntity
8
0
100
AcDbLine
10
-8.6189512802402426
20
-1.4432899320127035e-14
30
0
11
-8.6189512802402426
21
4.6249999999999991
31
0
0
LINE
5
107
100
AcDbEntity
8
0
100
AcDbLine
10
-8.6189512802402426
20
4.6249999999999991
30
0
11
15.314997453159616
21
4.6250000000000302
31
0
0
LINE
5
108
100
AcDbEntity
8
0
100
AcDbLine
10
15.314997453159616
20
4.6250000000000302
30
0
11
15.314997453159622
21
-1.4432899320127035e-14
31
0
0
LINE
5
109
100
AcDbEntity
8
0
100
AcDbLine
10
15.314997453159622
20
-1.4432899320127035e-14
30
0
11
25.314997453159616
21
0
31
0
0
LINE
5
110
100
AcDbEntity
8
0
100
AcDbLine
10
25.314997453159616
20
0
30
0
11
25.314997453159616
21
4.6249999999999991
31
0
0
LINE
5
111
100
AcDbEntity
8
0
100
AcDbLine
10
25.314997453159616
20
4.6249999999999991
30
0
11
42.874999999998884
21
4.6249999999999991
31
0
0
LINE
5
112
100
AcDbEntity
8
0
100
AcDbLine
10
-33.300000245869171
20
27.274999999999999
30
0
11
-33.300000245869164
21
39.275000000000034
31
0
0
LINE
5
113
100
AcDbEntity
8
0
100
AcDbLine
10
-10.400000245869167
20
39.275000000000027
30
0
11
-10.400000245869172
21
27.275000000000006
31
0
0
LINE
5
114
100
AcDbEntity
8
0
100
AcDbLine
10
-42.875000000001215
20
39.275000000000034
30
0
11
-33.300000245869164
21
39.275000000000034
31
0
0
LINE
5
115
100
AcDbEntity
8
0
100
AcDbLine
10
-10.400000245869167
20
39.275000000000027
30
0
11
0
21
39.275000000000034
31
0
0
LINE
5
116
100
AcDbEntity
8
0
100
AcDbLine
10
0
20
39.275000000000034
30
0
11
-1.1741515530365789e-12
21
25.59861707466667
31
0
0
LINE
5
117
100
AcDbEntity
8
0
100
AcDbLine
10
42.874999999998884
20
19.955670172575385
30
0
11
38.249999999998884
21
19.955670172575385
31
0
0
LINE
5
118
100
AcDbEntity
8
0
100
AcDbLine
10
38.249999999998884
20
19.955670172575385
30
0
11
38.249999999998884
21
9.9556701725753864
31
0
0
LINE
5
119
100
AcDbEntity
8
0
100
AcDbLine
10
38.249999999998884
20
9.9556701725753864
30
0
11
42.874999999998884
21
9.9556701725753864
31
0
0
LINE
5
120
100
AcDbEntity
8
0
100
AcDbLine
10
42.874999999998884
20
25.598617074666645
30
0
11
42.874999999998884
21
19.955670172575385
31
0
0
LINE
5
121
100
AcDbEntity
8
0
100
AcDbLine
10
42.874999999998884
20
9.9556701725753864
30
0
11
42.874999999998884
21
4.6249999999999991
31
0
0
LINE
5
122
100
AcDbEntity
8
0
100
AcDbLine
10
-42.875000000001229
20
19.955670172575385
30
0
11
-38.250000000001229
21
19.955670172575381
31
0
0
LINE
5
123
100
AcDbEntity
8
0
100
AcDbLine
10
-38.250000000001229
20
19.955670172575381
30
0
11
-38.250000000001243
21
9.9556701725753811
31
0
0
LINE
5
124
100
AcDbEntity
8
0
100
AcDbLine
10
-38.250000000001243
20
9.9556701725753811
30
0
11
-42.875000000001236
21
9.9556701725753847
31
0
0
LINE
5
125
100
AcDbEntity
8
0
100
AcDbLine
10
-42.875000000001236
20
9.9556701725753847
30
0
11
-42.875000000001236
21
4.6249999999999991
31
0
0
LINE
5
126
100
AcDbEntity
8
0
100
AcDbLine
10
-42.875000000001229
20
19.955670172575385
30
0
11
-42.875000000001215
21
39.275000000000034
31
0
0
LINE
5
127
100
AcDbEntity
8
0
100
AcDbLine
10
25.056213980045602
20
25.598617074666659
30
0
11
25.056213980045602
21
20.973617074666659
31
0
0
LINE
5
128
100
AcDbEntity
8
0
100
AcDbLine
10
25.056213980045602
20
20.973617074666659
30
0
11
15.056213980045602
21
20.973617074666659
31
0
0
LINE
5
129
100
AcDbEntity
8
0
100
AcDbLine
10
15.056213980045602
20
20.973617074666659
30
0
11
15.056213980045602
21
25.598617074666659
31
0
0
LINE
5
130
100
AcDbEntity
8
0
100
AcDbLine
10
-18.443786019954395
20
20.973617074666656
30
0
11
-24.443786019954395
21
20.973617074666659
31
0
0
LINE
5
131
100
AcDbEntity
8
0
100
AcDbLine
10
-18.443786019954395
20
20.973617074666656
30
0
11
-18.443786019954391
21
27.275000000000009
31
0
0
LINE
5
132
100
AcDbEntity
8
0
100
AcDbLine
10
-24.443786019954395
20
20.973617074666659
30
0
11
-24.443786019954395
21
27.274999999999999
31
0
0
LINE
5
133
100
AcDbEntity
8
0
100
AcDbLine
10
-33.300000245869171
20
27.274999999999999
30
0
11
-24.443786019954395
21
27.274999999999999
31
0
0
LINE
5
134
100
AcDbEntity
8
0
100
AcDbLine
10
-18.443786019954391
20
27.275000000000009
30
0
11
-10.400000245869172
21
27.275000000000006
31
0
0
LINE
5
135
100
AcDbEntity
8
0
100
AcDbLine
10
15.056213980045602
20
25.598617074666659
30
0
11
-1.1741515530365789e-12
21
25.59861707466667
31
0
0
LINE
5
136
100
AcDbEntity
8
0
100
AcDbLine
10
25.056213980045602
20
25.598617074666659
30
0
11
42.874999999998884
21
25.598617074666645
31
0
0
CIRCLE
5
137
100
AcDbEntity
8
0
100
AcDbCircle
10
-35.500000245869174
20
33.375000000000021
30
0
40
0.49999999999999822
210
0
220
0
230
1
0
CIRCLE
5
138
100
AcDbEntity
8
0
100
AcDbCircle
10
-8.2000002458691679
20
33.375000000000007
30
0
40
0.50000000000000044
210
0
220
0
230
1
0
ENDSEC
0
SECTION
2
OBJECTS
0
DICTIONARY
5
C
100
AcDbDictionary
3
ACAD_GROUP
350
D
3
ACAD_MLINESTYLE
350
17
0
DICTIONARY
5
D
100
AcDbDictionary
0
DICTIONARY
5
1A
330
C
100
AcDbDictionary
0
DICTIONARY
5
17
100
AcDbDictionary
0
ENDSEC
0
EOF
