0
SECTION
2
HEADER
9
$INSUNITS
70
4
9
$ACADVER
1
AC1014
9
$HANDSEED
5
FFFF
0
ENDSEC
0
SECTION
2
TABLES
0
TABLE
2
VPORT
5
8
100
AcDbSymbolTable
0
ENDTAB
0
TABLE
2
LTYPE
5
5
100
AcDbSymbolTable
0
LTYPE
5
14
100
AcDbSymbolTableRecord
100
AcDbLinetypeTableRecord
2
BYBLOCK
70
0
0
LTYPE
5
15
100
AcDbSymbolTableRecord
100
AcDbLinetypeTableRecord
2
BYLAYER
70
0
0
ENDTAB
0
TABLE
2
LAYER
5
2
100
AcDbSymbolTable
70
2
0
LAYER
5
50
100
AcDbSymbolTableRecord
100
AcDbLayerTableRecord
2
0
70
0
6
CONTINUOUS
0
ENDTAB
0
TABLE
2
STYLE
5
3
100
AcDbSymbolTable
70
1
0
STYLE
5
11
100
AcDbSymbolTableRecord
100
AcDbTextStyleTableRecord
2
STANDARD
70
0
0
ENDTAB
0
TABLE
2
VIEW
5
6
100
AcDbSymbolTable
70
0
0
ENDTAB
0
TABLE
2
UCS
5
7
100
AcDbSymbolTable
70
0
0
ENDTAB
0
TABLE
2
APPID
5
9
100
AcDbSymbolTable
70
2
0
APPID
5
12
100
AcDbSymbolTableRecord
100
AcDbRegAppTableRecord
2
ACAD
70
0
0
ENDTAB
0
TABLE
2
DIMSTYLE
5
A
100
AcDbSymbolTable
70
1
0
ENDTAB
0
TABLE
2
BLOCK_RECORD
5
1
100
AcDbSymbolTable
70
1
0
BLOCK_RECORD
5
1F
100
AcDbSymbolTableRecord
100
AcDbBlockTableRecord
2
*MODEL_SPACE
0
BLOCK_RECORD
5
1B
100
AcDbSymbolTableRecord
100
AcDbBlockTableRecord
2
*PAPER_SPACE
0
ENDTAB
0
ENDSEC
0
SECTION
2
BLOCKS
0
BLOCK
5
20
100
AcDbEntity
100
AcDbBlockBegin
2
*MODEL_SPACE
0
ENDBLK
5
21
100
AcDbEntity
100
AcDbBlockEnd
0
BLOCK
5
1C
100
AcDbEntity
100
AcDbBlockBegin
2
*PAPER_SPACE
0
ENDBLK
5
1D
100
AcDbEntity
100
AcDbBlockEnd
0
ENDSEC
0
SECTION
2
ENTITIES
0
LINE
5
100
100
AcDbEntity
8
0
100
AcDbLine
10
-65
20
90.000000000000028
30
0
11
65
21
90.000000000000057
31
0
0
CIRCLE
5
101
100
AcDbEntity
8
0
100
AcDbCircle
10
0
20
-20
30
0
40
3.5000000000000009
210
0
220
0
230
1
0
LINE
5
102
100
AcDbEntity
8
0
100
AcDbLine
10
-65
20
-0.49999932944774617
30
0
11
64.999999999999986
21
-0.49999932944775899
31
0
0
LINE
5
103
100
AcDbEntity
8
0
100
AcDbLine
10
-65
20
1.0000000149011612
30
0
11
64.999999999999986
21
1.0000000149011483
31
0
0
LWPOLYLINE
5
104
100
AcDbEntity
8
0
100
AcDbPolyline
90
4
70
1
43
0.0
10
-22.249999999999964
20
-77.749999999999972
10
-27.749999999999982
20
-77.749999999999972
10
-27.749999999999982
20
-72.249999999999972
10
-22.249999999999964
20
-72.249999999999972
0
LWPOLYLINE
5
105
100
AcDbEntity
8
0
100
AcDbPolyline
90
4
70
1
43
0.0
10
-9.7499999999999662
20
-77.749999999999972
10
-15.249999999999984
20
-77.749999999999972
10
-15.249999999999984
20
-72.249999999999972
10
-9.7499999999999662
20
-72.249999999999972
0
LWPOLYLINE
5
106
100
AcDbEntity
8
0
100
AcDbPolyline
90
4
70
1
43
0.0
10
2.7500000000000338
20
-77.749999999999972
10
-2.7499999999999822
20
-77.749999999999972
10
-2.7499999999999831
20
-72.249999999999972
10
2.7500000000000338
20
-72.249999999999972
0
LWPOLYLINE
5
107
100
AcDbEntity
8
0
100
AcDbPolyline
90
4
70
1
43
0.0
10
15.250000000000036
20
-77.749999999999972
10
9.7500000000000178
20
-77.749999999999972
10
9.750000000000016
20
-72.249999999999972
10
15.250000000000036
20
-72.249999999999972
0
LWPOLYLINE
5
108
100
AcDbEntity
8
0
100
AcDbPolyline
90
4
70
1
43
0.0
10
27.750000000000036
20
-77.749999999999972
10
22.250000000000018
20
-77.749999999999972
10
22.250000000000018
20
-72.249999999999972
10
27.750000000000036
20
-72.249999999999972
0
LINE
5
109
100
AcDbEntity
8
0
100
AcDbLine
10
-65
20
-18.399998658895491
30
0
11
-60.375
21
-18.399998658895491
31
0
0
LINE
5
110
100
AcDbEntity
8
0
100
AcDbLine
10
-65
20
-36.29999865889549
30
0
11
-60.375
21
-36.29999865889549
31
0
0
LINE
5
111
100
AcDbEntity
8
0
100
AcDbLine
10
-65
20
-54.199998658895495
30
0
11
-60.375
21
-54.199998658895495
31
0
0
LINE
5
112
100
AcDbEntity
8
0
100
AcDbLine
10
-65
20
-72.099998658895487
30
0
11
-60.375
21
-72.099998658895487
31
0
0
LINE
5
113
100
AcDbEntity
8
0
100
AcDbLine
10
-60.375
20
-18.399998658895491
30
0
11
-60.375
21
-36.29999865889549
31
0
0
LINE
5
114
100
AcDbEntity
8
0
100
AcDbLine
10
-60.375
20
-54.199998658895495
30
0
11
-60.375
21
-72.099998658895487
31
0
0
LINE
5
115
100
AcDbEntity
8
0
100
AcDbLine
10
-65
20
-36.29999865889549
30
0
11
-65
21
-54.199998658895495
31
0
0
LINE
5
116
100
AcDbEntity
8
0
100
AcDbLine
10
-65
20
-72.099998658895487
30
0
11
-64.999999999999943
21
-89.999999999999986
31
0
0
LINE
5
117
100
AcDbEntity
8
0
100
AcDbLine
10
-65
20
-0.49999932944774617
30
0
11
-65
21
-18.399998658895491
31
0
0
LINE
5
118
100
AcDbEntity
8
0
100
AcDbLine
10
65
20
-0.49999932944774617
30
0
11
65
21
-18.399998658895491
31
0
0
LINE
5
119
100
AcDbEntity
8
0
100
AcDbLine
10
65
20
-18.399998658895491
30
0
11
60.375
21
-18.399998658895491
31
0
0
LINE
5
120
100
AcDbEntity
8
0
100
AcDbLine
10
60.375
20
-18.399998658895491
30
0
11
60.375
21
-36.29999865889549
31
0
0
LINE
5
121
100
AcDbEntity
8
0
100
AcDbLine
10
65
20
-36.29999865889549
30
0
11
60.375
21
-36.29999865889549
31
0
0
LINE
5
122
100
AcDbEntity
8
0
100
AcDbLine
10
65
20
-36.29999865889549
30
0
11
65
21
-54.199998658895495
31
0
0
LINE
5
123
100
AcDbEntity
8
0
100
AcDbLine
10
65
20
-54.199998658895495
30
0
11
60.375
21
-54.199998658895495
31
0
0
LINE
5
124
100
AcDbEntity
8
0
100
AcDbLine
10
60.375
20
-54.199998658895495
30
0
11
60.375
21
-72.099998658895487
31
0
0
LINE
5
125
100
AcDbEntity
8
0
100
AcDbLine
10
65
20
-72.099998658895487
30
0
11
60.375
21
-72.099998658895487
31
0
0
LINE
5
126
100
AcDbEntity
8
0
100
AcDbLine
10
65
20
-72.099998658895487
30
0
11
64.999999999999943
21
-89.999999999999986
31
0
0
LINE
5
127
100
AcDbEntity
8
0
100
AcDbLine
10
-46
20
-90
30
0
11
-46
21
-85.375
31
0
0
LINE
5
128
100
AcDbEntity
8
0
100
AcDbLine
10
-28
20
-90
30
0
11
-28
21
-85.375
31
0
0
LINE
5
129
100
AcDbEntity
8
0
100
AcDbLine
10
-9
20
-90
30
0
11
-9
21
-85.375
31
0
0
LINE
5
130
100
AcDbEntity
8
0
100
AcDbLine
10
9
20
-90
30
0
11
9
21
-85.375
31
0
0
LINE
5
131
100
AcDbEntity
8
0
100
AcDbLine
10
28
20
-90
30
0
11
28
21
-85.375
31
0
0
LINE
5
132
100
AcDbEntity
8
0
100
AcDbLine
10
46
20
-90
30
0
11
46
21
-85.375
31
0
0
LINE
5
133
100
AcDbEntity
8
0
100
AcDbLine
10
-46
20
-85.375
30
0
11
-28
21
-85.375
31
0
0
LINE
5
134
100
AcDbEntity
8
0
100
AcDbLine
10
-9
20
-85.375
30
0
11
9
21
-85.375
31
0
0
LINE
5
135
100
AcDbEntity
8
0
100
AcDbLine
10
28
20
-85.375
30
0
11
46
21
-85.375
31
0
0
LINE
5
136
100
AcDbEntity
8
0
100
AcDbLine
10
-64.999999999999943
20
-89.999999999999986
30
0
11
-46
21
-90
31
0
0
LINE
5
137
100
AcDbEntity
8
0
100
AcDbLine
10
-28
20
-90
30
0
11
-9
21
-90
31
0
0
LINE
5
138
100
AcDbEntity
8
0
100
AcDbLine
10
9
20
-90
30
0
11
28
21
-90
31
0
0
LINE
5
139
100
AcDbEntity
8
0
100
AcDbLine
10
46
20
-90
30
0
11
64.999999999999943
21
-89.999999999999986
31
0
0
LINE
5
140
100
AcDbEntity
8
0
100
AcDbLine
10
-65
20
77.000001147389412
30
0
11
-60.375
21
77.000001147389412
31
0
0
LINE
5
141
100
AcDbEntity
8
0
100
AcDbLine
10
-60.375
20
77.000001147389412
30
0
11
-60.375
21
85.375
31
0
0
LINE
5
142
100
AcDbEntity
8
0
100
AcDbLine
10
-60.375
20
85.375
30
0
11
-65
21
85.375
31
0
0
LINE
5
143
100
AcDbEntity
8
0
100
AcDbLine
10
-65
20
77.000001147389412
30
0
11
-65
21
1.0000000149011612
31
0
0
LINE
5
144
100
AcDbEntity
8
0
100
AcDbLine
10
-65
20
85.375
30
0
11
-65
21
90.000000000000028
31
0
0
LINE
5
145
100
AcDbEntity
8
0
100
AcDbLine
10
65
20
85.375
30
0
11
65
21
90.000000000000028
31
0
0
LINE
5
146
100
AcDbEntity
8
0
100
AcDbLine
10
65
20
77.000001147389412
30
0
11
60.375
21
77.000001147389412
31
0
0
LINE
5
147
100
AcDbEntity
8
0
100
AcDbLine
10
60.375
20
85.375
30
0
11
65
21
85.375
31
0
0
LINE
5
148
100
AcDbEntity
8
0
100
AcDbLine
10
60.375
20
77.000001147389412
30
0
11
60.375
21
85.375
31
0
0
LINE
5
149
100
AcDbEntity
8
0
100
AcDbLine
10
65
20
77.000001147389412
30
0
11
65
21
1.0000000149011612
31
0
0
CIRCLE
5
150
100
AcDbEntity
8
0
100
AcDbCircle
10
-19.379999756813039
20
-56.109999716281877
30
0
40
2.7500000000000018
210
0
220
0
230
1
0
CIRCLE
5
151
100
AcDbEntity
8
0
100
AcDbCircle
10
-19.379999756813039
20
-43.409999310970292
30
0
40
2.7500000000000027
210
0
220
0
230
1
0
CIRCLE
5
152
100
AcDbEntity
8
0
100
AcDbCircle
10
20.620000243186961
20
-43.409999310970292
30
0
40
2.7500000000000027
210
0
220
0
230
1
0
CIRCLE
5
153
100
AcDbEntity
8
0
100
AcDbCircle
10
20.620000243186961
20
-56.109999716281877
30
0
40
2.7500000000000018
210
0
220
0
230
1
0
ENDSEC
0
SECTION
2
OBJECTS
0
DICTIONARY
5
C
100
AcDbDictionary
3
ACAD_GROUP
350
D
3
ACAD_MLINESTYLE
350
17
0
DICTIONARY
5
D
100
AcDbDictionary
0
DICTIONARY
5
1A
330
C
100
AcDbDictionary
0
DICTIONARY
5
17
100
AcDbDictionary
0
ENDSEC
0
EOF
