%TF.GenerationSoftware,KiCad,Pcbnew,(5.1.6)-1*%
%TF.CreationDate,2023-05-01T01:46:13-05:00*%
%TF.ProjectId,combined,636f6d62-696e-4656-942e-6b696361645f,rev?*%
%TF.SameCoordinates,Original*%
%TF.FileFunction,Copper,L2,Bot*%
%TF.FilePolarity,Positive*%
%FSLAX46Y46*%
G04 Gerber Fmt 4.6, Leading zero omitted, Abs format (unit mm)*
G04 Created by KiCad (PCBNEW (5.1.6)-1) date 2023-05-01 01:46:13*
%MOMM*%
%LPD*%
G01*
G04 APERTURE LIST*
%TA.AperFunction,ComponentPad*%
%ADD10C,2.200000*%
%TD*%
%TA.AperFunction,ComponentPad*%
%ADD11C,2.100000*%
%TD*%
%TA.AperFunction,ViaPad*%
%ADD12C,2.200000*%
%TD*%
%TA.AperFunction,Conductor*%
%ADD13C,2.200000*%
%TD*%
%TA.AperFunction,Conductor*%
%ADD14C,1.000000*%
%TD*%
%TA.AperFunction,Conductor*%
%ADD15C,1.500000*%
%TD*%
%TA.AperFunction,Conductor*%
%ADD16C,0.250000*%
%TD*%
%TA.AperFunction,Conductor*%
%ADD17C,0.254000*%
%TD*%
G04 APERTURE END LIST*
D10*
%TO.P,C1,1*%
%TO.N,+5V*%
X10810000Y74930000D03*
%TO.P,C1,2*%
%TO.N,GND*%
X10810000Y72390000D03*
%TD*%
%TO.P,D1,2*%
%TO.N,Net-(D1-Pad2)*%
X15890000Y88900000D03*
%TO.P,D1,1*%
%TO.N,+5V*%
X13350000Y88900000D03*
%TD*%
%TO.P,D2,1*%
%TO.N,Net-(D2-Pad1)*%
X13350000Y76200000D03*
%TO.P,D2,2*%
%TO.N,Net-(D2-Pad2)*%
X15890000Y76200000D03*
%TD*%
%TO.P,J1,1*%
%TO.N,GND*%
X10810000Y69850000D03*
%TO.P,J1,2*%
%TO.N,+5V*%
X13350000Y69850000D03*
%TO.P,J1,3*%
%TO.N,Net-(D2-Pad2)*%
X15890000Y69850000D03*
%TO.P,J1,4*%
%TO.N,Net-(D1-Pad2)*%
X18430000Y69850000D03*
%TD*%
%TO.P,R1,1*%
%TO.N,GND*%
X12080000Y81280000D03*
%TO.P,R1,2*%
%TO.N,Net-(D1-Pad2)*%
X19700000Y81280000D03*
%TD*%
%TO.P,R2,2*%
%TO.N,GND*%
X9540000Y83820000D03*
%TO.P,R2,1*%
%TO.N,Net-(D2-Pad1)*%
X17160000Y83820000D03*
%TD*%
%TO.P,C1,2*%
%TO.N,GND*%
X35810000Y61080000D03*
%TO.P,C1,1*%
%TO.N,+5V*%
X35810000Y63620000D03*
%TD*%
%TO.P,D1,1*%
%TO.N,+5V*%
X38350000Y77590000D03*
%TO.P,D1,2*%
%TO.N,Net-(D1-Pad2)*%
X40890000Y77590000D03*
%TD*%
%TO.P,D2,2*%
%TO.N,Net-(D2-Pad2)*%
X40890000Y64890000D03*
%TO.P,D2,1*%
%TO.N,Net-(D2-Pad1)*%
X38350000Y64890000D03*
%TD*%
%TO.P,J1,4*%
%TO.N,Net-(D1-Pad2)*%
X43430000Y58540000D03*
%TO.P,J1,3*%
%TO.N,Net-(D2-Pad2)*%
X40890000Y58540000D03*
%TO.P,J1,2*%
%TO.N,+5V*%
X38350000Y58540000D03*
%TO.P,J1,1*%
%TO.N,GND*%
X35810000Y58540000D03*
%TD*%
%TO.P,R1,2*%
%TO.N,Net-(D1-Pad2)*%
X44700000Y69970000D03*
%TO.P,R1,1*%
%TO.N,GND*%
X37080000Y69970000D03*
%TD*%
%TO.P,R2,1*%
%TO.N,Net-(D2-Pad1)*%
X42160000Y72510000D03*
%TO.P,R2,2*%
%TO.N,GND*%
X34540000Y72510000D03*
%TD*%
%TO.P,J11,3*%
%TO.N,GND*%
X2921000Y12700000D03*
%TO.P,J11,2*%
%TO.N,VIN*%
X5461000Y12700000D03*
%TO.P,J11,1*%
%TO.N,FLAG*%
X8001000Y12700000D03*
%TD*%
%TO.P,J10,3*%
%TO.N,GND*%
X2921000Y15240000D03*
%TO.P,J10,2*%
%TO.N,VIN*%
X5461000Y15240000D03*
%TO.P,J10,1*%
%TO.N,WHEEL_4*%
X8001000Y15240000D03*
%TD*%
%TO.P,J9,3*%
%TO.N,GND*%
X2921000Y17780000D03*
%TO.P,J9,2*%
%TO.N,VIN*%
X5461000Y17780000D03*
%TO.P,J9,1*%
%TO.N,WHEEL_3*%
X8001000Y17780000D03*
%TD*%
%TO.P,J8,3*%
%TO.N,GND*%
X2921000Y20320000D03*
%TO.P,J8,2*%
%TO.N,VIN*%
X5461000Y20320000D03*
%TO.P,J8,1*%
%TO.N,WHEEL_2*%
X8001000Y20320000D03*
%TD*%
%TO.P,J7,3*%
%TO.N,GND*%
X2921000Y22860000D03*
%TO.P,J7,2*%
%TO.N,VIN*%
X5461000Y22860000D03*
%TO.P,J7,1*%
%TO.N,WHEEL_1*%
X8001000Y22860000D03*
%TD*%
%TO.P,J6,3*%
%TO.N,GND*%
X2921000Y25400000D03*
%TO.P,J6,2*%
%TO.N,VIN*%
X5461000Y25400000D03*
%TO.P,J6,1*%
%TO.N,LID*%
X8001000Y25400000D03*
%TD*%
%TO.P,J5,3*%
%TO.N,GND*%
X2921000Y27940000D03*
%TO.P,J5,2*%
%TO.N,VIN*%
X5461000Y27940000D03*
%TO.P,J5,1*%
%TO.N,ARM*%
X8001000Y27940000D03*
%TD*%
%TO.P,J1,1*%
%TO.N,GND*%
X40090000Y43240000D03*
%TO.P,J1,2*%
%TO.N,VIN*%
X40090000Y40700000D03*
%TD*%
%TO.P,J2,1*%
%TO.N,GND*%
X40090000Y35620000D03*
%TO.P,J2,2*%
%TO.N,+5V*%
X40090000Y33080000D03*
%TO.P,J2,3*%
%TO.N,L_IR*%
X40090000Y30540000D03*
%TO.P,J2,4*%
%TO.N,L_SENS*%
X40090000Y28000000D03*
%TD*%
%TO.P,J3,4*%
%TO.N,R_SENS*%
X40090000Y15300000D03*
%TO.P,J3,3*%
%TO.N,R_IR*%
X40090000Y17840000D03*
%TO.P,J3,2*%
%TO.N,+5V*%
X40090000Y20380000D03*
%TO.P,J3,1*%
%TO.N,GND*%
X40090000Y22920000D03*
%TD*%
%TO.P,J12,1*%
%TO.N,GND*%
X6985000Y52705000D03*
%TO.P,J12,2*%
%TO.N,LED*%
X6985000Y55245000D03*
%TO.P,J12,3*%
%TO.N,+5V*%
X6985000Y57785000D03*
%TD*%
%TO.P,J14,2*%
%TO.N,GND*%
X6985000Y45720000D03*
%TO.P,J14,1*%
%TO.N,SWITCH*%
X6985000Y43180000D03*
%TD*%
D11*
%TO.P,U1,1*%
%TO.N,VIN*%
X29960000Y38110000D03*
%TO.P,U1,2*%
%TO.N,GND*%
X29960000Y35570000D03*
%TO.P,U1,3*%
%TO.N,Net-(U1-Pad3)*%
X29960000Y33030000D03*
%TO.P,U1,4*%
%TO.N,+5V*%
X29960000Y30490000D03*
%TO.P,U1,5*%
%TO.N,Net-(U1-Pad5)*%
X29960000Y27950000D03*
%TO.P,U1,6*%
%TO.N,L_SENS*%
X29960000Y25410000D03*
%TO.P,U1,7*%
%TO.N,GND*%
X29960000Y22870000D03*
%TO.P,U1,8*%
X29960000Y20330000D03*
%TO.P,U1,9*%
%TO.N,R_IR*%
X29960000Y17790000D03*
%TO.P,U1,10*%
%TO.N,R_SENS*%
X29960000Y15250000D03*
%TO.P,U1,11*%
%TO.N,L_IR*%
X29960000Y12710000D03*
%TO.P,U1,12*%
%TO.N,Net-(U1-Pad12)*%
X29960000Y10170000D03*
%TO.P,U1,13*%
%TO.N,Net-(U1-Pad13)*%
X29960000Y7630000D03*
%TO.P,U1,14*%
%TO.N,Net-(U1-Pad14)*%
X29960000Y5090000D03*
%TO.P,U1,15*%
%TO.N,Net-(U1-Pad15)*%
X29960000Y2550000D03*
%TO.P,U1,16*%
%TO.N,GND*%
X14720000Y2550000D03*
%TO.P,U1,17*%
X14720000Y5090000D03*
%TO.P,U1,18*%
%TO.N,LED*%
X14720000Y7630000D03*
%TO.P,U1,19*%
%TO.N,SWITCH*%
X14720000Y10170000D03*
%TO.P,U1,20*%
%TO.N,FLAG*%
X14720000Y12710000D03*
%TO.P,U1,21*%
%TO.N,WHEEL_4*%
X14720000Y15250000D03*
%TO.P,U1,22*%
%TO.N,WHEEL_3*%
X14720000Y17790000D03*
%TO.P,U1,23*%
%TO.N,WHEEL_2*%
X14720000Y20330000D03*
%TO.P,U1,24*%
%TO.N,WHEEL_1*%
X14720000Y22870000D03*
%TO.P,U1,25*%
%TO.N,LID*%
X14720000Y25410000D03*
%TO.P,U1,26*%
%TO.N,ARM*%
X14720000Y27950000D03*
%TO.P,U1,27*%
%TO.N,GND*%
X14720000Y30490000D03*
%TO.P,U1,28*%
%TO.N,Net-(U1-Pad28)*%
X14720000Y33030000D03*
%TO.P,U1,29*%
%TO.N,Net-(U1-Pad29)*%
X14720000Y35570000D03*
%TO.P,U1,30*%
%TO.N,Net-(U1-Pad30)*%
X14720000Y38110000D03*
%TD*%
D12*
%TO.N,L_IR*%
X33062063Y29007937D03*
X32970000Y12760000D03*
%TO.N,VIN*%
X5546000Y32445000D03*
X29930000Y40700000D03*
%TO.N,+5V*%
X36280000Y33080000D03*
X36280000Y22920000D03*
%TD*%
D13*
%TO.N,L_IR*%
X34454136Y30400010D02*
X33062063Y29007937D01*
X33062063Y29007937D02*
X33062063Y29007937D01*
X29930000Y12760000D02*
X32970000Y12760000D01*
X32970000Y12760000D02*
X32970000Y12760000D01*
X34594126Y30540000D02*
X34454136Y30400010D01*
X40090000Y30540000D02*
X34594126Y30540000D01*
%TO.N,L_SENS*%
X40090000Y28000000D02*
X35448252Y28000000D01*
X35448252Y28000000D02*
X32908252Y25460000D01*
X32908252Y25460000D02*
X29930000Y25460000D01*
%TO.N,R_IR*%
X40090000Y17840000D02*
X29930000Y17840000D01*
%TO.N,R_SENS*%
X40090000Y15300000D02*
X29930000Y15300000D01*
D14*
%TO.N,ARM*%
X8086000Y28165000D02*
X8128930Y28165000D01*
D13*
X14720000Y27950000D02*
X8086000Y27950000D01*
X8086000Y27950000D02*
X7946010Y27810010D01*
%TO.N,LID*%
X14720000Y25410000D02*
X8086000Y25410000D01*
%TO.N,WHEEL_1*%
X14720000Y22870000D02*
X7956010Y22870000D01*
D14*
%TO.N,WHEEL_2*%
X8086000Y20545000D02*
X8210002Y20545000D01*
D13*
X14720000Y20330000D02*
X8086000Y20330000D01*
D14*
%TO.N,WHEEL_3*%
X14690000Y17840000D02*
X14055000Y17840000D01*
X8128930Y18005000D02*
X8086000Y18005000D01*
D13*
X14720000Y17790000D02*
X8086000Y17790000D01*
%TO.N,WHEEL_4*%
X14720000Y15250000D02*
X7956010Y15250000D01*
X7956010Y15250000D02*
X7946010Y15240000D01*
D14*
%TO.N,FLAG*%
X8175000Y13014000D02*
X8086000Y12925000D01*
D13*
X14720000Y12710000D02*
X8138000Y12710000D01*
D15*
%TO.N,Net-(U1-Pad12)*%
X30225998Y10220000D02*
X29930000Y10220000D01*
D13*
%TO.N,VIN*%
X5546000Y12925000D02*
X5546000Y32445000D01*
X29930000Y40700000D02*
X29930000Y40700000D01*
X5546000Y32445000D02*
X5546000Y32445000D01*
X29930000Y38160000D02*
X29930000Y40700000D01*
X29930000Y40700000D02*
X40090000Y40700000D01*
D15*
%TO.N,+5V*%
X13350000Y83820000D02*
X13350000Y88900000D01*
X14620000Y80504002D02*
X14620000Y82550000D01*
X10810000Y75424002D02*
X10810000Y76694002D01*
X14620000Y82550000D02*
X13350000Y83820000D01*
X10810000Y76694002D02*
X14620000Y80504002D01*
X13350000Y72884002D02*
X11304002Y74930000D01*
X11304002Y74930000D02*
X10810000Y74930000D01*
X13350000Y69850000D02*
X13350000Y72884002D01*
X38350000Y72510000D02*
X38350000Y77590000D01*
X39620000Y69194002D02*
X39620000Y71240000D01*
X35810000Y64114002D02*
X35810000Y65384002D01*
X39620000Y71240000D02*
X38350000Y72510000D01*
X35810000Y65384002D02*
X39620000Y69194002D01*
X38350000Y61574002D02*
X36304002Y63620000D01*
X36304002Y63620000D02*
X35810000Y63620000D01*
X38350000Y58540000D02*
X38350000Y61574002D01*
D13*
X36280000Y20380000D02*
X36280000Y22920000D01*
X40090000Y20380000D02*
X36280000Y20380000D01*
X37550000Y33080000D02*
X33740000Y33080000D01*
X40090000Y33080000D02*
X37550000Y33080000D01*
X33740000Y33080000D02*
X31200000Y30540000D01*
X31200000Y30540000D02*
X29930000Y30540000D01*
X22289970Y36675106D02*
X22289970Y42112828D01*
X29960000Y30490000D02*
X28475076Y30490000D01*
X28475076Y30490000D02*
X22289970Y36675106D01*
X17158798Y47244000D02*
X17123150Y47244000D01*
X22289970Y42112828D02*
X17158798Y47244000D01*
X11448010Y54697141D02*
X8487151Y57658000D01*
X17123150Y47244000D02*
X11448010Y52919140D01*
X11448010Y52919140D02*
X11448010Y54697141D01*
X8487151Y57658000D02*
X6858000Y57658000D01*
D15*
%TO.N,LED*%
X20239960Y12721960D02*
X15198000Y7680000D01*
X15198000Y7680000D02*
X14690000Y7680000D01*
X20239960Y41263688D02*
X20239960Y12721960D01*
X16520168Y44983480D02*
X20239960Y41263688D01*
X16520168Y44983480D02*
X16484520Y44983480D01*
X16484520Y44983480D02*
X9398000Y52070000D01*
X9398000Y52070000D02*
X9398000Y53848000D01*
X9398000Y53848000D02*
X8128000Y55118000D01*
X8128000Y55118000D02*
X6858000Y55118000D01*
D13*
X7506025Y55245000D02*
X7646024Y55105001D01*
X6985000Y55245000D02*
X7506025Y55245000D01*
D15*
%TO.N,SWITCH*%
X15110002Y10220000D02*
X14690000Y10220000D01*
X18539950Y13426126D02*
X18539950Y40559522D01*
X14690000Y10220000D02*
X15333824Y10220000D01*
X15333824Y10220000D02*
X18539950Y13426126D01*
X18539950Y40559522D02*
X15816002Y43283470D01*
X15816002Y43283470D02*
X7723470Y43283470D01*
X7723470Y43283470D02*
X7620000Y43180000D01*
%TO.N,Net-(D1-Pad2)*%
X19700000Y80639825D02*
X19700000Y81280000D01*
X18430000Y79369825D02*
X19700000Y80639825D01*
X18430000Y69850000D02*
X18430000Y79369825D01*
X19700000Y85090000D02*
X15890000Y88900000D01*
X19700000Y81280000D02*
X19700000Y85090000D01*
X44700000Y69329825D02*
X44700000Y69970000D01*
X43430000Y68059825D02*
X44700000Y69329825D01*
X43430000Y58540000D02*
X43430000Y68059825D01*
X44700000Y73780000D02*
X40890000Y77590000D01*
X44700000Y69970000D02*
X44700000Y73780000D01*
%TO.N,Net-(D2-Pad1)*%
X13839999Y77184001D02*
X17160000Y80504002D01*
X13839999Y76689999D02*
X13839999Y77184001D01*
X17160000Y80504002D02*
X17160000Y83820000D01*
X13350000Y76200000D02*
X13839999Y76689999D01*
X38839999Y65874001D02*
X42160000Y69194002D01*
X38839999Y65379999D02*
X38839999Y65874001D01*
X42160000Y69194002D02*
X42160000Y72510000D01*
X38350000Y64890000D02*
X38839999Y65379999D01*
%TO.N,Net-(D2-Pad2)*%
X15890000Y69850000D02*
X15890000Y76200000D01*
X40890000Y58540000D02*
X40890000Y64890000D01*
%TD*%
D16*
%TO.N,GND*%
G36*
X21550001Y84332115D02*
G01*
X21547823Y84310000D01*
X21556511Y84221785D01*
X21582243Y84136959D01*
X21624029Y84058784D01*
X21680263Y83990263D01*
X21748784Y83934029D01*
X21826959Y83892243D01*
X21911785Y83866511D01*
X21977895Y83860000D01*
X21977896Y83860000D01*
X22000000Y83857823D01*
X22022105Y83860000D01*
X29550000Y83860000D01*
X29550001Y76760000D01*
X22022104Y76760000D01*
X22000000Y76762177D01*
X21977895Y76760000D01*
X21911785Y76753489D01*
X21826959Y76727757D01*
X21748784Y76685971D01*
X21680263Y76629737D01*
X21624029Y76561216D01*
X21582243Y76483041D01*
X21556511Y76398215D01*
X21547823Y76310000D01*
X21550000Y76287896D01*
X21550001Y67760000D01*
X7450000Y67760000D01*
X7450000Y75080199D01*
X9285000Y75080199D01*
X9285000Y74779801D01*
X9343605Y74485174D01*
X9458562Y74207642D01*
X9625455Y73957869D01*
X9837869Y73745455D01*
X10087642Y73578562D01*
X10365174Y73463605D01*
X10659801Y73405000D01*
X10960199Y73405000D01*
X11132941Y73439361D01*
X12175001Y72397300D01*
X12175000Y70831676D01*
X12165455Y70822131D01*
X11998562Y70572358D01*
X11883605Y70294826D01*
X11825000Y70000199D01*
X11825000Y69699801D01*
X11883605Y69405174D01*
X11998562Y69127642D01*
X12165455Y68877869D01*
X12377869Y68665455D01*
X12627642Y68498562D01*
X12905174Y68383605D01*
X13199801Y68325000D01*
X13500199Y68325000D01*
X13794826Y68383605D01*
X14072358Y68498562D01*
X14322131Y68665455D01*
X14534545Y68877869D01*
X14620000Y69005761D01*
X14705455Y68877869D01*
X14917869Y68665455D01*
X15167642Y68498562D01*
X15445174Y68383605D01*
X15739801Y68325000D01*
X16040199Y68325000D01*
X16334826Y68383605D01*
X16612358Y68498562D01*
X16862131Y68665455D01*
X17074545Y68877869D01*
X17160000Y69005761D01*
X17245455Y68877869D01*
X17457869Y68665455D01*
X17707642Y68498562D01*
X17985174Y68383605D01*
X18279801Y68325000D01*
X18580199Y68325000D01*
X18874826Y68383605D01*
X19152358Y68498562D01*
X19402131Y68665455D01*
X19614545Y68877869D01*
X19781438Y69127642D01*
X19896395Y69405174D01*
X19955000Y69699801D01*
X19955000Y70000199D01*
X19896395Y70294826D01*
X19781438Y70572358D01*
X19614545Y70822131D01*
X19605000Y70831676D01*
X19605000Y78883125D01*
X20490040Y79768164D01*
X20534870Y79804955D01*
X20681704Y79983872D01*
X20790811Y80187996D01*
X20802193Y80225517D01*
X20884545Y80307869D01*
X20996200Y80474973D01*
X24325000Y80474973D01*
X24325000Y80145027D01*
X24389369Y79821420D01*
X24515634Y79516590D01*
X24698942Y79242249D01*
X24932249Y79008942D01*
X25206590Y78825634D01*
X25511420Y78699369D01*
X25835027Y78635000D01*
X26164973Y78635000D01*
X26488580Y78699369D01*
X26793410Y78825634D01*
X27067751Y79008942D01*
X27301058Y79242249D01*
X27484366Y79516590D01*
X27610631Y79821420D01*
X27675000Y80145027D01*
X27675000Y80474973D01*
X27610631Y80798580D01*
X27484366Y81103410D01*
X27301058Y81377751D01*
X27067751Y81611058D01*
X26793410Y81794366D01*
X26488580Y81920631D01*
X26164973Y81985000D01*
X25835027Y81985000D01*
X25511420Y81920631D01*
X25206590Y81794366D01*
X24932249Y81611058D01*
X24698942Y81377751D01*
X24515634Y81103410D01*
X24389369Y80798580D01*
X24325000Y80474973D01*
X20996200Y80474973D01*
X21051438Y80557642D01*
X21166395Y80835174D01*
X21225000Y81129801D01*
X21225000Y81430199D01*
X21166395Y81724826D01*
X21051438Y82002358D01*
X20884545Y82252131D01*
X20875000Y82261676D01*
X20875000Y85032288D01*
X20880684Y85090000D01*
X20875000Y85147712D01*
X20875000Y85147720D01*
X20857998Y85320340D01*
X20790811Y85541829D01*
X20681704Y85745953D01*
X20534870Y85924870D01*
X20490039Y85961662D01*
X17415000Y89036700D01*
X17415000Y89050199D01*
X17356395Y89344826D01*
X17241438Y89622358D01*
X17074545Y89872131D01*
X16862131Y90084545D01*
X16612358Y90251438D01*
X16334826Y90366395D01*
X16040199Y90425000D01*
X15739801Y90425000D01*
X15445174Y90366395D01*
X15167642Y90251438D01*
X14917869Y90084545D01*
X14705455Y89872131D01*
X14620000Y89744239D01*
X14534545Y89872131D01*
X14322131Y90084545D01*
X14072358Y90251438D01*
X13794826Y90366395D01*
X13500199Y90425000D01*
X13199801Y90425000D01*
X12905174Y90366395D01*
X12627642Y90251438D01*
X12377869Y90084545D01*
X12165455Y89872131D01*
X11998562Y89622358D01*
X11883605Y89344826D01*
X11825000Y89050199D01*
X11825000Y88749801D01*
X11883605Y88455174D01*
X11998562Y88177642D01*
X12165455Y87927869D01*
X12175001Y87918323D01*
X12175000Y83877712D01*
X12169316Y83820000D01*
X12175000Y83762288D01*
X12175000Y83762281D01*
X12192002Y83589661D01*
X12259189Y83368172D01*
X12368296Y83164048D01*
X12515130Y82985130D01*
X12559966Y82948334D01*
X13445001Y82063299D01*
X13445000Y80990703D01*
X10019962Y77565664D01*
X9975131Y77528872D01*
X9938339Y77484041D01*
X9938336Y77484038D01*
X9834898Y77357998D01*
X9828297Y77349955D01*
X9719189Y77145831D01*
X9652002Y76924342D01*
X9635000Y76751722D01*
X9635000Y76751714D01*
X9629316Y76694002D01*
X9635000Y76636290D01*
X9635000Y75911676D01*
X9625455Y75902131D01*
X9458562Y75652358D01*
X9343605Y75374826D01*
X9285000Y75080199D01*
X7450000Y75080199D01*
X7450000Y76287896D01*
X7452177Y76310000D01*
X7443489Y76398215D01*
X7417757Y76483041D01*
X7375971Y76561216D01*
X7319737Y76629737D01*
X7251216Y76685971D01*
X7173041Y76727757D01*
X7088215Y76753489D01*
X7022105Y76760000D01*
X7000000Y76762177D01*
X6977896Y76760000D01*
X450000Y76760000D01*
X450000Y80474973D01*
X2325000Y80474973D01*
X2325000Y80145027D01*
X2389369Y79821420D01*
X2515634Y79516590D01*
X2698942Y79242249D01*
X2932249Y79008942D01*
X3206590Y78825634D01*
X3511420Y78699369D01*
X3835027Y78635000D01*
X4164973Y78635000D01*
X4488580Y78699369D01*
X4793410Y78825634D01*
X5067751Y79008942D01*
X5301058Y79242249D01*
X5484366Y79516590D01*
X5610631Y79821420D01*
X5675000Y80145027D01*
X5675000Y80474973D01*
X5610631Y80798580D01*
X5484366Y81103410D01*
X5301058Y81377751D01*
X5067751Y81611058D01*
X4793410Y81794366D01*
X4488580Y81920631D01*
X4164973Y81985000D01*
X3835027Y81985000D01*
X3511420Y81920631D01*
X3206590Y81794366D01*
X2932249Y81611058D01*
X2698942Y81377751D01*
X2515634Y81103410D01*
X2389369Y80798580D01*
X2325000Y80474973D01*
X450000Y80474973D01*
X450000Y83860000D01*
X6977895Y83860000D01*
X7000000Y83857823D01*
X7022104Y83860000D01*
X7022105Y83860000D01*
X7088215Y83866511D01*
X7173041Y83892243D01*
X7251216Y83934029D01*
X7319737Y83990263D01*
X7375971Y84058784D01*
X7417757Y84136959D01*
X7443489Y84221785D01*
X7452177Y84310000D01*
X7450000Y84332105D01*
X7450000Y92860000D01*
X21550000Y92860000D01*
X21550001Y84332115D01*
G37*
X21550001Y84332115D02*
X21547823Y84310000D01*
X21556511Y84221785D01*
X21582243Y84136959D01*
X21624029Y84058784D01*
X21680263Y83990263D01*
X21748784Y83934029D01*
X21826959Y83892243D01*
X21911785Y83866511D01*
X21977895Y83860000D01*
X21977896Y83860000D01*
X22000000Y83857823D01*
X22022105Y83860000D01*
X29550000Y83860000D01*
X29550001Y76760000D01*
X22022104Y76760000D01*
X22000000Y76762177D01*
X21977895Y76760000D01*
X21911785Y76753489D01*
X21826959Y76727757D01*
X21748784Y76685971D01*
X21680263Y76629737D01*
X21624029Y76561216D01*
X21582243Y76483041D01*
X21556511Y76398215D01*
X21547823Y76310000D01*
X21550000Y76287896D01*
X21550001Y67760000D01*
X7450000Y67760000D01*
X7450000Y75080199D01*
X9285000Y75080199D01*
X9285000Y74779801D01*
X9343605Y74485174D01*
X9458562Y74207642D01*
X9625455Y73957869D01*
X9837869Y73745455D01*
X10087642Y73578562D01*
X10365174Y73463605D01*
X10659801Y73405000D01*
X10960199Y73405000D01*
X11132941Y73439361D01*
X12175001Y72397300D01*
X12175000Y70831676D01*
X12165455Y70822131D01*
X11998562Y70572358D01*
X11883605Y70294826D01*
X11825000Y70000199D01*
X11825000Y69699801D01*
X11883605Y69405174D01*
X11998562Y69127642D01*
X12165455Y68877869D01*
X12377869Y68665455D01*
X12627642Y68498562D01*
X12905174Y68383605D01*
X13199801Y68325000D01*
X13500199Y68325000D01*
X13794826Y68383605D01*
X14072358Y68498562D01*
X14322131Y68665455D01*
X14534545Y68877869D01*
X14620000Y69005761D01*
X14705455Y68877869D01*
X14917869Y68665455D01*
X15167642Y68498562D01*
X15445174Y68383605D01*
X15739801Y68325000D01*
X16040199Y68325000D01*
X16334826Y68383605D01*
X16612358Y68498562D01*
X16862131Y68665455D01*
X17074545Y68877869D01*
X17160000Y69005761D01*
X17245455Y68877869D01*
X17457869Y68665455D01*
X17707642Y68498562D01*
X17985174Y68383605D01*
X18279801Y68325000D01*
X18580199Y68325000D01*
X18874826Y68383605D01*
X19152358Y68498562D01*
X19402131Y68665455D01*
X19614545Y68877869D01*
X19781438Y69127642D01*
X19896395Y69405174D01*
X19955000Y69699801D01*
X19955000Y70000199D01*
X19896395Y70294826D01*
X19781438Y70572358D01*
X19614545Y70822131D01*
X19605000Y70831676D01*
X19605000Y78883125D01*
X20490040Y79768164D01*
X20534870Y79804955D01*
X20681704Y79983872D01*
X20790811Y80187996D01*
X20802193Y80225517D01*
X20884545Y80307869D01*
X20996200Y80474973D01*
X24325000Y80474973D01*
X24325000Y80145027D01*
X24389369Y79821420D01*
X24515634Y79516590D01*
X24698942Y79242249D01*
X24932249Y79008942D01*
X25206590Y78825634D01*
X25511420Y78699369D01*
X25835027Y78635000D01*
X26164973Y78635000D01*
X26488580Y78699369D01*
X26793410Y78825634D01*
X27067751Y79008942D01*
X27301058Y79242249D01*
X27484366Y79516590D01*
X27610631Y79821420D01*
X27675000Y80145027D01*
X27675000Y80474973D01*
X27610631Y80798580D01*
X27484366Y81103410D01*
X27301058Y81377751D01*
X27067751Y81611058D01*
X26793410Y81794366D01*
X26488580Y81920631D01*
X26164973Y81985000D01*
X25835027Y81985000D01*
X25511420Y81920631D01*
X25206590Y81794366D01*
X24932249Y81611058D01*
X24698942Y81377751D01*
X24515634Y81103410D01*
X24389369Y80798580D01*
X24325000Y80474973D01*
X20996200Y80474973D01*
X21051438Y80557642D01*
X21166395Y80835174D01*
X21225000Y81129801D01*
X21225000Y81430199D01*
X21166395Y81724826D01*
X21051438Y82002358D01*
X20884545Y82252131D01*
X20875000Y82261676D01*
X20875000Y85032288D01*
X20880684Y85090000D01*
X20875000Y85147712D01*
X20875000Y85147720D01*
X20857998Y85320340D01*
X20790811Y85541829D01*
X20681704Y85745953D01*
X20534870Y85924870D01*
X20490039Y85961662D01*
X17415000Y89036700D01*
X17415000Y89050199D01*
X17356395Y89344826D01*
X17241438Y89622358D01*
X17074545Y89872131D01*
X16862131Y90084545D01*
X16612358Y90251438D01*
X16334826Y90366395D01*
X16040199Y90425000D01*
X15739801Y90425000D01*
X15445174Y90366395D01*
X15167642Y90251438D01*
X14917869Y90084545D01*
X14705455Y89872131D01*
X14620000Y89744239D01*
X14534545Y89872131D01*
X14322131Y90084545D01*
X14072358Y90251438D01*
X13794826Y90366395D01*
X13500199Y90425000D01*
X13199801Y90425000D01*
X12905174Y90366395D01*
X12627642Y90251438D01*
X12377869Y90084545D01*
X12165455Y89872131D01*
X11998562Y89622358D01*
X11883605Y89344826D01*
X11825000Y89050199D01*
X11825000Y88749801D01*
X11883605Y88455174D01*
X11998562Y88177642D01*
X12165455Y87927869D01*
X12175001Y87918323D01*
X12175000Y83877712D01*
X12169316Y83820000D01*
X12175000Y83762288D01*
X12175000Y83762281D01*
X12192002Y83589661D01*
X12259189Y83368172D01*
X12368296Y83164048D01*
X12515130Y82985130D01*
X12559966Y82948334D01*
X13445001Y82063299D01*
X13445000Y80990703D01*
X10019962Y77565664D01*
X9975131Y77528872D01*
X9938339Y77484041D01*
X9938336Y77484038D01*
X9834898Y77357998D01*
X9828297Y77349955D01*
X9719189Y77145831D01*
X9652002Y76924342D01*
X9635000Y76751722D01*
X9635000Y76751714D01*
X9629316Y76694002D01*
X9635000Y76636290D01*
X9635000Y75911676D01*
X9625455Y75902131D01*
X9458562Y75652358D01*
X9343605Y75374826D01*
X9285000Y75080199D01*
X7450000Y75080199D01*
X7450000Y76287896D01*
X7452177Y76310000D01*
X7443489Y76398215D01*
X7417757Y76483041D01*
X7375971Y76561216D01*
X7319737Y76629737D01*
X7251216Y76685971D01*
X7173041Y76727757D01*
X7088215Y76753489D01*
X7022105Y76760000D01*
X7000000Y76762177D01*
X6977896Y76760000D01*
X450000Y76760000D01*
X450000Y80474973D01*
X2325000Y80474973D01*
X2325000Y80145027D01*
X2389369Y79821420D01*
X2515634Y79516590D01*
X2698942Y79242249D01*
X2932249Y79008942D01*
X3206590Y78825634D01*
X3511420Y78699369D01*
X3835027Y78635000D01*
X4164973Y78635000D01*
X4488580Y78699369D01*
X4793410Y78825634D01*
X5067751Y79008942D01*
X5301058Y79242249D01*
X5484366Y79516590D01*
X5610631Y79821420D01*
X5675000Y80145027D01*
X5675000Y80474973D01*
X5610631Y80798580D01*
X5484366Y81103410D01*
X5301058Y81377751D01*
X5067751Y81611058D01*
X4793410Y81794366D01*
X4488580Y81920631D01*
X4164973Y81985000D01*
X3835027Y81985000D01*
X3511420Y81920631D01*
X3206590Y81794366D01*
X2932249Y81611058D01*
X2698942Y81377751D01*
X2515634Y81103410D01*
X2389369Y80798580D01*
X2325000Y80474973D01*
X450000Y80474973D01*
X450000Y83860000D01*
X6977895Y83860000D01*
X7000000Y83857823D01*
X7022104Y83860000D01*
X7022105Y83860000D01*
X7088215Y83866511D01*
X7173041Y83892243D01*
X7251216Y83934029D01*
X7319737Y83990263D01*
X7375971Y84058784D01*
X7417757Y84136959D01*
X7443489Y84221785D01*
X7452177Y84310000D01*
X7450000Y84332105D01*
X7450000Y92860000D01*
X21550000Y92860000D01*
X21550001Y84332115D01*
G36*
X46875000Y73000000D02*
G01*
X46877402Y72975614D01*
X46884515Y72952165D01*
X46896066Y72930554D01*
X46911612Y72911612D01*
X46930554Y72896066D01*
X46950001Y72885672D01*
X46950001Y72792115D01*
X46947823Y72770000D01*
X46956511Y72681785D01*
X46982243Y72596959D01*
X47024029Y72518784D01*
X47080263Y72450263D01*
X47148784Y72394029D01*
X47226959Y72352243D01*
X47311785Y72326511D01*
X47377895Y72320000D01*
X47377896Y72320000D01*
X47400000Y72317823D01*
X47422105Y72320000D01*
X54875000Y72320000D01*
X54875000Y65220000D01*
X47422104Y65220000D01*
X47400000Y65222177D01*
X47377895Y65220000D01*
X47311785Y65213489D01*
X47226959Y65187757D01*
X47148784Y65145971D01*
X47123231Y65125000D01*
X47000000Y65125000D01*
X46975614Y65122598D01*
X46952165Y65115485D01*
X46930554Y65103934D01*
X46911612Y65088388D01*
X46896066Y65069446D01*
X46884515Y65047835D01*
X46877402Y65024386D01*
X46875000Y65000000D01*
X46875000Y56220000D01*
X32850000Y56220000D01*
X32850000Y63770199D01*
X34285000Y63770199D01*
X34285000Y63469801D01*
X34343605Y63175174D01*
X34458562Y62897642D01*
X34625455Y62647869D01*
X34837869Y62435455D01*
X35087642Y62268562D01*
X35365174Y62153605D01*
X35659801Y62095000D01*
X35960199Y62095000D01*
X36132941Y62129361D01*
X37175001Y61087300D01*
X37175000Y59521676D01*
X37165455Y59512131D01*
X36998562Y59262358D01*
X36883605Y58984826D01*
X36825000Y58690199D01*
X36825000Y58389801D01*
X36883605Y58095174D01*
X36998562Y57817642D01*
X37165455Y57567869D01*
X37377869Y57355455D01*
X37627642Y57188562D01*
X37905174Y57073605D01*
X38199801Y57015000D01*
X38500199Y57015000D01*
X38794826Y57073605D01*
X39072358Y57188562D01*
X39322131Y57355455D01*
X39534545Y57567869D01*
X39620000Y57695761D01*
X39705455Y57567869D01*
X39917869Y57355455D01*
X40167642Y57188562D01*
X40445174Y57073605D01*
X40739801Y57015000D01*
X41040199Y57015000D01*
X41334826Y57073605D01*
X41612358Y57188562D01*
X41862131Y57355455D01*
X42074545Y57567869D01*
X42160000Y57695761D01*
X42245455Y57567869D01*
X42457869Y57355455D01*
X42707642Y57188562D01*
X42985174Y57073605D01*
X43279801Y57015000D01*
X43580199Y57015000D01*
X43874826Y57073605D01*
X44152358Y57188562D01*
X44402131Y57355455D01*
X44614545Y57567869D01*
X44781438Y57817642D01*
X44896395Y58095174D01*
X44955000Y58389801D01*
X44955000Y58690199D01*
X44896395Y58984826D01*
X44781438Y59262358D01*
X44614545Y59512131D01*
X44605000Y59521676D01*
X44605000Y67573125D01*
X45490040Y68458164D01*
X45534870Y68494955D01*
X45681704Y68673872D01*
X45790811Y68877996D01*
X45802193Y68915517D01*
X45884545Y68997869D01*
X45996200Y69164973D01*
X49325000Y69164973D01*
X49325000Y68835027D01*
X49389369Y68511420D01*
X49515634Y68206590D01*
X49698942Y67932249D01*
X49932249Y67698942D01*
X50206590Y67515634D01*
X50511420Y67389369D01*
X50835027Y67325000D01*
X51164973Y67325000D01*
X51488580Y67389369D01*
X51793410Y67515634D01*
X52067751Y67698942D01*
X52301058Y67932249D01*
X52484366Y68206590D01*
X52610631Y68511420D01*
X52675000Y68835027D01*
X52675000Y69164973D01*
X52610631Y69488580D01*
X52484366Y69793410D01*
X52301058Y70067751D01*
X52067751Y70301058D01*
X51793410Y70484366D01*
X51488580Y70610631D01*
X51164973Y70675000D01*
X50835027Y70675000D01*
X50511420Y70610631D01*
X50206590Y70484366D01*
X49932249Y70301058D01*
X49698942Y70067751D01*
X49515634Y69793410D01*
X49389369Y69488580D01*
X49325000Y69164973D01*
X45996200Y69164973D01*
X46051438Y69247642D01*
X46166395Y69525174D01*
X46225000Y69819801D01*
X46225000Y70120199D01*
X46166395Y70414826D01*
X46051438Y70692358D01*
X45884545Y70942131D01*
X45875000Y70951676D01*
X45875000Y73722288D01*
X45880684Y73780000D01*
X45875000Y73837712D01*
X45875000Y73837720D01*
X45857998Y74010340D01*
X45790811Y74231829D01*
X45681704Y74435953D01*
X45534870Y74614870D01*
X45490039Y74651662D01*
X42415000Y77726700D01*
X42415000Y77740199D01*
X42356395Y78034826D01*
X42241438Y78312358D01*
X42074545Y78562131D01*
X41862131Y78774545D01*
X41612358Y78941438D01*
X41334826Y79056395D01*
X41040199Y79115000D01*
X40739801Y79115000D01*
X40445174Y79056395D01*
X40167642Y78941438D01*
X39917869Y78774545D01*
X39705455Y78562131D01*
X39620000Y78434239D01*
X39534545Y78562131D01*
X39322131Y78774545D01*
X39072358Y78941438D01*
X38794826Y79056395D01*
X38500199Y79115000D01*
X38199801Y79115000D01*
X37905174Y79056395D01*
X37627642Y78941438D01*
X37377869Y78774545D01*
X37165455Y78562131D01*
X36998562Y78312358D01*
X36883605Y78034826D01*
X36825000Y77740199D01*
X36825000Y77439801D01*
X36883605Y77145174D01*
X36998562Y76867642D01*
X37165455Y76617869D01*
X37175001Y76608323D01*
X37175000Y72567712D01*
X37169316Y72510000D01*
X37175000Y72452288D01*
X37175000Y72452281D01*
X37192002Y72279661D01*
X37259189Y72058172D01*
X37368296Y71854048D01*
X37515130Y71675130D01*
X37559966Y71638334D01*
X38445001Y70753299D01*
X38445000Y69680703D01*
X35019962Y66255664D01*
X34975131Y66218872D01*
X34938339Y66174041D01*
X34938336Y66174038D01*
X34834898Y66047998D01*
X34828297Y66039955D01*
X34719189Y65835831D01*
X34652002Y65614342D01*
X34635000Y65441722D01*
X34635000Y65441714D01*
X34629316Y65384002D01*
X34635000Y65326290D01*
X34635000Y64601676D01*
X34625455Y64592131D01*
X34458562Y64342358D01*
X34343605Y64064826D01*
X34285000Y63770199D01*
X32850000Y63770199D01*
X32850000Y64747896D01*
X32852177Y64770000D01*
X32843489Y64858215D01*
X32817757Y64943041D01*
X32775971Y65021216D01*
X32719737Y65089737D01*
X32651216Y65145971D01*
X32573041Y65187757D01*
X32488215Y65213489D01*
X32422105Y65220000D01*
X32400000Y65222177D01*
X32377896Y65220000D01*
X25850000Y65220000D01*
X25850000Y69164973D01*
X27325000Y69164973D01*
X27325000Y68835027D01*
X27389369Y68511420D01*
X27515634Y68206590D01*
X27698942Y67932249D01*
X27932249Y67698942D01*
X28206590Y67515634D01*
X28511420Y67389369D01*
X28835027Y67325000D01*
X29164973Y67325000D01*
X29488580Y67389369D01*
X29793410Y67515634D01*
X30067751Y67698942D01*
X30301058Y67932249D01*
X30484366Y68206590D01*
X30610631Y68511420D01*
X30675000Y68835027D01*
X30675000Y69164973D01*
X30610631Y69488580D01*
X30484366Y69793410D01*
X30301058Y70067751D01*
X30067751Y70301058D01*
X29793410Y70484366D01*
X29488580Y70610631D01*
X29164973Y70675000D01*
X28835027Y70675000D01*
X28511420Y70610631D01*
X28206590Y70484366D01*
X27932249Y70301058D01*
X27698942Y70067751D01*
X27515634Y69793410D01*
X27389369Y69488580D01*
X27325000Y69164973D01*
X25850000Y69164973D01*
X25850000Y72320000D01*
X32377895Y72320000D01*
X32400000Y72317823D01*
X32422104Y72320000D01*
X32422105Y72320000D01*
X32488215Y72326511D01*
X32573041Y72352243D01*
X32651216Y72394029D01*
X32719737Y72450263D01*
X32775971Y72518784D01*
X32817757Y72596959D01*
X32843489Y72681785D01*
X32852177Y72770000D01*
X32850000Y72792105D01*
X32850000Y81320000D01*
X46875000Y81320000D01*
X46875000Y73000000D01*
G37*
X46875000Y73000000D02*
X46877402Y72975614D01*
X46884515Y72952165D01*
X46896066Y72930554D01*
X46911612Y72911612D01*
X46930554Y72896066D01*
X46950001Y72885672D01*
X46950001Y72792115D01*
X46947823Y72770000D01*
X46956511Y72681785D01*
X46982243Y72596959D01*
X47024029Y72518784D01*
X47080263Y72450263D01*
X47148784Y72394029D01*
X47226959Y72352243D01*
X47311785Y72326511D01*
X47377895Y72320000D01*
X47377896Y72320000D01*
X47400000Y72317823D01*
X47422105Y72320000D01*
X54875000Y72320000D01*
X54875000Y65220000D01*
X47422104Y65220000D01*
X47400000Y65222177D01*
X47377895Y65220000D01*
X47311785Y65213489D01*
X47226959Y65187757D01*
X47148784Y65145971D01*
X47123231Y65125000D01*
X47000000Y65125000D01*
X46975614Y65122598D01*
X46952165Y65115485D01*
X46930554Y65103934D01*
X46911612Y65088388D01*
X46896066Y65069446D01*
X46884515Y65047835D01*
X46877402Y65024386D01*
X46875000Y65000000D01*
X46875000Y56220000D01*
X32850000Y56220000D01*
X32850000Y63770199D01*
X34285000Y63770199D01*
X34285000Y63469801D01*
X34343605Y63175174D01*
X34458562Y62897642D01*
X34625455Y62647869D01*
X34837869Y62435455D01*
X35087642Y62268562D01*
X35365174Y62153605D01*
X35659801Y62095000D01*
X35960199Y62095000D01*
X36132941Y62129361D01*
X37175001Y61087300D01*
X37175000Y59521676D01*
X37165455Y59512131D01*
X36998562Y59262358D01*
X36883605Y58984826D01*
X36825000Y58690199D01*
X36825000Y58389801D01*
X36883605Y58095174D01*
X36998562Y57817642D01*
X37165455Y57567869D01*
X37377869Y57355455D01*
X37627642Y57188562D01*
X37905174Y57073605D01*
X38199801Y57015000D01*
X38500199Y57015000D01*
X38794826Y57073605D01*
X39072358Y57188562D01*
X39322131Y57355455D01*
X39534545Y57567869D01*
X39620000Y57695761D01*
X39705455Y57567869D01*
X39917869Y57355455D01*
X40167642Y57188562D01*
X40445174Y57073605D01*
X40739801Y57015000D01*
X41040199Y57015000D01*
X41334826Y57073605D01*
X41612358Y57188562D01*
X41862131Y57355455D01*
X42074545Y57567869D01*
X42160000Y57695761D01*
X42245455Y57567869D01*
X42457869Y57355455D01*
X42707642Y57188562D01*
X42985174Y57073605D01*
X43279801Y57015000D01*
X43580199Y57015000D01*
X43874826Y57073605D01*
X44152358Y57188562D01*
X44402131Y57355455D01*
X44614545Y57567869D01*
X44781438Y57817642D01*
X44896395Y58095174D01*
X44955000Y58389801D01*
X44955000Y58690199D01*
X44896395Y58984826D01*
X44781438Y59262358D01*
X44614545Y59512131D01*
X44605000Y59521676D01*
X44605000Y67573125D01*
X45490040Y68458164D01*
X45534870Y68494955D01*
X45681704Y68673872D01*
X45790811Y68877996D01*
X45802193Y68915517D01*
X45884545Y68997869D01*
X45996200Y69164973D01*
X49325000Y69164973D01*
X49325000Y68835027D01*
X49389369Y68511420D01*
X49515634Y68206590D01*
X49698942Y67932249D01*
X49932249Y67698942D01*
X50206590Y67515634D01*
X50511420Y67389369D01*
X50835027Y67325000D01*
X51164973Y67325000D01*
X51488580Y67389369D01*
X51793410Y67515634D01*
X52067751Y67698942D01*
X52301058Y67932249D01*
X52484366Y68206590D01*
X52610631Y68511420D01*
X52675000Y68835027D01*
X52675000Y69164973D01*
X52610631Y69488580D01*
X52484366Y69793410D01*
X52301058Y70067751D01*
X52067751Y70301058D01*
X51793410Y70484366D01*
X51488580Y70610631D01*
X51164973Y70675000D01*
X50835027Y70675000D01*
X50511420Y70610631D01*
X50206590Y70484366D01*
X49932249Y70301058D01*
X49698942Y70067751D01*
X49515634Y69793410D01*
X49389369Y69488580D01*
X49325000Y69164973D01*
X45996200Y69164973D01*
X46051438Y69247642D01*
X46166395Y69525174D01*
X46225000Y69819801D01*
X46225000Y70120199D01*
X46166395Y70414826D01*
X46051438Y70692358D01*
X45884545Y70942131D01*
X45875000Y70951676D01*
X45875000Y73722288D01*
X45880684Y73780000D01*
X45875000Y73837712D01*
X45875000Y73837720D01*
X45857998Y74010340D01*
X45790811Y74231829D01*
X45681704Y74435953D01*
X45534870Y74614870D01*
X45490039Y74651662D01*
X42415000Y77726700D01*
X42415000Y77740199D01*
X42356395Y78034826D01*
X42241438Y78312358D01*
X42074545Y78562131D01*
X41862131Y78774545D01*
X41612358Y78941438D01*
X41334826Y79056395D01*
X41040199Y79115000D01*
X40739801Y79115000D01*
X40445174Y79056395D01*
X40167642Y78941438D01*
X39917869Y78774545D01*
X39705455Y78562131D01*
X39620000Y78434239D01*
X39534545Y78562131D01*
X39322131Y78774545D01*
X39072358Y78941438D01*
X38794826Y79056395D01*
X38500199Y79115000D01*
X38199801Y79115000D01*
X37905174Y79056395D01*
X37627642Y78941438D01*
X37377869Y78774545D01*
X37165455Y78562131D01*
X36998562Y78312358D01*
X36883605Y78034826D01*
X36825000Y77740199D01*
X36825000Y77439801D01*
X36883605Y77145174D01*
X36998562Y76867642D01*
X37165455Y76617869D01*
X37175001Y76608323D01*
X37175000Y72567712D01*
X37169316Y72510000D01*
X37175000Y72452288D01*
X37175000Y72452281D01*
X37192002Y72279661D01*
X37259189Y72058172D01*
X37368296Y71854048D01*
X37515130Y71675130D01*
X37559966Y71638334D01*
X38445001Y70753299D01*
X38445000Y69680703D01*
X35019962Y66255664D01*
X34975131Y66218872D01*
X34938339Y66174041D01*
X34938336Y66174038D01*
X34834898Y66047998D01*
X34828297Y66039955D01*
X34719189Y65835831D01*
X34652002Y65614342D01*
X34635000Y65441722D01*
X34635000Y65441714D01*
X34629316Y65384002D01*
X34635000Y65326290D01*
X34635000Y64601676D01*
X34625455Y64592131D01*
X34458562Y64342358D01*
X34343605Y64064826D01*
X34285000Y63770199D01*
X32850000Y63770199D01*
X32850000Y64747896D01*
X32852177Y64770000D01*
X32843489Y64858215D01*
X32817757Y64943041D01*
X32775971Y65021216D01*
X32719737Y65089737D01*
X32651216Y65145971D01*
X32573041Y65187757D01*
X32488215Y65213489D01*
X32422105Y65220000D01*
X32400000Y65222177D01*
X32377896Y65220000D01*
X25850000Y65220000D01*
X25850000Y69164973D01*
X27325000Y69164973D01*
X27325000Y68835027D01*
X27389369Y68511420D01*
X27515634Y68206590D01*
X27698942Y67932249D01*
X27932249Y67698942D01*
X28206590Y67515634D01*
X28511420Y67389369D01*
X28835027Y67325000D01*
X29164973Y67325000D01*
X29488580Y67389369D01*
X29793410Y67515634D01*
X30067751Y67698942D01*
X30301058Y67932249D01*
X30484366Y68206590D01*
X30610631Y68511420D01*
X30675000Y68835027D01*
X30675000Y69164973D01*
X30610631Y69488580D01*
X30484366Y69793410D01*
X30301058Y70067751D01*
X30067751Y70301058D01*
X29793410Y70484366D01*
X29488580Y70610631D01*
X29164973Y70675000D01*
X28835027Y70675000D01*
X28511420Y70610631D01*
X28206590Y70484366D01*
X27932249Y70301058D01*
X27698942Y70067751D01*
X27515634Y69793410D01*
X27389369Y69488580D01*
X27325000Y69164973D01*
X25850000Y69164973D01*
X25850000Y72320000D01*
X32377895Y72320000D01*
X32400000Y72317823D01*
X32422104Y72320000D01*
X32422105Y72320000D01*
X32488215Y72326511D01*
X32573041Y72352243D01*
X32651216Y72394029D01*
X32719737Y72450263D01*
X32775971Y72518784D01*
X32817757Y72596959D01*
X32843489Y72681785D01*
X32852177Y72770000D01*
X32850000Y72792105D01*
X32850000Y81320000D01*
X46875000Y81320000D01*
X46875000Y73000000D01*
D17*
G36*
X27488000Y52092205D02*
G01*
X27485813Y52070000D01*
X27494540Y51981393D01*
X27520386Y51896190D01*
X27562357Y51817667D01*
X27618841Y51748841D01*
X27687667Y51692357D01*
X27766190Y51650386D01*
X27851393Y51624540D01*
X27940000Y51615813D01*
X27962205Y51618000D01*
X42728001Y51618000D01*
X42728000Y452000D01*
X452000Y452000D01*
X452000Y5245170D01*
X3163000Y5245170D01*
X3163000Y4914830D01*
X3227446Y4590837D01*
X3353862Y4285643D01*
X3537389Y4010975D01*
X3770975Y3777389D01*
X4045643Y3593862D01*
X4350837Y3467446D01*
X4674830Y3403000D01*
X5005170Y3403000D01*
X5329163Y3467446D01*
X5634357Y3593862D01*
X5909025Y3777389D01*
X6142611Y4010975D01*
X6326138Y4285643D01*
X6452554Y4590837D01*
X6517000Y4914830D01*
X6517000Y5245170D01*
X6452554Y5569163D01*
X6326138Y5874357D01*
X6142611Y6149025D01*
X5909025Y6382611D01*
X5634357Y6566138D01*
X5329163Y6692554D01*
X5005170Y6757000D01*
X4674830Y6757000D01*
X4350837Y6692554D01*
X4045643Y6566138D01*
X3770975Y6382611D01*
X3537389Y6149025D01*
X3353862Y5874357D01*
X3227446Y5569163D01*
X3163000Y5245170D01*
X452000Y5245170D01*
X452000Y28090396D01*
X3934000Y28090396D01*
X3934000Y27789604D01*
X3992681Y27494590D01*
X4019001Y27431049D01*
X4019001Y25908951D01*
X3992681Y25845410D01*
X3934000Y25550396D01*
X3934000Y25249604D01*
X3992681Y24954590D01*
X4019001Y24891049D01*
X4019001Y23368951D01*
X3992681Y23305410D01*
X3934000Y23010396D01*
X3934000Y22709604D01*
X3992681Y22414590D01*
X4019000Y22351050D01*
X4019000Y20828950D01*
X3992681Y20765410D01*
X3934000Y20470396D01*
X3934000Y20169604D01*
X3992681Y19874590D01*
X4019000Y19811050D01*
X4019000Y18288950D01*
X3992681Y18225410D01*
X3934000Y17930396D01*
X3934000Y17629604D01*
X3992681Y17334590D01*
X4019000Y17271050D01*
X4019000Y15748950D01*
X3992681Y15685410D01*
X3934000Y15390396D01*
X3934000Y15089604D01*
X3992681Y14794590D01*
X4019000Y14731050D01*
X4019000Y13208949D01*
X3992681Y13145410D01*
X3934000Y12850396D01*
X3934000Y12549604D01*
X3992681Y12254590D01*
X4107790Y11976694D01*
X4274901Y11726594D01*
X4487594Y11513901D01*
X4737694Y11346790D01*
X5015590Y11231681D01*
X5310604Y11173000D01*
X5611396Y11173000D01*
X5906410Y11231681D01*
X6184306Y11346790D01*
X6434406Y11513901D01*
X6647099Y11726594D01*
X6731000Y11852161D01*
X6814901Y11726594D01*
X7027594Y11513901D01*
X7277694Y11346790D01*
X7555590Y11231681D01*
X7850604Y11173000D01*
X8151396Y11173000D01*
X8201670Y11183000D01*
X13644206Y11183000D01*
X13572739Y11111533D01*
X13411099Y10869622D01*
X13299760Y10600825D01*
X13243000Y10315472D01*
X13243000Y10024528D01*
X13299760Y9739175D01*
X13411099Y9470378D01*
X13572739Y9228467D01*
X13778467Y9022739D01*
X13962159Y8900000D01*
X13778467Y8777261D01*
X13572739Y8571533D01*
X13411099Y8329622D01*
X13299760Y8060825D01*
X13243000Y7775472D01*
X13243000Y7484528D01*
X13299760Y7199175D01*
X13411099Y6930378D01*
X13572739Y6688467D01*
X13778467Y6482739D01*
X14020378Y6321099D01*
X14289175Y6209760D01*
X14574528Y6153000D01*
X14865472Y6153000D01*
X15150825Y6209760D01*
X15419622Y6321099D01*
X15661533Y6482739D01*
X15867261Y6688467D01*
X15894134Y6728685D01*
X16034291Y6843709D01*
X16071151Y6888623D01*
X21031342Y11848814D01*
X21076251Y11885669D01*
X21223334Y12064890D01*
X21332627Y12269363D01*
X21399929Y12491228D01*
X21416960Y12664148D01*
X21416960Y12664157D01*
X21422653Y12721959D01*
X21416960Y12779761D01*
X21416960Y17840000D01*
X28395612Y17840000D01*
X28425095Y17540656D01*
X28512410Y17252815D01*
X28654203Y16987540D01*
X28845024Y16755024D01*
X29070476Y16570000D01*
X28845024Y16384976D01*
X28654203Y16152460D01*
X28512410Y15887185D01*
X28425095Y15599344D01*
X28395612Y15300000D01*
X28425095Y15000656D01*
X28512410Y14712815D01*
X28654203Y14447540D01*
X28845024Y14215024D01*
X29070476Y14030000D01*
X28845024Y13844976D01*
X28654203Y13612460D01*
X28512410Y13347185D01*
X28425095Y13059344D01*
X28395612Y12760000D01*
X28425095Y12460656D01*
X28512410Y12172815D01*
X28654203Y11907540D01*
X28845024Y11675024D01*
X29077540Y11484203D01*
X29183528Y11427551D01*
X29018467Y11317261D01*
X28812739Y11111533D01*
X28651099Y10869622D01*
X28539760Y10600825D01*
X28483000Y10315472D01*
X28483000Y10024528D01*
X28539760Y9739175D01*
X28651099Y9470378D01*
X28812739Y9228467D01*
X29018467Y9022739D01*
X29202159Y8900000D01*
X29018467Y8777261D01*
X28812739Y8571533D01*
X28651099Y8329622D01*
X28539760Y8060825D01*
X28483000Y7775472D01*
X28483000Y7484528D01*
X28539760Y7199175D01*
X28651099Y6930378D01*
X28812739Y6688467D01*
X29018467Y6482739D01*
X29202159Y6360000D01*
X29018467Y6237261D01*
X28812739Y6031533D01*
X28651099Y5789622D01*
X28539760Y5520825D01*
X28483000Y5235472D01*
X28483000Y4944528D01*
X28539760Y4659175D01*
X28651099Y4390378D01*
X28812739Y4148467D01*
X29018467Y3942739D01*
X29202159Y3820000D01*
X29018467Y3697261D01*
X28812739Y3491533D01*
X28651099Y3249622D01*
X28539760Y2980825D01*
X28483000Y2695472D01*
X28483000Y2404528D01*
X28539760Y2119175D01*
X28651099Y1850378D01*
X28812739Y1608467D01*
X29018467Y1402739D01*
X29260378Y1241099D01*
X29529175Y1129760D01*
X29814528Y1073000D01*
X30105472Y1073000D01*
X30390825Y1129760D01*
X30659622Y1241099D01*
X30901533Y1402739D01*
X31107261Y1608467D01*
X31268901Y1850378D01*
X31380240Y2119175D01*
X31437000Y2404528D01*
X31437000Y2695472D01*
X31380240Y2980825D01*
X31268901Y3249622D01*
X31107261Y3491533D01*
X30901533Y3697261D01*
X30717841Y3820000D01*
X30901533Y3942739D01*
X31107261Y4148467D01*
X31268901Y4390378D01*
X31380240Y4659175D01*
X31437000Y4944528D01*
X31437000Y5235472D01*
X31405235Y5395170D01*
X36163000Y5395170D01*
X36163000Y5064830D01*
X36227446Y4740837D01*
X36353862Y4435643D01*
X36537389Y4160975D01*
X36770975Y3927389D01*
X37045643Y3743862D01*
X37350837Y3617446D01*
X37674830Y3553000D01*
X38005170Y3553000D01*
X38329163Y3617446D01*
X38634357Y3743862D01*
X38909025Y3927389D01*
X39142611Y4160975D01*
X39326138Y4435643D01*
X39452554Y4740837D01*
X39517000Y5064830D01*
X39517000Y5395170D01*
X39452554Y5719163D01*
X39326138Y6024357D01*
X39142611Y6299025D01*
X38909025Y6532611D01*
X38634357Y6716138D01*
X38329163Y6842554D01*
X38005170Y6907000D01*
X37674830Y6907000D01*
X37350837Y6842554D01*
X37045643Y6716138D01*
X36770975Y6532611D01*
X36537389Y6299025D01*
X36353862Y6024357D01*
X36227446Y5719163D01*
X36163000Y5395170D01*
X31405235Y5395170D01*
X31380240Y5520825D01*
X31268901Y5789622D01*
X31107261Y6031533D01*
X30901533Y6237261D01*
X30717841Y6360000D01*
X30901533Y6482739D01*
X31107261Y6688467D01*
X31268901Y6930378D01*
X31380240Y7199175D01*
X31437000Y7484528D01*
X31437000Y7775472D01*
X31380240Y8060825D01*
X31268901Y8329622D01*
X31107261Y8571533D01*
X30901533Y8777261D01*
X30717841Y8900000D01*
X30901533Y9022739D01*
X31107261Y9228467D01*
X31268901Y9470378D01*
X31380240Y9739175D01*
X31437000Y10024528D01*
X31437000Y10315472D01*
X31380240Y10600825D01*
X31268901Y10869622D01*
X31107261Y11111533D01*
X30985794Y11233000D01*
X33120396Y11233000D01*
X33194336Y11247707D01*
X33269344Y11255095D01*
X33341466Y11276973D01*
X33415410Y11291681D01*
X33485061Y11320532D01*
X33557185Y11342410D01*
X33623658Y11377941D01*
X33693306Y11406790D01*
X33755989Y11448674D01*
X33822460Y11484203D01*
X33880719Y11532015D01*
X33943406Y11573901D01*
X33996717Y11627212D01*
X34054976Y11675024D01*
X34102788Y11733283D01*
X34156099Y11786594D01*
X34197985Y11849281D01*
X34245797Y11907540D01*
X34281326Y11974011D01*
X34323210Y12036694D01*
X34352059Y12106342D01*
X34387590Y12172815D01*
X34409468Y12244939D01*
X34438319Y12314590D01*
X34453027Y12388534D01*
X34474905Y12460656D01*
X34482293Y12535664D01*
X34497000Y12609604D01*
X34497000Y12684989D01*
X34504388Y12760000D01*
X34497000Y12835011D01*
X34497000Y12910396D01*
X34482293Y12984336D01*
X34474905Y13059344D01*
X34453027Y13131466D01*
X34438319Y13205410D01*
X34409468Y13275061D01*
X34387590Y13347185D01*
X34352059Y13413658D01*
X34323210Y13483306D01*
X34281326Y13545989D01*
X34245797Y13612460D01*
X34197985Y13670719D01*
X34156099Y13733406D01*
X34116505Y13773000D01*
X40240396Y13773000D01*
X40314336Y13787707D01*
X40389344Y13795095D01*
X40461466Y13816973D01*
X40535410Y13831681D01*
X40605061Y13860532D01*
X40677185Y13882410D01*
X40743658Y13917941D01*
X40813306Y13946790D01*
X40875989Y13988674D01*
X40942460Y14024203D01*
X41000719Y14072015D01*
X41063406Y14113901D01*
X41116717Y14167212D01*
X41174976Y14215024D01*
X41222788Y14273283D01*
X41276099Y14326594D01*
X41317985Y14389281D01*
X41365797Y14447540D01*
X41401326Y14514011D01*
X41443210Y14576694D01*
X41472059Y14646342D01*
X41507590Y14712815D01*
X41529468Y14784939D01*
X41558319Y14854590D01*
X41573027Y14928534D01*
X41594905Y15000656D01*
X41602293Y15075664D01*
X41617000Y15149604D01*
X41617000Y15224989D01*
X41624388Y15300000D01*
X41617000Y15375011D01*
X41617000Y15450396D01*
X41602293Y15524336D01*
X41594905Y15599344D01*
X41573027Y15671466D01*
X41558319Y15745410D01*
X41529468Y15815061D01*
X41507590Y15887185D01*
X41472059Y15953658D01*
X41443210Y16023306D01*
X41401326Y16085989D01*
X41365797Y16152460D01*
X41317985Y16210719D01*
X41276099Y16273406D01*
X41222788Y16326717D01*
X41174976Y16384976D01*
X41116717Y16432788D01*
X41063406Y16486099D01*
X41000719Y16527985D01*
X40949524Y16570000D01*
X41000719Y16612015D01*
X41063406Y16653901D01*
X41116717Y16707212D01*
X41174976Y16755024D01*
X41222788Y16813283D01*
X41276099Y16866594D01*
X41317985Y16929281D01*
X41365797Y16987540D01*
X41401326Y17054011D01*
X41443210Y17116694D01*
X41472059Y17186342D01*
X41507590Y17252815D01*
X41529468Y17324939D01*
X41558319Y17394590D01*
X41573027Y17468534D01*
X41594905Y17540656D01*
X41602293Y17615664D01*
X41617000Y17689604D01*
X41617000Y17764989D01*
X41624388Y17840000D01*
X41617000Y17915011D01*
X41617000Y17990396D01*
X41602293Y18064336D01*
X41594905Y18139344D01*
X41573027Y18211466D01*
X41558319Y18285410D01*
X41529468Y18355061D01*
X41507590Y18427185D01*
X41472059Y18493658D01*
X41443210Y18563306D01*
X41401326Y18625989D01*
X41365797Y18692460D01*
X41317985Y18750719D01*
X41276099Y18813406D01*
X41222788Y18866717D01*
X41174976Y18924976D01*
X41116717Y18972788D01*
X41063406Y19026099D01*
X41000719Y19067985D01*
X40949524Y19110000D01*
X41000719Y19152015D01*
X41063406Y19193901D01*
X41116717Y19247212D01*
X41174976Y19295024D01*
X41222788Y19353283D01*
X41276099Y19406594D01*
X41317985Y19469281D01*
X41365797Y19527540D01*
X41401326Y19594011D01*
X41443210Y19656694D01*
X41472059Y19726342D01*
X41507590Y19792815D01*
X41529468Y19864939D01*
X41558319Y19934590D01*
X41573027Y20008534D01*
X41594905Y20080656D01*
X41602293Y20155664D01*
X41617000Y20229604D01*
X41617000Y20304990D01*
X41624388Y20380000D01*
X41617000Y20455011D01*
X41617000Y20530396D01*
X41602293Y20604336D01*
X41594905Y20679344D01*
X41573027Y20751466D01*
X41558319Y20825410D01*
X41529468Y20895061D01*
X41507590Y20967185D01*
X41472059Y21033658D01*
X41443210Y21103306D01*
X41401326Y21165989D01*
X41365797Y21232460D01*
X41317985Y21290719D01*
X41276099Y21353406D01*
X41222788Y21406717D01*
X41174976Y21464976D01*
X41116717Y21512788D01*
X41063406Y21566099D01*
X41000719Y21607985D01*
X40942460Y21655797D01*
X40875989Y21691326D01*
X40813306Y21733210D01*
X40743658Y21762059D01*
X40677185Y21797590D01*
X40605061Y21819468D01*
X40535410Y21848319D01*
X40461466Y21863027D01*
X40389344Y21884905D01*
X40314336Y21892293D01*
X40240396Y21907000D01*
X37807000Y21907000D01*
X37807000Y23070396D01*
X37792293Y23144336D01*
X37784905Y23219344D01*
X37763027Y23291466D01*
X37748319Y23365410D01*
X37719468Y23435061D01*
X37697590Y23507185D01*
X37662059Y23573658D01*
X37633210Y23643306D01*
X37591326Y23705989D01*
X37555797Y23772460D01*
X37507985Y23830719D01*
X37466099Y23893406D01*
X37412788Y23946717D01*
X37364976Y24004976D01*
X37306717Y24052788D01*
X37253406Y24106099D01*
X37190719Y24147985D01*
X37132460Y24195797D01*
X37065989Y24231326D01*
X37003306Y24273210D01*
X36933658Y24302059D01*
X36867185Y24337590D01*
X36795061Y24359468D01*
X36725410Y24388319D01*
X36651466Y24403027D01*
X36579344Y24424905D01*
X36504336Y24432293D01*
X36430396Y24447000D01*
X36355011Y24447000D01*
X36280000Y24454388D01*
X36204989Y24447000D01*
X36129604Y24447000D01*
X36055664Y24432293D01*
X35980657Y24424905D01*
X35908537Y24403028D01*
X35834590Y24388319D01*
X35764936Y24359467D01*
X35692816Y24337590D01*
X35626347Y24302061D01*
X35556694Y24273210D01*
X35494007Y24231324D01*
X35427541Y24195797D01*
X35369286Y24147988D01*
X35306594Y24106099D01*
X35253278Y24052783D01*
X35195025Y24004976D01*
X35147218Y23946723D01*
X35093901Y23893406D01*
X35052011Y23830713D01*
X35004204Y23772460D01*
X34968679Y23705997D01*
X34926790Y23643306D01*
X34897937Y23573650D01*
X34862411Y23507185D01*
X34840535Y23435070D01*
X34811681Y23365410D01*
X34796971Y23291457D01*
X34775096Y23219344D01*
X34767709Y23144346D01*
X34753000Y23070396D01*
X34753000Y22769604D01*
X34753001Y22769599D01*
X34753000Y20455012D01*
X34745612Y20380000D01*
X34775095Y20080656D01*
X34862410Y19792815D01*
X35004203Y19527540D01*
X35135955Y19367000D01*
X29854989Y19367000D01*
X29630656Y19344905D01*
X29342815Y19257590D01*
X29077540Y19115797D01*
X28845024Y18924976D01*
X28654203Y18692460D01*
X28512410Y18427185D01*
X28425095Y18139344D01*
X28395612Y17840000D01*
X21416960Y17840000D01*
X21416960Y35388613D01*
X27342284Y29463288D01*
X27390100Y29405024D01*
X27622616Y29214203D01*
X27790973Y29124214D01*
X27887891Y29072410D01*
X28175731Y28985095D01*
X28202881Y28982421D01*
X28400065Y28963000D01*
X28400072Y28963000D01*
X28475076Y28955613D01*
X28550080Y28963000D01*
X28884206Y28963000D01*
X28812739Y28891533D01*
X28651099Y28649622D01*
X28539760Y28380825D01*
X28483000Y28095472D01*
X28483000Y27804528D01*
X28539760Y27519175D01*
X28651099Y27250378D01*
X28812739Y27008467D01*
X29018467Y26802739D01*
X29100381Y26748006D01*
X29077540Y26735797D01*
X28845024Y26544976D01*
X28654203Y26312460D01*
X28512410Y26047185D01*
X28425095Y25759344D01*
X28395612Y25460000D01*
X28425095Y25160656D01*
X28512410Y24872815D01*
X28654203Y24607540D01*
X28845024Y24375024D01*
X29077540Y24184203D01*
X29342815Y24042410D01*
X29630656Y23955095D01*
X29774844Y23940894D01*
X29814528Y23933000D01*
X32833251Y23933000D01*
X32908252Y23925613D01*
X32983253Y23933000D01*
X32983263Y23933000D01*
X33207596Y23955095D01*
X33495437Y24042410D01*
X33760712Y24184203D01*
X33993228Y24375024D01*
X34041049Y24433294D01*
X36080756Y26473000D01*
X40240396Y26473000D01*
X40314336Y26487707D01*
X40389344Y26495095D01*
X40461466Y26516973D01*
X40535410Y26531681D01*
X40605061Y26560532D01*
X40677185Y26582410D01*
X40743658Y26617941D01*
X40813306Y26646790D01*
X40875989Y26688674D01*
X40942460Y26724203D01*
X41000719Y26772015D01*
X41063406Y26813901D01*
X41116717Y26867212D01*
X41174976Y26915024D01*
X41222788Y26973283D01*
X41276099Y27026594D01*
X41317985Y27089281D01*
X41365797Y27147540D01*
X41401326Y27214011D01*
X41443210Y27276694D01*
X41472059Y27346342D01*
X41507590Y27412815D01*
X41529468Y27484939D01*
X41558319Y27554590D01*
X41573027Y27628534D01*
X41594905Y27700656D01*
X41602293Y27775664D01*
X41617000Y27849604D01*
X41617000Y27924989D01*
X41624388Y28000000D01*
X41617000Y28075011D01*
X41617000Y28150396D01*
X41602293Y28224336D01*
X41594905Y28299344D01*
X41573027Y28371466D01*
X41558319Y28445410D01*
X41529468Y28515061D01*
X41507590Y28587185D01*
X41472059Y28653658D01*
X41443210Y28723306D01*
X41401326Y28785989D01*
X41365797Y28852460D01*
X41317985Y28910719D01*
X41276099Y28973406D01*
X41222788Y29026717D01*
X41174976Y29084976D01*
X41116717Y29132788D01*
X41063406Y29186099D01*
X41000719Y29227985D01*
X40949524Y29270000D01*
X41000719Y29312015D01*
X41063406Y29353901D01*
X41116717Y29407212D01*
X41174976Y29455024D01*
X41222788Y29513283D01*
X41276099Y29566594D01*
X41317985Y29629281D01*
X41365797Y29687540D01*
X41401326Y29754011D01*
X41443210Y29816694D01*
X41472059Y29886342D01*
X41507590Y29952815D01*
X41529468Y30024939D01*
X41558319Y30094590D01*
X41573027Y30168534D01*
X41594905Y30240656D01*
X41602293Y30315664D01*
X41617000Y30389604D01*
X41617000Y30464989D01*
X41624388Y30540000D01*
X41617000Y30615011D01*
X41617000Y30690396D01*
X41602293Y30764336D01*
X41594905Y30839344D01*
X41573027Y30911466D01*
X41558319Y30985410D01*
X41529468Y31055061D01*
X41507590Y31127185D01*
X41472059Y31193658D01*
X41443210Y31263306D01*
X41401326Y31325989D01*
X41365797Y31392460D01*
X41317985Y31450719D01*
X41276099Y31513406D01*
X41222788Y31566717D01*
X41174976Y31624976D01*
X41116717Y31672788D01*
X41063406Y31726099D01*
X41000719Y31767985D01*
X40949524Y31810000D01*
X41000719Y31852015D01*
X41063406Y31893901D01*
X41116717Y31947212D01*
X41174976Y31995024D01*
X41222788Y32053283D01*
X41276099Y32106594D01*
X41317985Y32169281D01*
X41365797Y32227540D01*
X41401326Y32294011D01*
X41443210Y32356694D01*
X41472059Y32426342D01*
X41507590Y32492815D01*
X41529468Y32564939D01*
X41558319Y32634590D01*
X41573027Y32708534D01*
X41594905Y32780656D01*
X41602293Y32855664D01*
X41617000Y32929604D01*
X41617000Y33004989D01*
X41624388Y33080000D01*
X41617000Y33155011D01*
X41617000Y33230396D01*
X41602293Y33304336D01*
X41594905Y33379344D01*
X41573027Y33451466D01*
X41558319Y33525410D01*
X41529468Y33595061D01*
X41507590Y33667185D01*
X41472059Y33733658D01*
X41443210Y33803306D01*
X41401326Y33865989D01*
X41365797Y33932460D01*
X41317985Y33990719D01*
X41276099Y34053406D01*
X41222788Y34106717D01*
X41174976Y34164976D01*
X41116717Y34212788D01*
X41063406Y34266099D01*
X41000719Y34307985D01*
X40942460Y34355797D01*
X40875989Y34391326D01*
X40813306Y34433210D01*
X40743658Y34462059D01*
X40677185Y34497590D01*
X40605061Y34519468D01*
X40535410Y34548319D01*
X40461466Y34563027D01*
X40389344Y34584905D01*
X40314336Y34592293D01*
X40240396Y34607000D01*
X33815000Y34607000D01*
X33739999Y34614387D01*
X33664998Y34607000D01*
X33664989Y34607000D01*
X33440656Y34584905D01*
X33152815Y34497590D01*
X32887540Y34355797D01*
X32655024Y34164976D01*
X32607208Y34106712D01*
X31437000Y32936504D01*
X31437000Y33175472D01*
X31380240Y33460825D01*
X31268901Y33729622D01*
X31107261Y33971533D01*
X30901533Y34177261D01*
X30659622Y34338901D01*
X30390825Y34450240D01*
X30105472Y34507000D01*
X29814528Y34507000D01*
X29529175Y34450240D01*
X29260378Y34338901D01*
X29018467Y34177261D01*
X28812739Y33971533D01*
X28651099Y33729622D01*
X28539760Y33460825D01*
X28483000Y33175472D01*
X28483000Y32884528D01*
X28539760Y32599175D01*
X28549911Y32574669D01*
X23816970Y37307609D01*
X23816970Y40700000D01*
X28395612Y40700000D01*
X28403000Y40624989D01*
X28403000Y40549604D01*
X28403001Y40549599D01*
X28403000Y38084990D01*
X28425095Y37860657D01*
X28512410Y37572816D01*
X28654203Y37307541D01*
X28845024Y37075024D01*
X29077540Y36884203D01*
X29342815Y36742410D01*
X29630656Y36655095D01*
X29774844Y36640894D01*
X29814528Y36633000D01*
X29854989Y36633000D01*
X29930000Y36625612D01*
X30005011Y36633000D01*
X30105472Y36633000D01*
X30204006Y36652599D01*
X30229343Y36655095D01*
X30253707Y36662486D01*
X30390825Y36689760D01*
X30659622Y36801099D01*
X30901533Y36962739D01*
X31008518Y37069724D01*
X31014976Y37075024D01*
X31020276Y37081482D01*
X31107261Y37168467D01*
X31175605Y37270751D01*
X31205797Y37307540D01*
X31228232Y37349512D01*
X31268901Y37410378D01*
X31296913Y37478006D01*
X31347590Y37572815D01*
X31378797Y37675691D01*
X31380240Y37679175D01*
X31380976Y37682874D01*
X31434905Y37860656D01*
X31457000Y38084989D01*
X31457000Y39173000D01*
X40240396Y39173000D01*
X40314336Y39187707D01*
X40389344Y39195095D01*
X40461466Y39216973D01*
X40535410Y39231681D01*
X40605061Y39260532D01*
X40677185Y39282410D01*
X40743658Y39317941D01*
X40813306Y39346790D01*
X40875989Y39388674D01*
X40942460Y39424203D01*
X41000719Y39472015D01*
X41063406Y39513901D01*
X41116717Y39567212D01*
X41174976Y39615024D01*
X41222788Y39673283D01*
X41276099Y39726594D01*
X41317985Y39789281D01*
X41365797Y39847540D01*
X41401326Y39914011D01*
X41443210Y39976694D01*
X41472059Y40046342D01*
X41507590Y40112815D01*
X41529468Y40184939D01*
X41558319Y40254590D01*
X41573027Y40328534D01*
X41594905Y40400656D01*
X41602293Y40475664D01*
X41617000Y40549604D01*
X41617000Y40624989D01*
X41624388Y40700000D01*
X41617000Y40775011D01*
X41617000Y40850396D01*
X41602293Y40924336D01*
X41594905Y40999344D01*
X41573027Y41071466D01*
X41558319Y41145410D01*
X41529468Y41215061D01*
X41507590Y41287185D01*
X41472059Y41353658D01*
X41443210Y41423306D01*
X41401326Y41485989D01*
X41365797Y41552460D01*
X41317985Y41610719D01*
X41276099Y41673406D01*
X41222788Y41726717D01*
X41174976Y41784976D01*
X41116717Y41832788D01*
X41063406Y41886099D01*
X41000719Y41927985D01*
X40942460Y41975797D01*
X40875989Y42011326D01*
X40813306Y42053210D01*
X40743658Y42082059D01*
X40677185Y42117590D01*
X40605061Y42139468D01*
X40535410Y42168319D01*
X40461466Y42183027D01*
X40389344Y42204905D01*
X40314336Y42212293D01*
X40240396Y42227000D01*
X30005011Y42227000D01*
X29930000Y42234388D01*
X29854989Y42227000D01*
X29779604Y42227000D01*
X29705664Y42212293D01*
X29630656Y42204905D01*
X29558534Y42183027D01*
X29484590Y42168319D01*
X29414939Y42139468D01*
X29342815Y42117590D01*
X29276342Y42082059D01*
X29206694Y42053210D01*
X29144011Y42011326D01*
X29077540Y41975797D01*
X29019281Y41927985D01*
X28956594Y41886099D01*
X28903283Y41832788D01*
X28845024Y41784976D01*
X28797212Y41726717D01*
X28743901Y41673406D01*
X28702015Y41610719D01*
X28654203Y41552460D01*
X28618674Y41485989D01*
X28576790Y41423306D01*
X28547941Y41353658D01*
X28512410Y41287185D01*
X28490532Y41215061D01*
X28461681Y41145410D01*
X28446973Y41071466D01*
X28425095Y40999344D01*
X28417707Y40924336D01*
X28403000Y40850396D01*
X28403000Y40775011D01*
X28395612Y40700000D01*
X23816970Y40700000D01*
X23816970Y42037828D01*
X23824357Y42112829D01*
X23816970Y42187830D01*
X23816970Y42187839D01*
X23794875Y42412172D01*
X23707560Y42700013D01*
X23565767Y42965288D01*
X23374946Y43197804D01*
X23316682Y43245620D01*
X19167132Y47395170D01*
X30581000Y47395170D01*
X30581000Y47064830D01*
X30645446Y46740837D01*
X30771862Y46435643D01*
X30955389Y46160975D01*
X31188975Y45927389D01*
X31463643Y45743862D01*
X31768837Y45617446D01*
X32092830Y45553000D01*
X32423170Y45553000D01*
X32747163Y45617446D01*
X33052357Y45743862D01*
X33327025Y45927389D01*
X33560611Y46160975D01*
X33744138Y46435643D01*
X33870554Y46740837D01*
X33935000Y47064830D01*
X33935000Y47395170D01*
X33870554Y47719163D01*
X33744138Y48024357D01*
X33560611Y48299025D01*
X33327025Y48532611D01*
X33052357Y48716138D01*
X32747163Y48842554D01*
X32423170Y48907000D01*
X32092830Y48907000D01*
X31768837Y48842554D01*
X31463643Y48716138D01*
X31188975Y48532611D01*
X30955389Y48299025D01*
X30771862Y48024357D01*
X30645446Y47719163D01*
X30581000Y47395170D01*
X19167132Y47395170D01*
X18291595Y48270706D01*
X18243774Y48328976D01*
X18011258Y48519797D01*
X18001803Y48524851D01*
X12975010Y53551643D01*
X12975010Y54622140D01*
X12982397Y54697141D01*
X12975010Y54772142D01*
X12975010Y54772152D01*
X12952915Y54996485D01*
X12865600Y55284326D01*
X12723807Y55549601D01*
X12532986Y55782117D01*
X12474722Y55829933D01*
X9719485Y58585170D01*
X14579000Y58585170D01*
X14579000Y58254830D01*
X14643446Y57930837D01*
X14769862Y57625643D01*
X14953389Y57350975D01*
X15186975Y57117389D01*
X15461643Y56933862D01*
X15766837Y56807446D01*
X16090830Y56743000D01*
X16421170Y56743000D01*
X16745163Y56807446D01*
X17050357Y56933862D01*
X17325025Y57117389D01*
X17558611Y57350975D01*
X17742138Y57625643D01*
X17868554Y57930837D01*
X17933000Y58254830D01*
X17933000Y58585170D01*
X17868554Y58909163D01*
X17742138Y59214357D01*
X17558611Y59489025D01*
X17325025Y59722611D01*
X17050357Y59906138D01*
X16745163Y60032554D01*
X16421170Y60097000D01*
X16090830Y60097000D01*
X15766837Y60032554D01*
X15461643Y59906138D01*
X15186975Y59722611D01*
X14953389Y59489025D01*
X14769862Y59214357D01*
X14643446Y58909163D01*
X14579000Y58585170D01*
X9719485Y58585170D01*
X9619948Y58684706D01*
X9572127Y58742976D01*
X9339611Y58933797D01*
X9074336Y59075590D01*
X8786495Y59162905D01*
X8562162Y59185000D01*
X8562152Y59185000D01*
X8487151Y59192387D01*
X8412150Y59185000D01*
X7595346Y59185000D01*
X7430410Y59253319D01*
X7135396Y59312000D01*
X6834604Y59312000D01*
X6539590Y59253319D01*
X6261694Y59138210D01*
X6011594Y58971099D01*
X5831283Y58790788D01*
X5773024Y58742976D01*
X5582203Y58510460D01*
X5440410Y58245185D01*
X5353095Y57957344D01*
X5323612Y57658000D01*
X5353095Y57358656D01*
X5440410Y57070815D01*
X5582203Y56805540D01*
X5773024Y56573024D01*
X5982009Y56401514D01*
X5958283Y56377788D01*
X5900024Y56329976D01*
X5852212Y56271717D01*
X5798901Y56218406D01*
X5757015Y56155719D01*
X5709203Y56097460D01*
X5673674Y56030989D01*
X5631790Y55968306D01*
X5602941Y55898658D01*
X5567410Y55832185D01*
X5545532Y55760061D01*
X5516681Y55690410D01*
X5501973Y55616466D01*
X5480095Y55544344D01*
X5472707Y55469336D01*
X5458000Y55395396D01*
X5458000Y55320011D01*
X5450612Y55245000D01*
X5458000Y55169989D01*
X5458000Y55094604D01*
X5472707Y55020664D01*
X5480095Y54945656D01*
X5501973Y54873534D01*
X5516681Y54799590D01*
X5545532Y54729939D01*
X5567410Y54657815D01*
X5602941Y54591342D01*
X5631790Y54521694D01*
X5673674Y54459011D01*
X5709203Y54392540D01*
X5757015Y54334281D01*
X5798901Y54271594D01*
X5852212Y54218283D01*
X5900024Y54160024D01*
X5958283Y54112212D01*
X6011594Y54058901D01*
X6074281Y54017015D01*
X6132540Y53969203D01*
X6199011Y53933674D01*
X6261694Y53891790D01*
X6331342Y53862941D01*
X6397815Y53827410D01*
X6469939Y53805532D01*
X6539590Y53776681D01*
X6613534Y53761973D01*
X6685656Y53740095D01*
X6760664Y53732707D01*
X6834604Y53718000D01*
X7001613Y53718000D01*
X7058839Y53687412D01*
X7346680Y53600097D01*
X7646023Y53570614D01*
X7945368Y53600097D01*
X7972994Y53608477D01*
X8221000Y53360471D01*
X8221000Y52127812D01*
X8215306Y52070000D01*
X8221000Y52012189D01*
X8238031Y51839269D01*
X8305333Y51617404D01*
X8414626Y51412931D01*
X8561709Y51233709D01*
X8606623Y51196849D01*
X15343000Y44460470D01*
X7817169Y44460470D01*
X7708306Y44533210D01*
X7430410Y44648319D01*
X7135396Y44707000D01*
X6834604Y44707000D01*
X6539590Y44648319D01*
X6261694Y44533210D01*
X6011594Y44366099D01*
X5798901Y44153406D01*
X5631790Y43903306D01*
X5516681Y43625410D01*
X5458000Y43330396D01*
X5458000Y43029604D01*
X5516681Y42734590D01*
X5631790Y42456694D01*
X5798901Y42206594D01*
X6011594Y41993901D01*
X6261694Y41826790D01*
X6539590Y41711681D01*
X6834604Y41653000D01*
X7135396Y41653000D01*
X7430410Y41711681D01*
X7708306Y41826790D01*
X7958406Y41993901D01*
X8042800Y42078295D01*
X8072597Y42087334D01*
X8108398Y42106470D01*
X15328474Y42106470D01*
X17362951Y40071992D01*
X17362950Y13913656D01*
X16245862Y12796567D01*
X16224905Y13009344D01*
X16137590Y13297185D01*
X15995797Y13562460D01*
X15804976Y13794976D01*
X15579524Y13980000D01*
X15804976Y14165024D01*
X15995797Y14397540D01*
X16137590Y14662815D01*
X16224905Y14950656D01*
X16254388Y15250000D01*
X16224905Y15549344D01*
X16137590Y15837185D01*
X15995797Y16102460D01*
X15804976Y16334976D01*
X15579524Y16520000D01*
X15804976Y16705024D01*
X15995797Y16937540D01*
X16137590Y17202815D01*
X16224905Y17490656D01*
X16254388Y17790000D01*
X16224905Y18089344D01*
X16137590Y18377185D01*
X15995797Y18642460D01*
X15804976Y18874976D01*
X15579524Y19060000D01*
X15804976Y19245024D01*
X15995797Y19477540D01*
X16137590Y19742815D01*
X16224905Y20030656D01*
X16254388Y20330000D01*
X16224905Y20629344D01*
X16137590Y20917185D01*
X15995797Y21182460D01*
X15804976Y21414976D01*
X15579524Y21600000D01*
X15804976Y21785024D01*
X15995797Y22017540D01*
X16137590Y22282815D01*
X16224905Y22570656D01*
X16254388Y22870000D01*
X16224905Y23169344D01*
X16137590Y23457185D01*
X15995797Y23722460D01*
X15804976Y23954976D01*
X15579524Y24140000D01*
X15804976Y24325024D01*
X15995797Y24557540D01*
X16137590Y24822815D01*
X16224905Y25110656D01*
X16254388Y25410000D01*
X16224905Y25709344D01*
X16137590Y25997185D01*
X15995797Y26262460D01*
X15804976Y26494976D01*
X15579524Y26680000D01*
X15804976Y26865024D01*
X15995797Y27097540D01*
X16137590Y27362815D01*
X16224905Y27650656D01*
X16254388Y27950000D01*
X16224905Y28249344D01*
X16137590Y28537185D01*
X15995797Y28802460D01*
X15804976Y29034976D01*
X15572460Y29225797D01*
X15307185Y29367590D01*
X15019344Y29454905D01*
X14795011Y29477000D01*
X8161004Y29477000D01*
X8086000Y29484387D01*
X8010996Y29477000D01*
X8010989Y29477000D01*
X7909458Y29467000D01*
X7850604Y29467000D01*
X7792878Y29455518D01*
X7786656Y29454905D01*
X7780673Y29453090D01*
X7555590Y29408319D01*
X7277694Y29293210D01*
X7073000Y29156438D01*
X7073000Y32369989D01*
X7080388Y32445000D01*
X7073000Y32520011D01*
X7073000Y32595396D01*
X7058293Y32669336D01*
X7050905Y32744344D01*
X7029027Y32816466D01*
X7014319Y32890410D01*
X6985468Y32960061D01*
X6963590Y33032185D01*
X6928059Y33098658D01*
X6899210Y33168306D01*
X6857326Y33230989D01*
X6821797Y33297460D01*
X6773985Y33355719D01*
X6732099Y33418406D01*
X6678788Y33471717D01*
X6630976Y33529976D01*
X6572717Y33577788D01*
X6519406Y33631099D01*
X6456719Y33672985D01*
X6398460Y33720797D01*
X6331989Y33756326D01*
X6269306Y33798210D01*
X6199658Y33827059D01*
X6133185Y33862590D01*
X6061061Y33884468D01*
X5991410Y33913319D01*
X5917466Y33928027D01*
X5845344Y33949905D01*
X5770336Y33957293D01*
X5696396Y33972000D01*
X5621011Y33972000D01*
X5546000Y33979388D01*
X5470989Y33972000D01*
X5395604Y33972000D01*
X5321664Y33957293D01*
X5246656Y33949905D01*
X5174534Y33928027D01*
X5100590Y33913319D01*
X5030939Y33884468D01*
X4958815Y33862590D01*
X4892342Y33827059D01*
X4822694Y33798210D01*
X4760011Y33756326D01*
X4693540Y33720797D01*
X4635281Y33672985D01*
X4572594Y33631099D01*
X4519283Y33577788D01*
X4461024Y33529976D01*
X4413212Y33471717D01*
X4359901Y33418406D01*
X4318015Y33355719D01*
X4270203Y33297460D01*
X4234674Y33230989D01*
X4192790Y33168306D01*
X4163941Y33098658D01*
X4128410Y33032185D01*
X4106532Y32960061D01*
X4077681Y32890410D01*
X4062973Y32816466D01*
X4041095Y32744344D01*
X4033707Y32669336D01*
X4019000Y32595396D01*
X4019000Y32520011D01*
X4011612Y32445000D01*
X4019000Y32369989D01*
X4019000Y32294604D01*
X4019001Y32294599D01*
X4019001Y28448951D01*
X3992681Y28385410D01*
X3934000Y28090396D01*
X452000Y28090396D01*
X452000Y38255472D01*
X13243000Y38255472D01*
X13243000Y37964528D01*
X13299760Y37679175D01*
X13411099Y37410378D01*
X13572739Y37168467D01*
X13778467Y36962739D01*
X13962159Y36840000D01*
X13778467Y36717261D01*
X13572739Y36511533D01*
X13411099Y36269622D01*
X13299760Y36000825D01*
X13243000Y35715472D01*
X13243000Y35424528D01*
X13299760Y35139175D01*
X13411099Y34870378D01*
X13572739Y34628467D01*
X13778467Y34422739D01*
X13962159Y34300000D01*
X13778467Y34177261D01*
X13572739Y33971533D01*
X13411099Y33729622D01*
X13299760Y33460825D01*
X13243000Y33175472D01*
X13243000Y32884528D01*
X13299760Y32599175D01*
X13411099Y32330378D01*
X13572739Y32088467D01*
X13778467Y31882739D01*
X14020378Y31721099D01*
X14289175Y31609760D01*
X14574528Y31553000D01*
X14865472Y31553000D01*
X15150825Y31609760D01*
X15419622Y31721099D01*
X15661533Y31882739D01*
X15867261Y32088467D01*
X16028901Y32330378D01*
X16140240Y32599175D01*
X16197000Y32884528D01*
X16197000Y33175472D01*
X16140240Y33460825D01*
X16028901Y33729622D01*
X15867261Y33971533D01*
X15661533Y34177261D01*
X15477841Y34300000D01*
X15661533Y34422739D01*
X15867261Y34628467D01*
X16028901Y34870378D01*
X16140240Y35139175D01*
X16197000Y35424528D01*
X16197000Y35715472D01*
X16140240Y36000825D01*
X16028901Y36269622D01*
X15867261Y36511533D01*
X15661533Y36717261D01*
X15477841Y36840000D01*
X15661533Y36962739D01*
X15867261Y37168467D01*
X16028901Y37410378D01*
X16140240Y37679175D01*
X16197000Y37964528D01*
X16197000Y38255472D01*
X16140240Y38540825D01*
X16028901Y38809622D01*
X15867261Y39051533D01*
X15661533Y39257261D01*
X15419622Y39418901D01*
X15150825Y39530240D01*
X14865472Y39587000D01*
X14574528Y39587000D01*
X14289175Y39530240D01*
X14020378Y39418901D01*
X13778467Y39257261D01*
X13572739Y39051533D01*
X13411099Y38809622D01*
X13299760Y38540825D01*
X13243000Y38255472D01*
X452000Y38255472D01*
X452000Y61778000D01*
X27488001Y61778000D01*
X27488000Y52092205D01*
G37*
X27488000Y52092205D02*
X27485813Y52070000D01*
X27494540Y51981393D01*
X27520386Y51896190D01*
X27562357Y51817667D01*
X27618841Y51748841D01*
X27687667Y51692357D01*
X27766190Y51650386D01*
X27851393Y51624540D01*
X27940000Y51615813D01*
X27962205Y51618000D01*
X42728001Y51618000D01*
X42728000Y452000D01*
X452000Y452000D01*
X452000Y5245170D01*
X3163000Y5245170D01*
X3163000Y4914830D01*
X3227446Y4590837D01*
X3353862Y4285643D01*
X3537389Y4010975D01*
X3770975Y3777389D01*
X4045643Y3593862D01*
X4350837Y3467446D01*
X4674830Y3403000D01*
X5005170Y3403000D01*
X5329163Y3467446D01*
X5634357Y3593862D01*
X5909025Y3777389D01*
X6142611Y4010975D01*
X6326138Y4285643D01*
X6452554Y4590837D01*
X6517000Y4914830D01*
X6517000Y5245170D01*
X6452554Y5569163D01*
X6326138Y5874357D01*
X6142611Y6149025D01*
X5909025Y6382611D01*
X5634357Y6566138D01*
X5329163Y6692554D01*
X5005170Y6757000D01*
X4674830Y6757000D01*
X4350837Y6692554D01*
X4045643Y6566138D01*
X3770975Y6382611D01*
X3537389Y6149025D01*
X3353862Y5874357D01*
X3227446Y5569163D01*
X3163000Y5245170D01*
X452000Y5245170D01*
X452000Y28090396D01*
X3934000Y28090396D01*
X3934000Y27789604D01*
X3992681Y27494590D01*
X4019001Y27431049D01*
X4019001Y25908951D01*
X3992681Y25845410D01*
X3934000Y25550396D01*
X3934000Y25249604D01*
X3992681Y24954590D01*
X4019001Y24891049D01*
X4019001Y23368951D01*
X3992681Y23305410D01*
X3934000Y23010396D01*
X3934000Y22709604D01*
X3992681Y22414590D01*
X4019000Y22351050D01*
X4019000Y20828950D01*
X3992681Y20765410D01*
X3934000Y20470396D01*
X3934000Y20169604D01*
X3992681Y19874590D01*
X4019000Y19811050D01*
X4019000Y18288950D01*
X3992681Y18225410D01*
X3934000Y17930396D01*
X3934000Y17629604D01*
X3992681Y17334590D01*
X4019000Y17271050D01*
X4019000Y15748950D01*
X3992681Y15685410D01*
X3934000Y15390396D01*
X3934000Y15089604D01*
X3992681Y14794590D01*
X4019000Y14731050D01*
X4019000Y13208949D01*
X3992681Y13145410D01*
X3934000Y12850396D01*
X3934000Y12549604D01*
X3992681Y12254590D01*
X4107790Y11976694D01*
X4274901Y11726594D01*
X4487594Y11513901D01*
X4737694Y11346790D01*
X5015590Y11231681D01*
X5310604Y11173000D01*
X5611396Y11173000D01*
X5906410Y11231681D01*
X6184306Y11346790D01*
X6434406Y11513901D01*
X6647099Y11726594D01*
X6731000Y11852161D01*
X6814901Y11726594D01*
X7027594Y11513901D01*
X7277694Y11346790D01*
X7555590Y11231681D01*
X7850604Y11173000D01*
X8151396Y11173000D01*
X8201670Y11183000D01*
X13644206Y11183000D01*
X13572739Y11111533D01*
X13411099Y10869622D01*
X13299760Y10600825D01*
X13243000Y10315472D01*
X13243000Y10024528D01*
X13299760Y9739175D01*
X13411099Y9470378D01*
X13572739Y9228467D01*
X13778467Y9022739D01*
X13962159Y8900000D01*
X13778467Y8777261D01*
X13572739Y8571533D01*
X13411099Y8329622D01*
X13299760Y8060825D01*
X13243000Y7775472D01*
X13243000Y7484528D01*
X13299760Y7199175D01*
X13411099Y6930378D01*
X13572739Y6688467D01*
X13778467Y6482739D01*
X14020378Y6321099D01*
X14289175Y6209760D01*
X14574528Y6153000D01*
X14865472Y6153000D01*
X15150825Y6209760D01*
X15419622Y6321099D01*
X15661533Y6482739D01*
X15867261Y6688467D01*
X15894134Y6728685D01*
X16034291Y6843709D01*
X16071151Y6888623D01*
X21031342Y11848814D01*
X21076251Y11885669D01*
X21223334Y12064890D01*
X21332627Y12269363D01*
X21399929Y12491228D01*
X21416960Y12664148D01*
X21416960Y12664157D01*
X21422653Y12721959D01*
X21416960Y12779761D01*
X21416960Y17840000D01*
X28395612Y17840000D01*
X28425095Y17540656D01*
X28512410Y17252815D01*
X28654203Y16987540D01*
X28845024Y16755024D01*
X29070476Y16570000D01*
X28845024Y16384976D01*
X28654203Y16152460D01*
X28512410Y15887185D01*
X28425095Y15599344D01*
X28395612Y15300000D01*
X28425095Y15000656D01*
X28512410Y14712815D01*
X28654203Y14447540D01*
X28845024Y14215024D01*
X29070476Y14030000D01*
X28845024Y13844976D01*
X28654203Y13612460D01*
X28512410Y13347185D01*
X28425095Y13059344D01*
X28395612Y12760000D01*
X28425095Y12460656D01*
X28512410Y12172815D01*
X28654203Y11907540D01*
X28845024Y11675024D01*
X29077540Y11484203D01*
X29183528Y11427551D01*
X29018467Y11317261D01*
X28812739Y11111533D01*
X28651099Y10869622D01*
X28539760Y10600825D01*
X28483000Y10315472D01*
X28483000Y10024528D01*
X28539760Y9739175D01*
X28651099Y9470378D01*
X28812739Y9228467D01*
X29018467Y9022739D01*
X29202159Y8900000D01*
X29018467Y8777261D01*
X28812739Y8571533D01*
X28651099Y8329622D01*
X28539760Y8060825D01*
X28483000Y7775472D01*
X28483000Y7484528D01*
X28539760Y7199175D01*
X28651099Y6930378D01*
X28812739Y6688467D01*
X29018467Y6482739D01*
X29202159Y6360000D01*
X29018467Y6237261D01*
X28812739Y6031533D01*
X28651099Y5789622D01*
X28539760Y5520825D01*
X28483000Y5235472D01*
X28483000Y4944528D01*
X28539760Y4659175D01*
X28651099Y4390378D01*
X28812739Y4148467D01*
X29018467Y3942739D01*
X29202159Y3820000D01*
X29018467Y3697261D01*
X28812739Y3491533D01*
X28651099Y3249622D01*
X28539760Y2980825D01*
X28483000Y2695472D01*
X28483000Y2404528D01*
X28539760Y2119175D01*
X28651099Y1850378D01*
X28812739Y1608467D01*
X29018467Y1402739D01*
X29260378Y1241099D01*
X29529175Y1129760D01*
X29814528Y1073000D01*
X30105472Y1073000D01*
X30390825Y1129760D01*
X30659622Y1241099D01*
X30901533Y1402739D01*
X31107261Y1608467D01*
X31268901Y1850378D01*
X31380240Y2119175D01*
X31437000Y2404528D01*
X31437000Y2695472D01*
X31380240Y2980825D01*
X31268901Y3249622D01*
X31107261Y3491533D01*
X30901533Y3697261D01*
X30717841Y3820000D01*
X30901533Y3942739D01*
X31107261Y4148467D01*
X31268901Y4390378D01*
X31380240Y4659175D01*
X31437000Y4944528D01*
X31437000Y5235472D01*
X31405235Y5395170D01*
X36163000Y5395170D01*
X36163000Y5064830D01*
X36227446Y4740837D01*
X36353862Y4435643D01*
X36537389Y4160975D01*
X36770975Y3927389D01*
X37045643Y3743862D01*
X37350837Y3617446D01*
X37674830Y3553000D01*
X38005170Y3553000D01*
X38329163Y3617446D01*
X38634357Y3743862D01*
X38909025Y3927389D01*
X39142611Y4160975D01*
X39326138Y4435643D01*
X39452554Y4740837D01*
X39517000Y5064830D01*
X39517000Y5395170D01*
X39452554Y5719163D01*
X39326138Y6024357D01*
X39142611Y6299025D01*
X38909025Y6532611D01*
X38634357Y6716138D01*
X38329163Y6842554D01*
X38005170Y6907000D01*
X37674830Y6907000D01*
X37350837Y6842554D01*
X37045643Y6716138D01*
X36770975Y6532611D01*
X36537389Y6299025D01*
X36353862Y6024357D01*
X36227446Y5719163D01*
X36163000Y5395170D01*
X31405235Y5395170D01*
X31380240Y5520825D01*
X31268901Y5789622D01*
X31107261Y6031533D01*
X30901533Y6237261D01*
X30717841Y6360000D01*
X30901533Y6482739D01*
X31107261Y6688467D01*
X31268901Y6930378D01*
X31380240Y7199175D01*
X31437000Y7484528D01*
X31437000Y7775472D01*
X31380240Y8060825D01*
X31268901Y8329622D01*
X31107261Y8571533D01*
X30901533Y8777261D01*
X30717841Y8900000D01*
X30901533Y9022739D01*
X31107261Y9228467D01*
X31268901Y9470378D01*
X31380240Y9739175D01*
X31437000Y10024528D01*
X31437000Y10315472D01*
X31380240Y10600825D01*
X31268901Y10869622D01*
X31107261Y11111533D01*
X30985794Y11233000D01*
X33120396Y11233000D01*
X33194336Y11247707D01*
X33269344Y11255095D01*
X33341466Y11276973D01*
X33415410Y11291681D01*
X33485061Y11320532D01*
X33557185Y11342410D01*
X33623658Y11377941D01*
X33693306Y11406790D01*
X33755989Y11448674D01*
X33822460Y11484203D01*
X33880719Y11532015D01*
X33943406Y11573901D01*
X33996717Y11627212D01*
X34054976Y11675024D01*
X34102788Y11733283D01*
X34156099Y11786594D01*
X34197985Y11849281D01*
X34245797Y11907540D01*
X34281326Y11974011D01*
X34323210Y12036694D01*
X34352059Y12106342D01*
X34387590Y12172815D01*
X34409468Y12244939D01*
X34438319Y12314590D01*
X34453027Y12388534D01*
X34474905Y12460656D01*
X34482293Y12535664D01*
X34497000Y12609604D01*
X34497000Y12684989D01*
X34504388Y12760000D01*
X34497000Y12835011D01*
X34497000Y12910396D01*
X34482293Y12984336D01*
X34474905Y13059344D01*
X34453027Y13131466D01*
X34438319Y13205410D01*
X34409468Y13275061D01*
X34387590Y13347185D01*
X34352059Y13413658D01*
X34323210Y13483306D01*
X34281326Y13545989D01*
X34245797Y13612460D01*
X34197985Y13670719D01*
X34156099Y13733406D01*
X34116505Y13773000D01*
X40240396Y13773000D01*
X40314336Y13787707D01*
X40389344Y13795095D01*
X40461466Y13816973D01*
X40535410Y13831681D01*
X40605061Y13860532D01*
X40677185Y13882410D01*
X40743658Y13917941D01*
X40813306Y13946790D01*
X40875989Y13988674D01*
X40942460Y14024203D01*
X41000719Y14072015D01*
X41063406Y14113901D01*
X41116717Y14167212D01*
X41174976Y14215024D01*
X41222788Y14273283D01*
X41276099Y14326594D01*
X41317985Y14389281D01*
X41365797Y14447540D01*
X41401326Y14514011D01*
X41443210Y14576694D01*
X41472059Y14646342D01*
X41507590Y14712815D01*
X41529468Y14784939D01*
X41558319Y14854590D01*
X41573027Y14928534D01*
X41594905Y15000656D01*
X41602293Y15075664D01*
X41617000Y15149604D01*
X41617000Y15224989D01*
X41624388Y15300000D01*
X41617000Y15375011D01*
X41617000Y15450396D01*
X41602293Y15524336D01*
X41594905Y15599344D01*
X41573027Y15671466D01*
X41558319Y15745410D01*
X41529468Y15815061D01*
X41507590Y15887185D01*
X41472059Y15953658D01*
X41443210Y16023306D01*
X41401326Y16085989D01*
X41365797Y16152460D01*
X41317985Y16210719D01*
X41276099Y16273406D01*
X41222788Y16326717D01*
X41174976Y16384976D01*
X41116717Y16432788D01*
X41063406Y16486099D01*
X41000719Y16527985D01*
X40949524Y16570000D01*
X41000719Y16612015D01*
X41063406Y16653901D01*
X41116717Y16707212D01*
X41174976Y16755024D01*
X41222788Y16813283D01*
X41276099Y16866594D01*
X41317985Y16929281D01*
X41365797Y16987540D01*
X41401326Y17054011D01*
X41443210Y17116694D01*
X41472059Y17186342D01*
X41507590Y17252815D01*
X41529468Y17324939D01*
X41558319Y17394590D01*
X41573027Y17468534D01*
X41594905Y17540656D01*
X41602293Y17615664D01*
X41617000Y17689604D01*
X41617000Y17764989D01*
X41624388Y17840000D01*
X41617000Y17915011D01*
X41617000Y17990396D01*
X41602293Y18064336D01*
X41594905Y18139344D01*
X41573027Y18211466D01*
X41558319Y18285410D01*
X41529468Y18355061D01*
X41507590Y18427185D01*
X41472059Y18493658D01*
X41443210Y18563306D01*
X41401326Y18625989D01*
X41365797Y18692460D01*
X41317985Y18750719D01*
X41276099Y18813406D01*
X41222788Y18866717D01*
X41174976Y18924976D01*
X41116717Y18972788D01*
X41063406Y19026099D01*
X41000719Y19067985D01*
X40949524Y19110000D01*
X41000719Y19152015D01*
X41063406Y19193901D01*
X41116717Y19247212D01*
X41174976Y19295024D01*
X41222788Y19353283D01*
X41276099Y19406594D01*
X41317985Y19469281D01*
X41365797Y19527540D01*
X41401326Y19594011D01*
X41443210Y19656694D01*
X41472059Y19726342D01*
X41507590Y19792815D01*
X41529468Y19864939D01*
X41558319Y19934590D01*
X41573027Y20008534D01*
X41594905Y20080656D01*
X41602293Y20155664D01*
X41617000Y20229604D01*
X41617000Y20304990D01*
X41624388Y20380000D01*
X41617000Y20455011D01*
X41617000Y20530396D01*
X41602293Y20604336D01*
X41594905Y20679344D01*
X41573027Y20751466D01*
X41558319Y20825410D01*
X41529468Y20895061D01*
X41507590Y20967185D01*
X41472059Y21033658D01*
X41443210Y21103306D01*
X41401326Y21165989D01*
X41365797Y21232460D01*
X41317985Y21290719D01*
X41276099Y21353406D01*
X41222788Y21406717D01*
X41174976Y21464976D01*
X41116717Y21512788D01*
X41063406Y21566099D01*
X41000719Y21607985D01*
X40942460Y21655797D01*
X40875989Y21691326D01*
X40813306Y21733210D01*
X40743658Y21762059D01*
X40677185Y21797590D01*
X40605061Y21819468D01*
X40535410Y21848319D01*
X40461466Y21863027D01*
X40389344Y21884905D01*
X40314336Y21892293D01*
X40240396Y21907000D01*
X37807000Y21907000D01*
X37807000Y23070396D01*
X37792293Y23144336D01*
X37784905Y23219344D01*
X37763027Y23291466D01*
X37748319Y23365410D01*
X37719468Y23435061D01*
X37697590Y23507185D01*
X37662059Y23573658D01*
X37633210Y23643306D01*
X37591326Y23705989D01*
X37555797Y23772460D01*
X37507985Y23830719D01*
X37466099Y23893406D01*
X37412788Y23946717D01*
X37364976Y24004976D01*
X37306717Y24052788D01*
X37253406Y24106099D01*
X37190719Y24147985D01*
X37132460Y24195797D01*
X37065989Y24231326D01*
X37003306Y24273210D01*
X36933658Y24302059D01*
X36867185Y24337590D01*
X36795061Y24359468D01*
X36725410Y24388319D01*
X36651466Y24403027D01*
X36579344Y24424905D01*
X36504336Y24432293D01*
X36430396Y24447000D01*
X36355011Y24447000D01*
X36280000Y24454388D01*
X36204989Y24447000D01*
X36129604Y24447000D01*
X36055664Y24432293D01*
X35980657Y24424905D01*
X35908537Y24403028D01*
X35834590Y24388319D01*
X35764936Y24359467D01*
X35692816Y24337590D01*
X35626347Y24302061D01*
X35556694Y24273210D01*
X35494007Y24231324D01*
X35427541Y24195797D01*
X35369286Y24147988D01*
X35306594Y24106099D01*
X35253278Y24052783D01*
X35195025Y24004976D01*
X35147218Y23946723D01*
X35093901Y23893406D01*
X35052011Y23830713D01*
X35004204Y23772460D01*
X34968679Y23705997D01*
X34926790Y23643306D01*
X34897937Y23573650D01*
X34862411Y23507185D01*
X34840535Y23435070D01*
X34811681Y23365410D01*
X34796971Y23291457D01*
X34775096Y23219344D01*
X34767709Y23144346D01*
X34753000Y23070396D01*
X34753000Y22769604D01*
X34753001Y22769599D01*
X34753000Y20455012D01*
X34745612Y20380000D01*
X34775095Y20080656D01*
X34862410Y19792815D01*
X35004203Y19527540D01*
X35135955Y19367000D01*
X29854989Y19367000D01*
X29630656Y19344905D01*
X29342815Y19257590D01*
X29077540Y19115797D01*
X28845024Y18924976D01*
X28654203Y18692460D01*
X28512410Y18427185D01*
X28425095Y18139344D01*
X28395612Y17840000D01*
X21416960Y17840000D01*
X21416960Y35388613D01*
X27342284Y29463288D01*
X27390100Y29405024D01*
X27622616Y29214203D01*
X27790973Y29124214D01*
X27887891Y29072410D01*
X28175731Y28985095D01*
X28202881Y28982421D01*
X28400065Y28963000D01*
X28400072Y28963000D01*
X28475076Y28955613D01*
X28550080Y28963000D01*
X28884206Y28963000D01*
X28812739Y28891533D01*
X28651099Y28649622D01*
X28539760Y28380825D01*
X28483000Y28095472D01*
X28483000Y27804528D01*
X28539760Y27519175D01*
X28651099Y27250378D01*
X28812739Y27008467D01*
X29018467Y26802739D01*
X29100381Y26748006D01*
X29077540Y26735797D01*
X28845024Y26544976D01*
X28654203Y26312460D01*
X28512410Y26047185D01*
X28425095Y25759344D01*
X28395612Y25460000D01*
X28425095Y25160656D01*
X28512410Y24872815D01*
X28654203Y24607540D01*
X28845024Y24375024D01*
X29077540Y24184203D01*
X29342815Y24042410D01*
X29630656Y23955095D01*
X29774844Y23940894D01*
X29814528Y23933000D01*
X32833251Y23933000D01*
X32908252Y23925613D01*
X32983253Y23933000D01*
X32983263Y23933000D01*
X33207596Y23955095D01*
X33495437Y24042410D01*
X33760712Y24184203D01*
X33993228Y24375024D01*
X34041049Y24433294D01*
X36080756Y26473000D01*
X40240396Y26473000D01*
X40314336Y26487707D01*
X40389344Y26495095D01*
X40461466Y26516973D01*
X40535410Y26531681D01*
X40605061Y26560532D01*
X40677185Y26582410D01*
X40743658Y26617941D01*
X40813306Y26646790D01*
X40875989Y26688674D01*
X40942460Y26724203D01*
X41000719Y26772015D01*
X41063406Y26813901D01*
X41116717Y26867212D01*
X41174976Y26915024D01*
X41222788Y26973283D01*
X41276099Y27026594D01*
X41317985Y27089281D01*
X41365797Y27147540D01*
X41401326Y27214011D01*
X41443210Y27276694D01*
X41472059Y27346342D01*
X41507590Y27412815D01*
X41529468Y27484939D01*
X41558319Y27554590D01*
X41573027Y27628534D01*
X41594905Y27700656D01*
X41602293Y27775664D01*
X41617000Y27849604D01*
X41617000Y27924989D01*
X41624388Y28000000D01*
X41617000Y28075011D01*
X41617000Y28150396D01*
X41602293Y28224336D01*
X41594905Y28299344D01*
X41573027Y28371466D01*
X41558319Y28445410D01*
X41529468Y28515061D01*
X41507590Y28587185D01*
X41472059Y28653658D01*
X41443210Y28723306D01*
X41401326Y28785989D01*
X41365797Y28852460D01*
X41317985Y28910719D01*
X41276099Y28973406D01*
X41222788Y29026717D01*
X41174976Y29084976D01*
X41116717Y29132788D01*
X41063406Y29186099D01*
X41000719Y29227985D01*
X40949524Y29270000D01*
X41000719Y29312015D01*
X41063406Y29353901D01*
X41116717Y29407212D01*
X41174976Y29455024D01*
X41222788Y29513283D01*
X41276099Y29566594D01*
X41317985Y29629281D01*
X41365797Y29687540D01*
X41401326Y29754011D01*
X41443210Y29816694D01*
X41472059Y29886342D01*
X41507590Y29952815D01*
X41529468Y30024939D01*
X41558319Y30094590D01*
X41573027Y30168534D01*
X41594905Y30240656D01*
X41602293Y30315664D01*
X41617000Y30389604D01*
X41617000Y30464989D01*
X41624388Y30540000D01*
X41617000Y30615011D01*
X41617000Y30690396D01*
X41602293Y30764336D01*
X41594905Y30839344D01*
X41573027Y30911466D01*
X41558319Y30985410D01*
X41529468Y31055061D01*
X41507590Y31127185D01*
X41472059Y31193658D01*
X41443210Y31263306D01*
X41401326Y31325989D01*
X41365797Y31392460D01*
X41317985Y31450719D01*
X41276099Y31513406D01*
X41222788Y31566717D01*
X41174976Y31624976D01*
X41116717Y31672788D01*
X41063406Y31726099D01*
X41000719Y31767985D01*
X40949524Y31810000D01*
X41000719Y31852015D01*
X41063406Y31893901D01*
X41116717Y31947212D01*
X41174976Y31995024D01*
X41222788Y32053283D01*
X41276099Y32106594D01*
X41317985Y32169281D01*
X41365797Y32227540D01*
X41401326Y32294011D01*
X41443210Y32356694D01*
X41472059Y32426342D01*
X41507590Y32492815D01*
X41529468Y32564939D01*
X41558319Y32634590D01*
X41573027Y32708534D01*
X41594905Y32780656D01*
X41602293Y32855664D01*
X41617000Y32929604D01*
X41617000Y33004989D01*
X41624388Y33080000D01*
X41617000Y33155011D01*
X41617000Y33230396D01*
X41602293Y33304336D01*
X41594905Y33379344D01*
X41573027Y33451466D01*
X41558319Y33525410D01*
X41529468Y33595061D01*
X41507590Y33667185D01*
X41472059Y33733658D01*
X41443210Y33803306D01*
X41401326Y33865989D01*
X41365797Y33932460D01*
X41317985Y33990719D01*
X41276099Y34053406D01*
X41222788Y34106717D01*
X41174976Y34164976D01*
X41116717Y34212788D01*
X41063406Y34266099D01*
X41000719Y34307985D01*
X40942460Y34355797D01*
X40875989Y34391326D01*
X40813306Y34433210D01*
X40743658Y34462059D01*
X40677185Y34497590D01*
X40605061Y34519468D01*
X40535410Y34548319D01*
X40461466Y34563027D01*
X40389344Y34584905D01*
X40314336Y34592293D01*
X40240396Y34607000D01*
X33815000Y34607000D01*
X33739999Y34614387D01*
X33664998Y34607000D01*
X33664989Y34607000D01*
X33440656Y34584905D01*
X33152815Y34497590D01*
X32887540Y34355797D01*
X32655024Y34164976D01*
X32607208Y34106712D01*
X31437000Y32936504D01*
X31437000Y33175472D01*
X31380240Y33460825D01*
X31268901Y33729622D01*
X31107261Y33971533D01*
X30901533Y34177261D01*
X30659622Y34338901D01*
X30390825Y34450240D01*
X30105472Y34507000D01*
X29814528Y34507000D01*
X29529175Y34450240D01*
X29260378Y34338901D01*
X29018467Y34177261D01*
X28812739Y33971533D01*
X28651099Y33729622D01*
X28539760Y33460825D01*
X28483000Y33175472D01*
X28483000Y32884528D01*
X28539760Y32599175D01*
X28549911Y32574669D01*
X23816970Y37307609D01*
X23816970Y40700000D01*
X28395612Y40700000D01*
X28403000Y40624989D01*
X28403000Y40549604D01*
X28403001Y40549599D01*
X28403000Y38084990D01*
X28425095Y37860657D01*
X28512410Y37572816D01*
X28654203Y37307541D01*
X28845024Y37075024D01*
X29077540Y36884203D01*
X29342815Y36742410D01*
X29630656Y36655095D01*
X29774844Y36640894D01*
X29814528Y36633000D01*
X29854989Y36633000D01*
X29930000Y36625612D01*
X30005011Y36633000D01*
X30105472Y36633000D01*
X30204006Y36652599D01*
X30229343Y36655095D01*
X30253707Y36662486D01*
X30390825Y36689760D01*
X30659622Y36801099D01*
X30901533Y36962739D01*
X31008518Y37069724D01*
X31014976Y37075024D01*
X31020276Y37081482D01*
X31107261Y37168467D01*
X31175605Y37270751D01*
X31205797Y37307540D01*
X31228232Y37349512D01*
X31268901Y37410378D01*
X31296913Y37478006D01*
X31347590Y37572815D01*
X31378797Y37675691D01*
X31380240Y37679175D01*
X31380976Y37682874D01*
X31434905Y37860656D01*
X31457000Y38084989D01*
X31457000Y39173000D01*
X40240396Y39173000D01*
X40314336Y39187707D01*
X40389344Y39195095D01*
X40461466Y39216973D01*
X40535410Y39231681D01*
X40605061Y39260532D01*
X40677185Y39282410D01*
X40743658Y39317941D01*
X40813306Y39346790D01*
X40875989Y39388674D01*
X40942460Y39424203D01*
X41000719Y39472015D01*
X41063406Y39513901D01*
X41116717Y39567212D01*
X41174976Y39615024D01*
X41222788Y39673283D01*
X41276099Y39726594D01*
X41317985Y39789281D01*
X41365797Y39847540D01*
X41401326Y39914011D01*
X41443210Y39976694D01*
X41472059Y40046342D01*
X41507590Y40112815D01*
X41529468Y40184939D01*
X41558319Y40254590D01*
X41573027Y40328534D01*
X41594905Y40400656D01*
X41602293Y40475664D01*
X41617000Y40549604D01*
X41617000Y40624989D01*
X41624388Y40700000D01*
X41617000Y40775011D01*
X41617000Y40850396D01*
X41602293Y40924336D01*
X41594905Y40999344D01*
X41573027Y41071466D01*
X41558319Y41145410D01*
X41529468Y41215061D01*
X41507590Y41287185D01*
X41472059Y41353658D01*
X41443210Y41423306D01*
X41401326Y41485989D01*
X41365797Y41552460D01*
X41317985Y41610719D01*
X41276099Y41673406D01*
X41222788Y41726717D01*
X41174976Y41784976D01*
X41116717Y41832788D01*
X41063406Y41886099D01*
X41000719Y41927985D01*
X40942460Y41975797D01*
X40875989Y42011326D01*
X40813306Y42053210D01*
X40743658Y42082059D01*
X40677185Y42117590D01*
X40605061Y42139468D01*
X40535410Y42168319D01*
X40461466Y42183027D01*
X40389344Y42204905D01*
X40314336Y42212293D01*
X40240396Y42227000D01*
X30005011Y42227000D01*
X29930000Y42234388D01*
X29854989Y42227000D01*
X29779604Y42227000D01*
X29705664Y42212293D01*
X29630656Y42204905D01*
X29558534Y42183027D01*
X29484590Y42168319D01*
X29414939Y42139468D01*
X29342815Y42117590D01*
X29276342Y42082059D01*
X29206694Y42053210D01*
X29144011Y42011326D01*
X29077540Y41975797D01*
X29019281Y41927985D01*
X28956594Y41886099D01*
X28903283Y41832788D01*
X28845024Y41784976D01*
X28797212Y41726717D01*
X28743901Y41673406D01*
X28702015Y41610719D01*
X28654203Y41552460D01*
X28618674Y41485989D01*
X28576790Y41423306D01*
X28547941Y41353658D01*
X28512410Y41287185D01*
X28490532Y41215061D01*
X28461681Y41145410D01*
X28446973Y41071466D01*
X28425095Y40999344D01*
X28417707Y40924336D01*
X28403000Y40850396D01*
X28403000Y40775011D01*
X28395612Y40700000D01*
X23816970Y40700000D01*
X23816970Y42037828D01*
X23824357Y42112829D01*
X23816970Y42187830D01*
X23816970Y42187839D01*
X23794875Y42412172D01*
X23707560Y42700013D01*
X23565767Y42965288D01*
X23374946Y43197804D01*
X23316682Y43245620D01*
X19167132Y47395170D01*
X30581000Y47395170D01*
X30581000Y47064830D01*
X30645446Y46740837D01*
X30771862Y46435643D01*
X30955389Y46160975D01*
X31188975Y45927389D01*
X31463643Y45743862D01*
X31768837Y45617446D01*
X32092830Y45553000D01*
X32423170Y45553000D01*
X32747163Y45617446D01*
X33052357Y45743862D01*
X33327025Y45927389D01*
X33560611Y46160975D01*
X33744138Y46435643D01*
X33870554Y46740837D01*
X33935000Y47064830D01*
X33935000Y47395170D01*
X33870554Y47719163D01*
X33744138Y48024357D01*
X33560611Y48299025D01*
X33327025Y48532611D01*
X33052357Y48716138D01*
X32747163Y48842554D01*
X32423170Y48907000D01*
X32092830Y48907000D01*
X31768837Y48842554D01*
X31463643Y48716138D01*
X31188975Y48532611D01*
X30955389Y48299025D01*
X30771862Y48024357D01*
X30645446Y47719163D01*
X30581000Y47395170D01*
X19167132Y47395170D01*
X18291595Y48270706D01*
X18243774Y48328976D01*
X18011258Y48519797D01*
X18001803Y48524851D01*
X12975010Y53551643D01*
X12975010Y54622140D01*
X12982397Y54697141D01*
X12975010Y54772142D01*
X12975010Y54772152D01*
X12952915Y54996485D01*
X12865600Y55284326D01*
X12723807Y55549601D01*
X12532986Y55782117D01*
X12474722Y55829933D01*
X9719485Y58585170D01*
X14579000Y58585170D01*
X14579000Y58254830D01*
X14643446Y57930837D01*
X14769862Y57625643D01*
X14953389Y57350975D01*
X15186975Y57117389D01*
X15461643Y56933862D01*
X15766837Y56807446D01*
X16090830Y56743000D01*
X16421170Y56743000D01*
X16745163Y56807446D01*
X17050357Y56933862D01*
X17325025Y57117389D01*
X17558611Y57350975D01*
X17742138Y57625643D01*
X17868554Y57930837D01*
X17933000Y58254830D01*
X17933000Y58585170D01*
X17868554Y58909163D01*
X17742138Y59214357D01*
X17558611Y59489025D01*
X17325025Y59722611D01*
X17050357Y59906138D01*
X16745163Y60032554D01*
X16421170Y60097000D01*
X16090830Y60097000D01*
X15766837Y60032554D01*
X15461643Y59906138D01*
X15186975Y59722611D01*
X14953389Y59489025D01*
X14769862Y59214357D01*
X14643446Y58909163D01*
X14579000Y58585170D01*
X9719485Y58585170D01*
X9619948Y58684706D01*
X9572127Y58742976D01*
X9339611Y58933797D01*
X9074336Y59075590D01*
X8786495Y59162905D01*
X8562162Y59185000D01*
X8562152Y59185000D01*
X8487151Y59192387D01*
X8412150Y59185000D01*
X7595346Y59185000D01*
X7430410Y59253319D01*
X7135396Y59312000D01*
X6834604Y59312000D01*
X6539590Y59253319D01*
X6261694Y59138210D01*
X6011594Y58971099D01*
X5831283Y58790788D01*
X5773024Y58742976D01*
X5582203Y58510460D01*
X5440410Y58245185D01*
X5353095Y57957344D01*
X5323612Y57658000D01*
X5353095Y57358656D01*
X5440410Y57070815D01*
X5582203Y56805540D01*
X5773024Y56573024D01*
X5982009Y56401514D01*
X5958283Y56377788D01*
X5900024Y56329976D01*
X5852212Y56271717D01*
X5798901Y56218406D01*
X5757015Y56155719D01*
X5709203Y56097460D01*
X5673674Y56030989D01*
X5631790Y55968306D01*
X5602941Y55898658D01*
X5567410Y55832185D01*
X5545532Y55760061D01*
X5516681Y55690410D01*
X5501973Y55616466D01*
X5480095Y55544344D01*
X5472707Y55469336D01*
X5458000Y55395396D01*
X5458000Y55320011D01*
X5450612Y55245000D01*
X5458000Y55169989D01*
X5458000Y55094604D01*
X5472707Y55020664D01*
X5480095Y54945656D01*
X5501973Y54873534D01*
X5516681Y54799590D01*
X5545532Y54729939D01*
X5567410Y54657815D01*
X5602941Y54591342D01*
X5631790Y54521694D01*
X5673674Y54459011D01*
X5709203Y54392540D01*
X5757015Y54334281D01*
X5798901Y54271594D01*
X5852212Y54218283D01*
X5900024Y54160024D01*
X5958283Y54112212D01*
X6011594Y54058901D01*
X6074281Y54017015D01*
X6132540Y53969203D01*
X6199011Y53933674D01*
X6261694Y53891790D01*
X6331342Y53862941D01*
X6397815Y53827410D01*
X6469939Y53805532D01*
X6539590Y53776681D01*
X6613534Y53761973D01*
X6685656Y53740095D01*
X6760664Y53732707D01*
X6834604Y53718000D01*
X7001613Y53718000D01*
X7058839Y53687412D01*
X7346680Y53600097D01*
X7646023Y53570614D01*
X7945368Y53600097D01*
X7972994Y53608477D01*
X8221000Y53360471D01*
X8221000Y52127812D01*
X8215306Y52070000D01*
X8221000Y52012189D01*
X8238031Y51839269D01*
X8305333Y51617404D01*
X8414626Y51412931D01*
X8561709Y51233709D01*
X8606623Y51196849D01*
X15343000Y44460470D01*
X7817169Y44460470D01*
X7708306Y44533210D01*
X7430410Y44648319D01*
X7135396Y44707000D01*
X6834604Y44707000D01*
X6539590Y44648319D01*
X6261694Y44533210D01*
X6011594Y44366099D01*
X5798901Y44153406D01*
X5631790Y43903306D01*
X5516681Y43625410D01*
X5458000Y43330396D01*
X5458000Y43029604D01*
X5516681Y42734590D01*
X5631790Y42456694D01*
X5798901Y42206594D01*
X6011594Y41993901D01*
X6261694Y41826790D01*
X6539590Y41711681D01*
X6834604Y41653000D01*
X7135396Y41653000D01*
X7430410Y41711681D01*
X7708306Y41826790D01*
X7958406Y41993901D01*
X8042800Y42078295D01*
X8072597Y42087334D01*
X8108398Y42106470D01*
X15328474Y42106470D01*
X17362951Y40071992D01*
X17362950Y13913656D01*
X16245862Y12796567D01*
X16224905Y13009344D01*
X16137590Y13297185D01*
X15995797Y13562460D01*
X15804976Y13794976D01*
X15579524Y13980000D01*
X15804976Y14165024D01*
X15995797Y14397540D01*
X16137590Y14662815D01*
X16224905Y14950656D01*
X16254388Y15250000D01*
X16224905Y15549344D01*
X16137590Y15837185D01*
X15995797Y16102460D01*
X15804976Y16334976D01*
X15579524Y16520000D01*
X15804976Y16705024D01*
X15995797Y16937540D01*
X16137590Y17202815D01*
X16224905Y17490656D01*
X16254388Y17790000D01*
X16224905Y18089344D01*
X16137590Y18377185D01*
X15995797Y18642460D01*
X15804976Y18874976D01*
X15579524Y19060000D01*
X15804976Y19245024D01*
X15995797Y19477540D01*
X16137590Y19742815D01*
X16224905Y20030656D01*
X16254388Y20330000D01*
X16224905Y20629344D01*
X16137590Y20917185D01*
X15995797Y21182460D01*
X15804976Y21414976D01*
X15579524Y21600000D01*
X15804976Y21785024D01*
X15995797Y22017540D01*
X16137590Y22282815D01*
X16224905Y22570656D01*
X16254388Y22870000D01*
X16224905Y23169344D01*
X16137590Y23457185D01*
X15995797Y23722460D01*
X15804976Y23954976D01*
X15579524Y24140000D01*
X15804976Y24325024D01*
X15995797Y24557540D01*
X16137590Y24822815D01*
X16224905Y25110656D01*
X16254388Y25410000D01*
X16224905Y25709344D01*
X16137590Y25997185D01*
X15995797Y26262460D01*
X15804976Y26494976D01*
X15579524Y26680000D01*
X15804976Y26865024D01*
X15995797Y27097540D01*
X16137590Y27362815D01*
X16224905Y27650656D01*
X16254388Y27950000D01*
X16224905Y28249344D01*
X16137590Y28537185D01*
X15995797Y28802460D01*
X15804976Y29034976D01*
X15572460Y29225797D01*
X15307185Y29367590D01*
X15019344Y29454905D01*
X14795011Y29477000D01*
X8161004Y29477000D01*
X8086000Y29484387D01*
X8010996Y29477000D01*
X8010989Y29477000D01*
X7909458Y29467000D01*
X7850604Y29467000D01*
X7792878Y29455518D01*
X7786656Y29454905D01*
X7780673Y29453090D01*
X7555590Y29408319D01*
X7277694Y29293210D01*
X7073000Y29156438D01*
X7073000Y32369989D01*
X7080388Y32445000D01*
X7073000Y32520011D01*
X7073000Y32595396D01*
X7058293Y32669336D01*
X7050905Y32744344D01*
X7029027Y32816466D01*
X7014319Y32890410D01*
X6985468Y32960061D01*
X6963590Y33032185D01*
X6928059Y33098658D01*
X6899210Y33168306D01*
X6857326Y33230989D01*
X6821797Y33297460D01*
X6773985Y33355719D01*
X6732099Y33418406D01*
X6678788Y33471717D01*
X6630976Y33529976D01*
X6572717Y33577788D01*
X6519406Y33631099D01*
X6456719Y33672985D01*
X6398460Y33720797D01*
X6331989Y33756326D01*
X6269306Y33798210D01*
X6199658Y33827059D01*
X6133185Y33862590D01*
X6061061Y33884468D01*
X5991410Y33913319D01*
X5917466Y33928027D01*
X5845344Y33949905D01*
X5770336Y33957293D01*
X5696396Y33972000D01*
X5621011Y33972000D01*
X5546000Y33979388D01*
X5470989Y33972000D01*
X5395604Y33972000D01*
X5321664Y33957293D01*
X5246656Y33949905D01*
X5174534Y33928027D01*
X5100590Y33913319D01*
X5030939Y33884468D01*
X4958815Y33862590D01*
X4892342Y33827059D01*
X4822694Y33798210D01*
X4760011Y33756326D01*
X4693540Y33720797D01*
X4635281Y33672985D01*
X4572594Y33631099D01*
X4519283Y33577788D01*
X4461024Y33529976D01*
X4413212Y33471717D01*
X4359901Y33418406D01*
X4318015Y33355719D01*
X4270203Y33297460D01*
X4234674Y33230989D01*
X4192790Y33168306D01*
X4163941Y33098658D01*
X4128410Y33032185D01*
X4106532Y32960061D01*
X4077681Y32890410D01*
X4062973Y32816466D01*
X4041095Y32744344D01*
X4033707Y32669336D01*
X4019000Y32595396D01*
X4019000Y32520011D01*
X4011612Y32445000D01*
X4019000Y32369989D01*
X4019000Y32294604D01*
X4019001Y32294599D01*
X4019001Y28448951D01*
X3992681Y28385410D01*
X3934000Y28090396D01*
X452000Y28090396D01*
X452000Y38255472D01*
X13243000Y38255472D01*
X13243000Y37964528D01*
X13299760Y37679175D01*
X13411099Y37410378D01*
X13572739Y37168467D01*
X13778467Y36962739D01*
X13962159Y36840000D01*
X13778467Y36717261D01*
X13572739Y36511533D01*
X13411099Y36269622D01*
X13299760Y36000825D01*
X13243000Y35715472D01*
X13243000Y35424528D01*
X13299760Y35139175D01*
X13411099Y34870378D01*
X13572739Y34628467D01*
X13778467Y34422739D01*
X13962159Y34300000D01*
X13778467Y34177261D01*
X13572739Y33971533D01*
X13411099Y33729622D01*
X13299760Y33460825D01*
X13243000Y33175472D01*
X13243000Y32884528D01*
X13299760Y32599175D01*
X13411099Y32330378D01*
X13572739Y32088467D01*
X13778467Y31882739D01*
X14020378Y31721099D01*
X14289175Y31609760D01*
X14574528Y31553000D01*
X14865472Y31553000D01*
X15150825Y31609760D01*
X15419622Y31721099D01*
X15661533Y31882739D01*
X15867261Y32088467D01*
X16028901Y32330378D01*
X16140240Y32599175D01*
X16197000Y32884528D01*
X16197000Y33175472D01*
X16140240Y33460825D01*
X16028901Y33729622D01*
X15867261Y33971533D01*
X15661533Y34177261D01*
X15477841Y34300000D01*
X15661533Y34422739D01*
X15867261Y34628467D01*
X16028901Y34870378D01*
X16140240Y35139175D01*
X16197000Y35424528D01*
X16197000Y35715472D01*
X16140240Y36000825D01*
X16028901Y36269622D01*
X15867261Y36511533D01*
X15661533Y36717261D01*
X15477841Y36840000D01*
X15661533Y36962739D01*
X15867261Y37168467D01*
X16028901Y37410378D01*
X16140240Y37679175D01*
X16197000Y37964528D01*
X16197000Y38255472D01*
X16140240Y38540825D01*
X16028901Y38809622D01*
X15867261Y39051533D01*
X15661533Y39257261D01*
X15419622Y39418901D01*
X15150825Y39530240D01*
X14865472Y39587000D01*
X14574528Y39587000D01*
X14289175Y39530240D01*
X14020378Y39418901D01*
X13778467Y39257261D01*
X13572739Y39051533D01*
X13411099Y38809622D01*
X13299760Y38540825D01*
X13243000Y38255472D01*
X452000Y38255472D01*
X452000Y61778000D01*
X27488001Y61778000D01*
X27488000Y52092205D01*
%TD*%
M02*
