M48
; DRILL file {KiCad (5.1.6)-1} date 05/01/23 02:02:25
; FORMAT={-:-/ absolute / metric / decimal}
; #@! TF.CreationDate,2023-05-01T02:02:25-05:00
; #@! TF.GenerationSoftware,Kicad,Pcbnew,(5.1.6)-1
FMAT,2
METRIC
T1C0.900
T2C1.000
T3C2.500
%
G90
G05
T1
X5.546Y32.445
X9.54Y83.82
X10.81Y74.93
X10.81Y72.39
X10.81Y69.85
X12.08Y81.28
X13.35Y88.9
X13.35Y76.2
X13.35Y69.85
X14.72Y2.55
X14.72Y5.09
X14.72Y7.63
X14.72Y10.17
X14.72Y12.71
X14.72Y15.25
X14.72Y17.79
X14.72Y20.33
X14.72Y22.87
X14.72Y25.41
X14.72Y27.95
X14.72Y30.49
X14.72Y33.03
X14.72Y35.57
X14.72Y38.11
X15.89Y88.9
X15.89Y76.2
X15.89Y69.85
X17.16Y83.82
X18.43Y69.85
X19.7Y81.28
X29.93Y40.7
X29.96Y2.55
X29.96Y5.09
X29.96Y7.63
X29.96Y10.17
X29.96Y12.71
X29.96Y15.25
X29.96Y17.79
X29.96Y20.33
X29.96Y22.87
X29.96Y25.41
X29.96Y27.95
X29.96Y30.49
X29.96Y33.03
X29.96Y35.57
X29.96Y38.11
X32.97Y12.76
X33.062Y29.008
X34.54Y72.51
X35.81Y58.54
X35.81Y61.08
X35.81Y63.62
X36.28Y33.08
X36.28Y22.92
X37.08Y69.97
X38.35Y77.59
X38.35Y64.89
X38.35Y58.54
X40.89Y58.54
X40.89Y64.89
X40.89Y77.59
X42.16Y72.51
X43.43Y58.54
X44.7Y69.97
T2
X2.921Y12.7
X2.921Y15.24
X2.921Y17.78
X2.921Y20.32
X2.921Y22.86
X2.921Y25.4
X2.921Y27.94
X5.461Y27.94
X5.461Y25.4
X5.461Y22.86
X5.461Y20.32
X5.461Y17.78
X5.461Y15.24
X5.461Y12.7
X6.985Y43.18
X6.985Y45.72
X6.985Y52.705
X6.985Y55.245
X6.985Y57.785
X8.001Y27.94
X8.001Y25.4
X8.001Y22.86
X8.001Y20.32
X8.001Y17.78
X8.001Y15.24
X8.001Y12.7
X40.09Y15.3
X40.09Y17.84
X40.09Y20.38
X40.09Y22.92
X40.09Y28.0
X40.09Y30.54
X40.09Y33.08
X40.09Y35.62
X40.09Y40.7
X40.09Y43.24
T3
X4.0Y80.31
X4.84Y5.08
X16.256Y58.42
X26.0Y80.31
X29.0Y69.0
X32.258Y47.23
X37.84Y5.23
X51.0Y69.0
T0
M30
