%TF.GenerationSoftware,KiCad,Pcbnew,(5.1.6)-1*%
%TF.CreationDate,2023-05-01T01:46:13-05:00*%
%TF.ProjectId,combined,636f6d62-696e-4656-942e-6b696361645f,rev?*%
%TF.SameCoordinates,Original*%
%TF.FileFunction,Soldermask,Bot*%
%TF.FilePolarity,Negative*%
%FSLAX46Y46*%
G04 Gerber Fmt 4.6, Leading zero omitted, Abs format (unit mm)*
G04 Created by KiCad (PCBNEW (5.1.6)-1) date 2023-05-01 01:46:13*
%MOMM*%
%LPD*%
G01*
G04 APERTURE LIST*
%ADD10C,2.600000*%
%ADD11C,2.300000*%
%ADD12C,2.200000*%
G04 APERTURE END LIST*
D10*
%TO.C,REF\u002A\u002A*%
X4000000Y80310000D03*
%TD*%
%TO.C,REF\u002A\u002A*%
X26000000Y80310000D03*
%TD*%
D11*
%TO.C,C1*%
X10810000Y74930000D03*
X10810000Y72390000D03*
%TD*%
%TO.C,D1*%
X15890000Y88900000D03*
X13350000Y88900000D03*
%TD*%
%TO.C,D2*%
X13350000Y76200000D03*
X15890000Y76200000D03*
%TD*%
%TO.C,J1*%
X10810000Y69850000D03*
X13350000Y69850000D03*
X15890000Y69850000D03*
X18430000Y69850000D03*
%TD*%
%TO.C,R1*%
X12080000Y81280000D03*
X19700000Y81280000D03*
%TD*%
%TO.C,R2*%
X9540000Y83820000D03*
X17160000Y83820000D03*
%TD*%
D10*
%TO.C,REF\u002A\u002A*%
X29000000Y69000000D03*
%TD*%
%TO.C,REF\u002A\u002A*%
X51000000Y69000000D03*
%TD*%
D11*
%TO.C,C1*%
X35810000Y61080000D03*
X35810000Y63620000D03*
%TD*%
%TO.C,D1*%
X38350000Y77590000D03*
X40890000Y77590000D03*
%TD*%
%TO.C,D2*%
X40890000Y64890000D03*
X38350000Y64890000D03*
%TD*%
%TO.C,J1*%
X43430000Y58540000D03*
X40890000Y58540000D03*
X38350000Y58540000D03*
X35810000Y58540000D03*
%TD*%
%TO.C,R1*%
X44700000Y69970000D03*
X37080000Y69970000D03*
%TD*%
%TO.C,R2*%
X42160000Y72510000D03*
X34540000Y72510000D03*
%TD*%
D10*
%TO.C,REF\u002A\u002A*%
X4840000Y5080000D03*
%TD*%
%TO.C,REF\u002A\u002A*%
X37840000Y5230000D03*
%TD*%
%TO.C,REF\u002A\u002A*%
X32258000Y47230000D03*
%TD*%
%TO.C,REF\u002A\u002A*%
X16256000Y58420000D03*
%TD*%
D11*
%TO.C,J11*%
X2921000Y12700000D03*
X5461000Y12700000D03*
X8001000Y12700000D03*
%TD*%
%TO.C,J10*%
X2921000Y15240000D03*
X5461000Y15240000D03*
X8001000Y15240000D03*
%TD*%
%TO.C,J9*%
X2921000Y17780000D03*
X5461000Y17780000D03*
X8001000Y17780000D03*
%TD*%
%TO.C,J8*%
X2921000Y20320000D03*
X5461000Y20320000D03*
X8001000Y20320000D03*
%TD*%
%TO.C,J7*%
X2921000Y22860000D03*
X5461000Y22860000D03*
X8001000Y22860000D03*
%TD*%
%TO.C,J6*%
X2921000Y25400000D03*
X5461000Y25400000D03*
X8001000Y25400000D03*
%TD*%
%TO.C,J5*%
X2921000Y27940000D03*
X5461000Y27940000D03*
X8001000Y27940000D03*
%TD*%
%TO.C,J1*%
X40090000Y43240000D03*
X40090000Y40700000D03*
%TD*%
%TO.C,J2*%
X40090000Y35620000D03*
X40090000Y33080000D03*
X40090000Y30540000D03*
X40090000Y28000000D03*
%TD*%
%TO.C,J3*%
X40090000Y15300000D03*
X40090000Y17840000D03*
X40090000Y20380000D03*
X40090000Y22920000D03*
%TD*%
%TO.C,J12*%
X6985000Y52705000D03*
X6985000Y55245000D03*
X6985000Y57785000D03*
%TD*%
%TO.C,J14*%
X6985000Y45720000D03*
X6985000Y43180000D03*
%TD*%
D12*
%TO.C,U1*%
X29960000Y38110000D03*
X29960000Y35570000D03*
X29960000Y33030000D03*
X29960000Y30490000D03*
X29960000Y27950000D03*
X29960000Y25410000D03*
X29960000Y22870000D03*
X29960000Y20330000D03*
X29960000Y17790000D03*
X29960000Y15250000D03*
X29960000Y12710000D03*
X29960000Y10170000D03*
X29960000Y7630000D03*
X29960000Y5090000D03*
X29960000Y2550000D03*
X14720000Y2550000D03*
X14720000Y5090000D03*
X14720000Y7630000D03*
X14720000Y10170000D03*
X14720000Y12710000D03*
X14720000Y15250000D03*
X14720000Y17790000D03*
X14720000Y20330000D03*
X14720000Y22870000D03*
X14720000Y25410000D03*
X14720000Y27950000D03*
X14720000Y30490000D03*
X14720000Y33030000D03*
X14720000Y35570000D03*
X14720000Y38110000D03*
%TD*%
D11*
X33062063Y29007937D03*
X32970000Y12760000D03*
X5546000Y32445000D03*
X29930000Y40700000D03*
X36280000Y33080000D03*
X36280000Y22920000D03*
M02*
